<?xml version="1.0" encoding="utf-8"?>
<svg xmlns="http://www.w3.org/2000/svg" xmlns:xlink="http://www.w3.org/1999/xlink" width="600" height="400" viewBox="0 0 2400 1600">
<defs>
  <clipPath id="clip5200">
    <rect x="0" y="0" width="2400" height="1600"/>
  </clipPath>
</defs>
<path clip-path="url(#clip5200)" d="
M0 1600 L2400 1600 L2400 0 L0 0  Z
  " fill="#ffffff" fill-rule="evenodd" fill-opacity="1"/>
<defs>
  <clipPath id="clip5201">
    <rect x="480" y="0" width="1681" height="1600"/>
  </clipPath>
</defs>
<path clip-path="url(#clip5200)" d="
M102.74 1505.26 L2352.76 1505.26 L2352.76 47.2441 L102.74 47.2441  Z
  " fill="#ffffff" fill-rule="evenodd" fill-opacity="1"/>
<defs>
  <clipPath id="clip5202">
    <rect x="102" y="47" width="2251" height="1459"/>
  </clipPath>
</defs>
<polyline clip-path="url(#clip5202)" style="stroke:#000000; stroke-width:2; stroke-opacity:0.1; fill:none" points="
  583.37,1505.26 583.37,47.2441 
  "/>
<polyline clip-path="url(#clip5202)" style="stroke:#000000; stroke-width:2; stroke-opacity:0.1; fill:none" points="
  1124.86,1505.26 1124.86,47.2441 
  "/>
<polyline clip-path="url(#clip5202)" style="stroke:#000000; stroke-width:2; stroke-opacity:0.1; fill:none" points="
  1666.36,1505.26 1666.36,47.2441 
  "/>
<polyline clip-path="url(#clip5202)" style="stroke:#000000; stroke-width:2; stroke-opacity:0.1; fill:none" points="
  2207.85,1505.26 2207.85,47.2441 
  "/>
<polyline clip-path="url(#clip5202)" style="stroke:#000000; stroke-width:2; stroke-opacity:0.1; fill:none" points="
  102.74,1503.33 2352.76,1503.33 
  "/>
<polyline clip-path="url(#clip5202)" style="stroke:#000000; stroke-width:2; stroke-opacity:0.1; fill:none" points="
  102.74,1268.02 2352.76,1268.02 
  "/>
<polyline clip-path="url(#clip5202)" style="stroke:#000000; stroke-width:2; stroke-opacity:0.1; fill:none" points="
  102.74,1032.71 2352.76,1032.71 
  "/>
<polyline clip-path="url(#clip5202)" style="stroke:#000000; stroke-width:2; stroke-opacity:0.1; fill:none" points="
  102.74,797.402 2352.76,797.402 
  "/>
<polyline clip-path="url(#clip5202)" style="stroke:#000000; stroke-width:2; stroke-opacity:0.1; fill:none" points="
  102.74,562.094 2352.76,562.094 
  "/>
<polyline clip-path="url(#clip5202)" style="stroke:#000000; stroke-width:2; stroke-opacity:0.1; fill:none" points="
  102.74,326.785 2352.76,326.785 
  "/>
<polyline clip-path="url(#clip5202)" style="stroke:#000000; stroke-width:2; stroke-opacity:0.1; fill:none" points="
  102.74,91.4767 2352.76,91.4767 
  "/>
<polyline clip-path="url(#clip5200)" style="stroke:#000000; stroke-width:4; stroke-opacity:1; fill:none" points="
  102.74,1505.26 2352.76,1505.26 
  "/>
<polyline clip-path="url(#clip5200)" style="stroke:#000000; stroke-width:4; stroke-opacity:1; fill:none" points="
  102.74,1505.26 102.74,47.2441 
  "/>
<polyline clip-path="url(#clip5200)" style="stroke:#000000; stroke-width:4; stroke-opacity:1; fill:none" points="
  583.37,1505.26 583.37,1487.76 
  "/>
<polyline clip-path="url(#clip5200)" style="stroke:#000000; stroke-width:4; stroke-opacity:1; fill:none" points="
  1124.86,1505.26 1124.86,1487.76 
  "/>
<polyline clip-path="url(#clip5200)" style="stroke:#000000; stroke-width:4; stroke-opacity:1; fill:none" points="
  1666.36,1505.26 1666.36,1487.76 
  "/>
<polyline clip-path="url(#clip5200)" style="stroke:#000000; stroke-width:4; stroke-opacity:1; fill:none" points="
  2207.85,1505.26 2207.85,1487.76 
  "/>
<polyline clip-path="url(#clip5200)" style="stroke:#000000; stroke-width:4; stroke-opacity:1; fill:none" points="
  102.74,1503.33 129.74,1503.33 
  "/>
<polyline clip-path="url(#clip5200)" style="stroke:#000000; stroke-width:4; stroke-opacity:1; fill:none" points="
  102.74,1268.02 129.74,1268.02 
  "/>
<polyline clip-path="url(#clip5200)" style="stroke:#000000; stroke-width:4; stroke-opacity:1; fill:none" points="
  102.74,1032.71 129.74,1032.71 
  "/>
<polyline clip-path="url(#clip5200)" style="stroke:#000000; stroke-width:4; stroke-opacity:1; fill:none" points="
  102.74,797.402 129.74,797.402 
  "/>
<polyline clip-path="url(#clip5200)" style="stroke:#000000; stroke-width:4; stroke-opacity:1; fill:none" points="
  102.74,562.094 129.74,562.094 
  "/>
<polyline clip-path="url(#clip5200)" style="stroke:#000000; stroke-width:4; stroke-opacity:1; fill:none" points="
  102.74,326.785 129.74,326.785 
  "/>
<polyline clip-path="url(#clip5200)" style="stroke:#000000; stroke-width:4; stroke-opacity:1; fill:none" points="
  102.74,91.4767 129.74,91.4767 
  "/>
<g clip-path="url(#clip5200)">
<text style="fill:#000000; fill-opacity:1; font-family:Arial,Helvetica Neue,Helvetica,sans-serif; font-size:48px; text-anchor:middle;" transform="rotate(0, 583.37, 1559.26)" x="583.37" y="1559.26">2</text>
</g>
<g clip-path="url(#clip5200)">
<text style="fill:#000000; fill-opacity:1; font-family:Arial,Helvetica Neue,Helvetica,sans-serif; font-size:48px; text-anchor:middle;" transform="rotate(0, 1124.86, 1559.26)" x="1124.86" y="1559.26">4</text>
</g>
<g clip-path="url(#clip5200)">
<text style="fill:#000000; fill-opacity:1; font-family:Arial,Helvetica Neue,Helvetica,sans-serif; font-size:48px; text-anchor:middle;" transform="rotate(0, 1666.36, 1559.26)" x="1666.36" y="1559.26">6</text>
</g>
<g clip-path="url(#clip5200)">
<text style="fill:#000000; fill-opacity:1; font-family:Arial,Helvetica Neue,Helvetica,sans-serif; font-size:48px; text-anchor:middle;" transform="rotate(0, 2207.85, 1559.26)" x="2207.85" y="1559.26">8</text>
</g>
<g clip-path="url(#clip5200)">
<text style="fill:#000000; fill-opacity:1; font-family:Arial,Helvetica Neue,Helvetica,sans-serif; font-size:48px; text-anchor:end;" transform="rotate(0, 78.7402, 1520.83)" x="78.7402" y="1520.83">-1</text>
</g>
<g clip-path="url(#clip5200)">
<text style="fill:#000000; fill-opacity:1; font-family:Arial,Helvetica Neue,Helvetica,sans-serif; font-size:48px; text-anchor:end;" transform="rotate(0, 78.7402, 1285.52)" x="78.7402" y="1285.52">0</text>
</g>
<g clip-path="url(#clip5200)">
<text style="fill:#000000; fill-opacity:1; font-family:Arial,Helvetica Neue,Helvetica,sans-serif; font-size:48px; text-anchor:end;" transform="rotate(0, 78.7402, 1050.21)" x="78.7402" y="1050.21">1</text>
</g>
<g clip-path="url(#clip5200)">
<text style="fill:#000000; fill-opacity:1; font-family:Arial,Helvetica Neue,Helvetica,sans-serif; font-size:48px; text-anchor:end;" transform="rotate(0, 78.7402, 814.902)" x="78.7402" y="814.902">2</text>
</g>
<g clip-path="url(#clip5200)">
<text style="fill:#000000; fill-opacity:1; font-family:Arial,Helvetica Neue,Helvetica,sans-serif; font-size:48px; text-anchor:end;" transform="rotate(0, 78.7402, 579.594)" x="78.7402" y="579.594">3</text>
</g>
<g clip-path="url(#clip5200)">
<text style="fill:#000000; fill-opacity:1; font-family:Arial,Helvetica Neue,Helvetica,sans-serif; font-size:48px; text-anchor:end;" transform="rotate(0, 78.7402, 344.285)" x="78.7402" y="344.285">4</text>
</g>
<g clip-path="url(#clip5200)">
<text style="fill:#000000; fill-opacity:1; font-family:Arial,Helvetica Neue,Helvetica,sans-serif; font-size:48px; text-anchor:end;" transform="rotate(0, 78.7402, 108.977)" x="78.7402" y="108.977">5</text>
</g>
<g clip-path="url(#clip5200)">
<text style="fill:#000000; fill-opacity:1; font-family:Arial,Helvetica Neue,Helvetica,sans-serif; font-size:66px; text-anchor:middle;" transform="rotate(-90, -11.6944, 776.252)" x="-11.6944" y="776.252">E(B-V)</text>
</g>
<polyline clip-path="url(#clip5202)" style="stroke:#009af9; stroke-width:4; stroke-opacity:1; fill:none" points="
  166.42,1464 168.545,1461.44 170.669,1458.89 172.794,1456.34 174.919,1453.78 177.044,1451.23 179.169,1448.68 181.293,1446.12 183.418,1443.57 185.543,1441.02 
  187.668,1438.46 189.792,1435.91 191.917,1433.36 194.042,1430.8 196.167,1428.25 198.292,1425.7 200.416,1423.14 202.541,1420.59 204.666,1418.04 206.791,1415.48 
  208.915,1412.93 211.04,1410.37 213.165,1407.82 215.29,1405.27 217.415,1402.71 219.539,1400.16 221.664,1397.61 223.789,1395.05 225.914,1392.5 228.039,1389.95 
  230.163,1387.39 232.288,1384.84 234.413,1382.29 236.538,1379.73 238.662,1377.18 240.787,1374.63 242.912,1372.07 245.037,1369.52 247.162,1366.97 249.286,1364.41 
  251.411,1361.86 253.536,1359.31 255.661,1356.75 257.785,1354.2 259.91,1351.65 262.035,1349.09 264.16,1346.54 266.285,1343.99 268.409,1341.43 270.534,1338.88 
  272.659,1336.33 274.784,1333.77 276.908,1331.22 279.033,1328.67 281.158,1326.11 283.283,1323.56 285.408,1321.01 287.532,1318.45 289.657,1315.9 291.782,1313.35 
  293.907,1310.79 296.031,1308.24 298.156,1305.69 300.281,1303.13 302.406,1300.58 304.531,1298.03 306.655,1295.47 308.78,1292.92 310.905,1290.37 313.03,1287.81 
  315.155,1285.26 317.279,1282.71 319.404,1280.15 321.529,1277.6 323.654,1275.05 325.778,1272.49 327.903,1269.94 330.028,1267.39 332.153,1264.83 334.278,1262.28 
  336.402,1259.73 338.527,1257.17 340.652,1254.62 342.777,1252.07 344.901,1249.51 347.026,1246.96 349.151,1244.41 351.276,1241.85 353.401,1239.3 355.525,1236.75 
  357.65,1234.19 359.775,1231.64 361.9,1229.09 364.024,1226.53 366.149,1223.98 368.274,1221.43 370.399,1218.87 372.524,1216.32 374.648,1213.77 376.773,1211.21 
  378.898,1208.66 381.023,1206.11 383.148,1203.55 385.272,1201 387.397,1198.45 389.522,1195.89 391.647,1193.34 393.771,1190.79 395.896,1188.23 398.021,1185.68 
  400.146,1183.13 402.271,1180.57 404.395,1178.02 406.52,1175.47 408.645,1172.91 410.77,1170.36 412.894,1167.81 415.019,1165.25 417.144,1162.7 419.269,1160.15 
  421.394,1157.59 423.518,1155.04 425.643,1152.49 427.768,1149.93 429.893,1147.38 432.017,1144.83 434.142,1142.27 436.267,1139.72 438.392,1137.17 440.517,1134.61 
  442.641,1132.06 444.766,1129.51 446.891,1126.95 449.016,1124.4 451.141,1121.85 453.265,1119.29 455.39,1116.74 457.515,1114.19 459.64,1111.63 461.764,1109.08 
  463.889,1106.53 466.014,1103.97 468.139,1101.42 470.264,1098.87 472.388,1099.33 474.513,1096.97 476.638,1094.61 478.763,1092.26 480.887,1089.92 483.012,1087.58 
  485.137,1085.25 487.262,1082.92 489.387,1080.6 491.511,1078.28 493.636,1075.97 495.761,1073.67 497.886,1071.37 500.01,1069.07 502.135,1066.78 504.26,1064.5 
  506.385,1062.22 508.51,1059.95 510.634,1057.68 512.759,1055.42 514.884,1053.16 517.009,1050.91 519.134,1048.67 521.258,1046.43 523.383,1044.19 525.508,1041.96 
  527.633,1039.74 529.757,1037.52 531.882,1035.31 534.007,1033.1 536.132,1030.9 538.257,1028.7 540.381,1026.51 542.506,1024.32 544.631,1022.14 546.756,1019.96 
  548.88,1017.79 551.005,1015.63 553.13,1013.47 555.255,1011.31 557.38,1009.16 559.504,1007.02 561.629,1004.88 563.754,1002.74 565.879,1000.61 568.003,998.49 
  570.128,996.371 572.253,994.257 574.378,992.149 576.503,990.045 578.627,987.947 580.752,985.853 582.877,983.765 585.002,981.682 587.127,979.604 589.251,977.531 
  591.376,975.464 593.501,973.401 595.626,971.343 597.75,969.29 599.875,967.243 602,965.2 604.125,963.162 606.25,961.129 608.374,959.102 610.499,957.079 
  612.624,955.061 614.749,953.048 616.873,951.04 618.998,949.037 621.123,947.039 623.248,945.046 625.373,943.058 627.497,941.075 629.622,939.096 631.747,937.122 
  633.872,935.154 635.996,933.19 638.121,931.231 640.246,929.276 642.371,927.327 644.496,925.382 646.62,923.443 648.745,921.508 650.87,919.577 652.995,917.652 
  655.12,915.731 657.244,913.815 659.369,911.904 661.494,909.997 663.619,908.096 665.743,906.199 667.868,904.306 669.993,902.419 672.118,900.536 674.243,898.657 
  676.367,896.784 678.492,894.915 680.617,893.05 682.742,891.19 684.866,889.335 686.991,887.485 689.116,885.639 691.241,883.798 693.366,881.961 695.49,880.129 
  697.615,878.301 699.74,876.478 701.865,874.659 703.989,872.845 706.114,871.036 708.239,869.231 710.364,867.43 712.489,865.634 714.613,863.843 716.738,862.056 
  718.863,860.273 720.988,858.495 723.113,856.722 725.237,854.952 727.362,853.188 729.487,851.427 731.612,849.671 733.736,847.919 735.861,846.172 737.986,844.429 
  740.111,842.691 742.236,840.957 744.36,839.227 746.485,837.501 748.61,835.78 750.735,834.063 752.859,832.351 754.984,830.642 757.109,828.938 759.234,827.239 
  761.359,825.543 763.483,823.852 765.608,822.165 767.733,820.482 769.858,818.804 771.982,817.13 774.107,815.459 776.232,813.794 778.357,812.132 780.482,810.474 
  782.606,808.821 784.731,807.172 786.856,805.526 788.981,803.886 791.106,802.249 793.23,800.616 795.355,798.987 797.48,797.363 799.605,795.742 801.729,794.126 
  803.854,792.513 805.979,790.905 808.104,789.301 810.229,787.701 812.353,786.105 814.478,784.512 816.603,782.924 818.728,781.34 820.852,779.76 822.977,778.184 
  825.102,776.611 827.227,775.043 829.352,773.479 831.476,771.918 833.601,770.362 835.726,768.809 837.851,767.26 839.975,765.715 842.1,764.174 844.225,762.637 
  846.35,761.104 848.475,759.575 850.599,758.049 852.724,756.528 854.849,755.01 856.974,753.496 859.099,751.985 861.223,750.479 863.348,748.976 865.473,747.477 
  867.598,745.982 869.722,744.491 871.847,743.003 873.972,741.519 876.097,740.039 878.222,738.562 880.346,737.09 882.471,735.621 884.596,734.155 886.721,732.693 
  888.845,731.235 890.97,729.781 893.095,728.33 895.22,726.883 897.345,725.439 899.469,723.999 901.594,722.563 903.719,721.13 905.844,719.701 907.968,718.276 
  910.093,716.854 912.218,715.435 914.343,714.02 916.468,712.609 918.592,711.201 920.717,709.797 922.842,708.396 924.967,706.998 927.091,705.605 929.216,704.214 
  931.341,702.827 933.466,701.444 935.591,700.064 937.715,698.687 939.84,697.314 941.965,695.944 944.09,694.578 946.215,693.215 948.339,691.855 950.464,690.499 
  952.589,689.146 954.714,687.796 956.838,686.45 958.963,685.107 961.088,683.768 963.213,682.432 965.338,681.099 967.462,679.769 969.587,678.443 971.712,677.12 
  973.837,675.8 975.961,674.484 978.086,673.17 980.211,671.86 982.336,670.553 984.461,669.25 986.585,667.949 988.71,666.652 990.835,665.358 992.96,664.067 
  995.084,662.779 997.209,661.495 999.334,660.213 1001.46,658.935 1003.58,657.66 1005.71,656.388 1007.83,655.119 1009.96,653.853 1012.08,652.59 1014.21,651.331 
  1016.33,650.074 1018.46,648.82 1020.58,647.57 1022.71,646.322 1024.83,645.078 1026.96,643.836 1029.08,642.598 1031.21,641.362 1033.33,640.13 1035.46,638.9 
  1037.58,637.674 1039.7,636.45 1041.83,635.23 1043.95,634.012 1046.08,632.797 1048.2,631.585 1050.33,630.376 1052.45,629.17 1054.58,627.967 1056.7,626.767 
  1058.83,625.569 1060.95,624.374 1063.08,623.183 1065.2,621.994 1067.33,620.808 1069.45,619.624 1071.58,618.444 1073.7,617.266 1075.83,616.091 1077.95,614.919 
  1080.08,613.75 1082.2,612.583 1084.33,611.419 1086.45,610.258 1088.57,609.1 1090.7,607.944 1092.82,606.791 1094.95,605.641 1097.07,604.493 1099.2,603.348 
  1101.32,602.206 1103.45,601.066 1105.57,599.929 1107.7,598.795 1109.82,597.663 1111.95,596.534 1114.07,595.407 1116.2,594.283 1118.32,593.162 1120.45,592.043 
  1122.57,590.927 1124.7,589.813 1126.82,588.702 1128.95,587.594 1131.07,586.488 1133.2,585.384 1135.32,584.283 1137.44,583.184 1139.57,582.088 1141.69,580.995 
  1143.82,579.904 1145.94,578.815 1148.07,577.729 1150.19,576.645 1152.32,575.564 1154.44,574.485 1156.57,573.408 1158.69,572.334 1160.82,571.262 1162.94,570.193 
  1165.07,569.126 1167.19,568.061 1169.32,566.999 1171.44,565.939 1173.57,564.881 1175.69,563.826 1177.82,562.773 1179.94,561.722 1182.07,560.674 1184.19,559.627 
  1186.31,558.584 1188.44,557.542 1190.56,556.502 1192.69,555.465 1194.81,554.43 1196.94,553.398 1199.06,552.367 1201.19,551.339 1203.31,550.312 1205.44,549.288 
  1207.56,548.267 1209.69,547.247 1211.81,546.229 1213.94,545.214 1216.06,544.201 1218.19,543.19 1220.31,542.181 1222.44,541.174 1224.56,540.169 1226.69,539.166 
  1228.81,538.165 1230.94,537.167 1233.06,536.17 1235.18,535.175 1237.31,534.183 1239.43,533.192 1241.56,532.204 1243.68,531.217 1245.81,530.233 1247.93,529.25 
  1250.06,528.269 1252.18,527.291 1254.31,526.314 1256.43,525.339 1258.56,524.366 1260.68,523.395 1262.81,522.426 1264.93,521.459 1267.06,520.494 1269.18,519.53 
  1271.31,518.569 1273.43,517.609 1275.56,516.651 1277.68,515.695 1279.81,514.741 1281.93,513.789 1284.05,512.838 1286.18,511.89 1288.3,510.943 1290.43,509.998 
  1292.55,509.054 1294.68,508.112 1296.8,507.173 1298.93,506.234 1301.05,505.298 1303.18,504.363 1305.3,503.43 1307.43,502.499 1309.55,501.569 1311.68,500.641 
  1313.8,499.715 1315.93,498.79 1318.05,497.867 1320.18,496.946 1322.3,496.026 1324.43,495.108 1326.55,494.191 1328.68,493.277 1330.8,492.363 1332.92,491.451 
  1335.05,490.541 1337.17,489.633 1339.3,488.725 1341.42,487.82 1343.55,486.916 1345.67,486.013 1347.8,485.112 1349.92,484.213 1352.05,483.315 1354.17,482.418 
  1356.3,481.523 1358.42,480.63 1360.55,479.737 1362.67,478.847 1364.8,477.957 1366.92,477.069 1369.05,476.183 1371.17,475.298 1373.3,474.414 1375.42,473.532 
  1377.55,472.651 1379.67,471.771 1381.79,470.893 1383.92,470.016 1386.04,469.14 1388.17,468.266 1390.29,467.393 1392.42,466.521 1394.54,465.651 1396.67,464.782 
  1398.79,463.914 1400.92,463.047 1403.04,462.182 1405.17,461.318 1407.29,460.455 1409.42,459.593 1411.54,458.733 1413.67,457.874 1415.79,457.016 1417.92,456.159 
  1420.04,455.303 1422.17,454.448 1424.29,453.595 1426.42,452.743 1428.54,451.891 1430.66,451.041 1432.79,450.192 1434.91,449.345 1437.04,448.498 1439.16,447.652 
  1441.29,446.807 1443.41,445.964 1445.54,445.121 1447.66,444.28 1449.79,443.439 1451.91,442.6 1454.04,441.762 1456.16,440.924 1458.29,440.088 1460.41,439.252 
  1462.54,438.418 1464.66,437.584 1466.79,436.752 1468.91,435.92 1471.04,435.089 1473.16,434.259 1475.29,433.431 1477.41,432.603 1479.53,431.775 1481.66,430.949 
  1483.78,430.124 1485.91,429.299 1488.03,428.476 1490.16,427.653 1492.28,426.831 1494.41,426.01 1496.53,425.189 1498.66,424.37 1500.78,423.551 1502.91,422.733 
  1505.03,421.916 1507.16,421.099 1509.28,420.283 1511.41,419.468 1513.53,418.654 1515.66,417.841 1517.78,417.028 1519.91,416.216 1522.03,415.404 1524.16,414.593 
  1526.28,413.783 1528.4,412.974 1530.53,412.165 1532.65,411.357 1534.78,410.549 1536.9,409.742 1539.03,408.936 1541.15,408.13 1543.28,407.325 1545.4,406.521 
  1547.53,405.717 1549.65,404.913 1551.78,404.11 1553.9,403.308 1556.03,402.506 1558.15,401.705 1560.28,400.904 1562.4,400.104 1564.53,399.304 1566.65,398.505 
  1568.78,397.706 1570.9,396.907 1573.02,396.109 1575.15,395.312 1577.27,394.515 1579.4,393.718 1581.52,392.922 1583.65,392.126 1585.77,391.331 1587.9,390.535 
  1590.02,389.741 1592.15,388.946 1594.27,388.152 1596.4,387.359 1598.52,386.565 1600.65,385.772 1602.77,384.98 1604.9,384.187 1607.02,383.395 1609.15,382.603 
  1611.27,381.812 1613.4,381.02 1615.52,380.229 1617.65,379.438 1619.77,378.648 1621.89,377.857 1624.02,377.067 1626.14,376.277 1628.27,375.487 1630.39,374.698 
  1632.52,373.908 1634.64,373.119 1636.77,372.33 1638.89,371.541 1641.02,370.752 1643.14,369.963 1645.27,369.175 1647.39,368.386 1649.52,367.598 1651.64,366.809 
  1653.77,366.021 1655.89,365.233 1658.02,364.444 1660.14,363.656 1662.27,362.868 1664.39,362.08 1666.52,361.292 1668.64,360.504 1670.76,359.716 1672.89,358.928 
  1675.01,358.139 1677.14,357.351 1679.26,356.563 1681.39,355.775 1683.51,354.986 1685.64,354.198 1687.76,353.409 1689.89,352.621 1692.01,351.832 1694.14,351.043 
  1696.26,350.254 1698.39,349.465 1700.51,348.675 1702.64,347.886 1704.76,347.096 1706.89,346.307 1709.01,345.517 1711.14,344.726 1713.26,343.936 1715.39,343.145 
  1717.51,342.354 1719.63,341.563 1721.76,340.772 1723.88,339.98 1726.01,339.188 1728.13,338.396 1730.26,337.604 1732.38,336.811 1734.51,336.018 1736.63,335.224 
  1738.76,334.431 1740.88,333.637 1743.01,332.842 1745.13,332.048 1747.26,331.252 1749.38,330.457 1751.51,329.661 1753.63,328.865 1755.76,328.068 1757.88,327.271 
  1760.01,326.473 1762.13,325.675 1764.26,324.877 1766.38,324.078 1768.5,323.278 1770.63,322.478 1772.75,321.678 1774.88,320.877 1777,320.076 1779.13,319.274 
  1781.25,318.472 1783.38,317.669 1785.5,316.865 1787.63,316.061 1789.75,315.256 1791.88,314.451 1794,313.645 1796.13,312.839 1798.25,312.032 1800.38,311.224 
  1802.5,310.416 1804.63,309.607 1806.75,308.798 1808.88,307.987 1811,307.176 1813.13,306.365 1815.25,305.553 1817.37,304.74 1819.5,303.926 1821.62,303.112 
  1823.75,302.297 1825.87,301.481 1828,300.664 1830.12,299.847 1832.25,299.029 1834.37,298.21 1836.5,297.39 1838.62,296.569 1840.75,295.748 1842.87,294.926 
  1845,294.103 1847.12,293.279 1849.25,292.455 1851.37,291.629 1853.5,290.803 1855.62,289.976 1857.75,289.147 1859.87,288.318 1862,287.488 1864.12,286.658 
  1866.24,285.826 1868.37,284.993 1870.49,284.159 1872.62,283.325 1874.74,282.489 1876.87,281.653 1878.99,280.815 1881.12,279.976 1883.24,279.137 1885.37,278.296 
  1887.49,277.455 1889.62,276.612 1891.74,275.768 1893.87,274.923 1895.99,274.078 1898.12,273.231 1900.24,272.383 1902.37,271.534 1904.49,270.683 1906.62,269.832 
  1908.74,268.979 1910.87,268.126 1912.99,267.271 1915.11,266.415 1917.24,265.558 1919.36,264.7 1921.49,263.84 1923.61,262.98 1925.74,262.118 1927.86,261.255 
  1929.99,260.391 1932.11,259.525 1934.24,258.658 1936.36,257.79 1938.49,256.921 1940.61,256.05 1942.74,255.178 1944.86,254.305 1946.99,253.431 1949.11,252.555 
  1951.24,251.678 1953.36,250.799 1955.49,249.92 1957.61,249.038 1959.74,248.156 1961.86,247.272 1963.98,246.387 1966.11,245.5 1968.23,244.612 1970.36,243.722 
  1972.48,242.831 1974.61,241.939 1976.73,241.045 1978.86,240.15 1980.98,239.253 1983.11,238.355 1985.23,237.455 1987.36,236.554 1989.48,235.651 1991.61,234.747 
  1993.73,233.841 1995.86,232.934 1997.98,232.025 2000.11,231.114 2002.23,230.202 2004.36,229.289 2006.48,228.374 2008.61,227.457 2010.73,226.538 2012.85,225.618 
  2014.98,224.697 2017.1,223.774 2019.23,222.849 2021.35,221.922 2023.48,220.994 2025.6,220.064 2027.73,219.132 2029.85,218.199 2031.98,217.264 2034.1,216.327 
  2036.23,215.389 2038.35,214.449 2040.48,213.507 2042.6,212.563 2044.73,211.618 2046.85,210.671 2048.98,209.722 2051.1,208.771 2053.23,207.818 2055.35,206.864 
  2057.48,205.908 2059.6,204.949 2061.72,203.989 2063.85,203.028 2065.97,202.064 2068.1,201.098 2070.22,200.131 2072.35,199.162 2074.47,198.19 2076.6,197.217 
  2078.72,196.242 2080.85,195.265 2082.97,194.286 2085.1,193.305 2087.22,192.322 2089.35,191.338 2091.47,190.351 2093.6,189.362 2095.72,188.371 2097.85,187.378 
  2099.97,186.383 2102.1,185.386 2104.22,184.387 2106.35,183.386 2108.47,182.383 2110.59,181.378 2112.72,180.371 2114.84,179.361 2116.97,178.35 2119.09,177.336 
  2121.22,176.321 2123.34,175.303 2125.47,174.283 2127.59,173.261 2129.72,172.236 2131.84,171.21 2133.97,170.181 2136.09,169.15 2138.22,168.117 2140.34,167.082 
  2142.47,166.044 2144.59,165.005 2146.72,163.963 2148.84,162.918 2150.97,161.872 2153.09,160.823 2155.22,159.772 2157.34,158.719 2159.46,157.663 2161.59,156.605 
  2163.71,155.545 2165.84,154.482 2167.96,153.417 2170.09,152.35 2172.21,151.28 2174.34,150.208 2176.46,149.133 2178.59,148.056 2180.71,146.977 2182.84,145.895 
  2184.96,144.811 2187.09,143.725 2189.21,142.636 2191.34,141.544 2193.46,140.45 2195.59,139.354 2197.71,138.255 2199.84,137.153 2201.96,136.049 2204.08,134.943 
  2206.21,133.834 2208.33,132.723 2210.46,131.609 2212.58,130.492 2214.71,129.373 2216.83,128.251 2218.96,127.127 2221.08,126 2223.21,124.87 2225.33,123.738 
  2227.46,122.604 2229.58,121.466 2231.71,120.326 2233.83,119.183 2235.96,118.038 2238.08,116.89 2240.21,115.739 2242.33,114.586 2244.46,113.43 2246.58,112.271 
  2248.71,111.109 2250.83,109.945 2252.95,108.778 2255.08,107.608 2257.2,106.436 2259.33,105.26 2261.45,104.082 2263.58,102.901 2265.7,101.718 2267.83,100.531 
  2269.95,99.3417 2272.08,98.1495 2274.2,96.9545 2276.33,95.7566 2278.45,94.5558 2280.58,93.3522 2282.7,92.1457 2284.83,90.9362 2286.95,89.7239 2289.08,88.5087 
  
  "/>
<polyline clip-path="url(#clip5202)" style="stroke:#e26f46; stroke-width:4; stroke-opacity:1; fill:none" points="
  166.42,1320.23 168.545,1318.53 170.669,1316.83 172.794,1315.13 174.919,1313.42 177.044,1311.72 179.169,1310.02 181.293,1308.32 183.418,1306.62 185.543,1304.91 
  187.668,1303.21 189.792,1301.51 191.917,1299.81 194.042,1298.1 196.167,1296.4 198.292,1294.7 200.416,1293 202.541,1291.3 204.666,1289.59 206.791,1287.89 
  208.915,1286.19 211.04,1284.49 213.165,1282.78 215.29,1281.08 217.415,1279.38 219.539,1277.68 221.664,1275.98 223.789,1274.27 225.914,1272.57 228.039,1270.87 
  230.163,1269.17 232.288,1267.46 234.413,1265.76 236.538,1264.06 238.662,1262.36 240.787,1260.66 242.912,1258.95 245.037,1257.25 247.162,1255.55 249.286,1253.85 
  251.411,1252.14 253.536,1250.44 255.661,1248.74 257.785,1247.04 259.91,1245.34 262.035,1243.63 264.16,1241.93 266.285,1240.23 268.409,1238.53 270.534,1236.82 
  272.659,1235.12 274.784,1233.42 276.908,1231.72 279.033,1230.02 281.158,1228.31 283.283,1226.61 285.408,1224.91 287.532,1223.21 289.657,1221.5 291.782,1219.8 
  293.907,1218.1 296.031,1216.4 298.156,1214.7 300.281,1212.99 302.406,1211.29 304.531,1209.59 306.655,1207.89 308.78,1206.18 310.905,1204.48 313.03,1202.78 
  315.155,1201.08 317.279,1199.38 319.404,1197.67 321.529,1195.97 323.654,1194.27 325.778,1192.57 327.903,1190.86 330.028,1189.16 332.153,1187.46 334.278,1185.76 
  336.402,1184.06 338.527,1182.35 340.652,1180.65 342.777,1178.95 344.901,1177.25 347.026,1175.54 349.151,1173.84 351.276,1172.14 353.401,1170.44 355.525,1168.74 
  357.65,1167.03 359.775,1165.33 361.9,1163.63 364.024,1161.93 366.149,1160.22 368.274,1158.52 370.399,1156.82 372.524,1155.12 374.648,1153.42 376.773,1151.71 
  378.898,1150.01 381.023,1148.31 383.148,1146.61 385.272,1144.9 387.397,1143.2 389.522,1141.5 391.647,1139.8 393.771,1138.09 395.896,1136.39 398.021,1134.69 
  400.146,1132.99 402.271,1131.29 404.395,1129.58 406.52,1127.88 408.645,1126.18 410.77,1124.48 412.894,1122.77 415.019,1121.07 417.144,1119.37 419.269,1117.67 
  421.394,1115.97 423.518,1114.26 425.643,1112.56 427.768,1110.86 429.893,1109.16 432.017,1107.45 434.142,1105.75 436.267,1104.05 438.392,1102.35 440.517,1100.65 
  442.641,1098.94 444.766,1097.24 446.891,1095.54 449.016,1093.84 451.141,1092.13 453.265,1090.43 455.39,1088.73 457.515,1087.03 459.64,1085.33 461.764,1083.62 
  463.889,1081.92 466.014,1080.22 468.139,1078.52 470.264,1076.81 472.388,1077.12 474.513,1075.55 476.638,1073.98 478.763,1072.41 480.887,1070.85 483.012,1069.29 
  485.137,1067.74 487.262,1066.18 489.387,1064.64 491.511,1063.09 493.636,1061.55 495.761,1060.01 497.886,1058.48 500.01,1056.95 502.135,1055.43 504.26,1053.9 
  506.385,1052.38 508.51,1050.87 510.634,1049.36 512.759,1047.85 514.884,1046.35 517.009,1044.85 519.134,1043.35 521.258,1041.86 523.383,1040.37 525.508,1038.88 
  527.633,1037.4 529.757,1035.92 531.882,1034.44 534.007,1032.97 536.132,1031.5 538.257,1030.04 540.381,1028.58 542.506,1027.12 544.631,1025.66 546.756,1024.21 
  548.88,1022.77 551.005,1021.32 553.13,1019.88 555.255,1018.44 557.38,1017.01 559.504,1015.58 561.629,1014.16 563.754,1012.73 565.879,1011.31 568.003,1009.9 
  570.128,1008.48 572.253,1007.07 574.378,1005.67 576.503,1004.27 578.627,1002.87 580.752,1001.47 582.877,1000.08 585.002,998.692 587.127,997.306 589.251,995.924 
  591.376,994.546 593.501,993.171 595.626,991.799 597.75,990.43 599.875,989.065 602,987.703 604.125,986.345 606.25,984.99 608.374,983.638 610.499,982.289 
  612.624,980.944 614.749,979.602 616.873,978.264 618.998,976.928 621.123,975.596 623.248,974.268 625.373,972.942 627.497,971.62 629.622,970.301 631.747,968.985 
  633.872,967.673 635.996,966.363 638.121,965.057 640.246,963.754 642.371,962.455 644.496,961.158 646.62,959.865 648.745,958.575 650.87,957.288 652.995,956.005 
  655.12,954.724 657.244,953.447 659.369,952.173 661.494,950.902 663.619,949.634 665.743,948.369 667.868,947.108 669.993,945.849 672.118,944.594 674.243,943.342 
  676.367,942.093 678.492,940.847 680.617,939.604 682.742,938.364 684.866,937.127 686.991,935.893 689.116,934.663 691.241,933.435 693.366,932.211 695.49,930.989 
  697.615,929.771 699.74,928.555 701.865,927.343 703.989,926.134 706.114,924.927 708.239,923.724 710.364,922.524 712.489,921.326 714.613,920.132 716.738,918.941 
  718.863,917.752 720.988,916.567 723.113,915.385 725.237,914.205 727.362,913.028 729.487,911.855 731.612,910.684 733.736,909.516 735.861,908.352 737.986,907.19 
  740.111,906.031 742.236,904.875 744.36,903.721 746.485,902.571 748.61,901.424 750.735,900.279 752.859,899.137 754.984,897.998 757.109,896.862 759.234,895.729 
  761.359,894.599 763.483,893.472 765.608,892.347 767.733,891.225 769.858,890.106 771.982,888.99 774.107,887.876 776.232,886.766 778.357,885.658 780.482,884.553 
  782.606,883.451 784.731,882.351 786.856,881.254 788.981,880.16 791.106,879.069 793.23,877.981 795.355,876.895 797.48,875.812 799.605,874.732 801.729,873.654 
  803.854,872.579 805.979,871.507 808.104,870.437 810.229,869.371 812.353,868.307 814.478,867.245 816.603,866.186 818.728,865.13 820.852,864.077 822.977,863.026 
  825.102,861.978 827.227,860.932 829.352,859.889 831.476,858.849 833.601,857.811 835.726,856.776 837.851,855.744 839.975,854.714 842.1,853.686 844.225,852.662 
  846.35,851.64 848.475,850.62 850.599,849.603 852.724,848.588 854.849,847.577 856.974,846.567 859.099,845.56 861.223,844.556 863.348,843.554 865.473,842.555 
  867.598,841.558 869.722,840.564 871.847,839.572 873.972,838.583 876.097,837.596 878.222,836.612 880.346,835.63 882.471,834.651 884.596,833.674 886.721,832.699 
  888.845,831.727 890.97,830.757 893.095,829.79 895.22,828.825 897.345,827.863 899.469,826.903 901.594,825.946 903.719,824.99 905.844,824.038 907.968,823.087 
  910.093,822.139 912.218,821.194 914.343,820.25 916.468,819.309 918.592,818.371 920.717,817.435 922.842,816.501 924.967,815.569 927.091,814.64 929.216,813.713 
  931.341,812.788 933.466,811.866 935.591,810.946 937.715,810.028 939.84,809.113 941.965,808.2 944.09,807.289 946.215,806.38 948.339,805.474 950.464,804.569 
  952.589,803.667 954.714,802.768 956.838,801.87 958.963,800.975 961.088,800.082 963.213,799.191 965.338,798.303 967.462,797.416 969.587,796.532 971.712,795.65 
  973.837,794.77 975.961,793.892 978.086,793.017 980.211,792.144 982.336,791.272 984.461,790.403 986.585,789.536 988.71,788.671 990.835,787.809 992.96,786.948 
  995.084,786.09 997.209,785.233 999.334,784.379 1001.46,783.527 1003.58,782.677 1005.71,781.829 1007.83,780.983 1009.96,780.139 1012.08,779.297 1014.21,778.457 
  1016.33,777.619 1018.46,776.784 1020.58,775.95 1022.71,775.118 1024.83,774.289 1026.96,773.461 1029.08,772.635 1031.21,771.812 1033.33,770.99 1035.46,770.17 
  1037.58,769.353 1039.7,768.537 1041.83,767.723 1043.95,766.911 1046.08,766.102 1048.2,765.294 1050.33,764.488 1052.45,763.684 1054.58,762.881 1056.7,762.081 
  1058.83,761.283 1060.95,760.486 1063.08,759.692 1065.2,758.899 1067.33,758.109 1069.45,757.32 1071.58,756.533 1073.7,755.748 1075.83,754.964 1077.95,754.183 
  1080.08,753.403 1082.2,752.626 1084.33,751.85 1086.45,751.075 1088.57,750.303 1090.7,749.533 1092.82,748.764 1094.95,747.997 1097.07,747.232 1099.2,746.469 
  1101.32,745.707 1103.45,744.947 1105.57,744.189 1107.7,743.433 1109.82,742.679 1111.95,741.926 1114.07,741.175 1116.2,740.426 1118.32,739.678 1120.45,738.932 
  1122.57,738.188 1124.7,737.446 1126.82,736.705 1128.95,735.966 1131.07,735.229 1133.2,734.493 1135.32,733.759 1137.44,733.026 1139.57,732.296 1141.69,731.567 
  1143.82,730.839 1145.94,730.114 1148.07,729.389 1150.19,728.667 1152.32,727.946 1154.44,727.227 1156.57,726.509 1158.69,725.793 1160.82,725.078 1162.94,724.365 
  1165.07,723.654 1167.19,722.944 1169.32,722.236 1171.44,721.529 1173.57,720.824 1175.69,720.121 1177.82,719.419 1179.94,718.718 1182.07,718.019 1184.19,717.322 
  1186.31,716.626 1188.44,715.931 1190.56,715.238 1192.69,714.547 1194.81,713.857 1196.94,713.169 1199.06,712.481 1201.19,711.796 1203.31,711.112 1205.44,710.429 
  1207.56,709.748 1209.69,709.068 1211.81,708.39 1213.94,707.713 1216.06,707.037 1218.19,706.363 1220.31,705.691 1222.44,705.019 1224.56,704.349 1226.69,703.681 
  1228.81,703.014 1230.94,702.348 1233.06,701.683 1235.18,701.02 1237.31,700.359 1239.43,699.698 1241.56,699.039 1243.68,698.382 1245.81,697.725 1247.93,697.07 
  1250.06,696.416 1252.18,695.764 1254.31,695.113 1256.43,694.463 1258.56,693.814 1260.68,693.167 1262.81,692.521 1264.93,691.876 1267.06,691.233 1269.18,690.59 
  1271.31,689.949 1273.43,689.31 1275.56,688.671 1277.68,688.034 1279.81,687.398 1281.93,686.763 1284.05,686.129 1286.18,685.497 1288.3,684.865 1290.43,684.235 
  1292.55,683.606 1294.68,682.978 1296.8,682.352 1298.93,681.726 1301.05,681.102 1303.18,680.479 1305.3,679.857 1307.43,679.236 1309.55,678.616 1311.68,677.998 
  1313.8,677.38 1315.93,676.764 1318.05,676.148 1320.18,675.534 1322.3,674.921 1324.43,674.309 1326.55,673.698 1328.68,673.088 1330.8,672.479 1332.92,671.871 
  1335.05,671.264 1337.17,670.659 1339.3,670.054 1341.42,669.45 1343.55,668.847 1345.67,668.246 1347.8,667.645 1349.92,667.045 1352.05,666.447 1354.17,665.849 
  1356.3,665.252 1358.42,664.657 1360.55,664.062 1362.67,663.468 1364.8,662.875 1366.92,662.283 1369.05,661.692 1371.17,661.102 1373.3,660.513 1375.42,659.925 
  1377.55,659.337 1379.67,658.751 1381.79,658.165 1383.92,657.581 1386.04,656.997 1388.17,656.414 1390.29,655.832 1392.42,655.251 1394.54,654.671 1396.67,654.091 
  1398.79,653.513 1400.92,652.935 1403.04,652.358 1405.17,651.782 1407.29,651.207 1409.42,650.632 1411.54,650.059 1413.67,649.486 1415.79,648.914 1417.92,648.343 
  1420.04,647.772 1422.17,647.202 1424.29,646.633 1426.42,646.065 1428.54,645.498 1430.66,644.931 1432.79,644.365 1434.91,643.8 1437.04,643.235 1439.16,642.672 
  1441.29,642.108 1443.41,641.546 1445.54,640.984 1447.66,640.423 1449.79,639.863 1451.91,639.304 1454.04,638.745 1456.16,638.186 1458.29,637.629 1460.41,637.072 
  1462.54,636.515 1464.66,635.96 1466.79,635.405 1468.91,634.85 1471.04,634.296 1473.16,633.743 1475.29,633.191 1477.41,632.639 1479.53,632.087 1481.66,631.536 
  1483.78,630.986 1485.91,630.436 1488.03,629.887 1490.16,629.339 1492.28,628.791 1494.41,628.243 1496.53,627.696 1498.66,627.15 1500.78,626.604 1502.91,626.059 
  1505.03,625.514 1507.16,624.97 1509.28,624.426 1511.41,623.882 1513.53,623.34 1515.66,622.797 1517.78,622.255 1519.91,621.714 1522.03,621.173 1524.16,620.632 
  1526.28,620.092 1528.4,619.553 1530.53,619.013 1532.65,618.475 1534.78,617.936 1536.9,617.398 1539.03,616.861 1541.15,616.324 1543.28,615.787 1545.4,615.251 
  1547.53,614.715 1549.65,614.179 1551.78,613.644 1553.9,613.109 1556.03,612.574 1558.15,612.04 1560.28,611.506 1562.4,610.973 1564.53,610.439 1566.65,609.907 
  1568.78,609.374 1570.9,608.842 1573.02,608.31 1575.15,607.778 1577.27,607.247 1579.4,606.716 1581.52,606.185 1583.65,605.654 1585.77,605.124 1587.9,604.594 
  1590.02,604.064 1592.15,603.534 1594.27,603.005 1596.4,602.476 1598.52,601.947 1600.65,601.418 1602.77,600.89 1604.9,600.362 1607.02,599.833 1609.15,599.306 
  1611.27,598.778 1613.4,598.25 1615.52,597.723 1617.65,597.196 1619.77,596.669 1621.89,596.142 1624.02,595.615 1626.14,595.088 1628.27,594.562 1630.39,594.035 
  1632.52,593.509 1634.64,592.983 1636.77,592.457 1638.89,591.931 1641.02,591.405 1643.14,590.879 1645.27,590.353 1647.39,589.828 1649.52,589.302 1651.64,588.776 
  1653.77,588.251 1655.89,587.725 1658.02,587.2 1660.14,586.674 1662.27,586.149 1664.39,585.624 1666.52,585.098 1668.64,584.573 1670.76,584.047 1672.89,583.522 
  1675.01,582.996 1677.14,582.471 1679.26,581.945 1681.39,581.42 1683.51,580.894 1685.64,580.369 1687.76,579.843 1689.89,579.317 1692.01,578.791 1694.14,578.265 
  1696.26,577.739 1698.39,577.213 1700.51,576.687 1702.64,576.161 1704.76,575.634 1706.89,575.108 1709.01,574.581 1711.14,574.054 1713.26,573.527 1715.39,573 
  1717.51,572.473 1719.63,571.946 1721.76,571.418 1723.88,570.89 1726.01,570.362 1728.13,569.834 1730.26,569.306 1732.38,568.777 1734.51,568.249 1736.63,567.72 
  1738.76,567.191 1740.88,566.661 1743.01,566.132 1745.13,565.602 1747.26,565.072 1749.38,564.541 1751.51,564.011 1753.63,563.48 1755.76,562.949 1757.88,562.417 
  1760.01,561.886 1762.13,561.354 1764.26,560.821 1766.38,560.289 1768.5,559.756 1770.63,559.222 1772.75,558.689 1774.88,558.155 1777,557.621 1779.13,557.086 
  1781.25,556.551 1783.38,556.016 1785.5,555.48 1787.63,554.944 1789.75,554.408 1791.88,553.871 1794,553.334 1796.13,552.796 1798.25,552.258 1800.38,551.72 
  1802.5,551.181 1804.63,550.642 1806.75,550.102 1808.88,549.562 1811,549.021 1813.13,548.48 1815.25,547.939 1817.37,547.397 1819.5,546.854 1821.62,546.311 
  1823.75,545.768 1825.87,545.224 1828,544.68 1830.12,544.135 1832.25,543.589 1834.37,543.043 1836.5,542.497 1838.62,541.95 1840.75,541.402 1842.87,540.854 
  1845,540.306 1847.12,539.756 1849.25,539.207 1851.37,538.656 1853.5,538.105 1855.62,537.554 1857.75,537.002 1859.87,536.449 1862,535.896 1864.12,535.342 
  1866.24,534.787 1868.37,534.232 1870.49,533.676 1872.62,533.12 1874.74,532.563 1876.87,532.005 1878.99,531.447 1881.12,530.888 1883.24,530.328 1885.37,529.768 
  1887.49,529.207 1889.62,528.645 1891.74,528.082 1893.87,527.519 1895.99,526.955 1898.12,526.391 1900.24,525.825 1902.37,525.259 1904.49,524.692 1906.62,524.125 
  1908.74,523.556 1910.87,522.987 1912.99,522.418 1915.11,521.847 1917.24,521.276 1919.36,520.703 1921.49,520.13 1923.61,519.557 1925.74,518.982 1927.86,518.407 
  1929.99,517.831 1932.11,517.254 1934.24,516.676 1936.36,516.097 1938.49,515.517 1940.61,514.937 1942.74,514.356 1944.86,513.774 1946.99,513.191 1949.11,512.607 
  1951.24,512.022 1953.36,511.436 1955.49,510.85 1957.61,510.262 1959.74,509.674 1961.86,509.085 1963.98,508.495 1966.11,507.903 1968.23,507.311 1970.36,506.718 
  1972.48,506.124 1974.61,505.529 1976.73,504.934 1978.86,504.337 1980.98,503.739 1983.11,503.14 1985.23,502.54 1987.36,501.939 1989.48,501.338 1991.61,500.735 
  1993.73,500.131 1995.86,499.526 1997.98,498.92 2000.11,498.313 2002.23,497.705 2004.36,497.096 2006.48,496.486 2008.61,495.875 2010.73,495.262 2012.85,494.649 
  2014.98,494.035 2017.1,493.419 2019.23,492.803 2021.35,492.185 2023.48,491.566 2025.6,490.946 2027.73,490.325 2029.85,489.703 2031.98,489.08 2034.1,488.455 
  2036.23,487.83 2038.35,487.203 2040.48,486.575 2042.6,485.946 2044.73,485.315 2046.85,484.684 2048.98,484.051 2051.1,483.417 2053.23,482.782 2055.35,482.146 
  2057.48,481.508 2059.6,480.87 2061.72,480.23 2063.85,479.589 2065.97,478.946 2068.1,478.302 2070.22,477.658 2072.35,477.011 2074.47,476.364 2076.6,475.715 
  2078.72,475.065 2080.85,474.414 2082.97,473.761 2085.1,473.107 2087.22,472.452 2089.35,471.795 2091.47,471.137 2093.6,470.478 2095.72,469.818 2097.85,469.156 
  2099.97,468.492 2102.1,467.828 2104.22,467.162 2106.35,466.494 2108.47,465.826 2110.59,465.156 2112.72,464.484 2114.84,463.811 2116.97,463.137 2119.09,462.461 
  2121.22,461.784 2123.34,461.105 2125.47,460.425 2127.59,459.744 2129.72,459.061 2131.84,458.377 2133.97,457.691 2136.09,457.004 2138.22,456.315 2140.34,455.625 
  2142.47,454.933 2144.59,454.24 2146.72,453.545 2148.84,452.849 2150.97,452.151 2153.09,451.452 2155.22,450.752 2157.34,450.049 2159.46,449.345 2161.59,448.64 
  2163.71,447.933 2165.84,447.225 2167.96,446.515 2170.09,445.803 2172.21,445.09 2174.34,444.375 2176.46,443.659 2178.59,442.941 2180.71,442.221 2182.84,441.5 
  2184.96,440.778 2187.09,440.053 2189.21,439.327 2191.34,438.6 2193.46,437.87 2195.59,437.139 2197.71,436.407 2199.84,435.672 2201.96,434.936 2204.08,434.199 
  2206.21,433.46 2208.33,432.719 2210.46,431.976 2212.58,431.231 2214.71,430.485 2216.83,429.738 2218.96,428.988 2221.08,428.237 2223.21,427.484 2225.33,426.729 
  2227.46,425.972 2229.58,425.214 2231.71,424.454 2233.83,423.692 2235.96,422.929 2238.08,422.163 2240.21,421.396 2242.33,420.627 2244.46,419.857 2246.58,419.084 
  2248.71,418.31 2250.83,417.534 2252.95,416.756 2255.08,415.976 2257.2,415.194 2259.33,414.41 2261.45,413.625 2263.58,412.838 2265.7,412.049 2267.83,411.258 
  2269.95,410.465 2272.08,409.67 2274.2,408.873 2276.33,408.075 2278.45,407.274 2280.58,406.472 2282.7,405.667 2284.83,404.861 2286.95,404.053 2289.08,403.243 
  
  "/>
<polyline clip-path="url(#clip5202)" style="stroke:#3da44d; stroke-width:4; stroke-opacity:1; fill:none" points="
  166.42,1245.69 168.545,1244.43 170.669,1243.17 172.794,1241.91 174.919,1240.65 177.044,1239.39 179.169,1238.13 181.293,1236.86 183.418,1235.6 185.543,1234.34 
  187.668,1233.08 189.792,1231.82 191.917,1230.56 194.042,1229.3 196.167,1228.04 198.292,1226.78 200.416,1225.52 202.541,1224.26 204.666,1222.99 206.791,1221.73 
  208.915,1220.47 211.04,1219.21 213.165,1217.95 215.29,1216.69 217.415,1215.43 219.539,1214.17 221.664,1212.91 223.789,1211.65 225.914,1210.39 228.039,1209.12 
  230.163,1207.86 232.288,1206.6 234.413,1205.34 236.538,1204.08 238.662,1202.82 240.787,1201.56 242.912,1200.3 245.037,1199.04 247.162,1197.78 249.286,1196.52 
  251.411,1195.25 253.536,1193.99 255.661,1192.73 257.785,1191.47 259.91,1190.21 262.035,1188.95 264.16,1187.69 266.285,1186.43 268.409,1185.17 270.534,1183.91 
  272.659,1182.65 274.784,1181.38 276.908,1180.12 279.033,1178.86 281.158,1177.6 283.283,1176.34 285.408,1175.08 287.532,1173.82 289.657,1172.56 291.782,1171.3 
  293.907,1170.04 296.031,1168.77 298.156,1167.51 300.281,1166.25 302.406,1164.99 304.531,1163.73 306.655,1162.47 308.78,1161.21 310.905,1159.95 313.03,1158.69 
  315.155,1157.43 317.279,1156.17 319.404,1154.9 321.529,1153.64 323.654,1152.38 325.778,1151.12 327.903,1149.86 330.028,1148.6 332.153,1147.34 334.278,1146.08 
  336.402,1144.82 338.527,1143.56 340.652,1142.3 342.777,1141.03 344.901,1139.77 347.026,1138.51 349.151,1137.25 351.276,1135.99 353.401,1134.73 355.525,1133.47 
  357.65,1132.21 359.775,1130.95 361.9,1129.69 364.024,1128.43 366.149,1127.16 368.274,1125.9 370.399,1124.64 372.524,1123.38 374.648,1122.12 376.773,1120.86 
  378.898,1119.6 381.023,1118.34 383.148,1117.08 385.272,1115.82 387.397,1114.56 389.522,1113.29 391.647,1112.03 393.771,1110.77 395.896,1109.51 398.021,1108.25 
  400.146,1106.99 402.271,1105.73 404.395,1104.47 406.52,1103.21 408.645,1101.95 410.77,1100.69 412.894,1099.42 415.019,1098.16 417.144,1096.9 419.269,1095.64 
  421.394,1094.38 423.518,1093.12 425.643,1091.86 427.768,1090.6 429.893,1089.34 432.017,1088.08 434.142,1086.82 436.267,1085.55 438.392,1084.29 440.517,1083.03 
  442.641,1081.77 444.766,1080.51 446.891,1079.25 449.016,1077.99 451.141,1076.73 453.265,1075.47 455.39,1074.21 457.515,1072.95 459.64,1071.68 461.764,1070.42 
  463.889,1069.16 466.014,1067.9 468.139,1066.64 470.264,1065.38 472.388,1065.61 474.513,1064.44 476.638,1063.28 478.763,1062.12 480.887,1060.96 483.012,1059.81 
  485.137,1058.66 487.262,1057.51 489.387,1056.36 491.511,1055.22 493.636,1054.07 495.761,1052.94 497.886,1051.8 500.01,1050.67 502.135,1049.54 504.26,1048.41 
  506.385,1047.28 508.51,1046.16 510.634,1045.04 512.759,1043.93 514.884,1042.81 517.009,1041.7 519.134,1040.59 521.258,1039.48 523.383,1038.38 525.508,1037.28 
  527.633,1036.18 529.757,1035.09 531.882,1033.99 534.007,1032.9 536.132,1031.82 538.257,1030.73 540.381,1029.65 542.506,1028.57 544.631,1027.49 546.756,1026.42 
  548.88,1025.34 551.005,1024.27 553.13,1023.21 555.255,1022.14 557.38,1021.08 559.504,1020.02 561.629,1018.97 563.754,1017.91 565.879,1016.86 568.003,1015.81 
  570.128,1014.76 572.253,1013.72 574.378,1012.68 576.503,1011.64 578.627,1010.6 580.752,1009.57 582.877,1008.54 585.002,1007.51 587.127,1006.49 589.251,1005.46 
  591.376,1004.44 593.501,1003.42 595.626,1002.41 597.75,1001.39 599.875,1000.38 602,999.372 604.125,998.366 606.25,997.362 608.374,996.36 610.499,995.362 
  612.624,994.365 614.749,993.371 616.873,992.38 618.998,991.39 621.123,990.404 623.248,989.419 625.373,988.438 627.497,987.458 629.622,986.481 631.747,985.507 
  633.872,984.534 635.996,983.564 638.121,982.597 640.246,981.632 642.371,980.669 644.496,979.709 646.62,978.751 648.745,977.795 650.87,976.842 652.995,975.891 
  655.12,974.943 657.244,973.997 659.369,973.053 661.494,972.111 663.619,971.172 665.743,970.235 667.868,969.301 669.993,968.369 672.118,967.439 674.243,966.511 
  676.367,965.586 678.492,964.663 680.617,963.742 682.742,962.824 684.866,961.908 686.991,960.994 689.116,960.083 691.241,959.173 693.366,958.266 695.49,957.361 
  697.615,956.459 699.74,955.559 701.865,954.661 703.989,953.765 706.114,952.871 708.239,951.98 710.364,951.091 712.489,950.204 714.613,949.319 716.738,948.437 
  718.863,947.556 720.988,946.678 723.113,945.802 725.237,944.929 727.362,944.057 729.487,943.188 731.612,942.321 733.736,941.456 735.861,940.593 737.986,939.732 
  740.111,938.874 742.236,938.017 744.36,937.163 746.485,936.311 748.61,935.461 750.735,934.613 752.859,933.767 754.984,932.924 757.109,932.082 759.234,931.243 
  761.359,930.406 763.483,929.571 765.608,928.737 767.733,927.906 769.858,927.078 771.982,926.251 774.107,925.426 776.232,924.603 778.357,923.783 780.482,922.964 
  782.606,922.148 784.731,921.333 786.856,920.521 788.981,919.71 791.106,918.902 793.23,918.096 795.355,917.292 797.48,916.489 799.605,915.689 801.729,914.891 
  803.854,914.095 805.979,913.3 808.104,912.508 810.229,911.718 812.353,910.93 814.478,910.143 816.603,909.359 818.728,908.577 820.852,907.797 822.977,907.018 
  825.102,906.242 827.227,905.467 829.352,904.695 831.476,903.924 833.601,903.155 835.726,902.389 837.851,901.624 839.975,900.861 842.1,900.1 844.225,899.341 
  846.35,898.584 848.475,897.829 850.599,897.075 852.724,896.324 854.849,895.574 856.974,894.827 859.099,894.081 861.223,893.337 863.348,892.595 865.473,891.855 
  867.598,891.116 869.722,890.38 871.847,889.645 873.972,888.912 876.097,888.181 878.222,887.452 880.346,886.725 882.471,885.999 884.596,885.276 886.721,884.554 
  888.845,883.834 890.97,883.116 893.095,882.399 895.22,881.685 897.345,880.972 899.469,880.261 901.594,879.551 903.719,878.844 905.844,878.138 907.968,877.434 
  910.093,876.732 912.218,876.031 914.343,875.333 916.468,874.636 918.592,873.94 920.717,873.247 922.842,872.555 924.967,871.865 927.091,871.177 929.216,870.49 
  931.341,869.805 933.466,869.122 935.591,868.44 937.715,867.761 939.84,867.083 941.965,866.406 944.09,865.731 946.215,865.058 948.339,864.387 950.464,863.717 
  952.589,863.049 954.714,862.383 956.838,861.718 958.963,861.055 961.088,860.393 963.213,859.733 965.338,859.075 967.462,858.418 969.587,857.764 971.712,857.11 
  973.837,856.458 975.961,855.808 978.086,855.16 980.211,854.513 982.336,853.867 984.461,853.224 986.585,852.581 988.71,851.941 990.835,851.302 992.96,850.664 
  995.084,850.028 997.209,849.394 999.334,848.761 1001.46,848.13 1003.58,847.5 1005.71,846.872 1007.83,846.246 1009.96,845.62 1012.08,844.997 1014.21,844.375 
  1016.33,843.754 1018.46,843.135 1020.58,842.518 1022.71,841.902 1024.83,841.287 1026.96,840.674 1029.08,840.062 1031.21,839.452 1033.33,838.844 1035.46,838.236 
  1037.58,837.631 1039.7,837.026 1041.83,836.424 1043.95,835.822 1046.08,835.222 1048.2,834.624 1050.33,834.027 1052.45,833.431 1054.58,832.837 1056.7,832.244 
  1058.83,831.653 1060.95,831.063 1063.08,830.475 1065.2,829.887 1067.33,829.302 1069.45,828.717 1071.58,828.134 1073.7,827.553 1075.83,826.973 1077.95,826.394 
  1080.08,825.816 1082.2,825.24 1084.33,824.665 1086.45,824.092 1088.57,823.52 1090.7,822.949 1092.82,822.38 1094.95,821.812 1097.07,821.245 1099.2,820.68 
  1101.32,820.115 1103.45,819.553 1105.57,818.991 1107.7,818.431 1109.82,817.872 1111.95,817.315 1114.07,816.758 1116.2,816.203 1118.32,815.649 1120.45,815.097 
  1122.57,814.546 1124.7,813.996 1126.82,813.447 1128.95,812.9 1131.07,812.353 1133.2,811.809 1135.32,811.265 1137.44,810.722 1139.57,810.181 1141.69,809.641 
  1143.82,809.102 1145.94,808.565 1148.07,808.028 1150.19,807.493 1152.32,806.959 1154.44,806.426 1156.57,805.895 1158.69,805.364 1160.82,804.835 1162.94,804.307 
  1165.07,803.78 1167.19,803.254 1169.32,802.729 1171.44,802.206 1173.57,801.684 1175.69,801.163 1177.82,800.643 1179.94,800.124 1182.07,799.606 1184.19,799.089 
  1186.31,798.574 1188.44,798.059 1190.56,797.546 1192.69,797.034 1194.81,796.523 1196.94,796.013 1199.06,795.504 1201.19,794.996 1203.31,794.489 1205.44,793.984 
  1207.56,793.479 1209.69,792.975 1211.81,792.473 1213.94,791.971 1216.06,791.471 1218.19,790.972 1220.31,790.473 1222.44,789.976 1224.56,789.48 1226.69,788.985 
  1228.81,788.491 1230.94,787.997 1233.06,787.505 1235.18,787.014 1237.31,786.524 1239.43,786.035 1241.56,785.547 1243.68,785.059 1245.81,784.573 1247.93,784.088 
  1250.06,783.604 1252.18,783.12 1254.31,782.638 1256.43,782.157 1258.56,781.676 1260.68,781.197 1262.81,780.718 1264.93,780.241 1267.06,779.764 1269.18,779.288 
  1271.31,778.813 1273.43,778.34 1275.56,777.867 1277.68,777.394 1279.81,776.923 1281.93,776.453 1284.05,775.984 1286.18,775.515 1288.3,775.047 1290.43,774.581 
  1292.55,774.115 1294.68,773.65 1296.8,773.186 1298.93,772.722 1301.05,772.26 1303.18,771.798 1305.3,771.337 1307.43,770.878 1309.55,770.418 1311.68,769.96 
  1313.8,769.503 1315.93,769.046 1318.05,768.59 1320.18,768.135 1322.3,767.681 1324.43,767.228 1326.55,766.775 1328.68,766.323 1330.8,765.872 1332.92,765.422 
  1335.05,764.973 1337.17,764.524 1339.3,764.076 1341.42,763.629 1343.55,763.182 1345.67,762.737 1347.8,762.292 1349.92,761.847 1352.05,761.404 1354.17,760.961 
  1356.3,760.519 1358.42,760.078 1360.55,759.637 1362.67,759.197 1364.8,758.758 1366.92,758.32 1369.05,757.882 1371.17,757.445 1373.3,757.009 1375.42,756.573 
  1377.55,756.138 1379.67,755.703 1381.79,755.27 1383.92,754.837 1386.04,754.404 1388.17,753.972 1390.29,753.541 1392.42,753.111 1394.54,752.681 1396.67,752.252 
  1398.79,751.823 1400.92,751.395 1403.04,750.968 1405.17,750.541 1407.29,750.115 1409.42,749.69 1411.54,749.265 1413.67,748.84 1415.79,748.417 1417.92,747.994 
  1420.04,747.571 1422.17,747.149 1424.29,746.727 1426.42,746.307 1428.54,745.886 1430.66,745.466 1432.79,745.047 1434.91,744.629 1437.04,744.21 1439.16,743.793 
  1441.29,743.376 1443.41,742.959 1445.54,742.543 1447.66,742.127 1449.79,741.712 1451.91,741.298 1454.04,740.884 1456.16,740.47 1458.29,740.057 1460.41,739.645 
  1462.54,739.233 1464.66,738.821 1466.79,738.41 1468.91,737.999 1471.04,737.589 1473.16,737.179 1475.29,736.77 1477.41,736.361 1479.53,735.952 1481.66,735.544 
  1483.78,735.137 1485.91,734.73 1488.03,734.323 1490.16,733.917 1492.28,733.511 1494.41,733.105 1496.53,732.7 1498.66,732.295 1500.78,731.891 1502.91,731.487 
  1505.03,731.083 1507.16,730.68 1509.28,730.277 1511.41,729.875 1513.53,729.473 1515.66,729.071 1517.78,728.67 1519.91,728.269 1522.03,727.868 1524.16,727.467 
  1526.28,727.067 1528.4,726.668 1530.53,726.268 1532.65,725.869 1534.78,725.47 1536.9,725.072 1539.03,724.674 1541.15,724.276 1543.28,723.878 1545.4,723.481 
  1547.53,723.084 1549.65,722.687 1551.78,722.291 1553.9,721.894 1556.03,721.498 1558.15,721.103 1560.28,720.707 1562.4,720.312 1564.53,719.917 1566.65,719.522 
  1568.78,719.128 1570.9,718.734 1573.02,718.34 1575.15,717.946 1577.27,717.552 1579.4,717.159 1581.52,716.765 1583.65,716.372 1585.77,715.98 1587.9,715.587 
  1590.02,715.195 1592.15,714.802 1594.27,714.41 1596.4,714.018 1598.52,713.626 1600.65,713.235 1602.77,712.843 1604.9,712.452 1607.02,712.061 1609.15,711.67 
  1611.27,711.279 1613.4,710.888 1615.52,710.497 1617.65,710.107 1619.77,709.717 1621.89,709.326 1624.02,708.936 1626.14,708.546 1628.27,708.156 1630.39,707.766 
  1632.52,707.376 1634.64,706.986 1636.77,706.597 1638.89,706.207 1641.02,705.817 1643.14,705.428 1645.27,705.038 1647.39,704.649 1649.52,704.26 1651.64,703.87 
  1653.77,703.481 1655.89,703.092 1658.02,702.703 1660.14,702.313 1662.27,701.924 1664.39,701.535 1666.52,701.146 1668.64,700.757 1670.76,700.367 1672.89,699.978 
  1675.01,699.589 1677.14,699.2 1679.26,698.81 1681.39,698.421 1683.51,698.032 1685.64,697.642 1687.76,697.253 1689.89,696.864 1692.01,696.474 1694.14,696.085 
  1696.26,695.695 1698.39,695.305 1700.51,694.915 1702.64,694.526 1704.76,694.136 1706.89,693.746 1709.01,693.355 1711.14,692.965 1713.26,692.575 1715.39,692.184 
  1717.51,691.794 1719.63,691.403 1721.76,691.012 1723.88,690.621 1726.01,690.23 1728.13,689.839 1730.26,689.448 1732.38,689.056 1734.51,688.665 1736.63,688.273 
  1738.76,687.881 1740.88,687.489 1743.01,687.097 1745.13,686.704 1747.26,686.311 1749.38,685.919 1751.51,685.526 1753.63,685.132 1755.76,684.739 1757.88,684.345 
  1760.01,683.951 1762.13,683.557 1764.26,683.163 1766.38,682.768 1768.5,682.374 1770.63,681.979 1772.75,681.583 1774.88,681.188 1777,680.792 1779.13,680.396 
  1781.25,680 1783.38,679.603 1785.5,679.207 1787.63,678.81 1789.75,678.412 1791.88,678.015 1794,677.617 1796.13,677.218 1798.25,676.82 1800.38,676.421 
  1802.5,676.022 1804.63,675.622 1806.75,675.223 1808.88,674.823 1811,674.422 1813.13,674.021 1815.25,673.62 1817.37,673.219 1819.5,672.817 1821.62,672.415 
  1823.75,672.012 1825.87,671.609 1828,671.206 1830.12,670.802 1832.25,670.398 1834.37,669.994 1836.5,669.589 1838.62,669.184 1840.75,668.778 1842.87,668.372 
  1845,667.966 1847.12,667.559 1849.25,667.152 1851.37,666.744 1853.5,666.336 1855.62,665.928 1857.75,665.519 1859.87,665.109 1862,664.7 1864.12,664.289 
  1866.24,663.879 1868.37,663.467 1870.49,663.056 1872.62,662.643 1874.74,662.231 1876.87,661.818 1878.99,661.404 1881.12,660.99 1883.24,660.575 1885.37,660.16 
  1887.49,659.745 1889.62,659.328 1891.74,658.912 1893.87,658.495 1895.99,658.077 1898.12,657.659 1900.24,657.24 1902.37,656.821 1904.49,656.401 1906.62,655.98 
  1908.74,655.559 1910.87,655.138 1912.99,654.716 1915.11,654.293 1917.24,653.87 1919.36,653.446 1921.49,653.022 1923.61,652.597 1925.74,652.171 1927.86,651.745 
  1929.99,651.318 1932.11,650.891 1934.24,650.462 1936.36,650.034 1938.49,649.605 1940.61,649.175 1942.74,648.744 1944.86,648.313 1946.99,647.881 1949.11,647.448 
  1951.24,647.015 1953.36,646.582 1955.49,646.147 1957.61,645.712 1959.74,645.276 1961.86,644.84 1963.98,644.402 1966.11,643.965 1968.23,643.526 1970.36,643.087 
  1972.48,642.647 1974.61,642.206 1976.73,641.765 1978.86,641.322 1980.98,640.88 1983.11,640.436 1985.23,639.992 1987.36,639.547 1989.48,639.101 1991.61,638.654 
  1993.73,638.207 1995.86,637.759 1997.98,637.31 2000.11,636.861 2002.23,636.41 2004.36,635.959 2006.48,635.507 2008.61,635.054 2010.73,634.601 2012.85,634.147 
  2014.98,633.691 2017.1,633.235 2019.23,632.779 2021.35,632.321 2023.48,631.863 2025.6,631.404 2027.73,630.944 2029.85,630.483 2031.98,630.021 2034.1,629.558 
  2036.23,629.095 2038.35,628.631 2040.48,628.166 2042.6,627.7 2044.73,627.233 2046.85,626.765 2048.98,626.296 2051.1,625.827 2053.23,625.356 2055.35,624.885 
  2057.48,624.413 2059.6,623.94 2061.72,623.466 2063.85,622.991 2065.97,622.515 2068.1,622.038 2070.22,621.56 2072.35,621.081 2074.47,620.602 2076.6,620.121 
  2078.72,619.64 2080.85,619.157 2082.97,618.674 2085.1,618.189 2087.22,617.704 2089.35,617.218 2091.47,616.73 2093.6,616.242 2095.72,615.753 2097.85,615.262 
  2099.97,614.771 2102.1,614.279 2104.22,613.785 2106.35,613.291 2108.47,612.796 2110.59,612.299 2112.72,611.802 2114.84,611.304 2116.97,610.804 2119.09,610.304 
  2121.22,609.802 2123.34,609.299 2125.47,608.796 2127.59,608.291 2129.72,607.785 2131.84,607.278 2133.97,606.77 2136.09,606.261 2138.22,605.751 2140.34,605.24 
  2142.47,604.727 2144.59,604.214 2146.72,603.699 2148.84,603.184 2150.97,602.667 2153.09,602.149 2155.22,601.63 2157.34,601.11 2159.46,600.588 2161.59,600.066 
  2163.71,599.542 2165.84,599.017 2167.96,598.491 2170.09,597.964 2172.21,597.436 2174.34,596.907 2176.46,596.376 2178.59,595.844 2180.71,595.311 2182.84,594.777 
  2184.96,594.242 2187.09,593.705 2189.21,593.167 2191.34,592.628 2193.46,592.088 2195.59,591.547 2197.71,591.004 2199.84,590.46 2201.96,589.915 2204.08,589.369 
  2206.21,588.821 2208.33,588.272 2210.46,587.722 2212.58,587.17 2214.71,586.618 2216.83,586.064 2218.96,585.509 2221.08,584.952 2223.21,584.394 2225.33,583.835 
  2227.46,583.275 2229.58,582.713 2231.71,582.15 2233.83,581.586 2235.96,581.02 2238.08,580.453 2240.21,579.885 2242.33,579.316 2244.46,578.745 2246.58,578.172 
  2248.71,577.599 2250.83,577.024 2252.95,576.448 2255.08,575.87 2257.2,575.291 2259.33,574.71 2261.45,574.129 2263.58,573.545 2265.7,572.961 2267.83,572.375 
  2269.95,571.788 2272.08,571.199 2274.2,570.609 2276.33,570.017 2278.45,569.424 2280.58,568.83 2282.7,568.234 2284.83,567.637 2286.95,567.038 2289.08,566.438 
  
  "/>
<polyline clip-path="url(#clip5202)" style="stroke:#c271d2; stroke-width:4; stroke-opacity:1; fill:none" points="
  166.42,1205.22 168.545,1204.2 170.669,1203.18 172.794,1202.16 174.919,1201.14 177.044,1200.12 179.169,1199.1 181.293,1198.08 183.418,1197.05 185.543,1196.03 
  187.668,1195.01 189.792,1193.99 191.917,1192.97 194.042,1191.95 196.167,1190.93 198.292,1189.9 200.416,1188.88 202.541,1187.86 204.666,1186.84 206.791,1185.82 
  208.915,1184.8 211.04,1183.78 213.165,1182.75 215.29,1181.73 217.415,1180.71 219.539,1179.69 221.664,1178.67 223.789,1177.65 225.914,1176.63 228.039,1175.61 
  230.163,1174.58 232.288,1173.56 234.413,1172.54 236.538,1171.52 238.662,1170.5 240.787,1169.48 242.912,1168.46 245.037,1167.43 247.162,1166.41 249.286,1165.39 
  251.411,1164.37 253.536,1163.35 255.661,1162.33 257.785,1161.31 259.91,1160.29 262.035,1159.26 264.16,1158.24 266.285,1157.22 268.409,1156.2 270.534,1155.18 
  272.659,1154.16 274.784,1153.14 276.908,1152.11 279.033,1151.09 281.158,1150.07 283.283,1149.05 285.408,1148.03 287.532,1147.01 289.657,1145.99 291.782,1144.97 
  293.907,1143.94 296.031,1142.92 298.156,1141.9 300.281,1140.88 302.406,1139.86 304.531,1138.84 306.655,1137.82 308.78,1136.79 310.905,1135.77 313.03,1134.75 
  315.155,1133.73 317.279,1132.71 319.404,1131.69 321.529,1130.67 323.654,1129.65 325.778,1128.62 327.903,1127.6 330.028,1126.58 332.153,1125.56 334.278,1124.54 
  336.402,1123.52 338.527,1122.5 340.652,1121.47 342.777,1120.45 344.901,1119.43 347.026,1118.41 349.151,1117.39 351.276,1116.37 353.401,1115.35 355.525,1114.33 
  357.65,1113.3 359.775,1112.28 361.9,1111.26 364.024,1110.24 366.149,1109.22 368.274,1108.2 370.399,1107.18 372.524,1106.15 374.648,1105.13 376.773,1104.11 
  378.898,1103.09 381.023,1102.07 383.148,1101.05 385.272,1100.03 387.397,1099.01 389.522,1097.98 391.647,1096.96 393.771,1095.94 395.896,1094.92 398.021,1093.9 
  400.146,1092.88 402.271,1091.86 404.395,1090.83 406.52,1089.81 408.645,1088.79 410.77,1087.77 412.894,1086.75 415.019,1085.73 417.144,1084.71 419.269,1083.69 
  421.394,1082.66 423.518,1081.64 425.643,1080.62 427.768,1079.6 429.893,1078.58 432.017,1077.56 434.142,1076.54 436.267,1075.51 438.392,1074.49 440.517,1073.47 
  442.641,1072.45 444.766,1071.43 446.891,1070.41 449.016,1069.39 451.141,1068.36 453.265,1067.34 455.39,1066.32 457.515,1065.3 459.64,1064.28 461.764,1063.26 
  463.889,1062.24 466.014,1061.22 468.139,1060.19 470.264,1059.17 472.388,1059.36 474.513,1058.41 476.638,1057.47 478.763,1056.53 480.887,1055.59 483.012,1054.66 
  485.137,1053.73 487.262,1052.79 489.387,1051.87 491.511,1050.94 493.636,1050.02 495.761,1049.09 497.886,1048.17 500.01,1047.26 502.135,1046.34 504.26,1045.43 
  506.385,1044.52 508.51,1043.61 510.634,1042.7 512.759,1041.79 514.884,1040.89 517.009,1039.99 519.134,1039.09 521.258,1038.2 523.383,1037.3 525.508,1036.41 
  527.633,1035.52 529.757,1034.63 531.882,1033.75 534.007,1032.87 536.132,1031.99 538.257,1031.11 540.381,1030.23 542.506,1029.35 544.631,1028.48 546.756,1027.61 
  548.88,1026.74 551.005,1025.88 553.13,1025.01 555.255,1024.15 557.38,1023.29 559.504,1022.43 561.629,1021.58 563.754,1020.72 565.879,1019.87 568.003,1019.02 
  570.128,1018.17 572.253,1017.33 574.378,1016.49 576.503,1015.64 578.627,1014.8 580.752,1013.97 582.877,1013.13 585.002,1012.3 587.127,1011.47 589.251,1010.64 
  591.376,1009.81 593.501,1008.99 595.626,1008.16 597.75,1007.34 599.875,1006.52 602,1005.71 604.125,1004.89 606.25,1004.08 608.374,1003.27 610.499,1002.46 
  612.624,1001.65 614.749,1000.85 616.873,1000.04 618.998,999.241 621.123,998.442 623.248,997.645 625.373,996.849 627.497,996.056 629.622,995.265 631.747,994.475 
  633.872,993.688 635.996,992.902 638.121,992.119 640.246,991.337 642.371,990.557 644.496,989.779 646.62,989.003 648.745,988.229 650.87,987.457 652.995,986.687 
  655.12,985.919 657.244,985.152 659.369,984.388 661.494,983.625 663.619,982.865 665.743,982.106 667.868,981.349 669.993,980.594 672.118,979.841 674.243,979.089 
  676.367,978.34 678.492,977.592 680.617,976.846 682.742,976.102 684.866,975.36 686.991,974.62 689.116,973.882 691.241,973.145 693.366,972.411 695.49,971.678 
  697.615,970.947 699.74,970.217 701.865,969.49 703.989,968.764 706.114,968.041 708.239,967.319 710.364,966.598 712.489,965.88 714.613,965.163 716.738,964.449 
  718.863,963.736 720.988,963.024 723.113,962.315 725.237,961.607 727.362,960.901 729.487,960.197 731.612,959.495 733.736,958.794 735.861,958.095 737.986,957.398 
  740.111,956.703 742.236,956.009 744.36,955.317 746.485,954.627 748.61,953.938 750.735,953.252 752.859,952.567 754.984,951.883 757.109,951.202 759.234,950.522 
  761.359,949.844 763.483,949.167 765.608,948.492 767.733,947.819 769.858,947.148 771.982,946.478 774.107,945.81 776.232,945.144 778.357,944.479 780.482,943.816 
  782.606,943.155 784.731,942.495 786.856,941.837 788.981,941.18 791.106,940.526 793.23,939.873 795.355,939.221 797.48,938.571 799.605,937.923 801.729,937.277 
  803.854,936.632 805.979,935.988 808.104,935.347 810.229,934.707 812.353,934.068 814.478,933.431 816.603,932.796 818.728,932.162 820.852,931.53 822.977,930.9 
  825.102,930.271 827.227,929.643 829.352,929.018 831.476,928.393 833.601,927.771 835.726,927.15 837.851,926.53 839.975,925.912 842.1,925.296 844.225,924.681 
  846.35,924.068 848.475,923.456 850.599,922.846 852.724,922.237 854.849,921.63 856.974,921.025 859.099,920.42 861.223,919.818 863.348,919.217 865.473,918.617 
  867.598,918.019 869.722,917.423 871.847,916.827 873.972,916.234 876.097,915.642 878.222,915.051 880.346,914.462 882.471,913.874 884.596,913.288 886.721,912.704 
  888.845,912.12 890.97,911.539 893.095,910.958 895.22,910.379 897.345,909.802 899.469,909.226 901.594,908.652 903.719,908.078 905.844,907.507 907.968,906.937 
  910.093,906.368 912.218,905.8 914.343,905.234 916.468,904.67 918.592,904.107 920.717,903.545 922.842,902.985 924.967,902.426 927.091,901.868 929.216,901.312 
  931.341,900.757 933.466,900.204 935.591,899.652 937.715,899.101 939.84,898.552 941.965,898.004 944.09,897.457 946.215,896.912 948.339,896.368 950.464,895.826 
  952.589,895.285 954.714,894.745 956.838,894.206 958.963,893.669 961.088,893.133 963.213,892.599 965.338,892.066 967.462,891.534 969.587,891.003 971.712,890.474 
  973.837,889.946 975.961,889.42 978.086,888.894 980.211,888.37 982.336,887.848 984.461,887.326 986.585,886.806 988.71,886.287 990.835,885.769 992.96,885.253 
  995.084,884.738 997.209,884.224 999.334,883.712 1001.46,883.2 1003.58,882.69 1005.71,882.181 1007.83,881.674 1009.96,881.168 1012.08,880.662 1014.21,880.159 
  1016.33,879.656 1018.46,879.154 1020.58,878.654 1022.71,878.155 1024.83,877.657 1026.96,877.161 1029.08,876.665 1031.21,876.171 1033.33,875.678 1035.46,875.186 
  1037.58,874.696 1039.7,874.206 1041.83,873.718 1043.95,873.231 1046.08,872.745 1048.2,872.26 1050.33,871.777 1052.45,871.294 1054.58,870.813 1056.7,870.333 
  1058.83,869.854 1060.95,869.376 1063.08,868.899 1065.2,868.424 1067.33,867.949 1069.45,867.476 1071.58,867.004 1073.7,866.533 1075.83,866.063 1077.95,865.594 
  1080.08,865.126 1082.2,864.66 1084.33,864.194 1086.45,863.729 1088.57,863.266 1090.7,862.804 1092.82,862.343 1094.95,861.882 1097.07,861.423 1099.2,860.965 
  1101.32,860.509 1103.45,860.053 1105.57,859.598 1107.7,859.144 1109.82,858.691 1111.95,858.24 1114.07,857.789 1116.2,857.34 1118.32,856.891 1120.45,856.444 
  1122.57,855.997 1124.7,855.552 1126.82,855.107 1128.95,854.664 1131.07,854.221 1133.2,853.78 1135.32,853.339 1137.44,852.9 1139.57,852.462 1141.69,852.024 
  1143.82,851.588 1145.94,851.152 1148.07,850.718 1150.19,850.284 1152.32,849.852 1154.44,849.42 1156.57,848.99 1158.69,848.56 1160.82,848.131 1162.94,847.703 
  1165.07,847.277 1167.19,846.851 1169.32,846.426 1171.44,846.002 1173.57,845.579 1175.69,845.157 1177.82,844.735 1179.94,844.315 1182.07,843.896 1184.19,843.477 
  1186.31,843.06 1188.44,842.643 1190.56,842.227 1192.69,841.812 1194.81,841.398 1196.94,840.985 1199.06,840.573 1201.19,840.162 1203.31,839.751 1205.44,839.342 
  1207.56,838.933 1209.69,838.525 1211.81,838.118 1213.94,837.712 1216.06,837.307 1218.19,836.902 1220.31,836.499 1222.44,836.096 1224.56,835.694 1226.69,835.293 
  1228.81,834.892 1230.94,834.493 1233.06,834.094 1235.18,833.696 1237.31,833.299 1239.43,832.903 1241.56,832.508 1243.68,832.113 1245.81,831.719 1247.93,831.326 
  1250.06,830.934 1252.18,830.543 1254.31,830.152 1256.43,829.762 1258.56,829.373 1260.68,828.984 1262.81,828.597 1264.93,828.21 1267.06,827.824 1269.18,827.438 
  1271.31,827.054 1273.43,826.67 1275.56,826.287 1277.68,825.904 1279.81,825.523 1281.93,825.142 1284.05,824.762 1286.18,824.382 1288.3,824.003 1290.43,823.625 
  1292.55,823.248 1294.68,822.871 1296.8,822.495 1298.93,822.12 1301.05,821.745 1303.18,821.372 1305.3,820.998 1307.43,820.626 1309.55,820.254 1311.68,819.883 
  1313.8,819.512 1315.93,819.142 1318.05,818.773 1320.18,818.405 1322.3,818.037 1324.43,817.669 1326.55,817.303 1328.68,816.937 1330.8,816.572 1332.92,816.207 
  1335.05,815.843 1337.17,815.479 1339.3,815.116 1341.42,814.754 1343.55,814.393 1345.67,814.032 1347.8,813.671 1349.92,813.311 1352.05,812.952 1354.17,812.594 
  1356.3,812.236 1358.42,811.878 1360.55,811.521 1362.67,811.165 1364.8,810.809 1366.92,810.454 1369.05,810.099 1371.17,809.745 1373.3,809.392 1375.42,809.039 
  1377.55,808.687 1379.67,808.335 1381.79,807.983 1383.92,807.633 1386.04,807.282 1388.17,806.933 1390.29,806.583 1392.42,806.235 1394.54,805.887 1396.67,805.539 
  1398.79,805.192 1400.92,804.845 1403.04,804.499 1405.17,804.153 1407.29,803.808 1409.42,803.464 1411.54,803.119 1413.67,802.776 1415.79,802.432 1417.92,802.09 
  1420.04,801.747 1422.17,801.406 1424.29,801.064 1426.42,800.723 1428.54,800.383 1430.66,800.043 1432.79,799.703 1434.91,799.364 1437.04,799.025 1439.16,798.687 
  1441.29,798.349 1443.41,798.012 1445.54,797.675 1447.66,797.338 1449.79,797.002 1451.91,796.666 1454.04,796.331 1456.16,795.996 1458.29,795.661 1460.41,795.327 
  1462.54,794.993 1464.66,794.66 1466.79,794.327 1468.91,793.994 1471.04,793.662 1473.16,793.33 1475.29,792.999 1477.41,792.667 1479.53,792.336 1481.66,792.006 
  1483.78,791.676 1485.91,791.346 1488.03,791.017 1490.16,790.687 1492.28,790.359 1494.41,790.03 1496.53,789.702 1498.66,789.374 1500.78,789.047 1502.91,788.719 
  1505.03,788.393 1507.16,788.066 1509.28,787.74 1511.41,787.414 1513.53,787.088 1515.66,786.762 1517.78,786.437 1519.91,786.112 1522.03,785.788 1524.16,785.464 
  1526.28,785.14 1528.4,784.816 1530.53,784.492 1532.65,784.169 1534.78,783.846 1536.9,783.523 1539.03,783.201 1541.15,782.878 1543.28,782.556 1545.4,782.234 
  1547.53,781.913 1549.65,781.592 1551.78,781.27 1553.9,780.949 1556.03,780.629 1558.15,780.308 1560.28,779.988 1562.4,779.668 1564.53,779.348 1566.65,779.028 
  1568.78,778.709 1570.9,778.389 1573.02,778.07 1575.15,777.751 1577.27,777.432 1579.4,777.114 1581.52,776.795 1583.65,776.477 1585.77,776.158 1587.9,775.84 
  1590.02,775.523 1592.15,775.205 1594.27,774.887 1596.4,774.57 1598.52,774.252 1600.65,773.935 1602.77,773.618 1604.9,773.301 1607.02,772.984 1609.15,772.668 
  1611.27,772.351 1613.4,772.034 1615.52,771.718 1617.65,771.402 1619.77,771.085 1621.89,770.769 1624.02,770.453 1626.14,770.137 1628.27,769.821 1630.39,769.505 
  1632.52,769.19 1634.64,768.874 1636.77,768.558 1638.89,768.243 1641.02,767.927 1643.14,767.612 1645.27,767.296 1647.39,766.981 1649.52,766.665 1651.64,766.35 
  1653.77,766.035 1655.89,765.719 1658.02,765.404 1660.14,765.089 1662.27,764.774 1664.39,764.458 1666.52,764.143 1668.64,763.828 1670.76,763.513 1672.89,763.197 
  1675.01,762.882 1677.14,762.567 1679.26,762.251 1681.39,761.936 1683.51,761.621 1685.64,761.305 1687.76,760.99 1689.89,760.675 1692.01,760.359 1694.14,760.043 
  1696.26,759.728 1698.39,759.412 1700.51,759.096 1702.64,758.781 1704.76,758.465 1706.89,758.149 1709.01,757.833 1711.14,757.517 1713.26,757.201 1715.39,756.884 
  1717.51,756.568 1719.63,756.252 1721.76,755.935 1723.88,755.618 1726.01,755.302 1728.13,754.985 1730.26,754.668 1732.38,754.351 1734.51,754.033 1736.63,753.716 
  1738.76,753.399 1740.88,753.081 1743.01,752.763 1745.13,752.445 1747.26,752.127 1749.38,751.809 1751.51,751.491 1753.63,751.172 1755.76,750.853 1757.88,750.535 
  1760.01,750.216 1762.13,749.896 1764.26,749.577 1766.38,749.257 1768.5,748.938 1770.63,748.618 1772.75,748.298 1774.88,747.977 1777,747.657 1779.13,747.336 
  1781.25,747.015 1783.38,746.694 1785.5,746.372 1787.63,746.051 1789.75,745.729 1791.88,745.407 1794,745.084 1796.13,744.762 1798.25,744.439 1800.38,744.116 
  1802.5,743.793 1804.63,743.469 1806.75,743.145 1808.88,742.821 1811,742.497 1813.13,742.172 1815.25,741.847 1817.37,741.522 1819.5,741.197 1821.62,740.871 
  1823.75,740.545 1825.87,740.219 1828,739.892 1830.12,739.565 1832.25,739.238 1834.37,738.91 1836.5,738.582 1838.62,738.254 1840.75,737.926 1842.87,737.597 
  1845,737.268 1847.12,736.938 1849.25,736.608 1851.37,736.278 1853.5,735.947 1855.62,735.616 1857.75,735.285 1859.87,734.954 1862,734.622 1864.12,734.289 
  1866.24,733.957 1868.37,733.623 1870.49,733.29 1872.62,732.956 1874.74,732.622 1876.87,732.287 1878.99,731.952 1881.12,731.617 1883.24,731.281 1885.37,730.945 
  1887.49,730.608 1889.62,730.271 1891.74,729.934 1893.87,729.596 1895.99,729.257 1898.12,728.919 1900.24,728.579 1902.37,728.24 1904.49,727.9 1906.62,727.559 
  1908.74,727.218 1910.87,726.877 1912.99,726.535 1915.11,726.192 1917.24,725.85 1919.36,725.506 1921.49,725.162 1923.61,724.818 1925.74,724.473 1927.86,724.128 
  1929.99,723.783 1932.11,723.436 1934.24,723.09 1936.36,722.742 1938.49,722.395 1940.61,722.046 1942.74,721.698 1944.86,721.348 1946.99,720.999 1949.11,720.648 
  1951.24,720.297 1953.36,719.946 1955.49,719.594 1957.61,719.242 1959.74,718.889 1961.86,718.535 1963.98,718.181 1966.11,717.826 1968.23,717.471 1970.36,717.115 
  1972.48,716.759 1974.61,716.402 1976.73,716.044 1978.86,715.686 1980.98,715.327 1983.11,714.968 1985.23,714.608 1987.36,714.248 1989.48,713.887 1991.61,713.525 
  1993.73,713.163 1995.86,712.8 1997.98,712.436 2000.11,712.072 2002.23,711.707 2004.36,711.342 2006.48,710.976 2008.61,710.609 2010.73,710.242 2012.85,709.874 
  2014.98,709.505 2017.1,709.136 2019.23,708.766 2021.35,708.395 2023.48,708.024 2025.6,707.652 2027.73,707.279 2029.85,706.906 2031.98,706.532 2034.1,706.157 
  2036.23,705.782 2038.35,705.406 2040.48,705.029 2042.6,704.652 2044.73,704.273 2046.85,703.895 2048.98,703.515 2051.1,703.135 2053.23,702.754 2055.35,702.372 
  2057.48,701.989 2059.6,701.606 2061.72,701.222 2063.85,700.837 2065.97,700.452 2068.1,700.066 2070.22,699.679 2072.35,699.291 2074.47,698.902 2076.6,698.513 
  2078.72,698.123 2080.85,697.732 2082.97,697.341 2085.1,696.948 2087.22,696.555 2089.35,696.161 2091.47,695.767 2093.6,695.371 2095.72,694.975 2097.85,694.578 
  2099.97,694.18 2102.1,693.781 2104.22,693.381 2106.35,692.981 2108.47,692.58 2110.59,692.178 2112.72,691.775 2114.84,691.371 2116.97,690.966 2119.09,690.561 
  2121.22,690.155 2123.34,689.747 2125.47,689.339 2127.59,688.931 2129.72,688.521 2131.84,688.11 2133.97,687.699 2136.09,687.286 2138.22,686.873 2140.34,686.459 
  2142.47,686.044 2144.59,685.628 2146.72,685.211 2148.84,684.794 2150.97,684.375 2153.09,683.956 2155.22,683.535 2157.34,683.114 2159.46,682.691 2161.59,682.268 
  2163.71,681.844 2165.84,681.419 2167.96,680.993 2170.09,680.566 2172.21,680.138 2174.34,679.709 2176.46,679.28 2178.59,678.849 2180.71,678.417 2182.84,677.984 
  2184.96,677.551 2187.09,677.116 2189.21,676.68 2191.34,676.244 2193.46,675.806 2195.59,675.368 2197.71,674.928 2199.84,674.488 2201.96,674.046 2204.08,673.604 
  2206.21,673.16 2208.33,672.715 2210.46,672.27 2212.58,671.823 2214.71,671.375 2216.83,670.927 2218.96,670.477 2221.08,670.026 2223.21,669.574 2225.33,669.122 
  2227.46,668.668 2229.58,668.213 2231.71,667.757 2233.83,667.3 2235.96,666.841 2238.08,666.382 2240.21,665.922 2242.33,665.461 2244.46,664.998 2246.58,664.535 
  2248.71,664.07 2250.83,663.604 2252.95,663.137 2255.08,662.67 2257.2,662.201 2259.33,661.73 2261.45,661.259 2263.58,660.787 2265.7,660.313 2267.83,659.839 
  2269.95,659.363 2272.08,658.886 2274.2,658.408 2276.33,657.929 2278.45,657.449 2280.58,656.967 2282.7,656.485 2284.83,656.001 2286.95,655.516 2289.08,655.03 
  
  "/>
<polyline clip-path="url(#clip5202)" style="stroke:#ac8d18; stroke-width:4; stroke-opacity:1; fill:none" points="
  166.42,1176.47 168.545,1175.62 170.669,1174.77 172.794,1173.92 174.919,1173.07 177.044,1172.22 179.169,1171.37 181.293,1170.51 183.418,1169.66 185.543,1168.81 
  187.668,1167.96 189.792,1167.11 191.917,1166.26 194.042,1165.41 196.167,1164.56 198.292,1163.71 200.416,1162.85 202.541,1162 204.666,1161.15 206.791,1160.3 
  208.915,1159.45 211.04,1158.6 213.165,1157.75 215.29,1156.9 217.415,1156.05 219.539,1155.19 221.664,1154.34 223.789,1153.49 225.914,1152.64 228.039,1151.79 
  230.163,1150.94 232.288,1150.09 234.413,1149.24 236.538,1148.39 238.662,1147.53 240.787,1146.68 242.912,1145.83 245.037,1144.98 247.162,1144.13 249.286,1143.28 
  251.411,1142.43 253.536,1141.58 255.661,1140.73 257.785,1139.87 259.91,1139.02 262.035,1138.17 264.16,1137.32 266.285,1136.47 268.409,1135.62 270.534,1134.77 
  272.659,1133.92 274.784,1133.07 276.908,1132.21 279.033,1131.36 281.158,1130.51 283.283,1129.66 285.408,1128.81 287.532,1127.96 289.657,1127.11 291.782,1126.26 
  293.907,1125.41 296.031,1124.55 298.156,1123.7 300.281,1122.85 302.406,1122 304.531,1121.15 306.655,1120.3 308.78,1119.45 310.905,1118.6 313.03,1117.75 
  315.155,1116.89 317.279,1116.04 319.404,1115.19 321.529,1114.34 323.654,1113.49 325.778,1112.64 327.903,1111.79 330.028,1110.94 332.153,1110.09 334.278,1109.23 
  336.402,1108.38 338.527,1107.53 340.652,1106.68 342.777,1105.83 344.901,1104.98 347.026,1104.13 349.151,1103.28 351.276,1102.43 353.401,1101.57 355.525,1100.72 
  357.65,1099.87 359.775,1099.02 361.9,1098.17 364.024,1097.32 366.149,1096.47 368.274,1095.62 370.399,1094.76 372.524,1093.91 374.648,1093.06 376.773,1092.21 
  378.898,1091.36 381.023,1090.51 383.148,1089.66 385.272,1088.81 387.397,1087.96 389.522,1087.1 391.647,1086.25 393.771,1085.4 395.896,1084.55 398.021,1083.7 
  400.146,1082.85 402.271,1082 404.395,1081.15 406.52,1080.3 408.645,1079.44 410.77,1078.59 412.894,1077.74 415.019,1076.89 417.144,1076.04 419.269,1075.19 
  421.394,1074.34 423.518,1073.49 425.643,1072.64 427.768,1071.78 429.893,1070.93 432.017,1070.08 434.142,1069.23 436.267,1068.38 438.392,1067.53 440.517,1066.68 
  442.641,1065.83 444.766,1064.98 446.891,1064.12 449.016,1063.27 451.141,1062.42 453.265,1061.57 455.39,1060.72 457.515,1059.87 459.64,1059.02 461.764,1058.17 
  463.889,1057.32 466.014,1056.46 468.139,1055.61 470.264,1054.76 472.388,1054.92 474.513,1054.13 476.638,1053.35 478.763,1052.56 480.887,1051.78 483.012,1051 
  485.137,1050.22 487.262,1049.45 489.387,1048.67 491.511,1047.9 493.636,1047.13 495.761,1046.36 497.886,1045.6 500.01,1044.83 502.135,1044.07 504.26,1043.31 
  506.385,1042.55 508.51,1041.79 510.634,1041.03 512.759,1040.28 514.884,1039.53 517.009,1038.78 519.134,1038.03 521.258,1037.28 523.383,1036.54 525.508,1035.8 
  527.633,1035.05 529.757,1034.31 531.882,1033.58 534.007,1032.84 536.132,1032.11 538.257,1031.37 540.381,1030.64 542.506,1029.91 544.631,1029.19 546.756,1028.46 
  548.88,1027.74 551.005,1027.02 553.13,1026.3 555.255,1025.58 557.38,1024.86 559.504,1024.15 561.629,1023.43 563.754,1022.72 565.879,1022.01 568.003,1021.3 
  570.128,1020.6 572.253,1019.89 574.378,1019.19 576.503,1018.49 578.627,1017.79 580.752,1017.09 582.877,1016.4 585.002,1015.7 587.127,1015.01 589.251,1014.32 
  591.376,1013.63 593.501,1012.94 595.626,1012.25 597.75,1011.57 599.875,1010.89 602,1010.21 604.125,1009.53 606.25,1008.85 608.374,1008.17 610.499,1007.5 
  612.624,1006.83 614.749,1006.16 616.873,1005.49 618.998,1004.82 621.123,1004.15 623.248,1003.49 625.373,1002.83 627.497,1002.17 629.622,1001.51 631.747,1000.85 
  633.872,1000.19 635.996,999.537 638.121,998.884 640.246,998.232 642.371,997.583 644.496,996.934 646.62,996.288 648.745,995.643 650.87,994.999 652.995,994.358 
  655.12,993.717 657.244,993.079 659.369,992.442 661.494,991.806 663.619,991.172 665.743,990.54 667.868,989.909 669.993,989.28 672.118,988.652 674.243,988.026 
  676.367,987.401 678.492,986.778 680.617,986.157 682.742,985.537 684.866,984.919 686.991,984.302 689.116,983.687 691.241,983.073 693.366,982.461 695.49,981.85 
  697.615,981.241 699.74,980.633 701.865,980.027 703.989,979.422 706.114,978.819 708.239,978.217 710.364,977.617 712.489,977.018 714.613,976.421 716.738,975.826 
  718.863,975.231 720.988,974.639 723.113,974.048 725.237,973.458 727.362,972.869 729.487,972.283 731.612,971.697 733.736,971.113 735.861,970.531 737.986,969.95 
  740.111,969.371 742.236,968.793 744.36,968.216 746.485,967.641 748.61,967.067 750.735,966.495 752.859,965.924 754.984,965.354 757.109,964.786 759.234,964.22 
  761.359,963.655 763.483,963.091 765.608,962.529 767.733,961.968 769.858,961.408 771.982,960.85 774.107,960.293 776.232,959.738 778.357,959.184 780.482,958.632 
  782.606,958.081 784.731,957.531 786.856,956.982 788.981,956.435 791.106,955.89 793.23,955.346 795.355,954.803 797.48,954.261 799.605,953.721 801.729,953.182 
  803.854,952.645 805.979,952.109 808.104,951.574 810.229,951.041 812.353,950.508 814.478,949.978 816.603,949.448 818.728,948.92 820.852,948.394 822.977,947.868 
  825.102,947.344 827.227,946.821 829.352,946.3 831.476,945.78 833.601,945.261 835.726,944.743 837.851,944.227 839.975,943.712 842.1,943.198 844.225,942.686 
  846.35,942.175 848.475,941.665 850.599,941.157 852.724,940.649 854.849,940.144 856.974,939.639 859.099,939.135 861.223,938.633 863.348,938.132 865.473,937.633 
  867.598,937.134 869.722,936.637 871.847,936.141 873.972,935.647 876.097,935.153 878.222,934.661 880.346,934.17 882.471,933.68 884.596,933.192 886.721,932.705 
  888.845,932.219 890.97,931.734 893.095,931.25 895.22,930.768 897.345,930.287 899.469,929.807 901.594,929.328 903.719,928.85 905.844,928.374 907.968,927.899 
  910.093,927.425 912.218,926.952 914.343,926.48 916.468,926.01 918.592,925.541 920.717,925.073 922.842,924.606 924.967,924.14 927.091,923.675 929.216,923.212 
  931.341,922.749 933.466,922.288 935.591,921.828 937.715,921.369 939.84,920.912 941.965,920.455 944.09,920 946.215,919.545 948.339,919.092 950.464,918.64 
  952.589,918.189 954.714,917.739 956.838,917.29 958.963,916.843 961.088,916.396 963.213,915.951 965.338,915.507 967.462,915.063 969.587,914.621 971.712,914.18 
  973.837,913.74 975.961,913.301 978.086,912.864 980.211,912.427 982.336,911.991 984.461,911.557 986.585,911.123 988.71,910.691 990.835,910.26 992.96,909.829 
  995.084,909.4 997.209,908.972 999.334,908.545 1001.46,908.119 1003.58,907.694 1005.71,907.27 1007.83,906.847 1009.96,906.425 1012.08,906.004 1014.21,905.584 
  1016.33,905.165 1018.46,904.747 1020.58,904.33 1022.71,903.914 1024.83,903.5 1026.96,903.086 1029.08,902.673 1031.21,902.261 1033.33,901.85 1035.46,901.44 
  1037.58,901.032 1039.7,900.624 1041.83,900.217 1043.95,899.811 1046.08,899.406 1048.2,899.002 1050.33,898.599 1052.45,898.197 1054.58,897.796 1056.7,897.396 
  1058.83,896.997 1060.95,896.598 1063.08,896.201 1065.2,895.805 1067.33,895.41 1069.45,895.015 1071.58,894.622 1073.7,894.229 1075.83,893.837 1077.95,893.447 
  1080.08,893.057 1082.2,892.668 1084.33,892.28 1086.45,891.893 1088.57,891.507 1090.7,891.122 1092.82,890.737 1094.95,890.354 1097.07,889.971 1099.2,889.59 
  1101.32,889.209 1103.45,888.829 1105.57,888.45 1107.7,888.072 1109.82,887.695 1111.95,887.318 1114.07,886.943 1116.2,886.568 1118.32,886.194 1120.45,885.821 
  1122.57,885.449 1124.7,885.078 1126.82,884.708 1128.95,884.338 1131.07,883.97 1133.2,883.602 1135.32,883.235 1137.44,882.868 1139.57,882.503 1141.69,882.139 
  1143.82,881.775 1145.94,881.412 1148.07,881.05 1150.19,880.689 1152.32,880.328 1154.44,879.969 1156.57,879.61 1158.69,879.252 1160.82,878.894 1162.94,878.538 
  1165.07,878.182 1167.19,877.827 1169.32,877.473 1171.44,877.12 1173.57,876.767 1175.69,876.416 1177.82,876.065 1179.94,875.714 1182.07,875.365 1184.19,875.016 
  1186.31,874.668 1188.44,874.321 1190.56,873.974 1192.69,873.629 1194.81,873.284 1196.94,872.939 1199.06,872.596 1201.19,872.253 1203.31,871.911 1205.44,871.57 
  1207.56,871.229 1209.69,870.889 1211.81,870.55 1213.94,870.212 1216.06,869.874 1218.19,869.537 1220.31,869.2 1222.44,868.865 1224.56,868.53 1226.69,868.196 
  1228.81,867.862 1230.94,867.529 1233.06,867.197 1235.18,866.865 1237.31,866.535 1239.43,866.204 1241.56,865.875 1243.68,865.546 1245.81,865.218 1247.93,864.89 
  1250.06,864.563 1252.18,864.237 1254.31,863.912 1256.43,863.587 1258.56,863.262 1260.68,862.939 1262.81,862.616 1264.93,862.293 1267.06,861.972 1269.18,861.65 
  1271.31,861.33 1273.43,861.01 1275.56,860.691 1277.68,860.372 1279.81,860.054 1281.93,859.737 1284.05,859.42 1286.18,859.104 1288.3,858.788 1290.43,858.473 
  1292.55,858.158 1294.68,857.844 1296.8,857.531 1298.93,857.218 1301.05,856.906 1303.18,856.595 1305.3,856.284 1307.43,855.973 1309.55,855.663 1311.68,855.354 
  1313.8,855.045 1315.93,854.737 1318.05,854.429 1320.18,854.122 1322.3,853.816 1324.43,853.51 1326.55,853.204 1328.68,852.899 1330.8,852.595 1332.92,852.291 
  1335.05,851.987 1337.17,851.684 1339.3,851.382 1341.42,851.08 1343.55,850.779 1345.67,850.478 1347.8,850.178 1349.92,849.878 1352.05,849.579 1354.17,849.28 
  1356.3,848.981 1358.42,848.683 1360.55,848.386 1362.67,848.089 1364.8,847.793 1366.92,847.497 1369.05,847.201 1371.17,846.906 1373.3,846.612 1375.42,846.318 
  1377.55,846.024 1379.67,845.731 1381.79,845.438 1383.92,845.146 1386.04,844.854 1388.17,844.562 1390.29,844.271 1392.42,843.981 1394.54,843.691 1396.67,843.401 
  1398.79,843.112 1400.92,842.823 1403.04,842.534 1405.17,842.246 1407.29,841.959 1409.42,841.671 1411.54,841.385 1413.67,841.098 1415.79,840.812 1417.92,840.527 
  1420.04,840.241 1422.17,839.956 1424.29,839.672 1426.42,839.388 1428.54,839.104 1430.66,838.821 1432.79,838.538 1434.91,838.255 1437.04,837.973 1439.16,837.691 
  1441.29,837.409 1443.41,837.128 1445.54,836.847 1447.66,836.567 1449.79,836.287 1451.91,836.007 1454.04,835.728 1456.16,835.448 1458.29,835.17 1460.41,834.891 
  1462.54,834.613 1464.66,834.335 1466.79,834.058 1468.91,833.78 1471.04,833.503 1473.16,833.227 1475.29,832.95 1477.41,832.674 1479.53,832.399 1481.66,832.123 
  1483.78,831.848 1485.91,831.573 1488.03,831.299 1490.16,831.025 1492.28,830.751 1494.41,830.477 1496.53,830.203 1498.66,829.93 1500.78,829.657 1502.91,829.385 
  1505.03,829.112 1507.16,828.84 1509.28,828.568 1511.41,828.296 1513.53,828.025 1515.66,827.754 1517.78,827.483 1519.91,827.212 1522.03,826.942 1524.16,826.671 
  1526.28,826.401 1528.4,826.132 1530.53,825.862 1532.65,825.593 1534.78,825.323 1536.9,825.054 1539.03,824.786 1541.15,824.517 1543.28,824.249 1545.4,823.98 
  1547.53,823.712 1549.65,823.445 1551.78,823.177 1553.9,822.91 1556.03,822.642 1558.15,822.375 1560.28,822.108 1562.4,821.842 1564.53,821.575 1566.65,821.308 
  1568.78,821.042 1570.9,820.776 1573.02,820.51 1575.15,820.244 1577.27,819.979 1579.4,819.713 1581.52,819.448 1583.65,819.182 1585.77,818.917 1587.9,818.652 
  1590.02,818.387 1592.15,818.122 1594.27,817.858 1596.4,817.593 1598.52,817.329 1600.65,817.064 1602.77,816.8 1604.9,816.536 1607.02,816.272 1609.15,816.008 
  1611.27,815.744 1613.4,815.48 1615.52,815.217 1617.65,814.953 1619.77,814.69 1621.89,814.426 1624.02,814.163 1626.14,813.899 1628.27,813.636 1630.39,813.373 
  1632.52,813.11 1634.64,812.847 1636.77,812.584 1638.89,812.321 1641.02,812.058 1643.14,811.795 1645.27,811.532 1647.39,811.269 1649.52,811.006 1651.64,810.743 
  1653.77,810.481 1655.89,810.218 1658.02,809.955 1660.14,809.692 1662.27,809.43 1664.39,809.167 1666.52,808.904 1668.64,808.642 1670.76,808.379 1672.89,808.116 
  1675.01,807.853 1677.14,807.591 1679.26,807.328 1681.39,807.065 1683.51,806.802 1685.64,806.54 1687.76,806.277 1689.89,806.014 1692.01,805.751 1694.14,805.488 
  1696.26,805.225 1698.39,804.962 1700.51,804.699 1702.64,804.436 1704.76,804.172 1706.89,803.909 1709.01,803.646 1711.14,803.382 1713.26,803.119 1715.39,802.855 
  1717.51,802.592 1719.63,802.328 1721.76,802.064 1723.88,801.8 1726.01,801.536 1728.13,801.272 1730.26,801.008 1732.38,800.744 1734.51,800.48 1736.63,800.215 
  1738.76,799.951 1740.88,799.686 1743.01,799.421 1745.13,799.156 1747.26,798.891 1749.38,798.626 1751.51,798.361 1753.63,798.095 1755.76,797.83 1757.88,797.564 
  1760.01,797.298 1762.13,797.032 1764.26,796.766 1766.38,796.5 1768.5,796.233 1770.63,795.966 1772.75,795.7 1774.88,795.433 1777,795.166 1779.13,794.898 
  1781.25,794.631 1783.38,794.363 1785.5,794.095 1787.63,793.827 1789.75,793.559 1791.88,793.291 1794,793.022 1796.13,792.753 1798.25,792.484 1800.38,792.215 
  1802.5,791.946 1804.63,791.676 1806.75,791.406 1808.88,791.136 1811,790.866 1813.13,790.595 1815.25,790.325 1817.37,790.054 1819.5,789.782 1821.62,789.511 
  1823.75,789.239 1825.87,788.967 1828,788.695 1830.12,788.423 1832.25,788.15 1834.37,787.877 1836.5,787.604 1838.62,787.33 1840.75,787.056 1842.87,786.782 
  1845,786.508 1847.12,786.233 1849.25,785.959 1851.37,785.683 1853.5,785.408 1855.62,785.132 1857.75,784.856 1859.87,784.58 1862,784.303 1864.12,784.026 
  1866.24,783.749 1868.37,783.471 1870.49,783.193 1872.62,782.915 1874.74,782.637 1876.87,782.358 1878.99,782.079 1881.12,781.799 1883.24,781.519 1885.37,781.239 
  1887.49,780.958 1889.62,780.678 1891.74,780.396 1893.87,780.115 1895.99,779.833 1898.12,779.551 1900.24,779.268 1902.37,778.985 1904.49,778.701 1906.62,778.418 
  1908.74,778.133 1910.87,777.849 1912.99,777.564 1915.11,777.279 1917.24,776.993 1919.36,776.707 1921.49,776.42 1923.61,776.134 1925.74,775.846 1927.86,775.559 
  1929.99,775.271 1932.11,774.982 1934.24,774.693 1936.36,774.404 1938.49,774.114 1940.61,773.824 1942.74,773.533 1944.86,773.242 1946.99,772.951 1949.11,772.659 
  1951.24,772.366 1953.36,772.073 1955.49,771.78 1957.61,771.486 1959.74,771.192 1961.86,770.898 1963.98,770.603 1966.11,770.307 1968.23,770.011 1970.36,769.714 
  1972.48,769.417 1974.61,769.12 1976.73,768.822 1978.86,768.524 1980.98,768.225 1983.11,767.925 1985.23,767.625 1987.36,767.325 1989.48,767.024 1991.61,766.723 
  1993.73,766.421 1995.86,766.118 1997.98,765.815 2000.11,765.512 2002.23,765.208 2004.36,764.903 2006.48,764.598 2008.61,764.293 2010.73,763.986 2012.85,763.68 
  2014.98,763.373 2017.1,763.065 2019.23,762.757 2021.35,762.448 2023.48,762.138 2025.6,761.828 2027.73,761.518 2029.85,761.207 2031.98,760.895 2034.1,760.583 
  2036.23,760.27 2038.35,759.957 2040.48,759.643 2042.6,759.328 2044.73,759.013 2046.85,758.697 2048.98,758.381 2051.1,758.064 2053.23,757.746 2055.35,757.428 
  2057.48,757.109 2059.6,756.79 2061.72,756.47 2063.85,756.15 2065.97,755.828 2068.1,755.506 2070.22,755.184 2072.35,754.861 2074.47,754.537 2076.6,754.213 
  2078.72,753.888 2080.85,753.562 2082.97,753.236 2085.1,752.909 2087.22,752.581 2089.35,752.253 2091.47,751.924 2093.6,751.594 2095.72,751.264 2097.85,750.933 
  2099.97,750.601 2102.1,750.269 2104.22,749.936 2106.35,749.602 2108.47,749.268 2110.59,748.933 2112.72,748.597 2114.84,748.261 2116.97,747.924 2119.09,747.586 
  2121.22,747.247 2123.34,746.908 2125.47,746.568 2127.59,746.227 2129.72,745.886 2131.84,745.544 2133.97,745.201 2136.09,744.857 2138.22,744.513 2140.34,744.168 
  2142.47,743.822 2144.59,743.475 2146.72,743.128 2148.84,742.78 2150.97,742.431 2153.09,742.081 2155.22,741.731 2157.34,741.38 2159.46,741.028 2161.59,740.675 
  2163.71,740.322 2165.84,739.968 2167.96,739.613 2170.09,739.257 2172.21,738.9 2174.34,738.543 2176.46,738.185 2178.59,737.826 2180.71,737.466 2182.84,737.105 
  2184.96,736.744 2187.09,736.382 2189.21,736.019 2191.34,735.655 2193.46,735.29 2195.59,734.925 2197.71,734.559 2199.84,734.191 2201.96,733.823 2204.08,733.455 
  2206.21,733.085 2208.33,732.715 2210.46,732.343 2212.58,731.971 2214.71,731.598 2216.83,731.224 2218.96,730.849 2221.08,730.474 2223.21,730.097 2225.33,729.72 
  2227.46,729.341 2229.58,728.962 2231.71,728.582 2233.83,728.201 2235.96,727.82 2238.08,727.437 2240.21,727.053 2242.33,726.669 2244.46,726.284 2246.58,725.897 
  2248.71,725.51 2250.83,725.122 2252.95,724.733 2255.08,724.343 2257.2,723.952 2259.33,723.56 2261.45,723.168 2263.58,722.774 2265.7,722.38 2267.83,721.984 
  2269.95,721.588 2272.08,721.19 2274.2,720.792 2276.33,720.392 2278.45,719.992 2280.58,719.591 2282.7,719.189 2284.83,718.786 2286.95,718.382 2289.08,717.977 
  
  "/>
<path clip-path="url(#clip5200)" d="
M1860.16 493.644 L2280.76 493.644 L2280.76 130.764 L1860.16 130.764  Z
  " fill="#ffffff" fill-rule="evenodd" fill-opacity="1"/>
<polyline clip-path="url(#clip5200)" style="stroke:#000000; stroke-width:4; stroke-opacity:1; fill:none" points="
  1860.16,493.644 2280.76,493.644 2280.76,130.764 1860.16,130.764 1860.16,493.644 
  "/>
<polyline clip-path="url(#clip5200)" style="stroke:#009af9; stroke-width:4; stroke-opacity:1; fill:none" points="
  1884.16,191.244 2028.16,191.244 
  "/>
<g clip-path="url(#clip5200)">
<text style="fill:#000000; fill-opacity:1; font-family:Arial,Helvetica Neue,Helvetica,sans-serif; font-size:48px; text-anchor:start;" transform="rotate(0, 2052.16, 208.744)" x="2052.16" y="208.744">Rv=2.0</text>
</g>
<polyline clip-path="url(#clip5200)" style="stroke:#e26f46; stroke-width:4; stroke-opacity:1; fill:none" points="
  1884.16,251.724 2028.16,251.724 
  "/>
<g clip-path="url(#clip5200)">
<text style="fill:#000000; fill-opacity:1; font-family:Arial,Helvetica Neue,Helvetica,sans-serif; font-size:48px; text-anchor:start;" transform="rotate(0, 2052.16, 269.224)" x="2052.16" y="269.224">Rv=3.0</text>
</g>
<polyline clip-path="url(#clip5200)" style="stroke:#3da44d; stroke-width:4; stroke-opacity:1; fill:none" points="
  1884.16,312.204 2028.16,312.204 
  "/>
<g clip-path="url(#clip5200)">
<text style="fill:#000000; fill-opacity:1; font-family:Arial,Helvetica Neue,Helvetica,sans-serif; font-size:48px; text-anchor:start;" transform="rotate(0, 2052.16, 329.704)" x="2052.16" y="329.704">Rv=4.05</text>
</g>
<polyline clip-path="url(#clip5200)" style="stroke:#c271d2; stroke-width:4; stroke-opacity:1; fill:none" points="
  1884.16,372.684 2028.16,372.684 
  "/>
<g clip-path="url(#clip5200)">
<text style="fill:#000000; fill-opacity:1; font-family:Arial,Helvetica Neue,Helvetica,sans-serif; font-size:48px; text-anchor:start;" transform="rotate(0, 2052.16, 390.184)" x="2052.16" y="390.184">Rv=5.0</text>
</g>
<polyline clip-path="url(#clip5200)" style="stroke:#ac8d18; stroke-width:4; stroke-opacity:1; fill:none" points="
  1884.16,433.164 2028.16,433.164 
  "/>
<g clip-path="url(#clip5200)">
<text style="fill:#000000; fill-opacity:1; font-family:Arial,Helvetica Neue,Helvetica,sans-serif; font-size:48px; text-anchor:start;" transform="rotate(0, 2052.16, 450.664)" x="2052.16" y="450.664">Rv=6.0</text>
</g>
</svg>
