<?xml version="1.0" encoding="utf-8"?>
<svg xmlns="http://www.w3.org/2000/svg" xmlns:xlink="http://www.w3.org/1999/xlink" width="600" height="400" viewBox="0 0 2400 1600">
<defs>
  <clipPath id="clip4900">
    <rect x="0" y="0" width="2400" height="1600"/>
  </clipPath>
</defs>
<path clip-path="url(#clip4900)" d="
M0 1600 L2400 1600 L2400 0 L0 0  Z
  " fill="#ffffff" fill-rule="evenodd" fill-opacity="1"/>
<defs>
  <clipPath id="clip4901">
    <rect x="480" y="0" width="1681" height="1600"/>
  </clipPath>
</defs>
<path clip-path="url(#clip4900)" d="
M102.74 1505.26 L2352.76 1505.26 L2352.76 47.2441 L102.74 47.2441  Z
  " fill="#ffffff" fill-rule="evenodd" fill-opacity="1"/>
<defs>
  <clipPath id="clip4902">
    <rect x="102" y="47" width="2251" height="1459"/>
  </clipPath>
</defs>
<polyline clip-path="url(#clip4902)" style="stroke:#000000; stroke-width:2; stroke-opacity:0.1; fill:none" points="
  538.432,1505.26 538.432,47.2441 
  "/>
<polyline clip-path="url(#clip4902)" style="stroke:#000000; stroke-width:2; stroke-opacity:0.1; fill:none" points="
  976.093,1505.26 976.093,47.2441 
  "/>
<polyline clip-path="url(#clip4902)" style="stroke:#000000; stroke-width:2; stroke-opacity:0.1; fill:none" points="
  1413.75,1505.26 1413.75,47.2441 
  "/>
<polyline clip-path="url(#clip4902)" style="stroke:#000000; stroke-width:2; stroke-opacity:0.1; fill:none" points="
  1851.42,1505.26 1851.42,47.2441 
  "/>
<polyline clip-path="url(#clip4902)" style="stroke:#000000; stroke-width:2; stroke-opacity:0.1; fill:none" points="
  2289.08,1505.26 2289.08,47.2441 
  "/>
<polyline clip-path="url(#clip4902)" style="stroke:#000000; stroke-width:2; stroke-opacity:0.1; fill:none" points="
  102.74,1470.56 2352.76,1470.56 
  "/>
<polyline clip-path="url(#clip4902)" style="stroke:#000000; stroke-width:2; stroke-opacity:0.1; fill:none" points="
  102.74,1176.73 2352.76,1176.73 
  "/>
<polyline clip-path="url(#clip4902)" style="stroke:#000000; stroke-width:2; stroke-opacity:0.1; fill:none" points="
  102.74,882.891 2352.76,882.891 
  "/>
<polyline clip-path="url(#clip4902)" style="stroke:#000000; stroke-width:2; stroke-opacity:0.1; fill:none" points="
  102.74,589.056 2352.76,589.056 
  "/>
<polyline clip-path="url(#clip4902)" style="stroke:#000000; stroke-width:2; stroke-opacity:0.1; fill:none" points="
  102.74,295.222 2352.76,295.222 
  "/>
<polyline clip-path="url(#clip4900)" style="stroke:#000000; stroke-width:4; stroke-opacity:1; fill:none" points="
  102.74,1505.26 2352.76,1505.26 
  "/>
<polyline clip-path="url(#clip4900)" style="stroke:#000000; stroke-width:4; stroke-opacity:1; fill:none" points="
  102.74,1505.26 102.74,47.2441 
  "/>
<polyline clip-path="url(#clip4900)" style="stroke:#000000; stroke-width:4; stroke-opacity:1; fill:none" points="
  538.432,1505.26 538.432,1487.76 
  "/>
<polyline clip-path="url(#clip4900)" style="stroke:#000000; stroke-width:4; stroke-opacity:1; fill:none" points="
  976.093,1505.26 976.093,1487.76 
  "/>
<polyline clip-path="url(#clip4900)" style="stroke:#000000; stroke-width:4; stroke-opacity:1; fill:none" points="
  1413.75,1505.26 1413.75,1487.76 
  "/>
<polyline clip-path="url(#clip4900)" style="stroke:#000000; stroke-width:4; stroke-opacity:1; fill:none" points="
  1851.42,1505.26 1851.42,1487.76 
  "/>
<polyline clip-path="url(#clip4900)" style="stroke:#000000; stroke-width:4; stroke-opacity:1; fill:none" points="
  2289.08,1505.26 2289.08,1487.76 
  "/>
<polyline clip-path="url(#clip4900)" style="stroke:#000000; stroke-width:4; stroke-opacity:1; fill:none" points="
  102.74,1470.56 129.74,1470.56 
  "/>
<polyline clip-path="url(#clip4900)" style="stroke:#000000; stroke-width:4; stroke-opacity:1; fill:none" points="
  102.74,1176.73 129.74,1176.73 
  "/>
<polyline clip-path="url(#clip4900)" style="stroke:#000000; stroke-width:4; stroke-opacity:1; fill:none" points="
  102.74,882.891 129.74,882.891 
  "/>
<polyline clip-path="url(#clip4900)" style="stroke:#000000; stroke-width:4; stroke-opacity:1; fill:none" points="
  102.74,589.056 129.74,589.056 
  "/>
<polyline clip-path="url(#clip4900)" style="stroke:#000000; stroke-width:4; stroke-opacity:1; fill:none" points="
  102.74,295.222 129.74,295.222 
  "/>
<g clip-path="url(#clip4900)">
<text style="fill:#000000; fill-opacity:1; font-family:Arial,Helvetica Neue,Helvetica,sans-serif; font-size:48px; text-anchor:middle;" transform="rotate(0, 538.432, 1559.26)" x="538.432" y="1559.26">2</text>
</g>
<g clip-path="url(#clip4900)">
<text style="fill:#000000; fill-opacity:1; font-family:Arial,Helvetica Neue,Helvetica,sans-serif; font-size:48px; text-anchor:middle;" transform="rotate(0, 976.093, 1559.26)" x="976.093" y="1559.26">4</text>
</g>
<g clip-path="url(#clip4900)">
<text style="fill:#000000; fill-opacity:1; font-family:Arial,Helvetica Neue,Helvetica,sans-serif; font-size:48px; text-anchor:middle;" transform="rotate(0, 1413.75, 1559.26)" x="1413.75" y="1559.26">6</text>
</g>
<g clip-path="url(#clip4900)">
<text style="fill:#000000; fill-opacity:1; font-family:Arial,Helvetica Neue,Helvetica,sans-serif; font-size:48px; text-anchor:middle;" transform="rotate(0, 1851.42, 1559.26)" x="1851.42" y="1559.26">8</text>
</g>
<g clip-path="url(#clip4900)">
<text style="fill:#000000; fill-opacity:1; font-family:Arial,Helvetica Neue,Helvetica,sans-serif; font-size:48px; text-anchor:middle;" transform="rotate(0, 2289.08, 1559.26)" x="2289.08" y="1559.26">10</text>
</g>
<g clip-path="url(#clip4900)">
<text style="fill:#000000; fill-opacity:1; font-family:Arial,Helvetica Neue,Helvetica,sans-serif; font-size:48px; text-anchor:end;" transform="rotate(0, 78.7402, 1488.06)" x="78.7402" y="1488.06">0</text>
</g>
<g clip-path="url(#clip4900)">
<text style="fill:#000000; fill-opacity:1; font-family:Arial,Helvetica Neue,Helvetica,sans-serif; font-size:48px; text-anchor:end;" transform="rotate(0, 78.7402, 1194.23)" x="78.7402" y="1194.23">2</text>
</g>
<g clip-path="url(#clip4900)">
<text style="fill:#000000; fill-opacity:1; font-family:Arial,Helvetica Neue,Helvetica,sans-serif; font-size:48px; text-anchor:end;" transform="rotate(0, 78.7402, 900.391)" x="78.7402" y="900.391">4</text>
</g>
<g clip-path="url(#clip4900)">
<text style="fill:#000000; fill-opacity:1; font-family:Arial,Helvetica Neue,Helvetica,sans-serif; font-size:48px; text-anchor:end;" transform="rotate(0, 78.7402, 606.556)" x="78.7402" y="606.556">6</text>
</g>
<g clip-path="url(#clip4900)">
<text style="fill:#000000; fill-opacity:1; font-family:Arial,Helvetica Neue,Helvetica,sans-serif; font-size:48px; text-anchor:end;" transform="rotate(0, 78.7402, 312.722)" x="78.7402" y="312.722">8</text>
</g>
<g clip-path="url(#clip4900)">
<text style="fill:#000000; fill-opacity:1; font-family:Arial,Helvetica Neue,Helvetica,sans-serif; font-size:66px; text-anchor:middle;" transform="rotate(-90, 16.4157, 776.252)" x="16.4157" y="776.252">E(B-V)</text>
</g>
<polyline clip-path="url(#clip4902)" style="stroke:#009af9; stroke-width:4; stroke-opacity:1; fill:none" points="
  166.42,1464 168.545,1463.65 170.669,1463.3 172.794,1462.94 174.919,1462.57 177.044,1462.2 179.169,1461.82 181.293,1461.44 183.418,1461.05 185.543,1460.65 
  187.668,1460.25 189.792,1459.84 191.917,1459.42 194.042,1459 196.167,1458.58 198.292,1458.14 200.416,1457.71 202.541,1457.26 204.666,1456.81 206.791,1456.36 
  208.915,1455.9 211.04,1455.43 213.165,1454.96 215.29,1454.48 217.415,1454 219.539,1453.51 221.664,1453.01 223.789,1452.51 225.914,1452.01 228.039,1451.5 
  230.163,1450.98 232.288,1450.46 234.413,1449.94 236.538,1449.41 238.662,1448.87 240.787,1448.33 242.912,1447.79 245.037,1447.24 247.162,1446.68 249.286,1446.12 
  251.411,1445.56 253.536,1444.98 255.661,1444.41 257.785,1443.83 259.91,1443.24 262.035,1442.66 264.16,1442.06 266.285,1441.46 268.409,1440.86 270.534,1440.25 
  272.659,1439.64 274.784,1439.02 276.908,1438.4 279.033,1437.77 281.158,1437.14 283.283,1436.5 285.408,1435.86 287.532,1435.22 289.657,1434.57 291.782,1433.91 
  293.907,1433.25 296.031,1432.59 298.156,1431.92 300.281,1431.25 302.406,1430.57 304.531,1429.89 306.655,1429.21 308.78,1428.52 310.905,1427.83 313.03,1427.13 
  315.155,1426.43 317.279,1425.72 319.404,1425.01 321.529,1424.29 323.654,1423.58 325.778,1422.85 327.903,1422.12 330.028,1421.39 332.153,1420.66 334.278,1419.92 
  336.402,1419.17 338.527,1418.43 340.652,1417.67 342.777,1416.87 344.901,1416.02 347.026,1414.99 349.151,1413.81 351.276,1412.49 353.401,1411.06 355.525,1409.54 
  357.65,1407.95 359.775,1406.29 361.9,1404.59 364.024,1402.86 366.149,1401.11 368.274,1399.35 370.399,1397.58 372.524,1395.83 374.648,1394.08 376.773,1392.36 
  378.898,1390.66 381.023,1389 383.148,1387.36 385.272,1385.77 387.397,1384.21 389.522,1382.7 391.647,1381.22 393.771,1379.79 395.896,1378.4 398.021,1377.05 
  400.146,1375.75 402.271,1374.48 404.395,1373.26 406.52,1372.07 408.645,1370.92 410.77,1369.8 412.894,1368.72 415.019,1367.66 417.144,1366.63 419.269,1365.63 
  421.394,1364.65 423.518,1363.68 425.643,1362.73 427.768,1361.8 429.893,1360.88 432.017,1359.96 434.142,1359.05 436.267,1358.14 438.392,1357.23 440.517,1356.32 
  442.641,1355.4 444.766,1354.48 446.891,1353.54 449.016,1352.6 451.141,1351.64 453.265,1350.66 455.39,1349.66 457.515,1348.65 459.64,1347.61 461.764,1346.56 
  463.889,1345.47 466.014,1344.37 468.139,1343.24 470.264,1342.08 472.388,1340.89 474.513,1339.68 476.638,1338.44 478.763,1337.17 480.887,1335.87 483.012,1334.54 
  485.137,1333.18 487.262,1331.8 489.387,1330.39 491.511,1328.95 493.636,1327.49 495.761,1325.99 497.886,1324.48 500.01,1322.94 502.135,1321.38 504.26,1319.79 
  506.385,1318.19 508.51,1316.56 510.634,1314.92 512.759,1313.26 514.884,1311.59 517.009,1309.9 519.134,1308.2 521.258,1306.49 523.383,1304.77 525.508,1303.05 
  527.633,1301.32 529.757,1299.58 531.882,1297.85 534.007,1296.11 536.132,1294.37 538.257,1292.64 540.381,1290.91 542.506,1289.19 544.631,1287.47 546.756,1285.77 
  548.88,1284.07 551.005,1282.39 553.13,1280.72 555.255,1279.07 557.38,1277.43 559.504,1275.81 561.629,1274.21 563.754,1272.63 565.879,1271.06 568.003,1269.52 
  570.128,1268.01 572.253,1266.51 574.378,1265.04 576.503,1263.6 578.627,1262.17 580.752,1260.78 582.877,1259.41 585.002,1258.06 587.127,1256.74 589.251,1255.45 
  591.376,1254.18 593.501,1252.94 595.626,1251.73 597.75,1250.53 599.875,1249.37 602,1248.22 604.125,1247.1 606.25,1246 608.374,1244.93 610.499,1243.87 
  612.624,1242.83 614.749,1241.82 616.873,1240.81 618.998,1239.83 621.123,1238.86 623.248,1237.9 625.373,1236.96 627.497,1236.03 629.622,1235.1 631.747,1234.18 
  633.872,1233.27 635.996,1232.36 638.121,1231.46 640.246,1230.55 642.371,1229.65 644.496,1228.74 646.62,1227.83 648.745,1226.91 650.87,1225.98 652.995,1225.05 
  655.12,1224.1 657.244,1223.14 659.369,1222.17 661.494,1221.18 663.619,1220.17 665.743,1219.14 667.868,1218.09 669.993,1217.02 672.118,1215.93 674.243,1214.81 
  676.367,1213.67 678.492,1212.5 680.617,1211.3 682.742,1210.07 684.866,1208.82 686.991,1207.53 689.116,1206.22 691.241,1204.87 693.366,1203.49 695.49,1202.09 
  697.615,1200.65 699.74,1199.18 701.865,1197.68 703.989,1196.15 706.114,1194.59 708.239,1193 710.364,1191.38 712.489,1189.74 714.613,1188.07 716.738,1186.38 
  718.863,1184.67 720.988,1182.93 723.113,1181.17 725.237,1179.4 727.362,1177.61 729.487,1175.81 731.612,1174 733.736,1172.18 735.861,1170.35 737.986,1168.52 
  740.111,1166.68 742.236,1164.86 744.36,1163.03 746.485,1161.21 748.61,1159.41 750.735,1157.61 752.859,1155.84 754.984,1154.08 757.109,1152.35 759.234,1150.64 
  761.359,1148.96 763.483,1147.31 765.608,1145.69 767.733,1144.11 769.858,1142.57 771.982,1141.06 774.107,1139.6 776.232,1138.18 778.357,1136.81 780.482,1135.48 
  782.606,1134.2 784.731,1132.96 786.856,1131.77 788.981,1130.62 791.106,1129.52 793.23,1128.45 795.355,1127.43 797.48,1126.44 799.605,1125.48 801.729,1124.54 
  803.854,1123.63 805.979,1122.72 808.104,1121.83 810.229,1120.92 812.353,1120 814.478,1119.06 816.603,1118.08 818.728,1117.04 820.852,1115.94 822.977,1113.62 
  825.102,1112.28 827.227,1110.94 829.352,1109.58 831.476,1108.21 833.601,1106.84 835.726,1105.45 837.851,1104.06 839.975,1102.65 842.1,1101.24 844.225,1099.81 
  846.35,1098.37 848.475,1096.92 850.599,1095.46 852.724,1093.98 854.849,1092.49 856.974,1090.99 859.099,1089.48 861.223,1087.96 863.348,1086.42 865.473,1084.86 
  867.598,1083.29 869.722,1081.71 871.847,1080.11 873.972,1078.5 876.097,1076.87 878.222,1075.23 880.346,1073.56 882.471,1071.88 884.596,1070.19 886.721,1068.47 
  888.845,1066.74 890.97,1064.99 893.095,1063.22 895.22,1061.42 897.345,1059.61 899.469,1057.78 901.594,1055.93 903.719,1054.05 905.844,1052.15 907.968,1050.23 
  910.093,1048.28 912.218,1046.31 914.343,1044.32 916.468,1042.3 918.592,1040.25 920.717,1038.18 922.842,1036.07 924.967,1033.95 927.091,1031.79 929.216,1029.6 
  931.341,1027.38 933.466,1025.13 935.591,1022.85 937.715,1020.53 939.84,1018.18 941.965,1015.8 944.09,1013.38 946.215,1010.93 948.339,1008.44 950.464,1005.91 
  952.589,1003.34 954.714,1000.73 956.838,998.084 958.963,995.396 961.088,992.665 963.213,989.891 965.338,987.073 967.462,984.211 969.587,981.303 971.712,978.348 
  973.837,975.346 975.961,972.296 978.086,969.198 980.211,966.049 982.336,962.851 984.461,959.601 986.585,956.299 988.71,952.946 990.835,949.539 992.96,946.079 
  995.084,942.566 997.209,938.999 999.334,935.377 1001.46,931.702 1003.58,927.972 1005.71,924.188 1007.83,920.351 1009.96,916.46 1012.08,912.517 1014.21,908.522 
  1016.33,904.475 1018.46,900.38 1020.58,896.236 1022.71,892.045 1024.83,887.81 1026.96,883.532 1029.08,879.214 1031.21,874.86 1033.33,870.471 1035.46,866.051 
  1037.58,861.605 1039.7,857.137 1041.83,852.65 1043.95,848.15 1046.08,843.643 1048.2,839.134 1050.33,834.628 1052.45,830.134 1054.58,825.657 1056.7,821.205 
  1058.83,816.786 1060.95,812.408 1063.08,808.079 1065.2,803.808 1067.33,799.603 1069.45,795.475 1071.58,791.433 1073.7,787.486 1075.83,783.643 1077.95,779.916 
  1080.08,776.312 1082.2,772.843 1084.33,769.516 1086.45,766.343 1088.57,763.331 1090.7,760.488 1092.82,757.824 1094.95,755.344 1097.07,753.057 1099.2,750.968 
  1101.32,749.083 1103.45,747.406 1105.57,745.941 1107.7,744.691 1109.82,743.658 1111.95,742.842 1114.07,742.244 1116.2,741.863 1118.32,741.696 1120.45,741.742 
  1122.57,741.995 1124.7,742.452 1126.82,743.107 1128.95,743.954 1131.07,744.987 1133.2,746.196 1135.32,747.575 1137.44,749.114 1139.57,750.806 1141.69,752.64 
  1143.82,754.607 1145.94,756.697 1148.07,758.9 1150.19,761.207 1152.32,763.607 1154.44,766.091 1156.57,768.65 1158.69,771.274 1160.82,773.953 1162.94,776.68 
  1165.07,779.444 1167.19,782.24 1169.32,785.057 1171.44,787.89 1173.57,790.731 1175.69,793.573 1177.82,796.411 1179.94,799.239 1182.07,802.05 1184.19,804.841 
  1186.31,807.607 1188.44,810.343 1190.56,813.047 1192.69,815.713 1194.81,818.34 1196.94,820.925 1199.06,823.465 1201.19,825.958 1203.31,828.403 1205.44,830.797 
  1207.56,833.139 1209.69,835.429 1211.81,837.665 1213.94,839.846 1216.06,841.973 1218.19,844.045 1220.31,846.061 1222.44,848.022 1224.56,849.927 1226.69,851.777 
  1228.81,853.572 1230.94,855.313 1233.06,856.999 1235.18,858.632 1237.31,860.212 1239.43,861.739 1241.56,863.215 1243.68,864.64 1245.81,866.015 1247.93,867.341 
  1250.06,868.618 1252.18,869.848 1254.31,871.031 1256.43,872.168 1258.56,873.261 1260.68,874.309 1262.81,875.315 1264.93,876.278 1267.06,877.2 1269.18,878.082 
  1271.31,878.924 1273.43,879.728 1275.56,880.494 1277.68,881.223 1279.81,881.916 1281.93,882.575 1284.05,883.199 1286.18,883.79 1288.3,884.348 1290.43,884.874 
  1292.55,885.369 1294.68,885.835 1296.8,886.27 1298.93,886.677 1301.05,887.056 1303.18,887.408 1305.3,887.732 1307.43,888.031 1309.55,888.305 1311.68,888.554 
  1313.8,888.779 1315.93,888.98 1318.05,889.159 1320.18,889.315 1322.3,889.45 1324.43,889.563 1326.55,889.656 1328.68,889.729 1330.8,889.782 1332.92,889.816 
  1335.05,889.831 1337.17,889.828 1339.3,889.808 1341.42,889.77 1343.55,889.716 1345.67,889.645 1347.8,889.558 1349.92,889.455 1352.05,889.337 1354.17,889.205 
  1356.3,889.058 1358.42,888.897 1360.55,888.722 1362.67,888.533 1364.8,888.332 1366.92,888.118 1369.05,887.891 1371.17,887.652 1373.3,887.401 1375.42,887.139 
  1377.55,886.865 1379.67,886.581 1381.79,886.285 1383.92,885.979 1386.04,885.663 1388.17,885.336 1390.29,885 1392.42,884.654 1394.54,884.298 1396.67,883.931 
  1398.79,883.553 1400.92,883.164 1403.04,882.765 1405.17,882.356 1407.29,881.937 1409.42,881.507 1411.54,881.068 1413.67,880.62 1415.79,880.161 1417.92,879.694 
  1420.04,879.216 1422.17,878.73 1424.29,878.235 1426.42,877.731 1428.54,877.217 1430.66,876.695 1432.79,876.165 1434.91,875.626 1437.04,875.078 1439.16,874.522 
  1441.29,873.957 1443.41,873.385 1445.54,872.804 1447.66,872.215 1449.79,871.618 1451.91,871.013 1454.04,870.4 1456.16,869.78 1458.29,869.151 1460.41,868.515 
  1462.54,867.872 1464.66,867.221 1466.79,866.562 1468.91,865.895 1471.04,865.222 1473.16,864.541 1475.29,863.852 1477.41,863.156 1479.53,862.453 1481.66,861.743 
  1483.78,861.025 1485.91,860.301 1488.03,859.569 1490.16,858.83 1492.28,858.084 1494.41,857.331 1496.53,856.571 1498.66,855.804 1500.78,855.03 1502.91,854.248 
  1505.03,853.46 1507.16,852.665 1509.28,851.864 1511.41,851.055 1513.53,850.239 1515.66,849.417 1517.78,848.587 1519.91,847.751 1522.03,846.908 1524.16,846.058 
  1526.28,845.201 1528.4,844.338 1530.53,843.467 1532.65,842.59 1534.78,841.706 1536.9,840.815 1539.03,839.918 1541.15,839.013 1543.28,838.102 1545.4,837.184 
  1547.53,836.259 1549.65,835.327 1551.78,834.389 1553.9,833.444 1556.03,832.491 1558.15,831.532 1560.28,830.567 1562.4,829.594 1564.53,828.614 1566.65,827.628 
  1568.78,826.635 1570.9,825.634 1573.02,824.627 1575.15,823.613 1577.27,822.592 1579.4,821.565 1581.52,820.53 1583.65,819.488 1585.77,818.439 1587.9,817.383 
  1590.02,816.321 1592.15,815.251 1594.27,814.174 1596.4,813.09 1598.52,811.999 1600.65,810.901 1602.77,809.796 1604.9,808.684 1607.02,807.564 1609.15,806.437 
  1611.27,805.304 1613.4,804.163 1615.52,803.014 1617.65,801.859 1619.77,800.696 1621.89,799.526 1624.02,798.348 1626.14,797.164 1628.27,795.972 1630.39,794.772 
  1632.52,793.565 1634.64,792.351 1636.77,791.129 1638.89,789.9 1641.02,788.663 1643.14,787.418 1645.27,786.166 1647.39,784.907 1649.52,783.64 1651.64,782.365 
  1653.77,781.083 1655.89,779.793 1658.02,778.495 1660.14,777.189 1662.27,775.876 1664.39,774.555 1666.52,773.226 1668.64,771.889 1670.76,770.544 1672.89,769.191 
  1675.01,767.831 1677.14,766.462 1679.26,765.086 1681.39,763.701 1683.51,762.308 1685.64,760.908 1687.76,759.499 1689.89,758.082 1692.01,756.657 1694.14,755.223 
  1696.26,753.782 1698.39,752.332 1700.51,750.873 1702.64,749.407 1704.76,747.932 1706.89,746.449 1709.01,744.957 1711.14,743.457 1713.26,741.948 1715.39,740.431 
  1717.51,738.905 1719.63,737.37 1721.76,735.827 1723.88,734.276 1726.01,732.715 1728.13,731.146 1730.26,729.568 1732.38,727.982 1734.51,726.386 1736.63,724.782 
  1738.76,723.169 1740.88,721.547 1743.01,719.915 1745.13,718.275 1747.26,716.626 1749.38,714.968 1751.51,713.301 1753.63,711.624 1755.76,709.939 1757.88,708.244 
  1760.01,706.54 1762.13,704.827 1764.26,703.104 1766.38,701.373 1768.5,699.631 1770.63,697.881 1772.75,696.121 1774.88,694.351 1777,692.572 1779.13,690.783 
  1781.25,688.985 1783.38,687.177 1785.5,685.36 1787.63,683.533 1789.75,681.696 1791.88,679.849 1794,677.993 1796.13,676.126 1798.25,674.25 1800.38,672.364 
  1802.5,670.468 1804.63,668.562 1806.75,666.646 1808.88,664.72 1811,662.784 1813.13,660.838 1815.25,658.881 1817.37,656.915 1819.5,654.938 1821.62,652.951 
  1823.75,650.953 1825.87,648.945 1828,646.927 1830.12,644.899 1832.25,642.86 1834.37,640.81 1836.5,638.75 1838.62,636.68 1840.75,634.598 1842.87,632.506 
  1845,630.404 1847.12,628.291 1849.25,626.167 1851.37,624.032 1853.5,621.927 1855.62,619.79 1857.75,617.654 1859.87,615.52 1862,613.388 1864.12,611.257 
  1866.24,609.127 1868.37,606.999 1870.49,604.873 1872.62,602.747 1874.74,600.623 1876.87,598.499 1878.99,596.376 1881.12,594.255 1883.24,592.133 1885.37,590.013 
  1887.49,587.893 1889.62,585.773 1891.74,583.654 1893.87,581.535 1895.99,579.416 1898.12,577.297 1900.24,575.178 1902.37,573.059 1904.49,570.94 1906.62,568.82 
  1908.74,566.7 1910.87,564.58 1912.99,562.459 1915.11,560.337 1917.24,558.214 1919.36,556.09 1921.49,553.966 1923.61,551.84 1925.74,549.713 1927.86,547.585 
  1929.99,545.455 1932.11,543.324 1934.24,541.192 1936.36,539.058 1938.49,536.922 1940.61,534.784 1942.74,532.644 1944.86,530.502 1946.99,528.358 1949.11,526.212 
  1951.24,524.063 1953.36,521.913 1955.49,519.759 1957.61,517.603 1959.74,515.444 1961.86,513.283 1963.98,511.119 1966.11,508.951 1968.23,506.781 1970.36,504.607 
  1972.48,502.43 1974.61,500.25 1976.73,498.066 1978.86,495.879 1980.98,493.688 1983.11,491.494 1985.23,489.295 1987.36,487.093 1989.48,484.886 1991.61,482.676 
  1993.73,480.461 1995.86,478.242 1997.98,476.019 2000.11,473.791 2002.23,471.559 2004.36,469.321 2006.48,467.079 2008.61,464.833 2010.73,462.581 2012.85,460.324 
  2014.98,458.062 2017.1,455.795 2019.23,453.522 2021.35,451.244 2023.48,448.961 2025.6,446.672 2027.73,444.377 2029.85,442.076 2031.98,439.77 2034.1,437.457 
  2036.23,435.138 2038.35,432.814 2040.48,430.482 2042.6,428.145 2044.73,425.801 2046.85,423.45 2048.98,421.093 2051.1,418.729 2053.23,416.358 2055.35,413.981 
  2057.48,411.596 2059.6,409.204 2061.72,406.805 2063.85,404.398 2065.97,401.984 2068.1,399.563 2070.22,397.134 2072.35,394.697 2074.47,392.253 2076.6,389.8 
  2078.72,387.34 2080.85,384.871 2082.97,382.395 2085.1,379.91 2087.22,377.417 2089.35,374.915 2091.47,372.405 2093.6,369.886 2095.72,367.358 2097.85,364.821 
  2099.97,362.276 2102.1,359.722 2104.22,357.158 2106.35,354.585 2108.47,352.003 2110.59,349.412 2112.72,346.811 2114.84,344.2 2116.97,341.58 2119.09,338.95 
  2121.22,336.31 2123.34,333.66 2125.47,331 2127.59,328.33 2129.72,325.65 2131.84,322.959 2133.97,320.258 2136.09,317.546 2138.22,314.824 2140.34,312.091 
  2142.47,309.347 2144.59,306.593 2146.72,303.827 2148.84,301.05 2150.97,298.262 2153.09,295.463 2155.22,292.652 2157.34,289.83 2159.46,286.996 2161.59,284.151 
  2163.71,281.294 2165.84,278.425 2167.96,275.544 2170.09,272.651 2172.21,269.746 2174.34,266.828 2176.46,263.899 2178.59,260.956 2180.71,258.002 2182.84,255.035 
  2184.96,252.055 2187.09,249.062 2189.21,246.056 2191.34,243.038 2193.46,240.006 2195.59,236.961 2197.71,233.903 2199.84,230.831 2201.96,227.746 2204.08,224.648 
  2206.21,221.536 2208.33,218.41 2210.46,215.27 2212.58,212.116 2214.71,208.949 2216.83,205.767 2218.96,202.571 2221.08,199.36 2223.21,196.136 2225.33,192.896 
  2227.46,189.643 2229.58,186.374 2231.71,183.091 2233.83,179.792 2235.96,176.479 2238.08,173.151 2240.21,169.808 2242.33,166.449 2244.46,163.075 2246.58,159.686 
  2248.71,156.281 2250.83,152.86 2252.95,149.424 2255.08,145.972 2257.2,142.503 2259.33,139.019 2261.45,135.519 2263.58,132.003 2265.7,128.47 2267.83,124.921 
  2269.95,121.356 2272.08,117.774 2274.2,114.175 2276.33,110.559 2278.45,106.927 2280.58,103.277 2282.7,99.6111 2284.83,95.9276 2286.95,92.2268 2289.08,88.5087 
  
  "/>
<polyline clip-path="url(#clip4902)" style="stroke:#e26f46; stroke-width:4; stroke-opacity:1; fill:none" points="
  166.42,1462.02 168.545,1461.57 170.669,1461.11 172.794,1460.64 174.919,1460.17 177.044,1459.68 179.169,1459.19 181.293,1458.69 183.418,1458.18 185.543,1457.67 
  187.668,1457.14 189.792,1456.61 191.917,1456.07 194.042,1455.52 196.167,1454.97 198.292,1454.41 200.416,1453.83 202.541,1453.26 204.666,1452.67 206.791,1452.08 
  208.915,1451.48 211.04,1450.87 213.165,1450.26 215.29,1449.64 217.415,1449.01 219.539,1448.37 221.664,1447.73 223.789,1447.08 225.914,1446.42 228.039,1445.76 
  230.163,1445.09 232.288,1444.41 234.413,1443.73 236.538,1443.04 238.662,1442.34 240.787,1441.64 242.912,1440.93 245.037,1440.21 247.162,1439.49 249.286,1438.76 
  251.411,1438.03 253.536,1437.28 255.661,1436.53 257.785,1435.78 259.91,1435.02 262.035,1434.25 264.16,1433.48 266.285,1432.7 268.409,1431.91 270.534,1431.12 
  272.659,1430.32 274.784,1429.52 276.908,1428.71 279.033,1427.89 281.158,1427.07 283.283,1426.25 285.408,1425.41 287.532,1424.57 289.657,1423.73 291.782,1422.88 
  293.907,1422.02 296.031,1421.16 298.156,1420.29 300.281,1419.41 302.406,1418.53 304.531,1417.65 306.655,1416.76 308.78,1415.86 310.905,1414.96 313.03,1414.05 
  315.155,1413.14 317.279,1412.22 319.404,1411.29 321.529,1410.36 323.654,1409.43 325.778,1408.49 327.903,1407.54 330.028,1406.59 332.153,1405.63 334.278,1404.67 
  336.402,1403.7 338.527,1402.73 340.652,1401.75 342.777,1400.74 344.901,1399.71 347.026,1398.6 349.151,1397.42 351.276,1396.18 353.401,1394.89 355.525,1393.56 
  357.65,1392.2 359.775,1390.82 361.9,1389.43 364.024,1388.02 366.149,1386.61 368.274,1385.2 370.399,1383.8 372.524,1382.41 374.648,1381.03 376.773,1379.66 
  378.898,1378.31 381.023,1376.99 383.148,1375.68 385.272,1374.4 387.397,1373.14 389.522,1371.91 391.647,1370.71 393.771,1369.53 395.896,1368.38 398.021,1367.25 
  400.146,1366.15 402.271,1365.07 404.395,1364.02 406.52,1362.99 408.645,1361.99 410.77,1361 412.894,1360.04 415.019,1359.09 417.144,1358.17 419.269,1357.26 
  421.394,1356.36 423.518,1355.48 425.643,1354.61 427.768,1353.75 429.893,1352.9 432.017,1352.06 434.142,1351.22 436.267,1350.39 438.392,1349.57 440.517,1348.74 
  442.641,1347.92 444.766,1347.1 446.891,1346.28 449.016,1345.45 451.141,1344.62 453.265,1343.79 455.39,1342.95 457.515,1342.1 459.64,1341.25 461.764,1340.39 
  463.889,1339.52 466.014,1338.64 468.139,1337.76 470.264,1336.86 472.388,1335.95 474.513,1335.04 476.638,1334.11 478.763,1333.17 480.887,1332.22 483.012,1331.25 
  485.137,1330.28 487.262,1329.29 489.387,1328.3 491.511,1327.29 493.636,1326.28 495.761,1325.25 497.886,1324.21 500.01,1323.17 502.135,1322.11 504.26,1321.05 
  506.385,1319.98 508.51,1318.9 510.634,1317.81 512.759,1316.72 514.884,1315.63 517.009,1314.52 519.134,1313.42 521.258,1312.31 523.383,1311.2 525.508,1310.09 
  527.633,1308.98 529.757,1307.87 531.882,1306.76 534.007,1305.65 536.132,1304.54 538.257,1303.43 540.381,1302.34 542.506,1301.24 544.631,1300.15 546.756,1299.07 
  548.88,1297.99 551.005,1296.93 553.13,1295.87 555.255,1294.82 557.38,1293.78 559.504,1292.75 561.629,1291.73 563.754,1290.72 565.879,1289.72 568.003,1288.74 
  570.128,1287.77 572.253,1286.81 574.378,1285.87 576.503,1284.94 578.627,1284.02 580.752,1283.12 582.877,1282.24 585.002,1281.36 587.127,1280.51 589.251,1279.66 
  591.376,1278.83 593.501,1278.02 595.626,1277.22 597.75,1276.44 599.875,1275.67 602,1274.91 604.125,1274.17 606.25,1273.43 608.374,1272.72 610.499,1272.01 
  612.624,1271.32 614.749,1270.64 616.873,1269.97 618.998,1269.31 621.123,1268.66 623.248,1268.02 625.373,1267.38 627.497,1266.76 629.622,1266.14 631.747,1265.53 
  633.872,1264.92 635.996,1264.32 638.121,1263.73 640.246,1263.14 642.371,1262.55 644.496,1261.96 646.62,1261.37 648.745,1260.78 650.87,1260.2 652.995,1259.61 
  655.12,1259.02 657.244,1258.42 659.369,1257.82 661.494,1257.22 663.619,1256.62 665.743,1256 667.868,1255.39 669.993,1254.76 672.118,1254.13 674.243,1253.49 
  676.367,1252.84 678.492,1252.18 680.617,1251.51 682.742,1250.83 684.866,1250.14 686.991,1249.45 689.116,1248.74 691.241,1248.02 693.366,1247.29 695.49,1246.55 
  697.615,1245.8 699.74,1245.04 701.865,1244.26 703.989,1243.48 706.114,1242.69 708.239,1241.89 710.364,1241.08 712.489,1240.26 714.613,1239.43 716.738,1238.6 
  718.863,1237.75 720.988,1236.91 723.113,1236.06 725.237,1235.2 727.362,1234.34 729.487,1233.48 731.612,1232.62 733.736,1231.76 735.861,1230.9 737.986,1230.05 
  740.111,1229.2 742.236,1228.35 744.36,1227.51 746.485,1226.68 748.61,1225.85 750.735,1225.04 752.859,1224.24 754.984,1223.46 757.109,1222.68 759.234,1221.93 
  761.359,1221.19 763.483,1220.47 765.608,1219.77 767.733,1219.08 769.858,1218.42 771.982,1217.79 774.107,1217.17 776.232,1216.58 778.357,1216.01 780.482,1215.46 
  782.606,1214.94 784.731,1214.44 786.856,1213.97 788.981,1213.52 791.106,1213.08 793.23,1212.67 795.355,1212.27 797.48,1211.89 799.605,1211.53 801.729,1211.17 
  803.854,1210.82 805.979,1210.48 808.104,1210.13 810.229,1209.77 812.353,1209.41 814.478,1209.02 816.603,1208.61 818.728,1208.17 820.852,1207.69 822.977,1205.76 
  825.102,1205.08 827.227,1204.4 829.352,1203.72 831.476,1203.03 833.601,1202.33 835.726,1201.63 837.851,1200.92 839.975,1200.21 842.1,1199.49 844.225,1198.76 
  846.35,1198.03 848.475,1197.29 850.599,1196.54 852.724,1195.79 854.849,1195.03 856.974,1194.26 859.099,1193.48 861.223,1192.7 863.348,1191.9 865.473,1191.1 
  867.598,1190.29 869.722,1189.47 871.847,1188.65 873.972,1187.81 876.097,1186.96 878.222,1186.11 880.346,1185.24 882.471,1184.37 884.596,1183.48 886.721,1182.59 
  888.845,1181.68 890.97,1180.76 893.095,1179.83 895.22,1178.89 897.345,1177.93 899.469,1176.97 901.594,1175.99 903.719,1174.99 905.844,1173.99 907.968,1172.97 
  910.093,1171.93 912.218,1170.89 914.343,1169.82 916.468,1168.74 918.592,1167.65 920.717,1166.54 922.842,1165.41 924.967,1164.27 927.091,1163.11 929.216,1161.93 
  931.341,1160.73 933.466,1159.52 935.591,1158.28 937.715,1157.03 939.84,1155.75 941.965,1154.46 944.09,1153.14 946.215,1151.8 948.339,1150.44 950.464,1149.06 
  952.589,1147.65 954.714,1146.22 956.838,1144.77 958.963,1143.29 961.088,1141.79 963.213,1140.26 965.338,1138.7 967.462,1137.12 969.587,1135.51 971.712,1133.87 
  973.837,1132.2 975.961,1130.51 978.086,1128.78 980.211,1127.03 982.336,1125.24 984.461,1123.42 986.585,1121.58 988.71,1119.7 990.835,1117.79 992.96,1115.84 
  995.084,1113.87 997.209,1111.86 999.334,1109.82 1001.46,1107.75 1003.58,1105.64 1005.71,1103.5 1007.83,1101.33 1009.96,1099.13 1012.08,1096.89 1014.21,1094.62 
  1016.33,1092.32 1018.46,1090 1020.58,1087.64 1022.71,1085.25 1024.83,1082.84 1026.96,1080.4 1029.08,1077.94 1031.21,1075.46 1033.33,1072.95 1035.46,1070.43 
  1037.58,1067.89 1039.7,1065.33 1041.83,1062.77 1043.95,1060.2 1046.08,1057.62 1048.2,1055.04 1050.33,1052.47 1052.45,1049.9 1054.58,1047.34 1056.7,1044.8 
  1058.83,1042.28 1060.95,1039.78 1063.08,1037.32 1065.2,1034.89 1067.33,1032.5 1069.45,1030.16 1071.58,1027.87 1073.7,1025.64 1075.83,1023.47 1077.95,1021.37 
  1080.08,1019.35 1082.2,1017.42 1084.33,1015.57 1086.45,1013.81 1088.57,1012.15 1090.7,1010.6 1092.82,1009.15 1094.95,1007.82 1097.07,1006.61 1099.2,1005.51 
  1101.32,1004.54 1103.45,1003.7 1105.57,1002.99 1107.7,1002.41 1109.82,1001.96 1111.95,1001.64 1114.07,1001.45 1116.2,1001.4 1118.32,1001.47 1120.45,1001.68 
  1122.57,1002 1124.7,1002.46 1126.82,1003.03 1128.95,1003.71 1131.07,1004.51 1133.2,1005.41 1135.32,1006.41 1137.44,1007.51 1139.57,1008.7 1141.69,1009.97 
  1143.82,1011.32 1145.94,1012.74 1148.07,1014.23 1150.19,1015.78 1152.32,1017.38 1154.44,1019.03 1156.57,1020.72 1158.69,1022.45 1160.82,1024.2 1162.94,1025.99 
  1165.07,1027.79 1167.19,1029.61 1169.32,1031.44 1171.44,1033.27 1173.57,1035.11 1175.69,1036.95 1177.82,1038.78 1179.94,1040.6 1182.07,1042.41 1184.19,1044.2 
  1186.31,1045.98 1188.44,1047.73 1190.56,1049.47 1192.69,1051.18 1194.81,1052.86 1196.94,1054.51 1199.06,1056.14 1201.19,1057.74 1203.31,1059.3 1205.44,1060.84 
  1207.56,1062.34 1209.69,1063.81 1211.81,1065.24 1213.94,1066.64 1216.06,1068.01 1218.19,1069.35 1220.31,1070.64 1222.44,1071.91 1224.56,1073.14 1226.69,1074.34 
  1228.81,1075.5 1230.94,1076.63 1233.06,1077.73 1235.18,1078.79 1237.31,1079.82 1239.43,1080.82 1241.56,1081.79 1243.68,1082.73 1245.81,1083.64 1247.93,1084.52 
  1250.06,1085.37 1252.18,1086.19 1254.31,1086.99 1256.43,1087.75 1258.56,1088.49 1260.68,1089.21 1262.81,1089.9 1264.93,1090.56 1267.06,1091.2 1269.18,1091.81 
  1271.31,1092.4 1273.43,1092.97 1275.56,1093.52 1277.68,1094.04 1279.81,1094.54 1281.93,1095.03 1284.05,1095.49 1286.18,1095.93 1288.3,1096.36 1290.43,1096.76 
  1292.55,1097.15 1294.68,1097.52 1296.8,1097.87 1298.93,1098.2 1301.05,1098.52 1303.18,1098.83 1305.3,1099.11 1307.43,1099.38 1309.55,1099.64 1311.68,1099.88 
  1313.8,1100.11 1315.93,1100.33 1318.05,1100.53 1320.18,1100.72 1322.3,1100.9 1324.43,1101.06 1326.55,1101.21 1328.68,1101.35 1330.8,1101.48 1332.92,1101.6 
  1335.05,1101.71 1337.17,1101.8 1339.3,1101.89 1341.42,1101.97 1343.55,1102.03 1345.67,1102.09 1347.8,1102.14 1349.92,1102.18 1352.05,1102.21 1354.17,1102.23 
  1356.3,1102.24 1358.42,1102.25 1360.55,1102.24 1362.67,1102.23 1364.8,1102.22 1366.92,1102.19 1369.05,1102.16 1371.17,1102.12 1373.3,1102.07 1375.42,1102.02 
  1377.55,1101.96 1379.67,1101.89 1381.79,1101.82 1383.92,1101.74 1386.04,1101.66 1388.17,1101.57 1390.29,1101.47 1392.42,1101.37 1394.54,1101.27 1396.67,1101.15 
  1398.79,1101.03 1400.92,1100.91 1403.04,1100.78 1405.17,1100.64 1407.29,1100.5 1409.42,1100.36 1411.54,1100.21 1413.67,1100.05 1415.79,1099.89 1417.92,1099.72 
  1420.04,1099.55 1422.17,1099.37 1424.29,1099.19 1426.42,1099 1428.54,1098.81 1430.66,1098.61 1432.79,1098.41 1434.91,1098.21 1437.04,1098 1439.16,1097.78 
  1441.29,1097.56 1443.41,1097.34 1445.54,1097.11 1447.66,1096.88 1449.79,1096.64 1451.91,1096.4 1454.04,1096.16 1456.16,1095.91 1458.29,1095.66 1460.41,1095.4 
  1462.54,1095.14 1464.66,1094.87 1466.79,1094.6 1468.91,1094.33 1471.04,1094.05 1473.16,1093.77 1475.29,1093.49 1477.41,1093.2 1479.53,1092.91 1481.66,1092.61 
  1483.78,1092.31 1485.91,1092.01 1488.03,1091.7 1490.16,1091.39 1492.28,1091.07 1494.41,1090.75 1496.53,1090.43 1498.66,1090.1 1500.78,1089.77 1502.91,1089.44 
  1505.03,1089.1 1507.16,1088.76 1509.28,1088.42 1511.41,1088.07 1513.53,1087.72 1515.66,1087.36 1517.78,1087 1519.91,1086.64 1522.03,1086.27 1524.16,1085.9 
  1526.28,1085.53 1528.4,1085.15 1530.53,1084.77 1532.65,1084.39 1534.78,1084 1536.9,1083.61 1539.03,1083.21 1541.15,1082.81 1543.28,1082.41 1545.4,1082 
  1547.53,1081.59 1549.65,1081.18 1551.78,1080.76 1553.9,1080.34 1556.03,1079.92 1558.15,1079.49 1560.28,1079.06 1562.4,1078.63 1564.53,1078.19 1566.65,1077.75 
  1568.78,1077.3 1570.9,1076.85 1573.02,1076.4 1575.15,1075.94 1577.27,1075.48 1579.4,1075.02 1581.52,1074.55 1583.65,1074.08 1585.77,1073.6 1587.9,1073.13 
  1590.02,1072.64 1592.15,1072.16 1594.27,1071.67 1596.4,1071.17 1598.52,1070.68 1600.65,1070.18 1602.77,1069.67 1604.9,1069.16 1607.02,1068.65 1609.15,1068.13 
  1611.27,1067.61 1613.4,1067.09 1615.52,1066.56 1617.65,1066.03 1619.77,1065.5 1621.89,1064.96 1624.02,1064.41 1626.14,1063.87 1628.27,1063.32 1630.39,1062.76 
  1632.52,1062.2 1634.64,1061.64 1636.77,1061.07 1638.89,1060.5 1641.02,1059.93 1643.14,1059.35 1645.27,1058.77 1647.39,1058.18 1649.52,1057.59 1651.64,1056.99 
  1653.77,1056.4 1655.89,1055.79 1658.02,1055.19 1660.14,1054.57 1662.27,1053.96 1664.39,1053.34 1666.52,1052.72 1668.64,1052.09 1670.76,1051.45 1672.89,1050.82 
  1675.01,1050.18 1677.14,1049.53 1679.26,1048.88 1681.39,1048.23 1683.51,1047.57 1685.64,1046.91 1687.76,1046.24 1689.89,1045.57 1692.01,1044.9 1694.14,1044.22 
  1696.26,1043.53 1698.39,1042.84 1700.51,1042.15 1702.64,1041.45 1704.76,1040.75 1706.89,1040.05 1709.01,1039.33 1711.14,1038.62 1713.26,1037.9 1715.39,1037.17 
  1717.51,1036.44 1719.63,1035.71 1721.76,1034.97 1723.88,1034.23 1726.01,1033.48 1728.13,1032.73 1730.26,1031.97 1732.38,1031.21 1734.51,1030.44 1736.63,1029.67 
  1738.76,1028.89 1740.88,1028.11 1743.01,1027.32 1745.13,1026.53 1747.26,1025.74 1749.38,1024.94 1751.51,1024.13 1753.63,1023.32 1755.76,1022.5 1757.88,1021.68 
  1760.01,1020.86 1762.13,1020.03 1764.26,1019.19 1766.38,1018.35 1768.5,1017.51 1770.63,1016.65 1772.75,1015.8 1774.88,1014.94 1777,1014.07 1779.13,1013.2 
  1781.25,1012.32 1783.38,1011.44 1785.5,1010.55 1787.63,1009.66 1789.75,1008.76 1791.88,1007.86 1794,1006.95 1796.13,1006.04 1798.25,1005.12 1800.38,1004.2 
  1802.5,1003.27 1804.63,1002.33 1806.75,1001.39 1808.88,1000.44 1811,999.493 1813.13,998.535 1815.25,997.573 1817.37,996.605 1819.5,995.631 1821.62,994.651 
  1823.75,993.666 1825.87,992.676 1828,991.679 1830.12,990.677 1832.25,989.67 1834.37,988.656 1836.5,987.637 1838.62,986.612 1840.75,985.581 1842.87,984.545 
  1845,983.503 1847.12,982.454 1849.25,981.4 1851.37,980.34 1853.5,979.304 1855.62,978.241 1857.75,977.177 1859.87,976.114 1862,975.05 1864.12,973.986 
  1866.24,972.922 1868.37,971.858 1870.49,970.793 1872.62,969.727 1874.74,968.662 1876.87,967.595 1878.99,966.528 1881.12,965.461 1883.24,964.393 1885.37,963.324 
  1887.49,962.255 1889.62,961.185 1891.74,960.114 1893.87,959.043 1895.99,957.97 1898.12,956.897 1900.24,955.822 1902.37,954.747 1904.49,953.671 1906.62,952.593 
  1908.74,951.515 1910.87,950.435 1912.99,949.354 1915.11,948.272 1917.24,947.189 1919.36,946.104 1921.49,945.018 1923.61,943.931 1925.74,942.842 1927.86,941.752 
  1929.99,940.66 1932.11,939.566 1934.24,938.471 1936.36,937.375 1938.49,936.277 1940.61,935.177 1942.74,934.075 1944.86,932.971 1946.99,931.866 1949.11,930.759 
  1951.24,929.649 1953.36,928.538 1955.49,927.425 1957.61,926.31 1959.74,925.193 1961.86,924.073 1963.98,922.952 1966.11,921.828 1968.23,920.702 1970.36,919.574 
  1972.48,918.443 1974.61,917.31 1976.73,916.175 1978.86,915.037 1980.98,913.896 1983.11,912.753 1985.23,911.608 1987.36,910.46 1989.48,909.309 1991.61,908.156 
  1993.73,906.999 1995.86,905.84 1997.98,904.679 2000.11,903.514 2002.23,902.347 2004.36,901.176 2006.48,900.003 2008.61,898.826 2010.73,897.646 2012.85,896.464 
  2014.98,895.278 2017.1,894.089 2019.23,892.897 2021.35,891.701 2023.48,890.502 2025.6,889.3 2027.73,888.095 2029.85,886.886 2031.98,885.673 2034.1,884.457 
  2036.23,883.238 2038.35,882.015 2040.48,880.788 2042.6,879.557 2044.73,878.323 2046.85,877.085 2048.98,875.844 2051.1,874.598 2053.23,873.349 2055.35,872.095 
  2057.48,870.838 2059.6,869.576 2061.72,868.311 2063.85,867.042 2065.97,865.768 2068.1,864.49 2070.22,863.208 2072.35,861.922 2074.47,860.631 2076.6,859.337 
  2078.72,858.037 2080.85,856.734 2082.97,855.426 2085.1,854.113 2087.22,852.796 2089.35,851.474 2091.47,850.148 2093.6,848.817 2095.72,847.481 2097.85,846.141 
  2099.97,844.795 2102.1,843.445 2104.22,842.091 2106.35,840.731 2108.47,839.366 2110.59,837.996 2112.72,836.622 2114.84,835.242 2116.97,833.857 2119.09,832.467 
  2121.22,831.071 2123.34,829.671 2125.47,828.265 2127.59,826.854 2129.72,825.438 2131.84,824.016 2133.97,822.588 2136.09,821.156 2138.22,819.717 2140.34,818.274 
  2142.47,816.824 2144.59,815.369 2146.72,813.908 2148.84,812.442 2150.97,810.97 2153.09,809.492 2155.22,808.008 2157.34,806.518 2159.46,805.022 2161.59,803.521 
  2163.71,802.013 2165.84,800.499 2167.96,798.979 2170.09,797.453 2172.21,795.921 2174.34,794.383 2176.46,792.838 2178.59,791.287 2180.71,789.73 2182.84,788.167 
  2184.96,786.597 2187.09,785.02 2189.21,783.437 2191.34,781.848 2193.46,780.252 2195.59,778.649 2197.71,777.04 2199.84,775.424 2201.96,773.801 2204.08,772.171 
  2206.21,770.535 2208.33,768.892 2210.46,767.241 2212.58,765.584 2214.71,763.92 2216.83,762.249 2218.96,760.571 2221.08,758.885 2223.21,757.193 2225.33,755.493 
  2227.46,753.786 2229.58,752.072 2231.71,750.351 2233.83,748.622 2235.96,746.886 2238.08,745.142 2240.21,743.391 2242.33,741.632 2244.46,739.866 2246.58,738.092 
  2248.71,736.31 2250.83,734.521 2252.95,732.724 2255.08,730.92 2257.2,729.107 2259.33,727.287 2261.45,725.459 2263.58,723.622 2265.7,721.778 2267.83,719.926 
  2269.95,718.066 2272.08,716.198 2274.2,714.321 2276.33,712.437 2278.45,710.544 2280.58,708.643 2282.7,706.734 2284.83,704.816 2286.95,702.89 2289.08,700.955 
  
  "/>
<polyline clip-path="url(#clip4902)" style="stroke:#3da44d; stroke-width:4; stroke-opacity:1; fill:none" points="
  166.42,1461.21 168.545,1460.72 170.669,1460.22 172.794,1459.7 174.919,1459.18 177.044,1458.65 179.169,1458.12 181.293,1457.57 183.418,1457.01 185.543,1456.45 
  187.668,1455.87 189.792,1455.29 191.917,1454.7 194.042,1454.1 196.167,1453.49 198.292,1452.88 200.416,1452.25 202.541,1451.62 204.666,1450.98 206.791,1450.33 
  208.915,1449.67 211.04,1449.01 213.165,1448.33 215.29,1447.65 217.415,1446.97 219.539,1446.27 221.664,1445.57 223.789,1444.86 225.914,1444.14 228.039,1443.41 
  230.163,1442.68 232.288,1441.94 234.413,1441.19 236.538,1440.43 238.662,1439.67 240.787,1438.9 242.912,1438.12 245.037,1437.34 247.162,1436.55 249.286,1435.75 
  251.411,1434.94 253.536,1434.13 255.661,1433.31 257.785,1432.49 259.91,1431.65 262.035,1430.81 264.16,1429.97 266.285,1429.11 268.409,1428.25 270.534,1427.39 
  272.659,1426.51 274.784,1425.63 276.908,1424.75 279.033,1423.86 281.158,1422.96 283.283,1422.05 285.408,1421.14 287.532,1420.22 289.657,1419.29 291.782,1418.36 
  293.907,1417.42 296.031,1416.48 298.156,1415.53 300.281,1414.57 302.406,1413.61 304.531,1412.64 306.655,1411.66 308.78,1410.68 310.905,1409.69 313.03,1408.7 
  315.155,1407.7 317.279,1406.69 319.404,1405.68 321.529,1404.66 323.654,1403.64 325.778,1402.61 327.903,1401.57 330.028,1400.53 332.153,1399.48 334.278,1398.43 
  336.402,1397.37 338.527,1396.3 340.652,1395.23 342.777,1394.14 344.901,1393.04 347.026,1391.89 349.151,1390.71 351.276,1389.5 353.401,1388.27 355.525,1387.02 
  357.65,1385.76 359.775,1384.5 361.9,1383.22 364.024,1381.95 366.149,1380.68 368.274,1379.42 370.399,1378.16 372.524,1376.92 374.648,1375.68 376.773,1374.46 
  378.898,1373.26 381.023,1372.07 383.148,1370.9 385.272,1369.75 387.397,1368.62 389.522,1367.5 391.647,1366.41 393.771,1365.33 395.896,1364.28 398.021,1363.24 
  400.146,1362.22 402.271,1361.22 404.395,1360.24 406.52,1359.28 408.645,1358.33 410.77,1357.4 412.894,1356.49 415.019,1355.59 417.144,1354.7 419.269,1353.83 
  421.394,1352.97 423.518,1352.12 425.643,1351.29 427.768,1350.46 429.893,1349.64 432.017,1348.83 434.142,1348.02 436.267,1347.22 438.392,1346.43 440.517,1345.65 
  442.641,1344.86 444.766,1344.08 446.891,1343.3 449.016,1342.53 451.141,1341.75 453.265,1340.98 455.39,1340.2 457.515,1339.42 459.64,1338.65 461.764,1337.87 
  463.889,1337.09 466.014,1336.3 468.139,1335.52 470.264,1334.73 472.388,1333.93 474.513,1333.14 476.638,1332.34 478.763,1331.53 480.887,1330.72 483.012,1329.91 
  485.137,1329.09 487.262,1328.27 489.387,1327.44 491.511,1326.61 493.636,1325.78 495.761,1324.94 497.886,1324.1 500.01,1323.26 502.135,1322.41 504.26,1321.56 
  506.385,1320.71 508.51,1319.85 510.634,1319 512.759,1318.14 514.884,1317.28 517.009,1316.42 519.134,1315.55 521.258,1314.69 523.383,1313.83 525.508,1312.97 
  527.633,1312.11 529.757,1311.25 531.882,1310.4 534.007,1309.55 536.132,1308.7 538.257,1307.85 540.381,1307.01 542.506,1306.17 544.631,1305.34 546.756,1304.51 
  548.88,1303.69 551.005,1302.87 553.13,1302.06 555.255,1301.26 557.38,1300.46 559.504,1299.67 561.629,1298.89 563.754,1298.12 565.879,1297.36 568.003,1296.6 
  570.128,1295.86 572.253,1295.12 574.378,1294.39 576.503,1293.67 578.627,1292.96 580.752,1292.26 582.877,1291.57 585.002,1290.9 587.127,1290.23 589.251,1289.57 
  591.376,1288.92 593.501,1288.28 595.626,1287.65 597.75,1287.03 599.875,1286.42 602,1285.83 604.125,1285.24 606.25,1284.66 608.374,1284.09 610.499,1283.53 
  612.624,1282.97 614.749,1282.43 616.873,1281.89 618.998,1281.37 621.123,1280.85 623.248,1280.33 625.373,1279.83 627.497,1279.33 629.622,1278.84 631.747,1278.35 
  633.872,1277.87 635.996,1277.4 638.121,1276.93 640.246,1276.46 642.371,1276 644.496,1275.55 646.62,1275.09 648.745,1274.64 650.87,1274.19 652.995,1273.74 
  655.12,1273.3 657.244,1272.85 659.369,1272.41 661.494,1271.97 663.619,1271.53 665.743,1271.08 667.868,1270.64 669.993,1270.2 672.118,1269.75 674.243,1269.31 
  676.367,1268.86 678.492,1268.41 680.617,1267.96 682.742,1267.51 684.866,1267.05 686.991,1266.59 689.116,1266.13 691.241,1265.67 693.366,1265.21 695.49,1264.74 
  697.615,1264.27 699.74,1263.79 701.865,1263.32 703.989,1262.84 706.114,1262.37 708.239,1261.89 710.364,1261.4 712.489,1260.92 714.613,1260.44 716.738,1259.96 
  718.863,1259.47 720.988,1258.99 723.113,1258.51 725.237,1258.03 727.362,1257.55 729.487,1257.08 731.612,1256.61 733.736,1256.14 735.861,1255.68 737.986,1255.22 
  740.111,1254.77 742.236,1254.32 744.36,1253.89 746.485,1253.46 748.61,1253.04 750.735,1252.63 752.859,1252.23 754.984,1251.84 757.109,1251.46 759.234,1251.09 
  761.359,1250.74 763.483,1250.4 765.608,1250.07 767.733,1249.76 769.858,1249.46 771.982,1249.17 774.107,1248.9 776.232,1248.65 778.357,1248.41 780.482,1248.18 
  782.606,1247.97 784.731,1247.78 786.856,1247.6 788.981,1247.43 791.106,1247.27 793.23,1247.12 795.355,1246.98 797.48,1246.85 799.605,1246.73 801.729,1246.61 
  803.854,1246.49 805.979,1246.37 808.104,1246.25 810.229,1246.12 812.353,1245.98 814.478,1245.83 816.603,1245.65 818.728,1245.45 820.852,1245.23 822.977,1243.45 
  825.102,1243.05 827.227,1242.64 829.352,1242.23 831.476,1241.82 833.601,1241.4 835.726,1240.98 837.851,1240.55 839.975,1240.12 842.1,1239.68 844.225,1239.25 
  846.35,1238.8 848.475,1238.35 850.599,1237.9 852.724,1237.44 854.849,1236.97 856.974,1236.5 859.099,1236.03 861.223,1235.54 863.348,1235.06 865.473,1234.56 
  867.598,1234.06 869.722,1233.56 871.847,1233.05 873.972,1232.53 876.097,1232 878.222,1231.47 880.346,1230.93 882.471,1230.38 884.596,1229.83 886.721,1229.27 
  888.845,1228.7 890.97,1228.12 893.095,1227.53 895.22,1226.94 897.345,1226.34 899.469,1225.72 901.594,1225.1 903.719,1224.47 905.844,1223.83 907.968,1223.18 
  910.093,1222.52 912.218,1221.85 914.343,1221.16 916.468,1220.47 918.592,1219.77 920.717,1219.05 922.842,1218.32 924.967,1217.58 927.091,1216.83 929.216,1216.06 
  931.341,1215.28 933.466,1214.49 935.591,1213.69 937.715,1212.86 939.84,1212.03 941.965,1211.18 944.09,1210.31 946.215,1209.43 948.339,1208.53 950.464,1207.62 
  952.589,1206.69 954.714,1205.74 956.838,1204.78 958.963,1203.79 961.088,1202.79 963.213,1201.77 965.338,1200.73 967.462,1199.67 969.587,1198.59 971.712,1197.49 
  973.837,1196.37 975.961,1195.23 978.086,1194.07 980.211,1192.88 982.336,1191.67 984.461,1190.44 986.585,1189.19 988.71,1187.91 990.835,1186.62 992.96,1185.29 
  995.084,1183.95 997.209,1182.58 999.334,1181.18 1001.46,1179.76 1003.58,1178.32 1005.71,1176.86 1007.83,1175.37 1009.96,1173.85 1012.08,1172.32 1014.21,1170.75 
  1016.33,1169.17 1018.46,1167.57 1020.58,1165.94 1022.71,1164.29 1024.83,1162.63 1026.96,1160.94 1029.08,1159.24 1031.21,1157.52 1033.33,1155.78 1035.46,1154.04 
  1037.58,1152.28 1039.7,1150.5 1041.83,1148.73 1043.95,1146.94 1046.08,1145.16 1048.2,1143.37 1050.33,1141.58 1052.45,1139.8 1054.58,1138.03 1056.7,1136.27 
  1058.83,1134.53 1060.95,1132.8 1063.08,1131.1 1065.2,1129.42 1067.33,1127.77 1069.45,1126.16 1071.58,1124.59 1073.7,1123.06 1075.83,1121.58 1077.95,1120.15 
  1080.08,1118.78 1082.2,1117.47 1084.33,1116.22 1086.45,1115.04 1088.57,1113.94 1090.7,1112.92 1092.82,1111.97 1094.95,1111.11 1097.07,1110.33 1099.2,1109.65 
  1101.32,1109.05 1103.45,1108.55 1105.57,1108.15 1107.7,1107.84 1109.82,1107.63 1111.95,1107.51 1114.07,1107.49 1116.2,1107.57 1118.32,1107.75 1120.45,1108.01 
  1122.57,1108.37 1124.7,1108.82 1126.82,1109.36 1128.95,1109.97 1131.07,1110.67 1133.2,1111.45 1135.32,1112.3 1137.44,1113.22 1139.57,1114.2 1141.69,1115.24 
  1143.82,1116.34 1145.94,1117.49 1148.07,1118.68 1150.19,1119.92 1152.32,1121.19 1154.44,1122.5 1156.57,1123.84 1158.69,1125.2 1160.82,1126.58 1162.94,1127.98 
  1165.07,1129.39 1167.19,1130.81 1169.32,1132.23 1171.44,1133.66 1173.57,1135.09 1175.69,1136.51 1177.82,1137.93 1179.94,1139.34 1182.07,1140.73 1184.19,1142.12 
  1186.31,1143.49 1188.44,1144.85 1190.56,1146.18 1192.69,1147.5 1194.81,1148.8 1196.94,1150.07 1199.06,1151.33 1201.19,1152.56 1203.31,1153.76 1205.44,1154.95 
  1207.56,1156.1 1209.69,1157.24 1211.81,1158.34 1213.94,1159.43 1216.06,1160.48 1218.19,1161.51 1220.31,1162.52 1222.44,1163.5 1224.56,1164.45 1226.69,1165.38 
  1228.81,1166.29 1230.94,1167.17 1233.06,1168.02 1235.18,1168.86 1237.31,1169.66 1239.43,1170.45 1241.56,1171.21 1243.68,1171.95 1245.81,1172.67 1247.93,1173.37 
  1250.06,1174.04 1252.18,1174.7 1254.31,1175.33 1256.43,1175.95 1258.56,1176.54 1260.68,1177.12 1262.81,1177.68 1264.93,1178.22 1267.06,1178.74 1269.18,1179.25 
  1271.31,1179.73 1273.43,1180.21 1275.56,1180.66 1277.68,1181.1 1279.81,1181.53 1281.93,1181.94 1284.05,1182.34 1286.18,1182.72 1288.3,1183.09 1290.43,1183.44 
  1292.55,1183.78 1294.68,1184.11 1296.8,1184.43 1298.93,1184.74 1301.05,1185.03 1303.18,1185.31 1305.3,1185.59 1307.43,1185.85 1309.55,1186.1 1311.68,1186.34 
  1313.8,1186.57 1315.93,1186.79 1318.05,1187 1320.18,1187.2 1322.3,1187.4 1324.43,1187.58 1326.55,1187.76 1328.68,1187.92 1330.8,1188.09 1332.92,1188.24 
  1335.05,1188.38 1337.17,1188.52 1339.3,1188.65 1341.42,1188.77 1343.55,1188.89 1345.67,1189 1347.8,1189.1 1349.92,1189.2 1352.05,1189.29 1354.17,1189.37 
  1356.3,1189.45 1358.42,1189.53 1360.55,1189.59 1362.67,1189.66 1364.8,1189.71 1366.92,1189.77 1369.05,1189.81 1371.17,1189.85 1373.3,1189.89 1375.42,1189.92 
  1377.55,1189.95 1379.67,1189.98 1381.79,1189.99 1383.92,1190.01 1386.04,1190.02 1388.17,1190.03 1390.29,1190.03 1392.42,1190.03 1394.54,1190.03 1396.67,1190.02 
  1398.79,1190 1400.92,1189.99 1403.04,1189.97 1405.17,1189.94 1407.29,1189.92 1409.42,1189.89 1411.54,1189.85 1413.67,1189.82 1415.79,1189.77 1417.92,1189.73 
  1420.04,1189.68 1422.17,1189.63 1424.29,1189.58 1426.42,1189.52 1428.54,1189.46 1430.66,1189.4 1432.79,1189.33 1434.91,1189.26 1437.04,1189.19 1439.16,1189.12 
  1441.29,1189.04 1443.41,1188.96 1445.54,1188.88 1447.66,1188.79 1449.79,1188.7 1451.91,1188.61 1454.04,1188.51 1456.16,1188.42 1458.29,1188.32 1460.41,1188.22 
  1462.54,1188.11 1464.66,1188 1466.79,1187.89 1468.91,1187.78 1471.04,1187.67 1473.16,1187.55 1475.29,1187.43 1477.41,1187.31 1479.53,1187.18 1481.66,1187.06 
  1483.78,1186.93 1485.91,1186.79 1488.03,1186.66 1490.16,1186.52 1492.28,1186.38 1494.41,1186.24 1496.53,1186.1 1498.66,1185.95 1500.78,1185.8 1502.91,1185.65 
  1505.03,1185.5 1507.16,1185.35 1509.28,1185.19 1511.41,1185.03 1513.53,1184.87 1515.66,1184.7 1517.78,1184.53 1519.91,1184.36 1522.03,1184.19 1524.16,1184.02 
  1526.28,1183.84 1528.4,1183.67 1530.53,1183.48 1532.65,1183.3 1534.78,1183.12 1536.9,1182.93 1539.03,1182.74 1541.15,1182.55 1543.28,1182.35 1545.4,1182.16 
  1547.53,1181.96 1549.65,1181.76 1551.78,1181.55 1553.9,1181.35 1556.03,1181.14 1558.15,1180.93 1560.28,1180.72 1562.4,1180.5 1564.53,1180.29 1566.65,1180.07 
  1568.78,1179.85 1570.9,1179.62 1573.02,1179.4 1575.15,1179.17 1577.27,1178.94 1579.4,1178.7 1581.52,1178.47 1583.65,1178.23 1585.77,1177.99 1587.9,1177.75 
  1590.02,1177.5 1592.15,1177.26 1594.27,1177.01 1596.4,1176.75 1598.52,1176.5 1600.65,1176.24 1602.77,1175.98 1604.9,1175.72 1607.02,1175.46 1609.15,1175.19 
  1611.27,1174.92 1613.4,1174.65 1615.52,1174.38 1617.65,1174.1 1619.77,1173.82 1621.89,1173.54 1624.02,1173.26 1626.14,1172.97 1628.27,1172.69 1630.39,1172.39 
  1632.52,1172.1 1634.64,1171.8 1636.77,1171.51 1638.89,1171.2 1641.02,1170.9 1643.14,1170.59 1645.27,1170.29 1647.39,1169.97 1649.52,1169.66 1651.64,1169.34 
  1653.77,1169.02 1655.89,1168.7 1658.02,1168.38 1660.14,1168.05 1662.27,1167.72 1664.39,1167.39 1666.52,1167.05 1668.64,1166.71 1670.76,1166.37 1672.89,1166.03 
  1675.01,1165.68 1677.14,1165.33 1679.26,1164.98 1681.39,1164.63 1683.51,1164.27 1685.64,1163.91 1687.76,1163.55 1689.89,1163.18 1692.01,1162.81 1694.14,1162.44 
  1696.26,1162.07 1698.39,1161.69 1700.51,1161.31 1702.64,1160.93 1704.76,1160.54 1706.89,1160.15 1709.01,1159.76 1711.14,1159.37 1713.26,1158.97 1715.39,1158.57 
  1717.51,1158.16 1719.63,1157.76 1721.76,1157.35 1723.88,1156.94 1726.01,1156.52 1728.13,1156.1 1730.26,1155.68 1732.38,1155.25 1734.51,1154.83 1736.63,1154.4 
  1738.76,1153.96 1740.88,1153.52 1743.01,1153.08 1745.13,1152.64 1747.26,1152.19 1749.38,1151.74 1751.51,1151.29 1753.63,1150.83 1755.76,1150.37 1757.88,1149.91 
  1760.01,1149.44 1762.13,1148.97 1764.26,1148.5 1766.38,1148.02 1768.5,1147.55 1770.63,1147.06 1772.75,1146.58 1774.88,1146.09 1777,1145.59 1779.13,1145.1 
  1781.25,1144.6 1783.38,1144.1 1785.5,1143.59 1787.63,1143.08 1789.75,1142.57 1791.88,1142.05 1794,1141.53 1796.13,1141 1798.25,1140.48 1800.38,1139.95 
  1802.5,1139.41 1804.63,1138.87 1806.75,1138.33 1808.88,1137.79 1811,1137.24 1813.13,1136.68 1815.25,1136.13 1817.37,1135.57 1819.5,1135.01 1821.62,1134.44 
  1823.75,1133.87 1825.87,1133.29 1828,1132.71 1830.12,1132.13 1832.25,1131.55 1834.37,1130.96 1836.5,1130.36 1838.62,1129.77 1840.75,1129.17 1842.87,1128.56 
  1845,1127.95 1847.12,1127.34 1849.25,1126.72 1851.37,1126.1 1853.5,1125.5 1855.62,1124.88 1857.75,1124.26 1859.87,1123.63 1862,1123 1864.12,1122.38 
  1866.24,1121.75 1868.37,1121.12 1870.49,1120.49 1872.62,1119.86 1874.74,1119.22 1876.87,1118.59 1878.99,1117.95 1881.12,1117.32 1883.24,1116.68 1885.37,1116.04 
  1887.49,1115.4 1889.62,1114.76 1891.74,1114.12 1893.87,1113.48 1895.99,1112.83 1898.12,1112.19 1900.24,1111.54 1902.37,1110.89 1904.49,1110.24 1906.62,1109.59 
  1908.74,1108.94 1910.87,1108.28 1912.99,1107.63 1915.11,1106.97 1917.24,1106.31 1919.36,1105.66 1921.49,1104.99 1923.61,1104.33 1925.74,1103.67 1927.86,1103 
  1929.99,1102.33 1932.11,1101.67 1934.24,1100.99 1936.36,1100.32 1938.49,1099.65 1940.61,1098.97 1942.74,1098.3 1944.86,1097.62 1946.99,1096.94 1949.11,1096.26 
  1951.24,1095.57 1953.36,1094.89 1955.49,1094.2 1957.61,1093.51 1959.74,1092.82 1961.86,1092.12 1963.98,1091.43 1966.11,1090.73 1968.23,1090.03 1970.36,1089.33 
  1972.48,1088.63 1974.61,1087.93 1976.73,1087.22 1978.86,1086.51 1980.98,1085.8 1983.11,1085.09 1985.23,1084.37 1987.36,1083.66 1989.48,1082.94 1991.61,1082.22 
  1993.73,1081.49 1995.86,1080.77 1997.98,1080.04 2000.11,1079.31 2002.23,1078.58 2004.36,1077.84 2006.48,1077.11 2008.61,1076.37 2010.73,1075.63 2012.85,1074.88 
  2014.98,1074.14 2017.1,1073.39 2019.23,1072.64 2021.35,1071.89 2023.48,1071.13 2025.6,1070.38 2027.73,1069.62 2029.85,1068.85 2031.98,1068.09 2034.1,1067.32 
  2036.23,1066.55 2038.35,1065.78 2040.48,1065 2042.6,1064.23 2044.73,1063.45 2046.85,1062.66 2048.98,1061.88 2051.1,1061.09 2053.23,1060.3 2055.35,1059.51 
  2057.48,1058.71 2059.6,1057.91 2061.72,1057.11 2063.85,1056.3 2065.97,1055.5 2068.1,1054.69 2070.22,1053.87 2072.35,1053.06 2074.47,1052.24 2076.6,1051.42 
  2078.72,1050.6 2080.85,1049.77 2082.97,1048.94 2085.1,1048.11 2087.22,1047.27 2089.35,1046.43 2091.47,1045.59 2093.6,1044.74 2095.72,1043.9 2097.85,1043.04 
  2099.97,1042.19 2102.1,1041.33 2104.22,1040.47 2106.35,1039.61 2108.47,1038.74 2110.59,1037.87 2112.72,1037 2114.84,1036.12 2116.97,1035.24 2119.09,1034.36 
  2121.22,1033.47 2123.34,1032.58 2125.47,1031.69 2127.59,1030.8 2129.72,1029.9 2131.84,1028.99 2133.97,1028.09 2136.09,1027.18 2138.22,1026.26 2140.34,1025.35 
  2142.47,1024.43 2144.59,1023.5 2146.72,1022.58 2148.84,1021.65 2150.97,1020.71 2153.09,1019.78 2155.22,1018.83 2157.34,1017.89 2159.46,1016.94 2161.59,1015.99 
  2163.71,1015.03 2165.84,1014.07 2167.96,1013.11 2170.09,1012.15 2172.21,1011.17 2174.34,1010.2 2176.46,1009.22 2178.59,1008.24 2180.71,1007.26 2182.84,1006.27 
  2184.96,1005.27 2187.09,1004.28 2189.21,1003.27 2191.34,1002.27 2193.46,1001.26 2195.59,1000.25 2197.71,999.232 2199.84,998.211 2201.96,997.187 2204.08,996.158 
  2206.21,995.125 2208.33,994.089 2210.46,993.048 2212.58,992.003 2214.71,990.954 2216.83,989.901 2218.96,988.843 2221.08,987.782 2223.21,986.716 2225.33,985.646 
  2227.46,984.572 2229.58,983.494 2231.71,982.412 2233.83,981.325 2235.96,980.234 2238.08,979.138 2240.21,978.038 2242.33,976.934 2244.46,975.826 2246.58,974.713 
  2248.71,973.595 2250.83,972.473 2252.95,971.347 2255.08,970.217 2257.2,969.081 2259.33,967.942 2261.45,966.797 2263.58,965.649 2265.7,964.495 2267.83,963.337 
  2269.95,962.175 2272.08,961.008 2274.2,959.836 2276.33,958.659 2278.45,957.478 2280.58,956.293 2282.7,955.102 2284.83,953.907 2286.95,952.707 2289.08,951.502 
  
  "/>
<polyline clip-path="url(#clip4902)" style="stroke:#c271d2; stroke-width:4; stroke-opacity:1; fill:none" points="
  166.42,1460.65 168.545,1460.13 170.669,1459.6 172.794,1459.06 174.919,1458.51 177.044,1457.95 179.169,1457.37 181.293,1456.79 183.418,1456.2 185.543,1455.61 
  187.668,1455 189.792,1454.38 191.917,1453.75 194.042,1453.12 196.167,1452.48 198.292,1451.82 200.416,1451.16 202.541,1450.49 204.666,1449.81 206.791,1449.12 
  208.915,1448.43 211.04,1447.72 213.165,1447.01 215.29,1446.29 217.415,1445.56 219.539,1444.82 221.664,1444.08 223.789,1443.32 225.914,1442.56 228.039,1441.79 
  230.163,1441.02 232.288,1440.23 234.413,1439.44 236.538,1438.64 238.662,1437.83 240.787,1437.01 242.912,1436.19 245.037,1435.36 247.162,1434.52 249.286,1433.68 
  251.411,1432.82 253.536,1431.96 255.661,1431.09 257.785,1430.22 259.91,1429.34 262.035,1428.45 264.16,1427.55 266.285,1426.64 268.409,1425.73 270.534,1424.82 
  272.659,1423.89 274.784,1422.96 276.908,1422.02 279.033,1421.07 281.158,1420.12 283.283,1419.16 285.408,1418.19 287.532,1417.22 289.657,1416.24 291.782,1415.25 
  293.907,1414.26 296.031,1413.26 298.156,1412.25 300.281,1411.24 302.406,1410.21 304.531,1409.19 306.655,1408.15 308.78,1407.11 310.905,1406.07 313.03,1405.01 
  315.155,1403.95 317.279,1402.89 319.404,1401.82 321.529,1400.74 323.654,1399.65 325.778,1398.56 327.903,1397.46 330.028,1396.36 332.153,1395.25 334.278,1394.13 
  336.402,1393.01 338.527,1391.88 340.652,1390.74 342.777,1389.6 344.901,1388.44 347.026,1387.27 349.151,1386.09 351.276,1384.91 353.401,1383.71 355.525,1382.52 
  357.65,1381.33 359.775,1380.14 361.9,1378.95 364.024,1377.77 366.149,1376.6 368.274,1375.43 370.399,1374.28 372.524,1373.14 374.648,1372 376.773,1370.88 
  378.898,1369.78 381.023,1368.69 383.148,1367.61 385.272,1366.55 387.397,1365.5 389.522,1364.46 391.647,1363.45 393.771,1362.44 395.896,1361.45 398.021,1360.48 
  400.146,1359.52 402.271,1358.57 404.395,1357.64 406.52,1356.72 408.645,1355.82 410.77,1354.92 412.894,1354.04 415.019,1353.17 417.144,1352.32 419.269,1351.47 
  421.394,1350.64 423.518,1349.81 425.643,1349 427.768,1348.19 429.893,1347.39 432.017,1346.6 434.142,1345.82 436.267,1345.04 438.392,1344.27 440.517,1343.51 
  442.641,1342.75 444.766,1342 446.891,1341.25 449.016,1340.51 451.141,1339.77 453.265,1339.04 455.39,1338.31 457.515,1337.58 459.64,1336.85 461.764,1336.13 
  463.889,1335.41 466.014,1334.69 468.139,1333.97 470.264,1333.26 472.388,1332.54 474.513,1331.83 476.638,1331.12 478.763,1330.4 480.887,1329.69 483.012,1328.98 
  485.137,1328.27 487.262,1327.56 489.387,1326.86 491.511,1326.15 493.636,1325.44 495.761,1324.73 497.886,1324.03 500.01,1323.32 502.135,1322.62 504.26,1321.91 
  506.385,1321.21 508.51,1320.51 510.634,1319.81 512.759,1319.11 514.884,1318.41 517.009,1317.72 519.134,1317.02 521.258,1316.33 523.383,1315.64 525.508,1314.96 
  527.633,1314.27 529.757,1313.59 531.882,1312.91 534.007,1312.23 536.132,1311.56 538.257,1310.89 540.381,1310.23 542.506,1309.57 544.631,1308.91 546.756,1308.26 
  548.88,1307.61 551.005,1306.97 553.13,1306.33 555.255,1305.7 557.38,1305.07 559.504,1304.45 561.629,1303.83 563.754,1303.22 565.879,1302.62 568.003,1302.02 
  570.128,1301.43 572.253,1300.84 574.378,1300.26 576.503,1299.69 578.627,1299.12 580.752,1298.56 582.877,1298.01 585.002,1297.46 587.127,1296.92 589.251,1296.39 
  591.376,1295.87 593.501,1295.35 595.626,1294.84 597.75,1294.33 599.875,1293.84 602,1293.35 604.125,1292.86 606.25,1292.39 608.374,1291.92 610.499,1291.46 
  612.624,1291 614.749,1290.55 616.873,1290.11 618.998,1289.67 621.123,1289.24 623.248,1288.82 625.373,1288.4 627.497,1287.99 629.622,1287.59 631.747,1287.19 
  633.872,1286.79 635.996,1286.41 638.121,1286.02 640.246,1285.65 642.371,1285.27 644.496,1284.91 646.62,1284.54 648.745,1284.19 650.87,1283.83 652.995,1283.48 
  655.12,1283.14 657.244,1282.8 659.369,1282.46 661.494,1282.13 663.619,1281.8 665.743,1281.47 667.868,1281.15 669.993,1280.83 672.118,1280.52 674.243,1280.21 
  676.367,1279.9 678.492,1279.59 680.617,1279.29 682.742,1278.99 684.866,1278.7 686.991,1278.41 689.116,1278.12 691.241,1277.83 693.366,1277.55 695.49,1277.27 
  697.615,1276.99 699.74,1276.72 701.865,1276.45 703.989,1276.18 706.114,1275.92 708.239,1275.66 710.364,1275.41 712.489,1275.16 714.613,1274.91 716.738,1274.67 
  718.863,1274.43 720.988,1274.2 723.113,1273.98 725.237,1273.76 727.362,1273.54 729.487,1273.33 731.612,1273.13 733.736,1272.93 735.861,1272.74 737.986,1272.56 
  740.111,1272.39 742.236,1272.22 744.36,1272.06 746.485,1271.91 748.61,1271.76 750.735,1271.63 752.859,1271.5 754.984,1271.39 757.109,1271.28 759.234,1271.18 
  761.359,1271.09 763.483,1271.01 765.608,1270.94 767.733,1270.89 769.858,1270.84 771.982,1270.79 774.107,1270.76 776.232,1270.74 778.357,1270.73 780.482,1270.73 
  782.606,1270.73 784.731,1270.74 786.856,1270.76 788.981,1270.79 791.106,1270.82 793.23,1270.85 795.355,1270.89 797.48,1270.94 799.605,1270.98 801.729,1271.02 
  803.854,1271.07 805.979,1271.1 808.104,1271.14 810.229,1271.16 812.353,1271.18 814.478,1271.18 816.603,1271.17 818.728,1271.14 820.852,1271.09 822.977,1269.41 
  825.102,1269.2 827.227,1268.98 829.352,1268.76 831.476,1268.54 833.601,1268.31 835.726,1268.08 837.851,1267.85 839.975,1267.61 842.1,1267.37 844.225,1267.13 
  846.35,1266.89 848.475,1266.64 850.599,1266.38 852.724,1266.13 854.849,1265.87 856.974,1265.6 859.099,1265.33 861.223,1265.06 863.348,1264.79 865.473,1264.5 
  867.598,1264.22 869.722,1263.93 871.847,1263.63 873.972,1263.33 876.097,1263.03 878.222,1262.72 880.346,1262.4 882.471,1262.08 884.596,1261.76 886.721,1261.43 
  888.845,1261.09 890.97,1260.75 893.095,1260.4 895.22,1260.04 897.345,1259.68 899.469,1259.31 901.594,1258.94 903.719,1258.56 905.844,1258.17 907.968,1257.77 
  910.093,1257.37 912.218,1256.95 914.343,1256.53 916.468,1256.11 918.592,1255.67 920.717,1255.23 922.842,1254.77 924.967,1254.31 927.091,1253.84 929.216,1253.36 
  931.341,1252.87 933.466,1252.36 935.591,1251.85 937.715,1251.33 939.84,1250.8 941.965,1250.25 944.09,1249.7 946.215,1249.13 948.339,1248.55 950.464,1247.96 
  952.589,1247.36 954.714,1246.74 956.838,1246.12 958.963,1245.47 961.088,1244.82 963.213,1244.15 965.338,1243.46 967.462,1242.76 969.587,1242.05 971.712,1241.32 
  973.837,1240.58 975.961,1239.82 978.086,1239.04 980.211,1238.25 982.336,1237.44 984.461,1236.61 986.585,1235.77 988.71,1234.91 990.835,1234.03 992.96,1233.14 
  995.084,1232.22 997.209,1231.29 999.334,1230.34 1001.46,1229.38 1003.58,1228.39 1005.71,1227.39 1007.83,1226.37 1009.96,1225.33 1012.08,1224.27 1014.21,1223.2 
  1016.33,1222.11 1018.46,1221.01 1020.58,1219.88 1022.71,1218.74 1024.83,1217.59 1026.96,1216.42 1029.08,1215.24 1031.21,1214.05 1033.33,1212.85 1035.46,1211.63 
  1037.58,1210.41 1039.7,1209.18 1041.83,1207.94 1043.95,1206.7 1046.08,1205.46 1048.2,1204.22 1050.33,1202.97 1052.45,1201.74 1054.58,1200.51 1056.7,1199.28 
  1058.83,1198.07 1060.95,1196.88 1063.08,1195.7 1065.2,1194.54 1067.33,1193.41 1069.45,1192.3 1071.58,1191.22 1073.7,1190.18 1075.83,1189.17 1077.95,1188.2 
  1080.08,1187.27 1082.2,1186.39 1084.33,1185.56 1086.45,1184.79 1088.57,1184.06 1090.7,1183.4 1092.82,1182.8 1094.95,1182.26 1097.07,1181.79 1099.2,1181.38 
  1101.32,1181.05 1103.45,1180.78 1105.57,1180.59 1107.7,1180.47 1109.82,1180.42 1111.95,1180.44 1114.07,1180.54 1116.2,1180.71 1118.32,1180.96 1120.45,1181.27 
  1122.57,1181.65 1124.7,1182.09 1126.82,1182.61 1128.95,1183.18 1131.07,1183.81 1133.2,1184.5 1135.32,1185.24 1137.44,1186.04 1139.57,1186.88 1141.69,1187.76 
  1143.82,1188.68 1145.94,1189.64 1148.07,1190.64 1150.19,1191.66 1152.32,1192.71 1154.44,1193.78 1156.57,1194.87 1158.69,1195.98 1160.82,1197.1 1162.94,1198.24 
  1165.07,1199.38 1167.19,1200.52 1169.32,1201.67 1171.44,1202.81 1173.57,1203.96 1175.69,1205.1 1177.82,1206.23 1179.94,1207.36 1182.07,1208.47 1184.19,1209.58 
  1186.31,1210.67 1188.44,1211.75 1190.56,1212.81 1192.69,1213.86 1194.81,1214.89 1196.94,1215.9 1199.06,1216.9 1201.19,1217.88 1203.31,1218.84 1205.44,1219.78 
  1207.56,1220.7 1209.69,1221.6 1211.81,1222.48 1213.94,1223.34 1216.06,1224.18 1218.19,1225.01 1220.31,1225.81 1222.44,1226.59 1224.56,1227.36 1226.69,1228.1 
  1228.81,1228.83 1230.94,1229.54 1233.06,1230.23 1235.18,1230.9 1237.31,1231.56 1239.43,1232.19 1241.56,1232.81 1243.68,1233.42 1245.81,1234 1247.93,1234.57 
  1250.06,1235.13 1252.18,1235.67 1254.31,1236.19 1256.43,1236.7 1258.56,1237.2 1260.68,1237.68 1262.81,1238.15 1264.93,1238.61 1267.06,1239.05 1269.18,1239.48 
  1271.31,1239.9 1273.43,1240.3 1275.56,1240.7 1277.68,1241.08 1279.81,1241.45 1281.93,1241.81 1284.05,1242.16 1286.18,1242.5 1288.3,1242.83 1290.43,1243.16 
  1292.55,1243.47 1294.68,1243.77 1296.8,1244.06 1298.93,1244.35 1301.05,1244.63 1303.18,1244.9 1305.3,1245.16 1307.43,1245.41 1309.55,1245.66 1311.68,1245.89 
  1313.8,1246.13 1315.93,1246.35 1318.05,1246.57 1320.18,1246.78 1322.3,1246.99 1324.43,1247.18 1326.55,1247.38 1328.68,1247.56 1330.8,1247.75 1332.92,1247.92 
  1335.05,1248.09 1337.17,1248.26 1339.3,1248.42 1341.42,1248.57 1343.55,1248.72 1345.67,1248.87 1347.8,1249.01 1349.92,1249.15 1352.05,1249.28 1354.17,1249.41 
  1356.3,1249.53 1358.42,1249.65 1360.55,1249.77 1362.67,1249.88 1364.8,1249.99 1366.92,1250.09 1369.05,1250.2 1371.17,1250.29 1373.3,1250.39 1375.42,1250.48 
  1377.55,1250.57 1379.67,1250.65 1381.79,1250.74 1383.92,1250.82 1386.04,1250.89 1388.17,1250.97 1390.29,1251.04 1392.42,1251.11 1394.54,1251.17 1396.67,1251.23 
  1398.79,1251.29 1400.92,1251.35 1403.04,1251.41 1405.17,1251.46 1407.29,1251.51 1409.42,1251.56 1411.54,1251.61 1413.67,1251.65 1415.79,1251.7 1417.92,1251.74 
  1420.04,1251.78 1422.17,1251.81 1424.29,1251.85 1426.42,1251.88 1428.54,1251.91 1430.66,1251.94 1432.79,1251.97 1434.91,1251.99 1437.04,1252.01 1439.16,1252.04 
  1441.29,1252.06 1443.41,1252.07 1445.54,1252.09 1447.66,1252.1 1449.79,1252.12 1451.91,1252.13 1454.04,1252.14 1456.16,1252.15 1458.29,1252.15 1460.41,1252.16 
  1462.54,1252.16 1464.66,1252.16 1466.79,1252.16 1468.91,1252.16 1471.04,1252.16 1473.16,1252.15 1475.29,1252.15 1477.41,1252.14 1479.53,1252.13 1481.66,1252.12 
  1483.78,1252.11 1485.91,1252.09 1488.03,1252.08 1490.16,1252.06 1492.28,1252.04 1494.41,1252.03 1496.53,1252 1498.66,1251.98 1500.78,1251.96 1502.91,1251.93 
  1505.03,1251.91 1507.16,1251.88 1509.28,1251.85 1511.41,1251.82 1513.53,1251.79 1515.66,1251.76 1517.78,1251.72 1519.91,1251.69 1522.03,1251.65 1524.16,1251.61 
  1526.28,1251.57 1528.4,1251.53 1530.53,1251.49 1532.65,1251.44 1534.78,1251.4 1536.9,1251.35 1539.03,1251.3 1541.15,1251.25 1543.28,1251.2 1545.4,1251.15 
  1547.53,1251.1 1549.65,1251.04 1551.78,1250.99 1553.9,1250.93 1556.03,1250.87 1558.15,1250.81 1560.28,1250.75 1562.4,1250.69 1564.53,1250.62 1566.65,1250.56 
  1568.78,1250.49 1570.9,1250.42 1573.02,1250.35 1575.15,1250.28 1577.27,1250.21 1579.4,1250.13 1581.52,1250.06 1583.65,1249.98 1585.77,1249.9 1587.9,1249.82 
  1590.02,1249.74 1592.15,1249.66 1594.27,1249.57 1596.4,1249.49 1598.52,1249.4 1600.65,1249.31 1602.77,1249.22 1604.9,1249.13 1607.02,1249.04 1609.15,1248.94 
  1611.27,1248.85 1613.4,1248.75 1615.52,1248.65 1617.65,1248.55 1619.77,1248.45 1621.89,1248.35 1624.02,1248.24 1626.14,1248.14 1628.27,1248.03 1630.39,1247.92 
  1632.52,1247.81 1634.64,1247.7 1636.77,1247.58 1638.89,1247.47 1641.02,1247.35 1643.14,1247.23 1645.27,1247.11 1647.39,1246.99 1649.52,1246.86 1651.64,1246.74 
  1653.77,1246.61 1655.89,1246.48 1658.02,1246.35 1660.14,1246.22 1662.27,1246.09 1664.39,1245.95 1666.52,1245.82 1668.64,1245.68 1670.76,1245.54 1672.89,1245.4 
  1675.01,1245.25 1677.14,1245.11 1679.26,1244.96 1681.39,1244.81 1683.51,1244.66 1685.64,1244.51 1687.76,1244.36 1689.89,1244.2 1692.01,1244.04 1694.14,1243.89 
  1696.26,1243.72 1698.39,1243.56 1700.51,1243.4 1702.64,1243.23 1704.76,1243.06 1706.89,1242.89 1709.01,1242.72 1711.14,1242.55 1713.26,1242.37 1715.39,1242.2 
  1717.51,1242.02 1719.63,1241.84 1721.76,1241.65 1723.88,1241.47 1726.01,1241.28 1728.13,1241.09 1730.26,1240.9 1732.38,1240.71 1734.51,1240.51 1736.63,1240.32 
  1738.76,1240.12 1740.88,1239.92 1743.01,1239.72 1745.13,1239.51 1747.26,1239.31 1749.38,1239.1 1751.51,1238.89 1753.63,1238.67 1755.76,1238.46 1757.88,1238.24 
  1760.01,1238.02 1762.13,1237.8 1764.26,1237.58 1766.38,1237.36 1768.5,1237.13 1770.63,1236.9 1772.75,1236.67 1774.88,1236.43 1777,1236.2 1779.13,1235.96 
  1781.25,1235.72 1783.38,1235.48 1785.5,1235.23 1787.63,1234.99 1789.75,1234.74 1791.88,1234.49 1794,1234.23 1796.13,1233.98 1798.25,1233.72 1800.38,1233.46 
  1802.5,1233.2 1804.63,1232.93 1806.75,1232.67 1808.88,1232.4 1811,1232.13 1813.13,1231.85 1815.25,1231.58 1817.37,1231.3 1819.5,1231.02 1821.62,1230.74 
  1823.75,1230.45 1825.87,1230.16 1828,1229.87 1830.12,1229.58 1832.25,1229.28 1834.37,1228.99 1836.5,1228.69 1838.62,1228.38 1840.75,1228.08 1842.87,1227.77 
  1845,1227.46 1847.12,1227.15 1849.25,1226.83 1851.37,1226.52 1853.5,1226.22 1855.62,1225.9 1857.75,1225.58 1859.87,1225.25 1862,1224.93 1864.12,1224.6 
  1866.24,1224.27 1868.37,1223.94 1870.49,1223.61 1872.62,1223.28 1874.74,1222.94 1876.87,1222.61 1878.99,1222.27 1881.12,1221.93 1883.24,1221.59 1885.37,1221.25 
  1887.49,1220.91 1889.62,1220.56 1891.74,1220.21 1893.87,1219.87 1895.99,1219.52 1898.12,1219.17 1900.24,1218.81 1902.37,1218.46 1904.49,1218.1 1906.62,1217.75 
  1908.74,1217.39 1910.87,1217.03 1912.99,1216.66 1915.11,1216.3 1917.24,1215.93 1919.36,1215.57 1921.49,1215.2 1923.61,1214.83 1925.74,1214.46 1927.86,1214.08 
  1929.99,1213.71 1932.11,1213.33 1934.24,1212.96 1936.36,1212.58 1938.49,1212.19 1940.61,1211.81 1942.74,1211.43 1944.86,1211.04 1946.99,1210.65 1949.11,1210.26 
  1951.24,1209.87 1953.36,1209.48 1955.49,1209.09 1957.61,1208.69 1959.74,1208.29 1961.86,1207.89 1963.98,1207.49 1966.11,1207.09 1968.23,1206.68 1970.36,1206.28 
  1972.48,1205.87 1974.61,1205.46 1976.73,1205.05 1978.86,1204.64 1980.98,1204.22 1983.11,1203.81 1985.23,1203.39 1987.36,1202.97 1989.48,1202.55 1991.61,1202.12 
  1993.73,1201.7 1995.86,1201.27 1997.98,1200.84 2000.11,1200.41 2002.23,1199.98 2004.36,1199.55 2006.48,1199.11 2008.61,1198.68 2010.73,1198.24 2012.85,1197.8 
  2014.98,1197.35 2017.1,1196.91 2019.23,1196.46 2021.35,1196.02 2023.48,1195.57 2025.6,1195.12 2027.73,1194.66 2029.85,1194.21 2031.98,1193.75 2034.1,1193.29 
  2036.23,1192.83 2038.35,1192.37 2040.48,1191.91 2042.6,1191.44 2044.73,1190.97 2046.85,1190.51 2048.98,1190.03 2051.1,1189.56 2053.23,1189.09 2055.35,1188.61 
  2057.48,1188.13 2059.6,1187.65 2061.72,1187.17 2063.85,1186.69 2065.97,1186.2 2068.1,1185.71 2070.22,1185.22 2072.35,1184.73 2074.47,1184.24 2076.6,1183.74 
  2078.72,1183.25 2080.85,1182.75 2082.97,1182.25 2085.1,1181.74 2087.22,1181.24 2089.35,1180.73 2091.47,1180.22 2093.6,1179.71 2095.72,1179.2 2097.85,1178.69 
  2099.97,1178.17 2102.1,1177.65 2104.22,1177.13 2106.35,1176.61 2108.47,1176.09 2110.59,1175.56 2112.72,1175.04 2114.84,1174.51 2116.97,1173.98 2119.09,1173.44 
  2121.22,1172.91 2123.34,1172.37 2125.47,1171.83 2127.59,1171.29 2129.72,1170.75 2131.84,1170.2 2133.97,1169.65 2136.09,1169.1 2138.22,1168.55 2140.34,1168 
  2142.47,1167.44 2144.59,1166.89 2146.72,1166.33 2148.84,1165.77 2150.97,1165.2 2153.09,1164.64 2155.22,1164.07 2157.34,1163.5 2159.46,1162.93 2161.59,1162.36 
  2163.71,1161.78 2165.84,1161.21 2167.96,1160.63 2170.09,1160.04 2172.21,1159.46 2174.34,1158.88 2176.46,1158.29 2178.59,1157.7 2180.71,1157.11 2182.84,1156.51 
  2184.96,1155.92 2187.09,1155.32 2189.21,1154.72 2191.34,1154.12 2193.46,1153.51 2195.59,1152.91 2197.71,1152.3 2199.84,1151.69 2201.96,1151.07 2204.08,1150.46 
  2206.21,1149.84 2208.33,1149.22 2210.46,1148.6 2212.58,1147.98 2214.71,1147.35 2216.83,1146.73 2218.96,1146.1 2221.08,1145.47 2223.21,1144.83 2225.33,1144.2 
  2227.46,1143.56 2229.58,1142.92 2231.71,1142.28 2233.83,1141.63 2235.96,1140.98 2238.08,1140.34 2240.21,1139.68 2242.33,1139.03 2244.46,1138.38 2246.58,1137.72 
  2248.71,1137.06 2250.83,1136.4 2252.95,1135.73 2255.08,1135.07 2257.2,1134.4 2259.33,1133.73 2261.45,1133.05 2263.58,1132.38 2265.7,1131.7 2267.83,1131.02 
  2269.95,1130.34 2272.08,1129.65 2274.2,1128.97 2276.33,1128.28 2278.45,1127.59 2280.58,1126.9 2282.7,1126.2 2284.83,1125.5 2286.95,1124.8 2289.08,1124.1 
  
  "/>
<polyline clip-path="url(#clip4902)" style="stroke:#ac8d18; stroke-width:4; stroke-opacity:1; fill:none" points="
  166.42,1460.28 168.545,1459.74 170.669,1459.19 172.794,1458.63 174.919,1458.05 177.044,1457.47 179.169,1456.88 181.293,1456.28 183.418,1455.67 185.543,1455.05 
  187.668,1454.41 189.792,1453.77 191.917,1453.12 194.042,1452.47 196.167,1451.8 198.292,1451.12 200.416,1450.43 202.541,1449.74 204.666,1449.03 206.791,1448.32 
  208.915,1447.6 211.04,1446.87 213.165,1446.13 215.29,1445.38 217.415,1444.62 219.539,1443.86 221.664,1443.09 223.789,1442.3 225.914,1441.51 228.039,1440.72 
  230.163,1439.91 232.288,1439.09 234.413,1438.27 236.538,1437.44 238.662,1436.6 240.787,1435.76 242.912,1434.9 245.037,1434.04 247.162,1433.17 249.286,1432.29 
  251.411,1431.41 253.536,1430.51 255.661,1429.61 257.785,1428.71 259.91,1427.79 262.035,1426.87 264.16,1425.94 266.285,1425 268.409,1424.05 270.534,1423.1 
  272.659,1422.14 274.784,1421.17 276.908,1420.2 279.033,1419.22 281.158,1418.23 283.283,1417.23 285.408,1416.23 287.532,1415.22 289.657,1414.2 291.782,1413.18 
  293.907,1412.15 296.031,1411.11 298.156,1410.06 300.281,1409.01 302.406,1407.95 304.531,1406.89 306.655,1405.81 308.78,1404.74 310.905,1403.65 313.03,1402.56 
  315.155,1401.46 317.279,1400.35 319.404,1399.24 321.529,1398.12 323.654,1396.99 325.778,1395.86 327.903,1394.72 330.028,1393.58 332.153,1392.42 334.278,1391.27 
  336.402,1390.1 338.527,1388.93 340.652,1387.75 342.777,1386.57 344.901,1385.38 347.026,1384.19 349.151,1383.01 351.276,1381.84 353.401,1380.68 355.525,1379.52 
  357.65,1378.37 359.775,1377.23 361.9,1376.1 364.024,1374.98 366.149,1373.87 368.274,1372.78 370.399,1371.69 372.524,1370.61 374.648,1369.55 376.773,1368.5 
  378.898,1367.46 381.023,1366.43 383.148,1365.42 385.272,1364.41 387.397,1363.42 389.522,1362.44 391.647,1361.47 393.771,1360.51 395.896,1359.57 398.021,1358.64 
  400.146,1357.71 402.271,1356.8 404.395,1355.9 406.52,1355.02 408.645,1354.14 410.77,1353.27 412.894,1352.41 415.019,1351.56 417.144,1350.73 419.269,1349.9 
  421.394,1349.08 423.518,1348.27 425.643,1347.47 427.768,1346.68 429.893,1345.89 432.017,1345.12 434.142,1344.35 436.267,1343.59 438.392,1342.83 440.517,1342.09 
  442.641,1341.35 444.766,1340.61 446.891,1339.89 449.016,1339.17 451.141,1338.46 453.265,1337.75 455.39,1337.05 457.515,1336.35 459.64,1335.66 461.764,1334.97 
  463.889,1334.29 466.014,1333.61 468.139,1332.94 470.264,1332.28 472.388,1331.61 474.513,1330.96 476.638,1330.3 478.763,1329.65 480.887,1329.01 483.012,1328.37 
  485.137,1327.73 487.262,1327.09 489.387,1326.46 491.511,1325.84 493.636,1325.21 495.761,1324.59 497.886,1323.98 500.01,1323.37 502.135,1322.76 504.26,1322.15 
  506.385,1321.55 508.51,1320.95 510.634,1320.35 512.759,1319.76 514.884,1319.17 517.009,1318.59 519.134,1318 521.258,1317.43 523.383,1316.85 525.508,1316.28 
  527.633,1315.71 529.757,1315.15 531.882,1314.58 534.007,1314.03 536.132,1313.47 538.257,1312.92 540.381,1312.38 542.506,1311.83 544.631,1311.29 546.756,1310.76 
  548.88,1310.23 551.005,1309.7 553.13,1309.18 555.255,1308.66 557.38,1308.14 559.504,1307.63 561.629,1307.12 563.754,1306.62 565.879,1306.12 568.003,1305.63 
  570.128,1305.14 572.253,1304.65 574.378,1304.17 576.503,1303.7 578.627,1303.23 580.752,1302.76 582.877,1302.3 585.002,1301.84 587.127,1301.39 589.251,1300.94 
  591.376,1300.5 593.501,1300.06 595.626,1299.63 597.75,1299.2 599.875,1298.78 602,1298.36 604.125,1297.95 606.25,1297.54 608.374,1297.14 610.499,1296.74 
  612.624,1296.35 614.749,1295.97 616.873,1295.59 618.998,1295.21 621.123,1294.84 623.248,1294.48 625.373,1294.12 627.497,1293.77 629.622,1293.42 631.747,1293.08 
  633.872,1292.74 635.996,1292.41 638.121,1292.09 640.246,1291.77 642.371,1291.45 644.496,1291.15 646.62,1290.85 648.745,1290.55 650.87,1290.26 652.995,1289.98 
  655.12,1289.7 657.244,1289.43 659.369,1289.16 661.494,1288.9 663.619,1288.65 665.743,1288.4 667.868,1288.16 669.993,1287.92 672.118,1287.7 674.243,1287.47 
  676.367,1287.26 678.492,1287.05 680.617,1286.85 682.742,1286.65 684.866,1286.46 686.991,1286.28 689.116,1286.11 691.241,1285.94 693.366,1285.78 695.49,1285.62 
  697.615,1285.47 699.74,1285.33 701.865,1285.2 703.989,1285.08 706.114,1284.96 708.239,1284.85 710.364,1284.74 712.489,1284.65 714.613,1284.56 716.738,1284.48 
  718.863,1284.41 720.988,1284.34 723.113,1284.29 725.237,1284.24 727.362,1284.2 729.487,1284.17 731.612,1284.14 733.736,1284.13 735.861,1284.12 737.986,1284.12 
  740.111,1284.13 742.236,1284.15 744.36,1284.17 746.485,1284.21 748.61,1284.25 750.735,1284.3 752.859,1284.36 754.984,1284.42 757.109,1284.49 759.234,1284.58 
  761.359,1284.66 763.483,1284.76 765.608,1284.86 767.733,1284.97 769.858,1285.09 771.982,1285.21 774.107,1285.34 776.232,1285.47 778.357,1285.61 780.482,1285.75 
  782.606,1285.9 784.731,1286.05 786.856,1286.2 788.981,1286.36 791.106,1286.52 793.23,1286.68 795.355,1286.83 797.48,1286.99 799.605,1287.15 801.729,1287.3 
  803.854,1287.45 805.979,1287.59 808.104,1287.73 810.229,1287.86 812.353,1287.97 814.478,1288.08 816.603,1288.18 818.728,1288.26 820.852,1288.32 822.977,1286.72 
  825.102,1286.63 827.227,1286.54 829.352,1286.45 831.476,1286.35 833.601,1286.25 835.726,1286.15 837.851,1286.05 839.975,1285.94 842.1,1285.83 844.225,1285.72 
  846.35,1285.61 848.475,1285.5 850.599,1285.38 852.724,1285.26 854.849,1285.13 856.974,1285 859.099,1284.87 861.223,1284.74 863.348,1284.6 865.473,1284.46 
  867.598,1284.32 869.722,1284.17 871.847,1284.02 873.972,1283.87 876.097,1283.71 878.222,1283.55 880.346,1283.39 882.471,1283.22 884.596,1283.04 886.721,1282.87 
  888.845,1282.68 890.97,1282.5 893.095,1282.31 895.22,1282.11 897.345,1281.91 899.469,1281.71 901.594,1281.49 903.719,1281.28 905.844,1281.06 907.968,1280.83 
  910.093,1280.6 912.218,1280.36 914.343,1280.11 916.468,1279.86 918.592,1279.61 920.717,1279.34 922.842,1279.07 924.967,1278.79 927.091,1278.51 929.216,1278.22 
  931.341,1277.92 933.466,1277.61 935.591,1277.3 937.715,1276.98 939.84,1276.64 941.965,1276.31 944.09,1275.96 946.215,1275.6 948.339,1275.23 950.464,1274.86 
  952.589,1274.47 954.714,1274.08 956.838,1273.67 958.963,1273.26 961.088,1272.83 963.213,1272.4 965.338,1271.95 967.462,1271.49 969.587,1271.02 971.712,1270.54 
  973.837,1270.05 975.961,1269.54 978.086,1269.02 980.211,1268.49 982.336,1267.95 984.461,1267.39 986.585,1266.82 988.71,1266.24 990.835,1265.64 992.96,1265.03 
  995.084,1264.41 997.209,1263.77 999.334,1263.12 1001.46,1262.45 1003.58,1261.77 1005.71,1261.08 1007.83,1260.37 1009.96,1259.65 1012.08,1258.91 1014.21,1258.17 
  1016.33,1257.4 1018.46,1256.63 1020.58,1255.84 1022.71,1255.04 1024.83,1254.23 1026.96,1253.41 1029.08,1252.58 1031.21,1251.74 1033.33,1250.89 1035.46,1250.03 
  1037.58,1249.17 1039.7,1248.29 1041.83,1247.42 1043.95,1246.54 1046.08,1245.66 1048.2,1244.78 1050.33,1243.9 1052.45,1243.03 1054.58,1242.16 1056.7,1241.29 
  1058.83,1240.44 1060.95,1239.6 1063.08,1238.77 1065.2,1237.96 1067.33,1237.16 1069.45,1236.39 1071.58,1235.64 1073.7,1234.92 1075.83,1234.23 1077.95,1233.56 
  1080.08,1232.93 1082.2,1232.34 1084.33,1231.79 1086.45,1231.28 1088.57,1230.81 1090.7,1230.39 1092.82,1230.02 1094.95,1229.69 1097.07,1229.42 1099.2,1229.21 
  1101.32,1229.04 1103.45,1228.93 1105.57,1228.88 1107.7,1228.89 1109.82,1228.95 1111.95,1229.07 1114.07,1229.24 1116.2,1229.47 1118.32,1229.76 1120.45,1230.1 
  1122.57,1230.5 1124.7,1230.94 1126.82,1231.44 1128.95,1231.98 1131.07,1232.57 1133.2,1233.2 1135.32,1233.87 1137.44,1234.58 1139.57,1235.33 1141.69,1236.11 
  1143.82,1236.91 1145.94,1237.75 1148.07,1238.61 1150.19,1239.49 1152.32,1240.39 1154.44,1241.3 1156.57,1242.23 1158.69,1243.17 1160.82,1244.12 1162.94,1245.08 
  1165.07,1246.03 1167.19,1247 1169.32,1247.96 1171.44,1248.92 1173.57,1249.87 1175.69,1250.82 1177.82,1251.77 1179.94,1252.7 1182.07,1253.63 1184.19,1254.55 
  1186.31,1255.45 1188.44,1256.35 1190.56,1257.23 1192.69,1258.1 1194.81,1258.95 1196.94,1259.79 1199.06,1260.61 1201.19,1261.42 1203.31,1262.22 1205.44,1263 
  1207.56,1263.76 1209.69,1264.51 1211.81,1265.24 1213.94,1265.95 1216.06,1266.65 1218.19,1267.34 1220.31,1268 1222.44,1268.66 1224.56,1269.3 1226.69,1269.92 
  1228.81,1270.53 1230.94,1271.12 1233.06,1271.7 1235.18,1272.26 1237.31,1272.82 1239.43,1273.35 1241.56,1273.88 1243.68,1274.39 1245.81,1274.89 1247.93,1275.38 
  1250.06,1275.85 1252.18,1276.32 1254.31,1276.77 1256.43,1277.21 1258.56,1277.64 1260.68,1278.06 1262.81,1278.47 1264.93,1278.87 1267.06,1279.25 1269.18,1279.63 
  1271.31,1280 1273.43,1280.37 1275.56,1280.72 1277.68,1281.06 1279.81,1281.4 1281.93,1281.73 1284.05,1282.05 1286.18,1282.36 1288.3,1282.67 1290.43,1282.97 
  1292.55,1283.26 1294.68,1283.54 1296.8,1283.82 1298.93,1284.09 1301.05,1284.36 1303.18,1284.62 1305.3,1284.87 1307.43,1285.12 1309.55,1285.36 1311.68,1285.6 
  1313.8,1285.83 1315.93,1286.06 1318.05,1286.28 1320.18,1286.5 1322.3,1286.71 1324.43,1286.92 1326.55,1287.12 1328.68,1287.32 1330.8,1287.52 1332.92,1287.71 
  1335.05,1287.9 1337.17,1288.08 1339.3,1288.26 1341.42,1288.44 1343.55,1288.61 1345.67,1288.78 1347.8,1288.95 1349.92,1289.11 1352.05,1289.27 1354.17,1289.43 
  1356.3,1289.58 1358.42,1289.74 1360.55,1289.88 1362.67,1290.03 1364.8,1290.17 1366.92,1290.31 1369.05,1290.45 1371.17,1290.59 1373.3,1290.72 1375.42,1290.85 
  1377.55,1290.98 1379.67,1291.11 1381.79,1291.23 1383.92,1291.35 1386.04,1291.47 1388.17,1291.59 1390.29,1291.71 1392.42,1291.82 1394.54,1291.93 1396.67,1292.05 
  1398.79,1292.15 1400.92,1292.26 1403.04,1292.37 1405.17,1292.47 1407.29,1292.58 1409.42,1292.68 1411.54,1292.78 1413.67,1292.88 1415.79,1292.98 1417.92,1293.08 
  1420.04,1293.17 1422.17,1293.27 1424.29,1293.36 1426.42,1293.45 1428.54,1293.54 1430.66,1293.63 1432.79,1293.72 1434.91,1293.81 1437.04,1293.9 1439.16,1293.98 
  1441.29,1294.07 1443.41,1294.15 1445.54,1294.23 1447.66,1294.31 1449.79,1294.39 1451.91,1294.47 1454.04,1294.55 1456.16,1294.63 1458.29,1294.71 1460.41,1294.78 
  1462.54,1294.86 1464.66,1294.93 1466.79,1295.01 1468.91,1295.08 1471.04,1295.15 1473.16,1295.22 1475.29,1295.29 1477.41,1295.36 1479.53,1295.43 1481.66,1295.49 
  1483.78,1295.56 1485.91,1295.63 1488.03,1295.69 1490.16,1295.75 1492.28,1295.82 1494.41,1295.88 1496.53,1295.94 1498.66,1296 1500.78,1296.06 1502.91,1296.12 
  1505.03,1296.18 1507.16,1296.24 1509.28,1296.3 1511.41,1296.35 1513.53,1296.41 1515.66,1296.46 1517.78,1296.52 1519.91,1296.57 1522.03,1296.62 1524.16,1296.67 
  1526.28,1296.72 1528.4,1296.77 1530.53,1296.82 1532.65,1296.87 1534.78,1296.92 1536.9,1296.97 1539.03,1297.01 1541.15,1297.06 1543.28,1297.1 1545.4,1297.15 
  1547.53,1297.19 1549.65,1297.23 1551.78,1297.28 1553.9,1297.32 1556.03,1297.36 1558.15,1297.4 1560.28,1297.44 1562.4,1297.47 1564.53,1297.51 1566.65,1297.55 
  1568.78,1297.58 1570.9,1297.62 1573.02,1297.65 1575.15,1297.69 1577.27,1297.72 1579.4,1297.75 1581.52,1297.78 1583.65,1297.81 1585.77,1297.84 1587.9,1297.87 
  1590.02,1297.9 1592.15,1297.92 1594.27,1297.95 1596.4,1297.98 1598.52,1298 1600.65,1298.02 1602.77,1298.05 1604.9,1298.07 1607.02,1298.09 1609.15,1298.11 
  1611.27,1298.13 1613.4,1298.15 1615.52,1298.17 1617.65,1298.18 1619.77,1298.2 1621.89,1298.22 1624.02,1298.23 1626.14,1298.24 1628.27,1298.26 1630.39,1298.27 
  1632.52,1298.28 1634.64,1298.29 1636.77,1298.3 1638.89,1298.31 1641.02,1298.31 1643.14,1298.32 1645.27,1298.33 1647.39,1298.33 1649.52,1298.33 1651.64,1298.34 
  1653.77,1298.34 1655.89,1298.34 1658.02,1298.34 1660.14,1298.34 1662.27,1298.33 1664.39,1298.33 1666.52,1298.33 1668.64,1298.32 1670.76,1298.32 1672.89,1298.31 
  1675.01,1298.3 1677.14,1298.29 1679.26,1298.28 1681.39,1298.27 1683.51,1298.26 1685.64,1298.24 1687.76,1298.23 1689.89,1298.22 1692.01,1298.2 1694.14,1298.18 
  1696.26,1298.16 1698.39,1298.14 1700.51,1298.12 1702.64,1298.1 1704.76,1298.08 1706.89,1298.05 1709.01,1298.03 1711.14,1298 1713.26,1297.98 1715.39,1297.95 
  1717.51,1297.92 1719.63,1297.89 1721.76,1297.86 1723.88,1297.82 1726.01,1297.79 1728.13,1297.75 1730.26,1297.72 1732.38,1297.68 1734.51,1297.64 1736.63,1297.6 
  1738.76,1297.56 1740.88,1297.52 1743.01,1297.47 1745.13,1297.43 1747.26,1297.38 1749.38,1297.33 1751.51,1297.28 1753.63,1297.23 1755.76,1297.18 1757.88,1297.13 
  1760.01,1297.08 1762.13,1297.02 1764.26,1296.97 1766.38,1296.91 1768.5,1296.85 1770.63,1296.79 1772.75,1296.73 1774.88,1296.67 1777,1296.6 1779.13,1296.54 
  1781.25,1296.47 1783.38,1296.4 1785.5,1296.33 1787.63,1296.26 1789.75,1296.19 1791.88,1296.11 1794,1296.04 1796.13,1295.96 1798.25,1295.89 1800.38,1295.81 
  1802.5,1295.73 1804.63,1295.64 1806.75,1295.56 1808.88,1295.47 1811,1295.39 1813.13,1295.3 1815.25,1295.21 1817.37,1295.12 1819.5,1295.03 1821.62,1294.93 
  1823.75,1294.84 1825.87,1294.74 1828,1294.64 1830.12,1294.54 1832.25,1294.44 1834.37,1294.34 1836.5,1294.23 1838.62,1294.13 1840.75,1294.02 1842.87,1293.91 
  1845,1293.8 1847.12,1293.69 1849.25,1293.58 1851.37,1293.46 1853.5,1293.36 1855.62,1293.24 1857.75,1293.12 1859.87,1293 1862,1292.87 1864.12,1292.75 
  1866.24,1292.62 1868.37,1292.49 1870.49,1292.36 1872.62,1292.23 1874.74,1292.09 1876.87,1291.95 1878.99,1291.81 1881.12,1291.67 1883.24,1291.53 1885.37,1291.39 
  1887.49,1291.24 1889.62,1291.09 1891.74,1290.94 1893.87,1290.79 1895.99,1290.64 1898.12,1290.48 1900.24,1290.33 1902.37,1290.17 1904.49,1290.01 1906.62,1289.85 
  1908.74,1289.68 1910.87,1289.52 1912.99,1289.35 1915.11,1289.18 1917.24,1289.02 1919.36,1288.84 1921.49,1288.67 1923.61,1288.5 1925.74,1288.32 1927.86,1288.14 
  1929.99,1287.96 1932.11,1287.78 1934.24,1287.6 1936.36,1287.41 1938.49,1287.22 1940.61,1287.04 1942.74,1286.85 1944.86,1286.66 1946.99,1286.46 1949.11,1286.27 
  1951.24,1286.07 1953.36,1285.88 1955.49,1285.68 1957.61,1285.48 1959.74,1285.27 1961.86,1285.07 1963.98,1284.87 1966.11,1284.66 1968.23,1284.45 1970.36,1284.24 
  1972.48,1284.03 1974.61,1283.82 1976.73,1283.6 1978.86,1283.39 1980.98,1283.17 1983.11,1282.95 1985.23,1282.73 1987.36,1282.51 1989.48,1282.29 1991.61,1282.06 
  1993.73,1281.84 1995.86,1281.61 1997.98,1281.38 2000.11,1281.15 2002.23,1280.92 2004.36,1280.68 2006.48,1280.45 2008.61,1280.21 2010.73,1279.98 2012.85,1279.74 
  2014.98,1279.5 2017.1,1279.26 2019.23,1279.01 2021.35,1278.77 2023.48,1278.52 2025.6,1278.28 2027.73,1278.03 2029.85,1277.78 2031.98,1277.53 2034.1,1277.28 
  2036.23,1277.02 2038.35,1276.77 2040.48,1276.51 2042.6,1276.25 2044.73,1275.99 2046.85,1275.73 2048.98,1275.47 2051.1,1275.21 2053.23,1274.95 2055.35,1274.68 
  2057.48,1274.41 2059.6,1274.15 2061.72,1273.88 2063.85,1273.61 2065.97,1273.34 2068.1,1273.06 2070.22,1272.79 2072.35,1272.51 2074.47,1272.24 2076.6,1271.96 
  2078.72,1271.68 2080.85,1271.4 2082.97,1271.12 2085.1,1270.84 2087.22,1270.55 2089.35,1270.27 2091.47,1269.98 2093.6,1269.7 2095.72,1269.41 2097.85,1269.12 
  2099.97,1268.83 2102.1,1268.54 2104.22,1268.24 2106.35,1267.95 2108.47,1267.65 2110.59,1267.36 2112.72,1267.06 2114.84,1266.76 2116.97,1266.46 2119.09,1266.16 
  2121.22,1265.86 2123.34,1265.56 2125.47,1265.26 2127.59,1264.95 2129.72,1264.64 2131.84,1264.34 2133.97,1264.03 2136.09,1263.72 2138.22,1263.41 2140.34,1263.1 
  2142.47,1262.79 2144.59,1262.48 2146.72,1262.16 2148.84,1261.85 2150.97,1261.53 2153.09,1261.21 2155.22,1260.9 2157.34,1260.58 2159.46,1260.26 2161.59,1259.94 
  2163.71,1259.61 2165.84,1259.29 2167.96,1258.97 2170.09,1258.64 2172.21,1258.32 2174.34,1257.99 2176.46,1257.66 2178.59,1257.34 2180.71,1257.01 2182.84,1256.68 
  2184.96,1256.35 2187.09,1256.01 2189.21,1255.68 2191.34,1255.35 2193.46,1255.01 2195.59,1254.68 2197.71,1254.34 2199.84,1254 2201.96,1253.67 2204.08,1253.33 
  2206.21,1252.99 2208.33,1252.65 2210.46,1252.31 2212.58,1251.97 2214.71,1251.62 2216.83,1251.28 2218.96,1250.93 2221.08,1250.59 2223.21,1250.24 2225.33,1249.9 
  2227.46,1249.55 2229.58,1249.2 2231.71,1248.85 2233.83,1248.5 2235.96,1248.15 2238.08,1247.8 2240.21,1247.45 2242.33,1247.1 2244.46,1246.74 2246.58,1246.39 
  2248.71,1246.03 2250.83,1245.68 2252.95,1245.32 2255.08,1244.96 2257.2,1244.61 2259.33,1244.25 2261.45,1243.89 2263.58,1243.53 2265.7,1243.17 2267.83,1242.81 
  2269.95,1242.45 2272.08,1242.09 2274.2,1241.72 2276.33,1241.36 2278.45,1241 2280.58,1240.63 2282.7,1240.27 2284.83,1239.9 2286.95,1239.53 2289.08,1239.17 
  
  "/>
<path clip-path="url(#clip4900)" d="
M1886.92 493.644 L2280.76 493.644 L2280.76 130.764 L1886.92 130.764  Z
  " fill="#ffffff" fill-rule="evenodd" fill-opacity="1"/>
<polyline clip-path="url(#clip4900)" style="stroke:#000000; stroke-width:4; stroke-opacity:1; fill:none" points="
  1886.92,493.644 2280.76,493.644 2280.76,130.764 1886.92,130.764 1886.92,493.644 
  "/>
<polyline clip-path="url(#clip4900)" style="stroke:#009af9; stroke-width:4; stroke-opacity:1; fill:none" points="
  1910.92,191.244 2054.92,191.244 
  "/>
<g clip-path="url(#clip4900)">
<text style="fill:#000000; fill-opacity:1; font-family:Arial,Helvetica Neue,Helvetica,sans-serif; font-size:48px; text-anchor:start;" transform="rotate(0, 2078.92, 208.744)" x="2078.92" y="208.744">Rv=2.0</text>
</g>
<polyline clip-path="url(#clip4900)" style="stroke:#e26f46; stroke-width:4; stroke-opacity:1; fill:none" points="
  1910.92,251.724 2054.92,251.724 
  "/>
<g clip-path="url(#clip4900)">
<text style="fill:#000000; fill-opacity:1; font-family:Arial,Helvetica Neue,Helvetica,sans-serif; font-size:48px; text-anchor:start;" transform="rotate(0, 2078.92, 269.224)" x="2078.92" y="269.224">Rv=3.1</text>
</g>
<polyline clip-path="url(#clip4900)" style="stroke:#3da44d; stroke-width:4; stroke-opacity:1; fill:none" points="
  1910.92,312.204 2054.92,312.204 
  "/>
<g clip-path="url(#clip4900)">
<text style="fill:#000000; fill-opacity:1; font-family:Arial,Helvetica Neue,Helvetica,sans-serif; font-size:48px; text-anchor:start;" transform="rotate(0, 2078.92, 329.704)" x="2078.92" y="329.704">Rv=4.0</text>
</g>
<polyline clip-path="url(#clip4900)" style="stroke:#c271d2; stroke-width:4; stroke-opacity:1; fill:none" points="
  1910.92,372.684 2054.92,372.684 
  "/>
<g clip-path="url(#clip4900)">
<text style="fill:#000000; fill-opacity:1; font-family:Arial,Helvetica Neue,Helvetica,sans-serif; font-size:48px; text-anchor:start;" transform="rotate(0, 2078.92, 390.184)" x="2078.92" y="390.184">Rv=5.0</text>
</g>
<polyline clip-path="url(#clip4900)" style="stroke:#ac8d18; stroke-width:4; stroke-opacity:1; fill:none" points="
  1910.92,433.164 2054.92,433.164 
  "/>
<g clip-path="url(#clip4900)">
<text style="fill:#000000; fill-opacity:1; font-family:Arial,Helvetica Neue,Helvetica,sans-serif; font-size:48px; text-anchor:start;" transform="rotate(0, 2078.92, 450.664)" x="2078.92" y="450.664">Rv=6.0</text>
</g>
</svg>
