<?xml version="1.0" encoding="utf-8"?>
<svg xmlns="http://www.w3.org/2000/svg" xmlns:xlink="http://www.w3.org/1999/xlink" width="600" height="400" viewBox="0 0 2400 1600">
<defs>
  <clipPath id="clip2100">
    <rect x="0" y="0" width="2400" height="1600"/>
  </clipPath>
</defs>
<path clip-path="url(#clip2100)" d="
M0 1600 L2400 1600 L2400 0 L0 0  Z
  " fill="#ffffff" fill-rule="evenodd" fill-opacity="1"/>
<defs>
  <clipPath id="clip2101">
    <rect x="480" y="0" width="1681" height="1600"/>
  </clipPath>
</defs>
<path clip-path="url(#clip2100)" d="
M282.915 1459.51 L2352.76 1459.51 L2352.76 47.2441 L282.915 47.2441  Z
  " fill="#ffffff" fill-rule="evenodd" fill-opacity="1"/>
<defs>
  <clipPath id="clip2102">
    <rect x="282" y="47" width="2071" height="1413"/>
  </clipPath>
</defs>
<polyline clip-path="url(#clip2102)" style="stroke:#000000; stroke-width:2; stroke-opacity:0.1; fill:none" points="
  519.011,1459.51 519.011,47.2441 
  "/>
<polyline clip-path="url(#clip2102)" style="stroke:#000000; stroke-width:2; stroke-opacity:0.1; fill:none" points="
  1026.2,1459.51 1026.2,47.2441 
  "/>
<polyline clip-path="url(#clip2102)" style="stroke:#000000; stroke-width:2; stroke-opacity:0.1; fill:none" points="
  1533.39,1459.51 1533.39,47.2441 
  "/>
<polyline clip-path="url(#clip2102)" style="stroke:#000000; stroke-width:2; stroke-opacity:0.1; fill:none" points="
  2040.58,1459.51 2040.58,47.2441 
  "/>
<polyline clip-path="url(#clip2102)" style="stroke:#000000; stroke-width:2; stroke-opacity:0.1; fill:none" points="
  282.915,1449.39 2352.76,1449.39 
  "/>
<polyline clip-path="url(#clip2102)" style="stroke:#000000; stroke-width:2; stroke-opacity:0.1; fill:none" points="
  282.915,1200.71 2352.76,1200.71 
  "/>
<polyline clip-path="url(#clip2102)" style="stroke:#000000; stroke-width:2; stroke-opacity:0.1; fill:none" points="
  282.915,952.026 2352.76,952.026 
  "/>
<polyline clip-path="url(#clip2102)" style="stroke:#000000; stroke-width:2; stroke-opacity:0.1; fill:none" points="
  282.915,703.344 2352.76,703.344 
  "/>
<polyline clip-path="url(#clip2102)" style="stroke:#000000; stroke-width:2; stroke-opacity:0.1; fill:none" points="
  282.915,454.662 2352.76,454.662 
  "/>
<polyline clip-path="url(#clip2102)" style="stroke:#000000; stroke-width:2; stroke-opacity:0.1; fill:none" points="
  282.915,205.981 2352.76,205.981 
  "/>
<polyline clip-path="url(#clip2100)" style="stroke:#000000; stroke-width:4; stroke-opacity:1; fill:none" points="
  282.915,1459.51 2352.76,1459.51 
  "/>
<polyline clip-path="url(#clip2100)" style="stroke:#000000; stroke-width:4; stroke-opacity:1; fill:none" points="
  282.915,1459.51 282.915,47.2441 
  "/>
<polyline clip-path="url(#clip2100)" style="stroke:#000000; stroke-width:4; stroke-opacity:1; fill:none" points="
  519.011,1459.51 519.011,1442.56 
  "/>
<polyline clip-path="url(#clip2100)" style="stroke:#000000; stroke-width:4; stroke-opacity:1; fill:none" points="
  1026.2,1459.51 1026.2,1442.56 
  "/>
<polyline clip-path="url(#clip2100)" style="stroke:#000000; stroke-width:4; stroke-opacity:1; fill:none" points="
  1533.39,1459.51 1533.39,1442.56 
  "/>
<polyline clip-path="url(#clip2100)" style="stroke:#000000; stroke-width:4; stroke-opacity:1; fill:none" points="
  2040.58,1459.51 2040.58,1442.56 
  "/>
<polyline clip-path="url(#clip2100)" style="stroke:#000000; stroke-width:4; stroke-opacity:1; fill:none" points="
  282.915,1449.39 307.753,1449.39 
  "/>
<polyline clip-path="url(#clip2100)" style="stroke:#000000; stroke-width:4; stroke-opacity:1; fill:none" points="
  282.915,1200.71 307.753,1200.71 
  "/>
<polyline clip-path="url(#clip2100)" style="stroke:#000000; stroke-width:4; stroke-opacity:1; fill:none" points="
  282.915,952.026 307.753,952.026 
  "/>
<polyline clip-path="url(#clip2100)" style="stroke:#000000; stroke-width:4; stroke-opacity:1; fill:none" points="
  282.915,703.344 307.753,703.344 
  "/>
<polyline clip-path="url(#clip2100)" style="stroke:#000000; stroke-width:4; stroke-opacity:1; fill:none" points="
  282.915,454.662 307.753,454.662 
  "/>
<polyline clip-path="url(#clip2100)" style="stroke:#000000; stroke-width:4; stroke-opacity:1; fill:none" points="
  282.915,205.981 307.753,205.981 
  "/>
<g clip-path="url(#clip2100)">
<text style="fill:#000000; fill-opacity:1; font-family:Arial,Helvetica Neue,Helvetica,sans-serif; font-size:48px; text-anchor:middle;" transform="rotate(0, 519.011, 1513.51)" x="519.011" y="1513.51">4</text>
</g>
<g clip-path="url(#clip2100)">
<text style="fill:#000000; fill-opacity:1; font-family:Arial,Helvetica Neue,Helvetica,sans-serif; font-size:48px; text-anchor:middle;" transform="rotate(0, 1026.2, 1513.51)" x="1026.2" y="1513.51">6</text>
</g>
<g clip-path="url(#clip2100)">
<text style="fill:#000000; fill-opacity:1; font-family:Arial,Helvetica Neue,Helvetica,sans-serif; font-size:48px; text-anchor:middle;" transform="rotate(0, 1533.39, 1513.51)" x="1533.39" y="1513.51">8</text>
</g>
<g clip-path="url(#clip2100)">
<text style="fill:#000000; fill-opacity:1; font-family:Arial,Helvetica Neue,Helvetica,sans-serif; font-size:48px; text-anchor:middle;" transform="rotate(0, 2040.58, 1513.51)" x="2040.58" y="1513.51">10</text>
</g>
<g clip-path="url(#clip2100)">
<text style="fill:#000000; fill-opacity:1; font-family:Arial,Helvetica Neue,Helvetica,sans-serif; font-size:48px; text-anchor:end;" transform="rotate(0, 258.915, 1466.89)" x="258.915" y="1466.89">0.0</text>
</g>
<g clip-path="url(#clip2100)">
<text style="fill:#000000; fill-opacity:1; font-family:Arial,Helvetica Neue,Helvetica,sans-serif; font-size:48px; text-anchor:end;" transform="rotate(0, 258.915, 1218.21)" x="258.915" y="1218.21">2.5</text>
</g>
<g clip-path="url(#clip2100)">
<text style="fill:#000000; fill-opacity:1; font-family:Arial,Helvetica Neue,Helvetica,sans-serif; font-size:48px; text-anchor:end;" transform="rotate(0, 258.915, 969.526)" x="258.915" y="969.526">5.0</text>
</g>
<g clip-path="url(#clip2100)">
<text style="fill:#000000; fill-opacity:1; font-family:Arial,Helvetica Neue,Helvetica,sans-serif; font-size:48px; text-anchor:end;" transform="rotate(0, 258.915, 720.844)" x="258.915" y="720.844">7.5</text>
</g>
<g clip-path="url(#clip2100)">
<text style="fill:#000000; fill-opacity:1; font-family:Arial,Helvetica Neue,Helvetica,sans-serif; font-size:48px; text-anchor:end;" transform="rotate(0, 258.915, 472.162)" x="258.915" y="472.162">10.0</text>
</g>
<g clip-path="url(#clip2100)">
<text style="fill:#000000; fill-opacity:1; font-family:Arial,Helvetica Neue,Helvetica,sans-serif; font-size:48px; text-anchor:end;" transform="rotate(0, 258.915, 223.481)" x="258.915" y="223.481">12.5</text>
</g>
<g clip-path="url(#clip2100)">
<text style="fill:#000000; fill-opacity:1; font-family:Arial,Helvetica Neue,Helvetica,sans-serif; font-size:66px; text-anchor:middle;" transform="rotate(-90, 129.684, 753.376)" x="129.684" y="753.376">E(B-V)</text>
</g>
<polyline clip-path="url(#clip2102)" style="stroke:#009af9; stroke-width:4; stroke-opacity:1; fill:none" points="
  341.495,1200.85 343.45,1200.14 345.404,1199.43 347.359,1198.72 349.314,1198.01 351.268,1197.29 353.223,1196.57 355.177,1195.84 357.132,1195.11 359.087,1194.38 
  361.041,1193.65 362.996,1192.91 364.951,1192.16 366.905,1191.41 368.86,1190.66 370.815,1189.91 372.769,1189.15 374.724,1188.38 376.678,1187.61 378.633,1186.84 
  380.588,1186.06 382.542,1185.28 384.497,1184.49 386.452,1183.7 388.406,1182.9 390.361,1182.09 392.315,1181.29 394.27,1180.47 396.225,1179.65 398.179,1178.83 
  400.134,1177.99 402.089,1177.16 404.043,1176.31 405.998,1175.47 407.953,1174.61 409.907,1173.75 411.862,1172.88 413.816,1172 415.771,1171.12 417.726,1170.23 
  419.68,1169.33 421.635,1168.43 423.59,1167.52 425.544,1166.6 427.499,1165.67 429.454,1164.73 431.408,1163.79 433.363,1162.84 435.317,1161.87 437.272,1160.9 
  439.227,1159.92 441.181,1158.93 443.136,1157.94 445.091,1156.93 447.045,1155.91 449,1154.88 450.955,1153.84 452.909,1152.79 454.864,1151.73 456.818,1150.65 
  458.773,1149.57 460.728,1148.47 462.682,1147.36 464.637,1146.24 466.592,1145.11 468.546,1143.96 470.501,1142.8 472.456,1141.62 474.41,1140.43 476.365,1139.23 
  478.319,1138.01 480.274,1136.78 482.229,1135.53 484.183,1134.27 486.138,1132.98 488.093,1131.69 490.047,1130.37 492.002,1129.04 493.957,1127.69 495.911,1126.32 
  497.866,1124.93 499.82,1123.53 501.775,1122.1 503.73,1120.66 505.684,1119.19 507.639,1117.7 509.594,1116.19 511.548,1114.66 513.503,1113.11 515.458,1111.53 
  517.412,1109.94 519.367,1108.31 521.321,1106.67 523.276,1105 525.231,1103.3 527.185,1101.58 529.14,1099.83 531.095,1098.06 533.049,1096.25 535.004,1094.43 
  536.958,1092.57 538.913,1090.69 540.868,1088.77 542.822,1086.83 544.777,1084.86 546.732,1082.86 548.686,1080.83 550.641,1078.77 552.596,1076.68 554.55,1074.56 
  556.505,1072.41 558.459,1070.23 560.414,1068.02 562.369,1065.78 564.323,1063.51 566.278,1061.22 568.233,1058.89 570.187,1056.53 572.142,1054.15 574.097,1051.74 
  576.051,1049.3 578.006,1046.84 579.96,1044.35 581.915,1041.84 583.87,1039.31 585.824,1036.76 587.779,1034.2 589.734,1031.62 591.688,1029.02 593.643,1026.41 
  595.598,1023.8 597.552,1021.18 599.507,1018.56 601.461,1015.94 603.416,1013.33 605.371,1010.72 607.325,1008.13 609.28,1005.56 611.235,1003 613.189,1000.47 
  615.144,997.978 617.099,995.517 619.053,993.095 621.008,990.719 622.962,988.393 624.917,986.12 626.872,983.906 628.826,981.754 630.781,979.668 632.736,977.652 
  634.69,975.707 636.645,973.837 638.6,972.042 640.554,970.323 642.509,968.68 644.463,967.114 646.418,965.622 648.373,964.204 650.327,962.857 652.282,961.579 
  654.237,960.368 656.191,959.222 658.146,958.139 660.101,957.119 662.055,956.16 664.01,955.263 665.964,954.43 667.919,953.662 669.874,952.964 671.828,952.337 
  673.783,951.788 675.738,951.321 677.692,950.939 679.647,950.649 681.602,950.454 683.556,950.358 685.511,950.365 687.465,950.476 689.42,950.694 691.375,951.019 
  693.329,951.45 695.284,951.987 697.239,952.628 699.193,953.369 701.148,954.207 703.102,955.139 705.057,956.159 707.012,957.263 708.966,958.445 710.921,959.7 
  712.876,961.022 714.83,962.404 716.785,963.842 718.74,965.33 720.694,966.861 722.649,968.43 724.603,970.032 726.558,971.661 728.513,973.312 730.467,974.981 
  732.422,976.663 734.377,978.353 736.331,980.048 738.286,981.743 740.241,983.436 742.195,985.123 744.15,986.8 746.104,988.465 748.059,990.116 750.014,991.75 
  751.968,993.365 753.923,994.959 755.878,996.53 757.832,998.078 759.787,999.6 761.742,1001.09 763.696,1002.56 765.651,1004 767.605,1005.41 769.56,1006.79 
  771.515,1008.14 773.469,1009.46 775.424,1010.75 777.379,1012 779.333,1013.23 781.288,1014.42 783.243,1015.58 785.197,1016.71 787.152,1017.81 789.106,1018.88 
  791.061,1019.92 793.016,1020.93 794.97,1021.9 796.925,1022.85 798.88,1023.77 800.834,1024.65 802.789,1025.51 804.744,1026.34 806.698,1027.15 808.653,1027.92 
  810.607,1028.67 812.562,1029.39 814.517,1030.09 816.471,1030.76 818.426,1031.41 820.381,1032.03 822.335,1032.63 824.29,1033.2 826.245,1033.75 828.199,1034.28 
  830.154,1034.79 832.108,1035.27 834.063,1035.73 836.018,1036.18 837.972,1036.6 839.927,1037 841.882,1037.39 843.836,1037.75 845.791,1038.1 847.745,1038.42 
  849.7,1038.74 851.655,1039.03 853.609,1039.31 855.564,1039.57 857.519,1039.81 859.473,1040.04 861.428,1040.25 863.383,1040.45 865.337,1040.64 867.292,1040.81 
  869.246,1040.96 871.201,1041.1 873.156,1041.23 875.11,1041.35 877.065,1041.45 879.02,1041.55 880.974,1041.63 882.929,1041.69 884.884,1041.75 886.838,1041.8 
  888.793,1041.83 890.747,1041.85 892.702,1041.87 894.657,1041.87 896.611,1041.87 898.566,1041.85 900.521,1041.82 902.475,1041.79 904.43,1041.75 906.385,1041.69 
  908.339,1041.63 910.294,1041.56 912.248,1041.49 914.203,1041.4 916.158,1041.31 918.112,1041.21 920.067,1041.1 922.022,1040.98 923.976,1040.86 925.931,1040.73 
  927.886,1040.59 929.84,1040.45 931.795,1040.3 933.749,1040.14 935.704,1039.98 937.659,1039.81 939.613,1039.64 941.568,1039.46 943.523,1039.27 945.477,1039.08 
  947.432,1038.88 949.387,1038.68 951.341,1038.48 953.296,1038.26 955.25,1038.05 957.205,1037.82 959.16,1037.6 961.114,1037.36 963.069,1037.13 965.024,1036.89 
  966.978,1036.64 968.933,1036.39 970.888,1036.14 972.842,1035.88 974.797,1035.62 976.751,1035.36 978.706,1035.09 980.661,1034.81 982.615,1034.54 984.57,1034.26 
  986.525,1033.97 988.479,1033.68 990.434,1033.39 992.388,1033.1 994.343,1032.8 996.298,1032.5 998.252,1032.2 1000.21,1031.89 1002.16,1031.58 1004.12,1031.27 
  1006.07,1030.95 1008.03,1030.62 1009.98,1030.29 1011.93,1029.96 1013.89,1029.62 1015.84,1029.28 1017.8,1028.93 1019.75,1028.58 1021.71,1028.22 1023.66,1027.86 
  1025.62,1027.5 1027.57,1027.13 1029.53,1026.76 1031.48,1026.38 1033.44,1026 1035.39,1025.61 1037.35,1025.22 1039.3,1024.83 1041.25,1024.43 1043.21,1024.03 
  1045.16,1023.63 1047.12,1023.22 1049.07,1022.8 1051.03,1022.39 1052.98,1021.97 1054.94,1021.54 1056.89,1021.11 1058.85,1020.68 1060.8,1020.25 1062.76,1019.81 
  1064.71,1019.37 1066.66,1018.92 1068.62,1018.47 1070.57,1018.02 1072.53,1017.56 1074.48,1017.1 1076.44,1016.63 1078.39,1016.17 1080.35,1015.69 1082.3,1015.22 
  1084.26,1014.74 1086.21,1014.26 1088.17,1013.78 1090.12,1013.29 1092.07,1012.8 1094.03,1012.3 1095.98,1011.8 1097.94,1011.3 1099.89,1010.8 1101.85,1010.29 
  1103.8,1009.78 1105.76,1009.26 1107.71,1008.74 1109.67,1008.22 1111.62,1007.7 1113.58,1007.17 1115.53,1006.64 1117.49,1006.11 1119.44,1005.57 1121.39,1005.03 
  1123.35,1004.49 1125.3,1003.94 1127.26,1003.39 1129.21,1002.84 1131.17,1002.28 1133.12,1001.72 1135.08,1001.16 1137.03,1000.6 1138.99,1000.03 1140.94,999.458 
  1142.9,998.884 1144.85,998.307 1146.8,997.727 1148.76,997.144 1150.71,996.558 1152.67,995.969 1154.62,995.377 1156.58,994.782 1158.53,994.184 1160.49,993.583 
  1162.44,992.979 1164.4,992.372 1166.35,991.762 1168.31,991.15 1170.26,990.534 1172.21,989.915 1174.17,989.294 1176.12,988.669 1178.08,988.042 1180.03,987.412 
  1181.99,986.778 1183.94,986.142 1185.9,985.503 1187.85,984.861 1189.81,984.216 1191.76,983.569 1193.72,982.918 1195.67,982.265 1197.63,981.608 1199.58,980.949 
  1201.53,980.287 1203.49,979.622 1205.44,978.954 1207.4,978.283 1209.35,977.61 1211.31,976.933 1213.26,976.254 1215.22,975.572 1217.17,974.887 1219.13,974.199 
  1221.08,973.508 1223.04,972.815 1224.99,972.119 1226.94,971.419 1228.9,970.717 1230.85,970.012 1232.81,969.305 1234.76,968.594 1236.72,967.881 1238.67,967.164 
  1240.63,966.445 1242.58,965.723 1244.54,964.999 1246.49,964.271 1248.45,963.541 1250.4,962.807 1252.35,962.071 1254.31,961.332 1256.26,960.59 1258.22,959.846 
  1260.17,959.098 1262.13,958.348 1264.08,957.595 1266.04,956.839 1267.99,956.08 1269.95,955.319 1271.9,954.554 1273.86,953.787 1275.81,953.017 1277.77,952.244 
  1279.72,951.468 1281.67,950.69 1283.63,949.908 1285.58,949.124 1287.54,948.337 1289.49,947.547 1291.45,946.754 1293.4,945.959 1295.36,945.16 1297.31,944.359 
  1299.27,943.555 1301.22,942.748 1303.18,941.938 1305.13,941.125 1307.08,940.31 1309.04,939.491 1310.99,938.67 1312.95,937.846 1314.9,937.019 1316.86,936.189 
  1318.81,935.356 1320.77,934.521 1322.72,933.682 1324.68,932.841 1326.63,931.997 1328.59,931.15 1330.54,930.3 1332.5,929.447 1334.45,928.592 1336.4,927.733 
  1338.36,926.872 1340.31,926.008 1342.27,925.141 1344.22,924.271 1346.18,923.398 1348.13,922.522 1350.09,921.643 1352.04,920.762 1354,919.877 1355.95,918.99 
  1357.91,918.099 1359.86,917.206 1361.81,916.31 1363.77,915.411 1365.72,914.509 1367.68,913.604 1369.63,912.697 1371.59,911.786 1373.54,910.873 1375.5,909.956 
  1377.45,909.037 1379.41,908.114 1381.36,907.189 1383.32,906.261 1385.27,905.33 1387.22,904.396 1389.18,903.459 1391.13,902.519 1393.09,901.576 1395.04,900.63 
  1397,899.681 1398.95,898.729 1400.91,897.774 1402.86,896.817 1404.82,895.856 1406.77,894.892 1408.73,893.926 1410.68,892.956 1412.64,891.984 1414.59,891.008 
  1416.54,890.029 1418.5,889.048 1420.45,888.063 1422.41,887.076 1424.36,886.085 1426.32,885.092 1428.27,884.095 1430.23,883.096 1432.18,882.093 1434.14,881.088 
  1436.09,880.079 1438.05,879.068 1440,878.053 1441.95,877.035 1443.91,876.015 1445.86,874.991 1447.82,873.964 1449.77,872.934 1451.73,871.902 1453.68,870.866 
  1455.64,869.827 1457.59,868.785 1459.55,867.74 1461.5,866.692 1463.46,865.64 1465.41,864.586 1467.36,863.529 1469.32,862.469 1471.27,861.405 1473.23,860.339 
  1475.18,859.269 1477.14,858.196 1479.09,857.12 1481.05,856.041 1483,854.959 1484.96,853.874 1486.91,852.786 1488.87,851.695 1490.82,850.6 1492.78,849.503 
  1494.73,848.402 1496.68,847.298 1498.64,846.191 1500.59,845.081 1502.55,843.968 1504.5,842.851 1506.46,841.732 1508.41,840.609 1510.37,839.483 1512.32,838.354 
  1514.28,837.222 1516.23,836.087 1518.19,834.948 1520.14,833.806 1522.09,832.662 1524.05,831.514 1526,830.362 1527.96,829.208 1529.91,828.05 1531.87,826.89 
  1533.82,825.726 1535.78,824.558 1537.73,823.388 1539.69,822.214 1541.64,821.037 1543.6,819.857 1545.55,818.674 1547.5,817.488 1549.46,816.298 1551.41,815.105 
  1553.37,813.909 1555.32,812.709 1557.28,811.506 1559.23,810.3 1561.19,809.091 1563.14,807.879 1565.1,806.663 1567.05,805.444 1569.01,804.221 1570.96,802.996 
  1572.92,801.767 1574.87,800.535 1576.82,799.299 1578.78,798.061 1580.73,796.819 1582.69,795.573 1584.64,794.325 1586.6,793.073 1588.55,791.817 1590.51,790.559 
  1592.46,789.297 1594.42,788.032 1596.37,786.763 1598.33,785.491 1600.28,784.216 1602.23,782.937 1604.19,781.656 1606.14,780.37 1608.1,779.082 1610.05,777.79 
  1612.01,776.494 1613.96,775.196 1615.92,773.893 1617.87,772.588 1619.83,771.279 1621.78,769.967 1623.74,768.651 1625.69,767.332 1627.64,766.01 1629.6,764.684 
  1631.55,763.355 1633.51,762.022 1635.46,760.686 1637.42,759.346 1639.37,758.004 1641.33,756.657 1643.28,755.307 1645.24,753.954 1647.19,752.598 1649.15,751.238 
  1651.1,749.874 1653.06,748.507 1655.01,747.137 1656.96,745.763 1658.92,744.385 1660.87,743.004 1662.83,741.62 1664.78,740.232 1666.74,738.841 1668.69,737.446 
  1670.65,736.048 1672.6,734.646 1674.56,733.241 1676.51,731.832 1678.47,730.42 1680.42,729.004 1682.37,727.585 1684.33,726.162 1686.28,724.736 1688.24,723.306 
  1690.19,721.872 1692.15,720.435 1694.1,718.995 1696.06,717.551 1698.01,716.103 1699.97,714.652 1701.92,713.197 1703.88,711.739 1705.83,710.277 1707.78,708.811 
  1709.74,707.342 1711.69,705.87 1713.65,704.394 1715.6,702.914 1717.56,701.43 1719.51,699.943 1721.47,698.453 1723.42,696.959 1725.38,695.461 1727.33,693.959 
  1729.29,692.454 1731.24,690.946 1733.2,689.433 1735.15,687.917 1737.1,686.398 1739.06,684.874 1741.01,683.347 1742.97,681.817 1744.92,680.283 1746.88,678.745 
  1748.83,677.203 1750.79,675.658 1752.74,674.109 1754.7,672.557 1756.65,671 1758.61,669.44 1760.56,667.877 1762.51,666.309 1764.47,664.738 1766.42,663.163 
  1768.38,661.585 1770.33,660.003 1772.29,658.417 1774.24,656.827 1776.2,655.234 1778.15,653.637 1780.11,652.036 1782.06,650.431 1784.02,648.823 1785.97,647.211 
  1787.92,645.595 1789.88,643.975 1791.83,642.352 1793.79,640.725 1795.74,639.094 1797.7,637.459 1799.65,635.821 1801.61,634.178 1803.56,632.532 1805.52,630.883 
  1807.47,629.229 1809.43,627.571 1811.38,625.91 1813.34,624.245 1815.29,622.576 1817.24,620.903 1819.2,619.227 1821.15,617.546 1823.11,615.862 1825.06,614.174 
  1827.02,612.482 1828.97,610.786 1830.93,609.087 1832.88,607.383 1834.84,605.676 1836.79,603.964 1838.75,602.249 1840.7,600.53 1842.65,598.807 1844.61,597.081 
  1846.56,595.35 1848.52,593.615 1850.47,591.877 1852.43,590.135 1854.38,588.388 1856.34,586.638 1858.29,584.884 1860.25,583.126 1862.2,581.364 1864.16,579.598 
  1866.11,577.828 1868.07,576.055 1870.02,574.277 1871.97,572.495 1873.93,570.709 1875.88,568.92 1877.84,567.126 1879.79,565.329 1881.75,563.527 1883.7,561.722 
  1885.66,559.912 1887.61,558.099 1889.57,556.281 1891.52,554.46 1893.48,552.635 1895.43,550.805 1897.38,548.972 1899.34,547.134 1901.29,545.293 1903.25,543.447 
  1905.2,541.598 1907.16,539.744 1909.11,537.886 1911.07,536.025 1913.02,534.159 1914.98,532.289 1916.93,530.415 1918.89,528.537 1920.84,526.655 1922.79,524.769 
  1924.75,522.879 1926.7,520.985 1928.66,519.087 1930.61,517.185 1932.57,515.278 1934.52,513.368 1936.48,511.453 1938.43,509.534 1940.39,507.611 1942.34,505.684 
  1944.3,503.753 1946.25,501.818 1948.21,499.879 1950.16,497.935 1952.11,495.987 1954.07,494.036 1956.02,492.08 1957.98,490.12 1959.93,488.155 1961.89,486.187 
  1963.84,484.215 1965.8,482.238 1967.75,480.257 1969.71,478.272 1971.66,476.283 1973.62,474.289 1975.57,472.291 1977.52,470.29 1979.48,468.283 1981.43,466.273 
  1983.39,464.259 1985.34,462.24 1987.3,460.217 1989.25,458.19 1991.21,456.159 1993.16,454.123 1995.12,452.083 1997.07,450.039 1999.03,447.991 2000.98,445.938 
  2002.93,443.881 2004.89,441.82 2006.84,439.755 2008.8,437.685 2010.75,435.611 2012.71,433.533 2014.66,431.45 2016.62,429.364 2018.57,427.272 2020.53,425.177 
  2022.48,423.077 2024.44,420.973 2026.39,418.865 2028.35,416.752 2030.3,414.635 2032.25,412.514 2034.21,410.388 2036.16,408.259 2038.12,406.124 2040.07,403.986 
  2042.03,401.843 2043.98,399.695 2045.94,397.543 2047.89,395.387 2049.85,393.227 2051.8,391.062 2053.76,388.893 2055.71,386.719 2057.66,384.541 2059.62,382.359 
  2061.57,380.172 2063.53,377.981 2065.48,375.785 2067.44,373.585 2069.39,371.381 2071.35,369.172 2073.3,366.959 2075.26,364.741 2077.21,362.519 2079.17,360.293 
  2081.12,358.062 2083.07,355.826 2085.03,353.586 2086.98,351.342 2088.94,349.093 2090.89,346.84 2092.85,344.582 2094.8,342.32 2096.76,340.053 2098.71,337.782 
  2100.67,335.506 2102.62,333.226 2104.58,330.941 2106.53,328.652 2108.49,326.359 2110.44,324.06 2112.39,321.758 2114.35,319.45 2116.3,317.139 2118.26,314.822 
  2120.21,312.501 2122.17,310.176 2124.12,307.846 2126.08,305.512 2128.03,303.173 2129.99,300.829 2131.94,298.481 2133.9,296.128 2135.85,293.771 2137.8,291.409 
  2139.76,289.042 2141.71,286.671 2143.67,284.296 2145.62,281.916 2147.58,279.531 2149.53,277.141 2151.49,274.747 2153.44,272.349 2155.4,269.945 2157.35,267.537 
  2159.31,265.125 2161.26,262.708 2163.21,260.286 2165.17,257.859 2167.12,255.428 2169.08,252.992 2171.03,250.552 2172.99,248.107 2174.94,245.657 2176.9,243.203 
  2178.85,240.744 2180.81,238.28 2182.76,235.812 2184.72,233.338 2186.67,230.861 2188.63,228.378 2190.58,225.891 2192.53,223.399 2194.49,220.902 2196.44,218.401 
  2198.4,215.895 2200.35,213.384 2202.31,210.868 2204.26,208.348 2206.22,205.823 2208.17,203.293 2210.13,200.759 2212.08,198.219 2214.04,195.675 2215.99,193.126 
  2217.94,190.573 2219.9,188.015 2221.85,185.451 2223.81,182.883 2225.76,180.311 2227.72,177.733 2229.67,175.151 2231.63,172.564 2233.58,169.972 2235.54,167.375 
  2237.49,164.774 2239.45,162.167 2241.4,159.556 2243.35,156.94 2245.31,154.319 2247.26,151.694 2249.22,149.063 2251.17,146.428 2253.13,143.788 2255.08,141.143 
  2257.04,138.493 2258.99,135.838 2260.95,133.178 2262.9,130.514 2264.86,127.844 2266.81,125.17 2268.77,122.491 2270.72,119.807 2272.67,117.118 2274.63,114.424 
  2276.58,111.725 2278.54,109.021 2280.49,106.312 2282.45,103.599 2284.4,100.88 2286.36,98.157 2288.31,95.4286 2290.27,92.6953 2292.22,89.957 2294.18,87.2138 
  
  "/>
<polyline clip-path="url(#clip2102)" style="stroke:#e26f46; stroke-width:4; stroke-opacity:1; fill:none" points="
  341.495,1265.85 343.45,1265.5 345.404,1265.15 347.359,1264.79 349.314,1264.43 351.268,1264.08 353.223,1263.71 355.177,1263.35 357.132,1262.99 359.087,1262.62 
  361.041,1262.25 362.996,1261.87 364.951,1261.5 366.905,1261.12 368.86,1260.74 370.815,1260.36 372.769,1259.97 374.724,1259.58 376.678,1259.19 378.633,1258.8 
  380.588,1258.4 382.542,1258 384.497,1257.6 386.452,1257.19 388.406,1256.78 390.361,1256.37 392.315,1255.95 394.27,1255.53 396.225,1255.11 398.179,1254.68 
  400.134,1254.25 402.089,1253.82 404.043,1253.38 405.998,1252.94 407.953,1252.5 409.907,1252.05 411.862,1251.59 413.816,1251.13 415.771,1250.67 417.726,1250.2 
  419.68,1249.73 421.635,1249.26 423.59,1248.77 425.544,1248.29 427.499,1247.8 429.454,1247.3 431.408,1246.8 433.363,1246.29 435.317,1245.78 437.272,1245.26 
  439.227,1244.74 441.181,1244.21 443.136,1243.68 445.091,1243.13 447.045,1242.59 449,1242.03 450.955,1241.47 452.909,1240.9 454.864,1240.33 456.818,1239.75 
  458.773,1239.16 460.728,1238.56 462.682,1237.95 464.637,1237.34 466.592,1236.72 468.546,1236.09 470.501,1235.46 472.456,1234.81 474.41,1234.16 476.365,1233.49 
  478.319,1232.82 480.274,1232.14 482.229,1231.45 484.183,1230.75 486.138,1230.04 488.093,1229.31 490.047,1228.58 492.002,1227.84 493.957,1227.08 495.911,1226.32 
  497.866,1225.54 499.82,1224.75 501.775,1223.95 503.73,1223.14 505.684,1222.31 507.639,1221.47 509.594,1220.62 511.548,1219.76 513.503,1218.88 515.458,1217.98 
  517.412,1217.08 519.367,1216.16 521.321,1215.22 523.276,1214.27 525.231,1213.3 527.185,1212.32 529.14,1211.32 531.095,1210.31 533.049,1209.28 535.004,1208.23 
  536.958,1207.16 538.913,1206.08 540.868,1204.99 542.822,1203.87 544.777,1202.74 546.732,1201.59 548.686,1200.42 550.641,1199.24 552.596,1198.04 554.55,1196.82 
  556.505,1195.58 558.459,1194.33 560.414,1193.06 562.369,1191.77 564.323,1190.46 566.278,1189.14 568.233,1187.8 570.187,1186.45 572.142,1185.08 574.097,1183.7 
  576.051,1182.3 578.006,1180.89 579.96,1179.47 581.915,1178.04 583.87,1176.6 585.824,1175.15 587.779,1173.7 589.734,1172.24 591.688,1170.77 593.643,1169.3 
  595.598,1167.84 597.552,1166.37 599.507,1164.91 601.461,1163.46 603.416,1162.02 605.371,1160.59 607.325,1159.17 609.28,1157.78 611.235,1156.4 613.189,1155.05 
  615.144,1153.72 617.099,1152.42 619.053,1151.16 621.008,1149.94 622.962,1148.75 624.917,1147.6 626.872,1146.5 628.826,1145.44 630.781,1144.43 632.736,1143.46 
  634.69,1142.55 636.645,1141.68 638.6,1140.86 640.554,1140.08 642.509,1139.35 644.463,1138.66 646.418,1138 648.373,1137.38 650.327,1136.79 652.282,1136.23 
  654.237,1135.69 656.191,1135.17 658.146,1134.66 660.101,1134.17 662.055,1133.69 664.01,1133.22 665.964,1132.76 667.919,1132.32 669.874,1131.89 671.828,1131.49 
  673.783,1131.11 675.738,1130.76 677.692,1130.45 679.647,1130.17 681.602,1129.95 683.556,1129.78 685.511,1129.66 687.465,1129.61 689.42,1129.61 691.375,1129.69 
  693.329,1129.83 695.284,1130.04 697.239,1130.32 699.193,1130.67 701.148,1131.09 703.102,1131.57 705.057,1132.12 707.012,1132.72 708.966,1133.38 710.921,1134.1 
  712.876,1134.87 714.83,1135.68 716.785,1136.54 718.74,1137.43 720.694,1138.36 722.649,1139.32 724.603,1140.31 726.558,1141.32 728.513,1142.36 730.467,1143.41 
  732.422,1144.47 734.377,1145.55 736.331,1146.63 738.286,1147.72 740.241,1148.82 742.195,1149.91 744.15,1151 746.104,1152.09 748.059,1153.17 750.014,1154.25 
  751.968,1155.31 753.923,1156.37 755.878,1157.42 757.832,1158.45 759.787,1159.47 761.742,1160.47 763.696,1161.46 765.651,1162.44 767.605,1163.39 769.56,1164.33 
  771.515,1165.26 773.469,1166.16 775.424,1167.05 777.379,1167.92 779.333,1168.76 781.288,1169.6 783.243,1170.41 785.197,1171.2 787.152,1171.98 789.106,1172.73 
  791.061,1173.47 793.016,1174.19 794.97,1174.89 796.925,1175.57 798.88,1176.24 800.834,1176.88 802.789,1177.51 804.744,1178.13 806.698,1178.72 808.653,1179.3 
  810.607,1179.86 812.562,1180.4 814.517,1180.93 816.471,1181.45 818.426,1181.95 820.381,1182.43 822.335,1182.9 824.29,1183.35 826.245,1183.79 828.199,1184.21 
  830.154,1184.63 832.108,1185.02 834.063,1185.41 836.018,1185.78 837.972,1186.14 839.927,1186.49 841.882,1186.82 843.836,1187.15 845.791,1187.46 847.745,1187.76 
  849.7,1188.05 851.655,1188.33 853.609,1188.59 855.564,1188.85 857.519,1189.1 859.473,1189.34 861.428,1189.57 863.383,1189.79 865.337,1190 867.292,1190.2 
  869.246,1190.39 871.201,1190.58 873.156,1190.75 875.11,1190.92 877.065,1191.08 879.02,1191.23 880.974,1191.38 882.929,1191.52 884.884,1191.65 886.838,1191.77 
  888.793,1191.89 890.747,1192 892.702,1192.1 894.657,1192.2 896.611,1192.29 898.566,1192.37 900.521,1192.45 902.475,1192.53 904.43,1192.59 906.385,1192.65 
  908.339,1192.71 910.294,1192.76 912.248,1192.81 914.203,1192.85 916.158,1192.89 918.112,1192.92 920.067,1192.94 922.022,1192.96 923.976,1192.98 925.931,1193 
  927.886,1193 929.84,1193.01 931.795,1193.01 933.749,1193.01 935.704,1193 937.659,1192.99 939.613,1192.97 941.568,1192.95 943.523,1192.93 945.477,1192.91 
  947.432,1192.88 949.387,1192.84 951.341,1192.81 953.296,1192.77 955.25,1192.73 957.205,1192.68 959.16,1192.63 961.114,1192.58 963.069,1192.53 965.024,1192.47 
  966.978,1192.41 968.933,1192.35 970.888,1192.28 972.842,1192.22 974.797,1192.15 976.751,1192.07 978.706,1192 980.661,1191.92 982.615,1191.84 984.57,1191.76 
  986.525,1191.68 988.479,1191.59 990.434,1191.5 992.388,1191.41 994.343,1191.32 996.298,1191.22 998.252,1191.12 1000.21,1191.03 1002.16,1190.93 1004.12,1190.82 
  1006.07,1190.72 1008.03,1190.61 1009.98,1190.5 1011.93,1190.38 1013.89,1190.27 1015.84,1190.15 1017.8,1190.03 1019.75,1189.91 1021.71,1189.78 1023.66,1189.65 
  1025.62,1189.52 1027.57,1189.39 1029.53,1189.26 1031.48,1189.12 1033.44,1188.98 1035.39,1188.84 1037.35,1188.7 1039.3,1188.55 1041.25,1188.41 1043.21,1188.26 
  1045.16,1188.11 1047.12,1187.95 1049.07,1187.8 1051.03,1187.64 1052.98,1187.48 1054.94,1187.32 1056.89,1187.16 1058.85,1186.99 1060.8,1186.83 1062.76,1186.66 
  1064.71,1186.49 1066.66,1186.32 1068.62,1186.14 1070.57,1185.97 1072.53,1185.79 1074.48,1185.61 1076.44,1185.43 1078.39,1185.25 1080.35,1185.06 1082.3,1184.88 
  1084.26,1184.69 1086.21,1184.5 1088.17,1184.31 1090.12,1184.11 1092.07,1183.92 1094.03,1183.72 1095.98,1183.53 1097.94,1183.33 1099.89,1183.13 1101.85,1182.92 
  1103.8,1182.72 1105.76,1182.51 1107.71,1182.31 1109.67,1182.1 1111.62,1181.89 1113.58,1181.68 1115.53,1181.46 1117.49,1181.25 1119.44,1181.03 1121.39,1180.81 
  1123.35,1180.59 1125.3,1180.37 1127.26,1180.15 1129.21,1179.93 1131.17,1179.7 1133.12,1179.48 1135.08,1179.25 1137.03,1179.02 1138.99,1178.79 1140.94,1178.55 
  1142.9,1178.32 1144.85,1178.08 1146.8,1177.85 1148.76,1177.61 1150.71,1177.37 1152.67,1177.13 1154.62,1176.89 1156.58,1176.64 1158.53,1176.4 1160.49,1176.15 
  1162.44,1175.91 1164.4,1175.66 1166.35,1175.41 1168.31,1175.15 1170.26,1174.9 1172.21,1174.65 1174.17,1174.39 1176.12,1174.13 1178.08,1173.88 1180.03,1173.62 
  1181.99,1173.35 1183.94,1173.09 1185.9,1172.83 1187.85,1172.56 1189.81,1172.3 1191.76,1172.03 1193.72,1171.76 1195.67,1171.49 1197.63,1171.22 1199.58,1170.95 
  1201.53,1170.67 1203.49,1170.4 1205.44,1170.12 1207.4,1169.84 1209.35,1169.56 1211.31,1169.28 1213.26,1169 1215.22,1168.72 1217.17,1168.43 1219.13,1168.15 
  1221.08,1167.86 1223.04,1167.57 1224.99,1167.28 1226.94,1166.99 1228.9,1166.7 1230.85,1166.41 1232.81,1166.11 1234.76,1165.82 1236.72,1165.52 1238.67,1165.22 
  1240.63,1164.92 1242.58,1164.62 1244.54,1164.32 1246.49,1164.02 1248.45,1163.72 1250.4,1163.41 1252.35,1163.1 1254.31,1162.79 1256.26,1162.49 1258.22,1162.18 
  1260.17,1161.86 1262.13,1161.55 1264.08,1161.24 1266.04,1160.92 1267.99,1160.6 1269.95,1160.29 1271.9,1159.97 1273.86,1159.65 1275.81,1159.33 1277.77,1159 
  1279.72,1158.68 1281.67,1158.35 1283.63,1158.03 1285.58,1157.7 1287.54,1157.37 1289.49,1157.04 1291.45,1156.71 1293.4,1156.38 1295.36,1156.04 1297.31,1155.71 
  1299.27,1155.37 1301.22,1155.03 1303.18,1154.69 1305.13,1154.36 1307.08,1154.01 1309.04,1153.67 1310.99,1153.33 1312.95,1152.98 1314.9,1152.64 1316.86,1152.29 
  1318.81,1151.94 1320.77,1151.59 1322.72,1151.24 1324.68,1150.89 1326.63,1150.54 1328.59,1150.18 1330.54,1149.82 1332.5,1149.47 1334.45,1149.11 1336.4,1148.75 
  1338.36,1148.39 1340.31,1148.03 1342.27,1147.66 1344.22,1147.3 1346.18,1146.93 1348.13,1146.57 1350.09,1146.2 1352.04,1145.83 1354,1145.46 1355.95,1145.09 
  1357.91,1144.71 1359.86,1144.34 1361.81,1143.96 1363.77,1143.59 1365.72,1143.21 1367.68,1142.83 1369.63,1142.45 1371.59,1142.07 1373.54,1141.69 1375.5,1141.3 
  1377.45,1140.92 1379.41,1140.53 1381.36,1140.14 1383.32,1139.75 1385.27,1139.36 1387.22,1138.97 1389.18,1138.58 1391.13,1138.18 1393.09,1137.79 1395.04,1137.39 
  1397,1136.99 1398.95,1136.6 1400.91,1136.19 1402.86,1135.79 1404.82,1135.39 1406.77,1134.99 1408.73,1134.58 1410.68,1134.17 1412.64,1133.77 1414.59,1133.36 
  1416.54,1132.95 1418.5,1132.54 1420.45,1132.12 1422.41,1131.71 1424.36,1131.29 1426.32,1130.88 1428.27,1130.46 1430.23,1130.04 1432.18,1129.62 1434.14,1129.2 
  1436.09,1128.77 1438.05,1128.35 1440,1127.92 1441.95,1127.5 1443.91,1127.07 1445.86,1126.64 1447.82,1126.21 1449.77,1125.78 1451.73,1125.34 1453.68,1124.91 
  1455.64,1124.47 1457.59,1124.04 1459.55,1123.6 1461.5,1123.16 1463.46,1122.72 1465.41,1122.28 1467.36,1121.83 1469.32,1121.39 1471.27,1120.94 1473.23,1120.5 
  1475.18,1120.05 1477.14,1119.6 1479.09,1119.15 1481.05,1118.69 1483,1118.24 1484.96,1117.78 1486.91,1117.33 1488.87,1116.87 1490.82,1116.41 1492.78,1115.95 
  1494.73,1115.49 1496.68,1115.03 1498.64,1114.56 1500.59,1114.1 1502.55,1113.63 1504.5,1113.16 1506.46,1112.69 1508.41,1112.22 1510.37,1111.75 1512.32,1111.27 
  1514.28,1110.8 1516.23,1110.32 1518.19,1109.85 1520.14,1109.37 1522.09,1108.89 1524.05,1108.41 1526,1107.92 1527.96,1107.44 1529.91,1106.95 1531.87,1106.47 
  1533.82,1105.98 1535.78,1105.49 1537.73,1105 1539.69,1104.51 1541.64,1104.01 1543.6,1103.52 1545.55,1103.02 1547.5,1102.52 1549.46,1102.02 1551.41,1101.52 
  1553.37,1101.02 1555.32,1100.52 1557.28,1100.02 1559.23,1099.51 1561.19,1099 1563.14,1098.49 1565.1,1097.98 1567.05,1097.47 1569.01,1096.96 1570.96,1096.45 
  1572.92,1095.93 1574.87,1095.42 1576.82,1094.9 1578.78,1094.38 1580.73,1093.86 1582.69,1093.33 1584.64,1092.81 1586.6,1092.29 1588.55,1091.76 1590.51,1091.23 
  1592.46,1090.7 1594.42,1090.17 1596.37,1089.64 1598.33,1089.11 1600.28,1088.57 1602.23,1088.04 1604.19,1087.5 1606.14,1086.96 1608.1,1086.42 1610.05,1085.88 
  1612.01,1085.34 1613.96,1084.79 1615.92,1084.25 1617.87,1083.7 1619.83,1083.15 1621.78,1082.6 1623.74,1082.05 1625.69,1081.49 1627.64,1080.94 1629.6,1080.38 
  1631.55,1079.83 1633.51,1079.27 1635.46,1078.71 1637.42,1078.15 1639.37,1077.58 1641.33,1077.02 1643.28,1076.45 1645.24,1075.89 1647.19,1075.32 1649.15,1074.75 
  1651.1,1074.18 1653.06,1073.6 1655.01,1073.03 1656.96,1072.45 1658.92,1071.88 1660.87,1071.3 1662.83,1070.72 1664.78,1070.13 1666.74,1069.55 1668.69,1068.97 
  1670.65,1068.38 1672.6,1067.79 1674.56,1067.2 1676.51,1066.61 1678.47,1066.02 1680.42,1065.43 1682.37,1064.83 1684.33,1064.24 1686.28,1063.64 1688.24,1063.04 
  1690.19,1062.44 1692.15,1061.84 1694.1,1061.23 1696.06,1060.63 1698.01,1060.02 1699.97,1059.41 1701.92,1058.8 1703.88,1058.19 1705.83,1057.58 1707.78,1056.96 
  1709.74,1056.35 1711.69,1055.73 1713.65,1055.11 1715.6,1054.49 1717.56,1053.87 1719.51,1053.25 1721.47,1052.62 1723.42,1052 1725.38,1051.37 1727.33,1050.74 
  1729.29,1050.11 1731.24,1049.48 1733.2,1048.84 1735.15,1048.21 1737.1,1047.57 1739.06,1046.93 1741.01,1046.29 1742.97,1045.65 1744.92,1045.01 1746.88,1044.36 
  1748.83,1043.72 1750.79,1043.07 1752.74,1042.42 1754.7,1041.77 1756.65,1041.12 1758.61,1040.47 1760.56,1039.81 1762.51,1039.15 1764.47,1038.49 1766.42,1037.83 
  1768.38,1037.17 1770.33,1036.51 1772.29,1035.85 1774.24,1035.18 1776.2,1034.51 1778.15,1033.84 1780.11,1033.17 1782.06,1032.5 1784.02,1031.83 1785.97,1031.15 
  1787.92,1030.47 1789.88,1029.79 1791.83,1029.11 1793.79,1028.43 1795.74,1027.75 1797.7,1027.06 1799.65,1026.38 1801.61,1025.69 1803.56,1025 1805.52,1024.31 
  1807.47,1023.61 1809.43,1022.92 1811.38,1022.22 1813.34,1021.53 1815.29,1020.83 1817.24,1020.13 1819.2,1019.42 1821.15,1018.72 1823.11,1018.01 1825.06,1017.31 
  1827.02,1016.6 1828.97,1015.89 1830.93,1015.17 1832.88,1014.46 1834.84,1013.75 1836.79,1013.03 1838.75,1012.31 1840.7,1011.59 1842.65,1010.87 1844.61,1010.14 
  1846.56,1009.42 1848.52,1008.69 1850.47,1007.96 1852.43,1007.23 1854.38,1006.5 1856.34,1005.77 1858.29,1005.03 1860.25,1004.3 1862.2,1003.56 1864.16,1002.82 
  1866.11,1002.08 1868.07,1001.33 1870.02,1000.59 1871.97,999.842 1873.93,999.093 1875.88,998.343 1877.84,997.592 1879.79,996.839 1881.75,996.084 1883.7,995.327 
  1885.66,994.569 1887.61,993.809 1889.57,993.047 1891.52,992.284 1893.48,991.519 1895.43,990.753 1897.38,989.984 1899.34,989.214 1901.29,988.443 1903.25,987.669 
  1905.2,986.894 1907.16,986.118 1909.11,985.339 1911.07,984.559 1913.02,983.777 1914.98,982.994 1916.93,982.208 1918.89,981.421 1920.84,980.633 1922.79,979.842 
  1924.75,979.05 1926.7,978.257 1928.66,977.461 1930.61,976.664 1932.57,975.865 1934.52,975.064 1936.48,974.262 1938.43,973.458 1940.39,972.652 1942.34,971.845 
  1944.3,971.035 1946.25,970.224 1948.21,969.412 1950.16,968.597 1952.11,967.781 1954.07,966.963 1956.02,966.143 1957.98,965.322 1959.93,964.499 1961.89,963.674 
  1963.84,962.847 1965.8,962.019 1967.75,961.188 1969.71,960.357 1971.66,959.523 1973.62,958.687 1975.57,957.85 1977.52,957.011 1979.48,956.17 1981.43,955.328 
  1983.39,954.484 1985.34,953.638 1987.3,952.79 1989.25,951.94 1991.21,951.089 1993.16,950.236 1995.12,949.381 1997.07,948.524 1999.03,947.665 2000.98,946.805 
  2002.93,945.943 2004.89,945.079 2006.84,944.213 2008.8,943.346 2010.75,942.477 2012.71,941.606 2014.66,940.733 2016.62,939.858 2018.57,938.982 2020.53,938.103 
  2022.48,937.223 2024.44,936.341 2026.39,935.458 2028.35,934.572 2030.3,933.685 2032.25,932.795 2034.21,931.904 2036.16,931.012 2038.12,930.117 2040.07,929.221 
  2042.03,928.322 2043.98,927.422 2045.94,926.52 2047.89,925.616 2049.85,924.711 2051.8,923.803 2053.76,922.894 2055.71,921.983 2057.66,921.07 2059.62,920.155 
  2061.57,919.238 2063.53,918.319 2065.48,917.399 2067.44,916.477 2069.39,915.553 2071.35,914.627 2073.3,913.699 2075.26,912.769 2077.21,911.837 2079.17,910.904 
  2081.12,909.969 2083.07,909.031 2085.03,908.092 2086.98,907.151 2088.94,906.208 2090.89,905.264 2092.85,904.317 2094.8,903.369 2096.76,902.418 2098.71,901.466 
  2100.67,900.512 2102.62,899.556 2104.58,898.598 2106.53,897.638 2108.49,896.676 2110.44,895.713 2112.39,894.747 2114.35,893.78 2116.3,892.81 2118.26,891.839 
  2120.21,890.866 2122.17,889.891 2124.12,888.914 2126.08,887.935 2128.03,886.954 2129.99,885.971 2131.94,884.987 2133.9,884 2135.85,883.012 2137.8,882.021 
  2139.76,881.029 2141.71,880.034 2143.67,879.038 2145.62,878.04 2147.58,877.04 2149.53,876.038 2151.49,875.034 2153.44,874.028 2155.4,873.02 2157.35,872.01 
  2159.31,870.998 2161.26,869.984 2163.21,868.969 2165.17,867.951 2167.12,866.931 2169.08,865.91 2171.03,864.886 2172.99,863.861 2174.94,862.833 2176.9,861.804 
  2178.85,860.772 2180.81,859.739 2182.76,858.704 2184.72,857.666 2186.67,856.627 2188.63,855.586 2190.58,854.542 2192.53,853.497 2194.49,852.45 2196.44,851.4 
  2198.4,850.349 2200.35,849.296 2202.31,848.241 2204.26,847.183 2206.22,846.124 2208.17,845.063 2210.13,844 2212.08,842.934 2214.04,841.867 2215.99,840.798 
  2217.94,839.726 2219.9,838.653 2221.85,837.578 2223.81,836.5 2225.76,835.421 2227.72,834.34 2229.67,833.256 2231.63,832.171 2233.58,831.083 2235.54,829.994 
  2237.49,828.902 2239.45,827.809 2241.4,826.713 2243.35,825.616 2245.31,824.516 2247.26,823.414 2249.22,822.31 2251.17,821.205 2253.13,820.097 2255.08,818.987 
  2257.04,817.875 2258.99,816.761 2260.95,815.645 2262.9,814.527 2264.86,813.406 2266.81,812.284 2268.77,811.16 2270.72,810.033 2272.67,808.905 2274.63,807.774 
  2276.58,806.642 2278.54,805.507 2280.49,804.37 2282.45,803.231 2284.4,802.09 2286.36,800.947 2288.31,799.802 2290.27,798.655 2292.22,797.506 2294.18,796.355 
  
  "/>
<polyline clip-path="url(#clip2102)" style="stroke:#3da44d; stroke-width:4; stroke-opacity:1; fill:none" points="
  341.495,1292.44 343.45,1292.24 345.404,1292.03 347.359,1291.82 349.314,1291.61 351.268,1291.4 353.223,1291.18 355.177,1290.97 357.132,1290.75 359.087,1290.53 
  361.041,1290.31 362.996,1290.09 364.951,1289.86 366.905,1289.64 368.86,1289.41 370.815,1289.18 372.769,1288.95 374.724,1288.71 376.678,1288.48 378.633,1288.24 
  380.588,1288 382.542,1287.75 384.497,1287.51 386.452,1287.26 388.406,1287.01 390.361,1286.76 392.315,1286.5 394.27,1286.24 396.225,1285.98 398.179,1285.72 
  400.134,1285.45 402.089,1285.18 404.043,1284.91 405.998,1284.64 407.953,1284.36 409.907,1284.08 411.862,1283.79 413.816,1283.5 415.771,1283.21 417.726,1282.92 
  419.68,1282.62 421.635,1282.32 423.59,1282.02 425.544,1281.71 427.499,1281.4 429.454,1281.08 431.408,1280.76 433.363,1280.44 435.317,1280.11 437.272,1279.77 
  439.227,1279.44 441.181,1279.1 443.136,1278.75 445.091,1278.4 447.045,1278.04 449,1277.68 450.955,1277.32 452.909,1276.95 454.864,1276.57 456.818,1276.19 
  458.773,1275.81 460.728,1275.41 462.682,1275.02 464.637,1274.61 466.592,1274.2 468.546,1273.79 470.501,1273.36 472.456,1272.93 474.41,1272.5 476.365,1272.06 
  478.319,1271.61 480.274,1271.15 482.229,1270.69 484.183,1270.22 486.138,1269.74 488.093,1269.25 490.047,1268.76 492.002,1268.26 493.957,1267.75 495.911,1267.23 
  497.866,1266.7 499.82,1266.16 501.775,1265.62 503.73,1265.06 505.684,1264.5 507.639,1263.93 509.594,1263.34 511.548,1262.75 513.503,1262.15 515.458,1261.53 
  517.412,1260.91 519.367,1260.27 521.321,1259.63 523.276,1258.97 525.231,1258.3 527.185,1257.62 529.14,1256.93 531.095,1256.23 533.049,1255.51 535.004,1254.78 
  536.958,1254.04 538.913,1253.29 540.868,1252.53 542.822,1251.75 544.777,1250.96 546.732,1250.16 548.686,1249.35 550.641,1248.52 552.596,1247.68 554.55,1246.83 
  556.505,1245.97 558.459,1245.09 560.414,1244.21 562.369,1243.31 564.323,1242.4 566.278,1241.47 568.233,1240.54 570.187,1239.6 572.142,1238.65 574.097,1237.68 
  576.051,1236.71 578.006,1235.74 579.96,1234.75 581.915,1233.76 583.87,1232.76 585.824,1231.77 587.779,1230.76 589.734,1229.76 591.688,1228.76 593.643,1227.76 
  595.598,1226.76 597.552,1225.77 599.507,1224.79 601.461,1223.81 603.416,1222.85 605.371,1221.9 607.325,1220.96 609.28,1220.05 611.235,1219.15 613.189,1218.28 
  615.144,1217.43 617.099,1216.61 619.053,1215.83 621.008,1215.07 622.962,1214.35 624.917,1213.66 626.872,1213.01 628.826,1212.4 630.781,1211.83 632.736,1211.29 
  634.69,1210.8 636.645,1210.34 638.6,1209.92 640.554,1209.53 642.509,1209.17 644.463,1208.83 646.418,1208.52 648.373,1208.23 650.327,1207.95 652.282,1207.68 
  654.237,1207.41 656.191,1207.15 658.146,1206.88 660.101,1206.6 662.055,1206.31 664.01,1206.02 665.964,1205.72 667.919,1205.41 669.874,1205.09 671.828,1204.78 
  673.783,1204.47 675.738,1204.17 677.692,1203.88 679.647,1203.62 681.602,1203.38 683.556,1203.18 685.511,1203.01 687.465,1202.89 689.42,1202.81 691.375,1202.78 
  693.329,1202.8 695.284,1202.88 697.239,1203.02 699.193,1203.21 701.148,1203.45 703.102,1203.75 705.057,1204.1 707.012,1204.5 708.966,1204.95 710.921,1205.44 
  712.876,1205.98 714.83,1206.56 716.785,1207.18 718.74,1207.84 720.694,1208.52 722.649,1209.23 724.603,1209.97 726.558,1210.73 728.513,1211.51 730.467,1212.31 
  732.422,1213.12 734.377,1213.95 736.331,1214.78 738.286,1215.62 740.241,1216.47 742.195,1217.32 744.15,1218.17 746.104,1219.03 748.059,1219.88 750.014,1220.72 
  751.968,1221.57 753.923,1222.4 755.878,1223.23 757.832,1224.05 759.787,1224.87 761.742,1225.67 763.696,1226.47 765.651,1227.25 767.605,1228.02 769.56,1228.78 
  771.515,1229.53 773.469,1230.27 775.424,1230.99 777.379,1231.7 779.333,1232.39 781.288,1233.08 783.243,1233.75 785.197,1234.4 787.152,1235.04 789.106,1235.67 
  791.061,1236.29 793.016,1236.89 794.97,1237.48 796.925,1238.05 798.88,1238.61 800.834,1239.16 802.789,1239.69 804.744,1240.22 806.698,1240.73 808.653,1241.22 
  810.607,1241.71 812.562,1242.18 814.517,1242.64 816.471,1243.09 818.426,1243.53 820.381,1243.96 822.335,1244.37 824.29,1244.77 826.245,1245.17 828.199,1245.55 
  830.154,1245.92 832.108,1246.29 834.063,1246.64 836.018,1246.98 837.972,1247.32 839.927,1247.64 841.882,1247.96 843.836,1248.26 845.791,1248.56 847.745,1248.85 
  849.7,1249.13 851.655,1249.4 853.609,1249.67 855.564,1249.93 857.519,1250.17 859.473,1250.42 861.428,1250.65 863.383,1250.88 865.337,1251.1 867.292,1251.32 
  869.246,1251.52 871.201,1251.73 873.156,1251.92 875.11,1252.11 877.065,1252.29 879.02,1252.47 880.974,1252.64 882.929,1252.81 884.884,1252.97 886.838,1253.12 
  888.793,1253.27 890.747,1253.42 892.702,1253.56 894.657,1253.69 896.611,1253.83 898.566,1253.95 900.521,1254.07 902.475,1254.19 904.43,1254.3 906.385,1254.41 
  908.339,1254.52 910.294,1254.62 912.248,1254.71 914.203,1254.81 916.158,1254.89 918.112,1254.98 920.067,1255.06 922.022,1255.14 923.976,1255.21 925.931,1255.29 
  927.886,1255.35 929.84,1255.42 931.795,1255.48 933.749,1255.54 935.704,1255.6 937.659,1255.65 939.613,1255.7 941.568,1255.75 943.523,1255.79 945.477,1255.83 
  947.432,1255.87 949.387,1255.91 951.341,1255.94 953.296,1255.98 955.25,1256.01 957.205,1256.03 959.16,1256.06 961.114,1256.08 963.069,1256.1 965.024,1256.12 
  966.978,1256.13 968.933,1256.15 970.888,1256.16 972.842,1256.17 974.797,1256.18 976.751,1256.19 978.706,1256.19 980.661,1256.19 982.615,1256.19 984.57,1256.19 
  986.525,1256.19 988.479,1256.19 990.434,1256.18 992.388,1256.17 994.343,1256.16 996.298,1256.15 998.252,1256.14 1000.21,1256.13 1002.16,1256.11 1004.12,1256.09 
  1006.07,1256.08 1008.03,1256.06 1009.98,1256.03 1011.93,1256.01 1013.89,1255.99 1015.84,1255.96 1017.8,1255.93 1019.75,1255.9 1021.71,1255.87 1023.66,1255.84 
  1025.62,1255.81 1027.57,1255.77 1029.53,1255.73 1031.48,1255.7 1033.44,1255.66 1035.39,1255.62 1037.35,1255.57 1039.3,1255.53 1041.25,1255.49 1043.21,1255.44 
  1045.16,1255.39 1047.12,1255.34 1049.07,1255.29 1051.03,1255.24 1052.98,1255.19 1054.94,1255.14 1056.89,1255.08 1058.85,1255.03 1060.8,1254.97 1062.76,1254.91 
  1064.71,1254.86 1066.66,1254.8 1068.62,1254.74 1070.57,1254.67 1072.53,1254.61 1074.48,1254.55 1076.44,1254.48 1078.39,1254.42 1080.35,1254.35 1082.3,1254.28 
  1084.26,1254.21 1086.21,1254.14 1088.17,1254.07 1090.12,1254 1092.07,1253.93 1094.03,1253.85 1095.98,1253.78 1097.94,1253.7 1099.89,1253.62 1101.85,1253.55 
  1103.8,1253.47 1105.76,1253.39 1107.71,1253.31 1109.67,1253.23 1111.62,1253.15 1113.58,1253.06 1115.53,1252.98 1117.49,1252.9 1119.44,1252.81 1121.39,1252.72 
  1123.35,1252.64 1125.3,1252.55 1127.26,1252.46 1129.21,1252.37 1131.17,1252.28 1133.12,1252.19 1135.08,1252.1 1137.03,1252.01 1138.99,1251.91 1140.94,1251.82 
  1142.9,1251.73 1144.85,1251.63 1146.8,1251.53 1148.76,1251.44 1150.71,1251.34 1152.67,1251.24 1154.62,1251.14 1156.58,1251.04 1158.53,1250.94 1160.49,1250.84 
  1162.44,1250.74 1164.4,1250.64 1166.35,1250.53 1168.31,1250.43 1170.26,1250.32 1172.21,1250.22 1174.17,1250.11 1176.12,1250.01 1178.08,1249.9 1180.03,1249.79 
  1181.99,1249.68 1183.94,1249.57 1185.9,1249.46 1187.85,1249.35 1189.81,1249.24 1191.76,1249.13 1193.72,1249.01 1195.67,1248.9 1197.63,1248.79 1199.58,1248.67 
  1201.53,1248.56 1203.49,1248.44 1205.44,1248.32 1207.4,1248.21 1209.35,1248.09 1211.31,1247.97 1213.26,1247.85 1215.22,1247.73 1217.17,1247.61 1219.13,1247.49 
  1221.08,1247.37 1223.04,1247.25 1224.99,1247.12 1226.94,1247 1228.9,1246.88 1230.85,1246.75 1232.81,1246.63 1234.76,1246.5 1236.72,1246.38 1238.67,1246.25 
  1240.63,1246.12 1242.58,1245.99 1244.54,1245.86 1246.49,1245.73 1248.45,1245.6 1250.4,1245.47 1252.35,1245.34 1254.31,1245.21 1256.26,1245.08 1258.22,1244.95 
  1260.17,1244.81 1262.13,1244.68 1264.08,1244.54 1266.04,1244.41 1267.99,1244.27 1269.95,1244.14 1271.9,1244 1273.86,1243.86 1275.81,1243.72 1277.77,1243.59 
  1279.72,1243.45 1281.67,1243.31 1283.63,1243.17 1285.58,1243.03 1287.54,1242.88 1289.49,1242.74 1291.45,1242.6 1293.4,1242.46 1295.36,1242.31 1297.31,1242.17 
  1299.27,1242.02 1301.22,1241.88 1303.18,1241.73 1305.13,1241.59 1307.08,1241.44 1309.04,1241.29 1310.99,1241.14 1312.95,1240.99 1314.9,1240.84 1316.86,1240.69 
  1318.81,1240.54 1320.77,1240.39 1322.72,1240.24 1324.68,1240.09 1326.63,1239.94 1328.59,1239.78 1330.54,1239.63 1332.5,1239.48 1334.45,1239.32 1336.4,1239.17 
  1338.36,1239.01 1340.31,1238.85 1342.27,1238.7 1344.22,1238.54 1346.18,1238.38 1348.13,1238.22 1350.09,1238.06 1352.04,1237.9 1354,1237.74 1355.95,1237.58 
  1357.91,1237.42 1359.86,1237.26 1361.81,1237.1 1363.77,1236.93 1365.72,1236.77 1367.68,1236.61 1369.63,1236.44 1371.59,1236.28 1373.54,1236.11 1375.5,1235.94 
  1377.45,1235.78 1379.41,1235.61 1381.36,1235.44 1383.32,1235.27 1385.27,1235.1 1387.22,1234.93 1389.18,1234.76 1391.13,1234.59 1393.09,1234.42 1395.04,1234.25 
  1397,1234.08 1398.95,1233.9 1400.91,1233.73 1402.86,1233.56 1404.82,1233.38 1406.77,1233.21 1408.73,1233.03 1410.68,1232.85 1412.64,1232.68 1414.59,1232.5 
  1416.54,1232.32 1418.5,1232.14 1420.45,1231.97 1422.41,1231.79 1424.36,1231.61 1426.32,1231.42 1428.27,1231.24 1430.23,1231.06 1432.18,1230.88 1434.14,1230.7 
  1436.09,1230.51 1438.05,1230.33 1440,1230.14 1441.95,1229.96 1443.91,1229.77 1445.86,1229.59 1447.82,1229.4 1449.77,1229.21 1451.73,1229.03 1453.68,1228.84 
  1455.64,1228.65 1457.59,1228.46 1459.55,1228.27 1461.5,1228.08 1463.46,1227.89 1465.41,1227.7 1467.36,1227.5 1469.32,1227.31 1471.27,1227.12 1473.23,1226.92 
  1475.18,1226.73 1477.14,1226.53 1479.09,1226.34 1481.05,1226.14 1483,1225.94 1484.96,1225.75 1486.91,1225.55 1488.87,1225.35 1490.82,1225.15 1492.78,1224.95 
  1494.73,1224.75 1496.68,1224.55 1498.64,1224.35 1500.59,1224.15 1502.55,1223.95 1504.5,1223.74 1506.46,1223.54 1508.41,1223.33 1510.37,1223.13 1512.32,1222.92 
  1514.28,1222.72 1516.23,1222.51 1518.19,1222.3 1520.14,1222.1 1522.09,1221.89 1524.05,1221.68 1526,1221.47 1527.96,1221.26 1529.91,1221.05 1531.87,1220.84 
  1533.82,1220.63 1535.78,1220.42 1537.73,1220.2 1539.69,1219.99 1541.64,1219.78 1543.6,1219.56 1545.55,1219.35 1547.5,1219.13 1549.46,1218.91 1551.41,1218.7 
  1553.37,1218.48 1555.32,1218.26 1557.28,1218.04 1559.23,1217.82 1561.19,1217.6 1563.14,1217.38 1565.1,1217.16 1567.05,1216.94 1569.01,1216.72 1570.96,1216.5 
  1572.92,1216.27 1574.87,1216.05 1576.82,1215.82 1578.78,1215.6 1580.73,1215.37 1582.69,1215.15 1584.64,1214.92 1586.6,1214.69 1588.55,1214.46 1590.51,1214.23 
  1592.46,1214.01 1594.42,1213.78 1596.37,1213.55 1598.33,1213.31 1600.28,1213.08 1602.23,1212.85 1604.19,1212.62 1606.14,1212.38 1608.1,1212.15 1610.05,1211.91 
  1612.01,1211.68 1613.96,1211.44 1615.92,1211.21 1617.87,1210.97 1619.83,1210.73 1621.78,1210.49 1623.74,1210.25 1625.69,1210.02 1627.64,1209.78 1629.6,1209.53 
  1631.55,1209.29 1633.51,1209.05 1635.46,1208.81 1637.42,1208.56 1639.37,1208.32 1641.33,1208.08 1643.28,1207.83 1645.24,1207.59 1647.19,1207.34 1649.15,1207.09 
  1651.1,1206.84 1653.06,1206.6 1655.01,1206.35 1656.96,1206.1 1658.92,1205.85 1660.87,1205.6 1662.83,1205.35 1664.78,1205.09 1666.74,1204.84 1668.69,1204.59 
  1670.65,1204.33 1672.6,1204.08 1674.56,1203.83 1676.51,1203.57 1678.47,1203.31 1680.42,1203.06 1682.37,1202.8 1684.33,1202.54 1686.28,1202.28 1688.24,1202.02 
  1690.19,1201.76 1692.15,1201.5 1694.1,1201.24 1696.06,1200.98 1698.01,1200.71 1699.97,1200.45 1701.92,1200.19 1703.88,1199.92 1705.83,1199.66 1707.78,1199.39 
  1709.74,1199.12 1711.69,1198.86 1713.65,1198.59 1715.6,1198.32 1717.56,1198.05 1719.51,1197.78 1721.47,1197.51 1723.42,1197.24 1725.38,1196.97 1727.33,1196.7 
  1729.29,1196.42 1731.24,1196.15 1733.2,1195.87 1735.15,1195.6 1737.1,1195.32 1739.06,1195.05 1741.01,1194.77 1742.97,1194.49 1744.92,1194.21 1746.88,1193.94 
  1748.83,1193.66 1750.79,1193.38 1752.74,1193.09 1754.7,1192.81 1756.65,1192.53 1758.61,1192.25 1760.56,1191.96 1762.51,1191.68 1764.47,1191.39 1766.42,1191.11 
  1768.38,1190.82 1770.33,1190.54 1772.29,1190.25 1774.24,1189.96 1776.2,1189.67 1778.15,1189.38 1780.11,1189.09 1782.06,1188.8 1784.02,1188.51 1785.97,1188.22 
  1787.92,1187.92 1789.88,1187.63 1791.83,1187.33 1793.79,1187.04 1795.74,1186.74 1797.7,1186.45 1799.65,1186.15 1801.61,1185.85 1803.56,1185.55 1805.52,1185.25 
  1807.47,1184.95 1809.43,1184.65 1811.38,1184.35 1813.34,1184.05 1815.29,1183.75 1817.24,1183.44 1819.2,1183.14 1821.15,1182.84 1823.11,1182.53 1825.06,1182.22 
  1827.02,1181.92 1828.97,1181.61 1830.93,1181.3 1832.88,1180.99 1834.84,1180.68 1836.79,1180.37 1838.75,1180.06 1840.7,1179.75 1842.65,1179.44 1844.61,1179.12 
  1846.56,1178.81 1848.52,1178.5 1850.47,1178.18 1852.43,1177.86 1854.38,1177.55 1856.34,1177.23 1858.29,1176.91 1860.25,1176.59 1862.2,1176.27 1864.16,1175.95 
  1866.11,1175.63 1868.07,1175.31 1870.02,1174.99 1871.97,1174.67 1873.93,1174.34 1875.88,1174.02 1877.84,1173.69 1879.79,1173.37 1881.75,1173.04 1883.7,1172.71 
  1885.66,1172.38 1887.61,1172.05 1889.57,1171.72 1891.52,1171.39 1893.48,1171.06 1895.43,1170.73 1897.38,1170.4 1899.34,1170.07 1901.29,1169.73 1903.25,1169.4 
  1905.2,1169.06 1907.16,1168.72 1909.11,1168.39 1911.07,1168.05 1913.02,1167.71 1914.98,1167.37 1916.93,1167.03 1918.89,1166.69 1920.84,1166.35 1922.79,1166.01 
  1924.75,1165.67 1926.7,1165.32 1928.66,1164.98 1930.61,1164.63 1932.57,1164.29 1934.52,1163.94 1936.48,1163.59 1938.43,1163.24 1940.39,1162.9 1942.34,1162.55 
  1944.3,1162.2 1946.25,1161.85 1948.21,1161.49 1950.16,1161.14 1952.11,1160.79 1954.07,1160.43 1956.02,1160.08 1957.98,1159.72 1959.93,1159.37 1961.89,1159.01 
  1963.84,1158.65 1965.8,1158.29 1967.75,1157.93 1969.71,1157.57 1971.66,1157.21 1973.62,1156.85 1975.57,1156.49 1977.52,1156.12 1979.48,1155.76 1981.43,1155.4 
  1983.39,1155.03 1985.34,1154.66 1987.3,1154.3 1989.25,1153.93 1991.21,1153.56 1993.16,1153.19 1995.12,1152.82 1997.07,1152.45 1999.03,1152.08 2000.98,1151.71 
  2002.93,1151.33 2004.89,1150.96 2006.84,1150.58 2008.8,1150.21 2010.75,1149.83 2012.71,1149.45 2014.66,1149.08 2016.62,1148.7 2018.57,1148.32 2020.53,1147.94 
  2022.48,1147.56 2024.44,1147.17 2026.39,1146.79 2028.35,1146.41 2030.3,1146.02 2032.25,1145.64 2034.21,1145.25 2036.16,1144.87 2038.12,1144.48 2040.07,1144.09 
  2042.03,1143.7 2043.98,1143.31 2045.94,1142.92 2047.89,1142.53 2049.85,1142.14 2051.8,1141.74 2053.76,1141.35 2055.71,1140.95 2057.66,1140.56 2059.62,1140.16 
  2061.57,1139.76 2063.53,1139.37 2065.48,1138.97 2067.44,1138.57 2069.39,1138.17 2071.35,1137.77 2073.3,1137.36 2075.26,1136.96 2077.21,1136.56 2079.17,1136.15 
  2081.12,1135.75 2083.07,1135.34 2085.03,1134.94 2086.98,1134.53 2088.94,1134.12 2090.89,1133.71 2092.85,1133.3 2094.8,1132.89 2096.76,1132.48 2098.71,1132.06 
  2100.67,1131.65 2102.62,1131.24 2104.58,1130.82 2106.53,1130.41 2108.49,1129.99 2110.44,1129.57 2112.39,1129.15 2114.35,1128.73 2116.3,1128.31 2118.26,1127.89 
  2120.21,1127.47 2122.17,1127.05 2124.12,1126.62 2126.08,1126.2 2128.03,1125.77 2129.99,1125.35 2131.94,1124.92 2133.9,1124.49 2135.85,1124.06 2137.8,1123.64 
  2139.76,1123.2 2141.71,1122.77 2143.67,1122.34 2145.62,1121.91 2147.58,1121.48 2149.53,1121.04 2151.49,1120.61 2153.44,1120.17 2155.4,1119.73 2157.35,1119.29 
  2159.31,1118.86 2161.26,1118.42 2163.21,1117.98 2165.17,1117.53 2167.12,1117.09 2169.08,1116.65 2171.03,1116.2 2172.99,1115.76 2174.94,1115.31 2176.9,1114.87 
  2178.85,1114.42 2180.81,1113.97 2182.76,1113.52 2184.72,1113.07 2186.67,1112.62 2188.63,1112.17 2190.58,1111.72 2192.53,1111.26 2194.49,1110.81 2196.44,1110.35 
  2198.4,1109.9 2200.35,1109.44 2202.31,1108.98 2204.26,1108.53 2206.22,1108.07 2208.17,1107.6 2210.13,1107.14 2212.08,1106.68 2214.04,1106.22 2215.99,1105.75 
  2217.94,1105.29 2219.9,1104.82 2221.85,1104.36 2223.81,1103.89 2225.76,1103.42 2227.72,1102.95 2229.67,1102.48 2231.63,1102.01 2233.58,1101.54 2235.54,1101.07 
  2237.49,1100.59 2239.45,1100.12 2241.4,1099.64 2243.35,1099.16 2245.31,1098.69 2247.26,1098.21 2249.22,1097.73 2251.17,1097.25 2253.13,1096.77 2255.08,1096.29 
  2257.04,1095.8 2258.99,1095.32 2260.95,1094.84 2262.9,1094.35 2264.86,1093.86 2266.81,1093.38 2268.77,1092.89 2270.72,1092.4 2272.67,1091.91 2274.63,1091.42 
  2276.58,1090.93 2278.54,1090.43 2280.49,1089.94 2282.45,1089.44 2284.4,1088.95 2286.36,1088.45 2288.31,1087.96 2290.27,1087.46 2292.22,1086.96 2294.18,1086.46 
  
  "/>
<polyline clip-path="url(#clip2102)" style="stroke:#c271d2; stroke-width:4; stroke-opacity:1; fill:none" points="
  341.495,1310.76 343.45,1310.65 345.404,1310.55 347.359,1310.44 349.314,1310.33 351.268,1310.22 353.223,1310.11 355.177,1309.99 357.132,1309.88 359.087,1309.76 
  361.041,1309.64 362.996,1309.53 364.951,1309.4 366.905,1309.28 368.86,1309.16 370.815,1309.03 372.769,1308.91 374.724,1308.78 376.678,1308.65 378.633,1308.52 
  380.588,1308.38 382.542,1308.25 384.497,1308.11 386.452,1307.97 388.406,1307.83 390.361,1307.69 392.315,1307.54 394.27,1307.4 396.225,1307.25 398.179,1307.1 
  400.134,1306.94 402.089,1306.79 404.043,1306.63 405.998,1306.47 407.953,1306.31 409.907,1306.14 411.862,1305.97 413.816,1305.81 415.771,1305.63 417.726,1305.46 
  419.68,1305.28 421.635,1305.1 423.59,1304.92 425.544,1304.73 427.499,1304.54 429.454,1304.35 431.408,1304.15 433.363,1303.96 435.317,1303.75 437.272,1303.55 
  439.227,1303.34 441.181,1303.13 443.136,1302.91 445.091,1302.69 447.045,1302.47 449,1302.25 450.955,1302.01 452.909,1301.78 454.864,1301.54 456.818,1301.3 
  458.773,1301.05 460.728,1300.8 462.682,1300.55 464.637,1300.29 466.592,1300.02 468.546,1299.75 470.501,1299.48 472.456,1299.2 474.41,1298.91 476.365,1298.62 
  478.319,1298.33 480.274,1298.03 482.229,1297.72 484.183,1297.41 486.138,1297.09 488.093,1296.77 490.047,1296.44 492.002,1296.1 493.957,1295.76 495.911,1295.41 
  497.866,1295.05 499.82,1294.69 501.775,1294.32 503.73,1293.95 505.684,1293.56 507.639,1293.17 509.594,1292.77 511.548,1292.37 513.503,1291.95 515.458,1291.53 
  517.412,1291.1 519.367,1290.66 521.321,1290.22 523.276,1289.76 525.231,1289.3 527.185,1288.83 529.14,1288.35 531.095,1287.86 533.049,1287.36 535.004,1286.86 
  536.958,1286.34 538.913,1285.81 540.868,1285.28 542.822,1284.74 544.777,1284.19 546.732,1283.62 548.686,1283.05 550.641,1282.47 552.596,1281.88 554.55,1281.29 
  556.505,1280.68 558.459,1280.07 560.414,1279.44 562.369,1278.81 564.323,1278.17 566.278,1277.53 568.233,1276.87 570.187,1276.21 572.142,1275.54 574.097,1274.87 
  576.051,1274.2 578.006,1273.52 579.96,1272.83 581.915,1272.14 583.87,1271.46 585.824,1270.77 587.779,1270.08 589.734,1269.39 591.688,1268.71 593.643,1268.03 
  595.598,1267.35 597.552,1266.69 599.507,1266.03 601.461,1265.38 603.416,1264.75 605.371,1264.13 607.325,1263.53 609.28,1262.95 611.235,1262.38 613.189,1261.84 
  615.144,1261.32 617.099,1260.83 619.053,1260.37 621.008,1259.94 622.962,1259.54 624.917,1259.17 626.872,1258.83 628.826,1258.53 630.781,1258.26 632.736,1258.02 
  634.69,1257.82 636.645,1257.64 638.6,1257.49 640.554,1257.37 642.509,1257.26 644.463,1257.18 646.418,1257.1 648.373,1257.04 650.327,1256.97 652.282,1256.9 
  654.237,1256.82 656.191,1256.73 658.146,1256.62 660.101,1256.5 662.055,1256.35 664.01,1256.17 665.964,1255.97 667.919,1255.76 669.874,1255.52 671.828,1255.27 
  673.783,1255 675.738,1254.74 677.692,1254.47 679.647,1254.21 681.602,1253.97 683.556,1253.74 685.511,1253.54 687.465,1253.37 689.42,1253.23 691.375,1253.13 
  693.329,1253.08 695.284,1253.06 697.239,1253.09 699.193,1253.17 701.148,1253.3 703.102,1253.47 705.057,1253.69 707.012,1253.95 708.966,1254.25 710.921,1254.59 
  712.876,1254.98 714.83,1255.4 716.785,1255.85 718.74,1256.34 720.694,1256.85 722.649,1257.39 724.603,1257.96 726.558,1258.55 728.513,1259.15 730.467,1259.78 
  732.422,1260.42 734.377,1261.07 736.331,1261.73 738.286,1262.4 740.241,1263.08 742.195,1263.76 744.15,1264.45 746.104,1265.14 748.059,1265.83 750.014,1266.52 
  751.968,1267.21 753.923,1267.89 755.878,1268.57 757.832,1269.25 759.787,1269.92 761.742,1270.59 763.696,1271.25 765.651,1271.9 767.605,1272.54 769.56,1273.18 
  771.515,1273.81 773.469,1274.43 775.424,1275.04 777.379,1275.64 779.333,1276.23 781.288,1276.81 783.243,1277.38 785.197,1277.94 787.152,1278.49 789.106,1279.03 
  791.061,1279.56 793.016,1280.08 794.97,1280.59 796.925,1281.09 798.88,1281.58 800.834,1282.06 802.789,1282.53 804.744,1282.99 806.698,1283.44 808.653,1283.88 
  810.607,1284.32 812.562,1284.74 814.517,1285.15 816.471,1285.56 818.426,1285.95 820.381,1286.34 822.335,1286.72 824.29,1287.09 826.245,1287.45 828.199,1287.81 
  830.154,1288.15 832.108,1288.49 834.063,1288.82 836.018,1289.14 837.972,1289.46 839.927,1289.77 841.882,1290.07 843.836,1290.36 845.791,1290.65 847.745,1290.93 
  849.7,1291.21 851.655,1291.48 853.609,1291.74 855.564,1292 857.519,1292.25 859.473,1292.49 861.428,1292.73 863.383,1292.97 865.337,1293.2 867.292,1293.42 
  869.246,1293.64 871.201,1293.85 873.156,1294.06 875.11,1294.26 877.065,1294.46 879.02,1294.66 880.974,1294.85 882.929,1295.03 884.884,1295.21 886.838,1295.39 
  888.793,1295.56 890.747,1295.73 892.702,1295.9 894.657,1296.06 896.611,1296.22 898.566,1296.37 900.521,1296.52 902.475,1296.67 904.43,1296.81 906.385,1296.95 
  908.339,1297.09 910.294,1297.23 912.248,1297.36 914.203,1297.49 916.158,1297.61 918.112,1297.73 920.067,1297.85 922.022,1297.97 923.976,1298.09 925.931,1298.2 
  927.886,1298.31 929.84,1298.41 931.795,1298.52 933.749,1298.62 935.704,1298.72 937.659,1298.82 939.613,1298.91 941.568,1299 943.523,1299.1 945.477,1299.18 
  947.432,1299.27 949.387,1299.36 951.341,1299.44 953.296,1299.52 955.25,1299.6 957.205,1299.67 959.16,1299.75 961.114,1299.82 963.069,1299.89 965.024,1299.96 
  966.978,1300.03 968.933,1300.1 970.888,1300.17 972.842,1300.23 974.797,1300.29 976.751,1300.35 978.706,1300.41 980.661,1300.47 982.615,1300.52 984.57,1300.58 
  986.525,1300.63 988.479,1300.69 990.434,1300.74 992.388,1300.79 994.343,1300.84 996.298,1300.88 998.252,1300.93 1000.21,1300.97 1002.16,1301.02 1004.12,1301.06 
  1006.07,1301.1 1008.03,1301.14 1009.98,1301.18 1011.93,1301.22 1013.89,1301.26 1015.84,1301.3 1017.8,1301.33 1019.75,1301.37 1021.71,1301.4 1023.66,1301.43 
  1025.62,1301.47 1027.57,1301.5 1029.53,1301.53 1031.48,1301.56 1033.44,1301.59 1035.39,1301.62 1037.35,1301.64 1039.3,1301.67 1041.25,1301.7 1043.21,1301.72 
  1045.16,1301.75 1047.12,1301.77 1049.07,1301.79 1051.03,1301.81 1052.98,1301.84 1054.94,1301.86 1056.89,1301.88 1058.85,1301.9 1060.8,1301.92 1062.76,1301.94 
  1064.71,1301.95 1066.66,1301.97 1068.62,1301.99 1070.57,1302.01 1072.53,1302.02 1074.48,1302.04 1076.44,1302.05 1078.39,1302.07 1080.35,1302.08 1082.3,1302.09 
  1084.26,1302.11 1086.21,1302.12 1088.17,1302.13 1090.12,1302.14 1092.07,1302.15 1094.03,1302.16 1095.98,1302.17 1097.94,1302.18 1099.89,1302.19 1101.85,1302.2 
  1103.8,1302.21 1105.76,1302.21 1107.71,1302.22 1109.67,1302.23 1111.62,1302.24 1113.58,1302.24 1115.53,1302.25 1117.49,1302.25 1119.44,1302.26 1121.39,1302.26 
  1123.35,1302.27 1125.3,1302.27 1127.26,1302.28 1129.21,1302.28 1131.17,1302.28 1133.12,1302.29 1135.08,1302.29 1137.03,1302.29 1138.99,1302.29 1140.94,1302.29 
  1142.9,1302.29 1144.85,1302.3 1146.8,1302.3 1148.76,1302.3 1150.71,1302.3 1152.67,1302.3 1154.62,1302.3 1156.58,1302.29 1158.53,1302.29 1160.49,1302.29 
  1162.44,1302.29 1164.4,1302.29 1166.35,1302.29 1168.31,1302.28 1170.26,1302.28 1172.21,1302.28 1174.17,1302.28 1176.12,1302.27 1178.08,1302.27 1180.03,1302.27 
  1181.99,1302.26 1183.94,1302.26 1185.9,1302.25 1187.85,1302.25 1189.81,1302.24 1191.76,1302.24 1193.72,1302.23 1195.67,1302.23 1197.63,1302.22 1199.58,1302.22 
  1201.53,1302.21 1203.49,1302.21 1205.44,1302.2 1207.4,1302.19 1209.35,1302.19 1211.31,1302.18 1213.26,1302.17 1215.22,1302.16 1217.17,1302.16 1219.13,1302.15 
  1221.08,1302.14 1223.04,1302.13 1224.99,1302.13 1226.94,1302.12 1228.9,1302.11 1230.85,1302.1 1232.81,1302.09 1234.76,1302.08 1236.72,1302.07 1238.67,1302.07 
  1240.63,1302.06 1242.58,1302.05 1244.54,1302.04 1246.49,1302.03 1248.45,1302.02 1250.4,1302.01 1252.35,1302 1254.31,1301.99 1256.26,1301.98 1258.22,1301.97 
  1260.17,1301.96 1262.13,1301.94 1264.08,1301.93 1266.04,1301.92 1267.99,1301.91 1269.95,1301.9 1271.9,1301.89 1273.86,1301.88 1275.81,1301.87 1277.77,1301.85 
  1279.72,1301.84 1281.67,1301.83 1283.63,1301.82 1285.58,1301.81 1287.54,1301.79 1289.49,1301.78 1291.45,1301.77 1293.4,1301.76 1295.36,1301.74 1297.31,1301.73 
  1299.27,1301.72 1301.22,1301.7 1303.18,1301.69 1305.13,1301.68 1307.08,1301.66 1309.04,1301.65 1310.99,1301.64 1312.95,1301.62 1314.9,1301.61 1316.86,1301.6 
  1318.81,1301.58 1320.77,1301.57 1322.72,1301.55 1324.68,1301.54 1326.63,1301.53 1328.59,1301.51 1330.54,1301.5 1332.5,1301.48 1334.45,1301.47 1336.4,1301.45 
  1338.36,1301.44 1340.31,1301.42 1342.27,1301.41 1344.22,1301.39 1346.18,1301.38 1348.13,1301.36 1350.09,1301.35 1352.04,1301.33 1354,1301.32 1355.95,1301.3 
  1357.91,1301.28 1359.86,1301.27 1361.81,1301.25 1363.77,1301.24 1365.72,1301.22 1367.68,1301.21 1369.63,1301.19 1371.59,1301.17 1373.54,1301.16 1375.5,1301.14 
  1377.45,1301.12 1379.41,1301.11 1381.36,1301.09 1383.32,1301.07 1385.27,1301.06 1387.22,1301.04 1389.18,1301.02 1391.13,1301.01 1393.09,1300.99 1395.04,1300.97 
  1397,1300.96 1398.95,1300.94 1400.91,1300.92 1402.86,1300.9 1404.82,1300.89 1406.77,1300.87 1408.73,1300.85 1410.68,1300.83 1412.64,1300.82 1414.59,1300.8 
  1416.54,1300.78 1418.5,1300.76 1420.45,1300.75 1422.41,1300.73 1424.36,1300.71 1426.32,1300.69 1428.27,1300.67 1430.23,1300.66 1432.18,1300.64 1434.14,1300.62 
  1436.09,1300.6 1438.05,1300.58 1440,1300.56 1441.95,1300.54 1443.91,1300.53 1445.86,1300.51 1447.82,1300.49 1449.77,1300.47 1451.73,1300.45 1453.68,1300.43 
  1455.64,1300.41 1457.59,1300.39 1459.55,1300.37 1461.5,1300.36 1463.46,1300.34 1465.41,1300.32 1467.36,1300.3 1469.32,1300.28 1471.27,1300.26 1473.23,1300.24 
  1475.18,1300.22 1477.14,1300.2 1479.09,1300.18 1481.05,1300.16 1483,1300.14 1484.96,1300.12 1486.91,1300.1 1488.87,1300.08 1490.82,1300.06 1492.78,1300.04 
  1494.73,1300.02 1496.68,1300 1498.64,1299.98 1500.59,1299.96 1502.55,1299.94 1504.5,1299.92 1506.46,1299.9 1508.41,1299.88 1510.37,1299.86 1512.32,1299.84 
  1514.28,1299.82 1516.23,1299.8 1518.19,1299.78 1520.14,1299.76 1522.09,1299.73 1524.05,1299.71 1526,1299.69 1527.96,1299.67 1529.91,1299.65 1531.87,1299.63 
  1533.82,1299.61 1535.78,1299.59 1537.73,1299.57 1539.69,1299.54 1541.64,1299.52 1543.6,1299.5 1545.55,1299.48 1547.5,1299.46 1549.46,1299.44 1551.41,1299.41 
  1553.37,1299.39 1555.32,1299.37 1557.28,1299.35 1559.23,1299.33 1561.19,1299.31 1563.14,1299.28 1565.1,1299.26 1567.05,1299.24 1569.01,1299.22 1570.96,1299.2 
  1572.92,1299.17 1574.87,1299.15 1576.82,1299.13 1578.78,1299.11 1580.73,1299.08 1582.69,1299.06 1584.64,1299.04 1586.6,1299.02 1588.55,1298.99 1590.51,1298.97 
  1592.46,1298.95 1594.42,1298.92 1596.37,1298.9 1598.33,1298.88 1600.28,1298.86 1602.23,1298.83 1604.19,1298.81 1606.14,1298.79 1608.1,1298.76 1610.05,1298.74 
  1612.01,1298.72 1613.96,1298.69 1615.92,1298.67 1617.87,1298.65 1619.83,1298.62 1621.78,1298.6 1623.74,1298.58 1625.69,1298.55 1627.64,1298.53 1629.6,1298.5 
  1631.55,1298.48 1633.51,1298.46 1635.46,1298.43 1637.42,1298.41 1639.37,1298.38 1641.33,1298.36 1643.28,1298.34 1645.24,1298.31 1647.19,1298.29 1649.15,1298.26 
  1651.1,1298.24 1653.06,1298.21 1655.01,1298.19 1656.96,1298.17 1658.92,1298.14 1660.87,1298.12 1662.83,1298.09 1664.78,1298.07 1666.74,1298.04 1668.69,1298.02 
  1670.65,1297.99 1672.6,1297.97 1674.56,1297.94 1676.51,1297.92 1678.47,1297.89 1680.42,1297.87 1682.37,1297.84 1684.33,1297.82 1686.28,1297.79 1688.24,1297.76 
  1690.19,1297.74 1692.15,1297.71 1694.1,1297.69 1696.06,1297.66 1698.01,1297.64 1699.97,1297.61 1701.92,1297.58 1703.88,1297.56 1705.83,1297.53 1707.78,1297.51 
  1709.74,1297.48 1711.69,1297.45 1713.65,1297.43 1715.6,1297.4 1717.56,1297.38 1719.51,1297.35 1721.47,1297.32 1723.42,1297.3 1725.38,1297.27 1727.33,1297.24 
  1729.29,1297.22 1731.24,1297.19 1733.2,1297.16 1735.15,1297.14 1737.1,1297.11 1739.06,1297.08 1741.01,1297.06 1742.97,1297.03 1744.92,1297 1746.88,1296.97 
  1748.83,1296.95 1750.79,1296.92 1752.74,1296.89 1754.7,1296.86 1756.65,1296.84 1758.61,1296.81 1760.56,1296.78 1762.51,1296.75 1764.47,1296.73 1766.42,1296.7 
  1768.38,1296.67 1770.33,1296.64 1772.29,1296.61 1774.24,1296.59 1776.2,1296.56 1778.15,1296.53 1780.11,1296.5 1782.06,1296.47 1784.02,1296.45 1785.97,1296.42 
  1787.92,1296.39 1789.88,1296.36 1791.83,1296.33 1793.79,1296.3 1795.74,1296.27 1797.7,1296.24 1799.65,1296.22 1801.61,1296.19 1803.56,1296.16 1805.52,1296.13 
  1807.47,1296.1 1809.43,1296.07 1811.38,1296.04 1813.34,1296.01 1815.29,1295.98 1817.24,1295.95 1819.2,1295.92 1821.15,1295.89 1823.11,1295.86 1825.06,1295.83 
  1827.02,1295.8 1828.97,1295.77 1830.93,1295.74 1832.88,1295.71 1834.84,1295.68 1836.79,1295.65 1838.75,1295.62 1840.7,1295.59 1842.65,1295.56 1844.61,1295.53 
  1846.56,1295.5 1848.52,1295.47 1850.47,1295.44 1852.43,1295.41 1854.38,1295.38 1856.34,1295.35 1858.29,1295.32 1860.25,1295.29 1862.2,1295.26 1864.16,1295.22 
  1866.11,1295.19 1868.07,1295.16 1870.02,1295.13 1871.97,1295.1 1873.93,1295.07 1875.88,1295.04 1877.84,1295 1879.79,1294.97 1881.75,1294.94 1883.7,1294.91 
  1885.66,1294.88 1887.61,1294.85 1889.57,1294.81 1891.52,1294.78 1893.48,1294.75 1895.43,1294.72 1897.38,1294.68 1899.34,1294.65 1901.29,1294.62 1903.25,1294.59 
  1905.2,1294.55 1907.16,1294.52 1909.11,1294.49 1911.07,1294.46 1913.02,1294.42 1914.98,1294.39 1916.93,1294.36 1918.89,1294.32 1920.84,1294.29 1922.79,1294.26 
  1924.75,1294.22 1926.7,1294.19 1928.66,1294.16 1930.61,1294.12 1932.57,1294.09 1934.52,1294.05 1936.48,1294.02 1938.43,1293.99 1940.39,1293.95 1942.34,1293.92 
  1944.3,1293.88 1946.25,1293.85 1948.21,1293.82 1950.16,1293.78 1952.11,1293.75 1954.07,1293.71 1956.02,1293.68 1957.98,1293.64 1959.93,1293.61 1961.89,1293.57 
  1963.84,1293.54 1965.8,1293.5 1967.75,1293.47 1969.71,1293.43 1971.66,1293.4 1973.62,1293.36 1975.57,1293.33 1977.52,1293.29 1979.48,1293.26 1981.43,1293.22 
  1983.39,1293.18 1985.34,1293.15 1987.3,1293.11 1989.25,1293.08 1991.21,1293.04 1993.16,1293 1995.12,1292.97 1997.07,1292.93 1999.03,1292.9 2000.98,1292.86 
  2002.93,1292.82 2004.89,1292.79 2006.84,1292.75 2008.8,1292.71 2010.75,1292.67 2012.71,1292.64 2014.66,1292.6 2016.62,1292.56 2018.57,1292.53 2020.53,1292.49 
  2022.48,1292.45 2024.44,1292.41 2026.39,1292.38 2028.35,1292.34 2030.3,1292.3 2032.25,1292.26 2034.21,1292.22 2036.16,1292.19 2038.12,1292.15 2040.07,1292.11 
  2042.03,1292.07 2043.98,1292.03 2045.94,1291.99 2047.89,1291.96 2049.85,1291.92 2051.8,1291.88 2053.76,1291.84 2055.71,1291.8 2057.66,1291.76 2059.62,1291.72 
  2061.57,1291.68 2063.53,1291.64 2065.48,1291.6 2067.44,1291.57 2069.39,1291.53 2071.35,1291.49 2073.3,1291.45 2075.26,1291.41 2077.21,1291.37 2079.17,1291.33 
  2081.12,1291.29 2083.07,1291.25 2085.03,1291.21 2086.98,1291.17 2088.94,1291.12 2090.89,1291.08 2092.85,1291.04 2094.8,1291 2096.76,1290.96 2098.71,1290.92 
  2100.67,1290.88 2102.62,1290.84 2104.58,1290.8 2106.53,1290.76 2108.49,1290.71 2110.44,1290.67 2112.39,1290.63 2114.35,1290.59 2116.3,1290.55 2118.26,1290.51 
  2120.21,1290.46 2122.17,1290.42 2124.12,1290.38 2126.08,1290.34 2128.03,1290.29 2129.99,1290.25 2131.94,1290.21 2133.9,1290.17 2135.85,1290.12 2137.8,1290.08 
  2139.76,1290.04 2141.71,1289.99 2143.67,1289.95 2145.62,1289.91 2147.58,1289.86 2149.53,1289.82 2151.49,1289.78 2153.44,1289.73 2155.4,1289.69 2157.35,1289.65 
  2159.31,1289.6 2161.26,1289.56 2163.21,1289.51 2165.17,1289.47 2167.12,1289.42 2169.08,1289.38 2171.03,1289.34 2172.99,1289.29 2174.94,1289.25 2176.9,1289.2 
  2178.85,1289.16 2180.81,1289.11 2182.76,1289.07 2184.72,1289.02 2186.67,1288.97 2188.63,1288.93 2190.58,1288.88 2192.53,1288.84 2194.49,1288.79 2196.44,1288.75 
  2198.4,1288.7 2200.35,1288.65 2202.31,1288.61 2204.26,1288.56 2206.22,1288.51 2208.17,1288.47 2210.13,1288.42 2212.08,1288.37 2214.04,1288.33 2215.99,1288.28 
  2217.94,1288.23 2219.9,1288.19 2221.85,1288.14 2223.81,1288.09 2225.76,1288.04 2227.72,1288 2229.67,1287.95 2231.63,1287.9 2233.58,1287.85 2235.54,1287.8 
  2237.49,1287.75 2239.45,1287.71 2241.4,1287.66 2243.35,1287.61 2245.31,1287.56 2247.26,1287.51 2249.22,1287.46 2251.17,1287.41 2253.13,1287.36 2255.08,1287.32 
  2257.04,1287.27 2258.99,1287.22 2260.95,1287.17 2262.9,1287.12 2264.86,1287.07 2266.81,1287.02 2268.77,1286.97 2270.72,1286.92 2272.67,1286.87 2274.63,1286.82 
  2276.58,1286.77 2278.54,1286.72 2280.49,1286.66 2282.45,1286.61 2284.4,1286.56 2286.36,1286.51 2288.31,1286.46 2290.27,1286.41 2292.22,1286.36 2294.18,1286.31 
  
  "/>
<polyline clip-path="url(#clip2102)" style="stroke:#ac8d18; stroke-width:4; stroke-opacity:1; fill:none" points="
  341.495,1322.97 343.45,1322.93 345.404,1322.89 347.359,1322.85 349.314,1322.81 351.268,1322.77 353.223,1322.72 355.177,1322.68 357.132,1322.63 359.087,1322.58 
  361.041,1322.53 362.996,1322.48 364.951,1322.43 366.905,1322.38 368.86,1322.32 370.815,1322.27 372.769,1322.21 374.724,1322.16 376.678,1322.1 378.633,1322.04 
  380.588,1321.97 382.542,1321.91 384.497,1321.85 386.452,1321.78 388.406,1321.71 390.361,1321.64 392.315,1321.57 394.27,1321.5 396.225,1321.42 398.179,1321.35 
  400.134,1321.27 402.089,1321.19 404.043,1321.11 405.998,1321.03 407.953,1320.94 409.907,1320.85 411.862,1320.76 413.816,1320.67 415.771,1320.58 417.726,1320.48 
  419.68,1320.39 421.635,1320.29 423.59,1320.18 425.544,1320.08 427.499,1319.97 429.454,1319.86 431.408,1319.75 433.363,1319.64 435.317,1319.52 437.272,1319.4 
  439.227,1319.28 441.181,1319.15 443.136,1319.02 445.091,1318.89 447.045,1318.76 449,1318.62 450.955,1318.48 452.909,1318.34 454.864,1318.19 456.818,1318.04 
  458.773,1317.88 460.728,1317.73 462.682,1317.57 464.637,1317.4 466.592,1317.23 468.546,1317.06 470.501,1316.89 472.456,1316.71 474.41,1316.52 476.365,1316.33 
  478.319,1316.14 480.274,1315.94 482.229,1315.74 484.183,1315.54 486.138,1315.32 488.093,1315.11 490.047,1314.89 492.002,1314.66 493.957,1314.43 495.911,1314.2 
  497.866,1313.96 499.82,1313.71 501.775,1313.46 503.73,1313.2 505.684,1312.94 507.639,1312.67 509.594,1312.39 511.548,1312.11 513.503,1311.82 515.458,1311.53 
  517.412,1311.23 519.367,1310.92 521.321,1310.61 523.276,1310.29 525.231,1309.97 527.185,1309.64 529.14,1309.3 531.095,1308.95 533.049,1308.6 535.004,1308.24 
  536.958,1307.87 538.913,1307.5 540.868,1307.11 542.822,1306.73 544.777,1306.33 546.732,1305.93 548.686,1305.52 550.641,1305.11 552.596,1304.68 554.55,1304.26 
  556.505,1303.82 558.459,1303.38 560.414,1302.93 562.369,1302.48 564.323,1302.02 566.278,1301.56 568.233,1301.09 570.187,1300.62 572.142,1300.14 574.097,1299.67 
  576.051,1299.18 578.006,1298.7 579.96,1298.22 581.915,1297.73 583.87,1297.25 585.824,1296.77 587.779,1296.29 589.734,1295.81 591.688,1295.34 593.643,1294.87 
  595.598,1294.41 597.552,1293.97 599.507,1293.53 601.461,1293.1 603.416,1292.69 605.371,1292.29 607.325,1291.91 609.28,1291.54 611.235,1291.2 613.189,1290.88 
  615.144,1290.58 617.099,1290.31 619.053,1290.07 621.008,1289.85 622.962,1289.66 624.917,1289.51 626.872,1289.38 628.826,1289.28 630.781,1289.21 632.736,1289.17 
  634.69,1289.16 636.645,1289.17 638.6,1289.21 640.554,1289.26 642.509,1289.33 644.463,1289.41 646.418,1289.49 648.373,1289.57 650.327,1289.65 652.282,1289.71 
  654.237,1289.76 656.191,1289.79 658.146,1289.79 660.101,1289.76 662.055,1289.7 664.01,1289.61 665.964,1289.48 667.919,1289.32 669.874,1289.14 671.828,1288.92 
  673.783,1288.69 675.738,1288.45 677.692,1288.2 679.647,1287.94 681.602,1287.69 683.556,1287.45 685.511,1287.22 687.465,1287.02 689.42,1286.85 691.375,1286.7 
  693.329,1286.59 695.284,1286.52 697.239,1286.48 699.193,1286.48 701.148,1286.53 703.102,1286.62 705.057,1286.74 707.012,1286.91 708.966,1287.12 710.921,1287.36 
  712.876,1287.64 714.83,1287.95 716.785,1288.3 718.74,1288.67 720.694,1289.07 722.649,1289.5 724.603,1289.95 726.558,1290.42 728.513,1290.91 730.467,1291.42 
  732.422,1291.94 734.377,1292.48 736.331,1293.03 738.286,1293.58 740.241,1294.15 742.195,1294.72 744.15,1295.3 746.104,1295.88 748.059,1296.46 750.014,1297.05 
  751.968,1297.63 753.923,1298.22 755.878,1298.8 757.832,1299.38 759.787,1299.96 761.742,1300.53 763.696,1301.1 765.651,1301.67 767.605,1302.23 769.56,1302.78 
  771.515,1303.33 773.469,1303.87 775.424,1304.4 777.379,1304.93 779.333,1305.45 781.288,1305.96 783.243,1306.47 785.197,1306.96 787.152,1307.45 789.106,1307.94 
  791.061,1308.41 793.016,1308.88 794.97,1309.33 796.925,1309.78 798.88,1310.23 800.834,1310.66 802.789,1311.09 804.744,1311.51 806.698,1311.92 808.653,1312.32 
  810.607,1312.72 812.562,1313.11 814.517,1313.49 816.471,1313.87 818.426,1314.24 820.381,1314.6 822.335,1314.95 824.29,1315.3 826.245,1315.64 828.199,1315.97 
  830.154,1316.3 832.108,1316.62 834.063,1316.94 836.018,1317.25 837.972,1317.55 839.927,1317.85 841.882,1318.15 843.836,1318.43 845.791,1318.71 847.745,1318.99 
  849.7,1319.26 851.655,1319.53 853.609,1319.79 855.564,1320.04 857.519,1320.3 859.473,1320.54 861.428,1320.79 863.383,1321.02 865.337,1321.26 867.292,1321.49 
  869.246,1321.71 871.201,1321.93 873.156,1322.15 875.11,1322.36 877.065,1322.57 879.02,1322.78 880.974,1322.98 882.929,1323.18 884.884,1323.38 886.838,1323.57 
  888.793,1323.76 890.747,1323.94 892.702,1324.12 894.657,1324.3 896.611,1324.48 898.566,1324.65 900.521,1324.82 902.475,1324.99 904.43,1325.16 906.385,1325.32 
  908.339,1325.48 910.294,1325.63 912.248,1325.79 914.203,1325.94 916.158,1326.09 918.112,1326.24 920.067,1326.38 922.022,1326.53 923.976,1326.67 925.931,1326.81 
  927.886,1326.94 929.84,1327.08 931.795,1327.21 933.749,1327.34 935.704,1327.47 937.659,1327.59 939.613,1327.72 941.568,1327.84 943.523,1327.96 945.477,1328.08 
  947.432,1328.2 949.387,1328.32 951.341,1328.43 953.296,1328.55 955.25,1328.66 957.205,1328.77 959.16,1328.88 961.114,1328.98 963.069,1329.09 965.024,1329.2 
  966.978,1329.3 968.933,1329.4 970.888,1329.5 972.842,1329.6 974.797,1329.7 976.751,1329.8 978.706,1329.89 980.661,1329.99 982.615,1330.08 984.57,1330.17 
  986.525,1330.26 988.479,1330.35 990.434,1330.44 992.388,1330.53 994.343,1330.62 996.298,1330.7 998.252,1330.79 1000.21,1330.87 1002.16,1330.96 1004.12,1331.04 
  1006.07,1331.12 1008.03,1331.2 1009.98,1331.28 1011.93,1331.36 1013.89,1331.44 1015.84,1331.52 1017.8,1331.6 1019.75,1331.68 1021.71,1331.75 1023.66,1331.83 
  1025.62,1331.91 1027.57,1331.98 1029.53,1332.06 1031.48,1332.13 1033.44,1332.21 1035.39,1332.28 1037.35,1332.36 1039.3,1332.43 1041.25,1332.5 1043.21,1332.58 
  1045.16,1332.65 1047.12,1332.72 1049.07,1332.79 1051.03,1332.86 1052.98,1332.93 1054.94,1333 1056.89,1333.07 1058.85,1333.14 1060.8,1333.21 1062.76,1333.28 
  1064.71,1333.35 1066.66,1333.42 1068.62,1333.49 1070.57,1333.56 1072.53,1333.63 1074.48,1333.7 1076.44,1333.76 1078.39,1333.83 1080.35,1333.9 1082.3,1333.97 
  1084.26,1334.03 1086.21,1334.1 1088.17,1334.17 1090.12,1334.24 1092.07,1334.3 1094.03,1334.37 1095.98,1334.43 1097.94,1334.5 1099.89,1334.57 1101.85,1334.63 
  1103.8,1334.7 1105.76,1334.77 1107.71,1334.83 1109.67,1334.9 1111.62,1334.96 1113.58,1335.03 1115.53,1335.09 1117.49,1335.16 1119.44,1335.22 1121.39,1335.29 
  1123.35,1335.35 1125.3,1335.42 1127.26,1335.49 1129.21,1335.55 1131.17,1335.62 1133.12,1335.68 1135.08,1335.75 1137.03,1335.81 1138.99,1335.88 1140.94,1335.94 
  1142.9,1336.01 1144.85,1336.07 1146.8,1336.14 1148.76,1336.2 1150.71,1336.27 1152.67,1336.33 1154.62,1336.4 1156.58,1336.46 1158.53,1336.53 1160.49,1336.59 
  1162.44,1336.66 1164.4,1336.72 1166.35,1336.79 1168.31,1336.86 1170.26,1336.92 1172.21,1336.99 1174.17,1337.05 1176.12,1337.12 1178.08,1337.18 1180.03,1337.25 
  1181.99,1337.32 1183.94,1337.38 1185.9,1337.45 1187.85,1337.51 1189.81,1337.58 1191.76,1337.65 1193.72,1337.71 1195.67,1337.78 1197.63,1337.85 1199.58,1337.91 
  1201.53,1337.98 1203.49,1338.05 1205.44,1338.12 1207.4,1338.18 1209.35,1338.25 1211.31,1338.32 1213.26,1338.39 1215.22,1338.45 1217.17,1338.52 1219.13,1338.59 
  1221.08,1338.66 1223.04,1338.73 1224.99,1338.79 1226.94,1338.86 1228.9,1338.93 1230.85,1339 1232.81,1339.07 1234.76,1339.14 1236.72,1339.21 1238.67,1339.28 
  1240.63,1339.35 1242.58,1339.42 1244.54,1339.49 1246.49,1339.56 1248.45,1339.63 1250.4,1339.7 1252.35,1339.77 1254.31,1339.84 1256.26,1339.91 1258.22,1339.98 
  1260.17,1340.05 1262.13,1340.12 1264.08,1340.19 1266.04,1340.27 1267.99,1340.34 1269.95,1340.41 1271.9,1340.48 1273.86,1340.55 1275.81,1340.63 1277.77,1340.7 
  1279.72,1340.77 1281.67,1340.85 1283.63,1340.92 1285.58,1340.99 1287.54,1341.07 1289.49,1341.14 1291.45,1341.21 1293.4,1341.29 1295.36,1341.36 1297.31,1341.44 
  1299.27,1341.51 1301.22,1341.59 1303.18,1341.66 1305.13,1341.74 1307.08,1341.81 1309.04,1341.89 1310.99,1341.97 1312.95,1342.04 1314.9,1342.12 1316.86,1342.2 
  1318.81,1342.27 1320.77,1342.35 1322.72,1342.43 1324.68,1342.51 1326.63,1342.58 1328.59,1342.66 1330.54,1342.74 1332.5,1342.82 1334.45,1342.9 1336.4,1342.98 
  1338.36,1343.06 1340.31,1343.14 1342.27,1343.22 1344.22,1343.29 1346.18,1343.38 1348.13,1343.46 1350.09,1343.54 1352.04,1343.62 1354,1343.7 1355.95,1343.78 
  1357.91,1343.86 1359.86,1343.94 1361.81,1344.02 1363.77,1344.11 1365.72,1344.19 1367.68,1344.27 1369.63,1344.35 1371.59,1344.44 1373.54,1344.52 1375.5,1344.61 
  1377.45,1344.69 1379.41,1344.77 1381.36,1344.86 1383.32,1344.94 1385.27,1345.03 1387.22,1345.11 1389.18,1345.2 1391.13,1345.28 1393.09,1345.37 1395.04,1345.46 
  1397,1345.54 1398.95,1345.63 1400.91,1345.72 1402.86,1345.8 1404.82,1345.89 1406.77,1345.98 1408.73,1346.07 1410.68,1346.15 1412.64,1346.24 1414.59,1346.33 
  1416.54,1346.42 1418.5,1346.51 1420.45,1346.6 1422.41,1346.69 1424.36,1346.78 1426.32,1346.87 1428.27,1346.96 1430.23,1347.05 1432.18,1347.14 1434.14,1347.23 
  1436.09,1347.32 1438.05,1347.42 1440,1347.51 1441.95,1347.6 1443.91,1347.69 1445.86,1347.79 1447.82,1347.88 1449.77,1347.97 1451.73,1348.07 1453.68,1348.16 
  1455.64,1348.26 1457.59,1348.35 1459.55,1348.45 1461.5,1348.54 1463.46,1348.64 1465.41,1348.73 1467.36,1348.83 1469.32,1348.92 1471.27,1349.02 1473.23,1349.12 
  1475.18,1349.21 1477.14,1349.31 1479.09,1349.41 1481.05,1349.51 1483,1349.61 1484.96,1349.7 1486.91,1349.8 1488.87,1349.9 1490.82,1350 1492.78,1350.1 
  1494.73,1350.2 1496.68,1350.3 1498.64,1350.4 1500.59,1350.5 1502.55,1350.6 1504.5,1350.71 1506.46,1350.81 1508.41,1350.91 1510.37,1351.01 1512.32,1351.11 
  1514.28,1351.22 1516.23,1351.32 1518.19,1351.42 1520.14,1351.53 1522.09,1351.63 1524.05,1351.74 1526,1351.84 1527.96,1351.95 1529.91,1352.05 1531.87,1352.16 
  1533.82,1352.26 1535.78,1352.37 1537.73,1352.47 1539.69,1352.58 1541.64,1352.69 1543.6,1352.79 1545.55,1352.9 1547.5,1353.01 1549.46,1353.12 1551.41,1353.23 
  1553.37,1353.34 1555.32,1353.44 1557.28,1353.55 1559.23,1353.66 1561.19,1353.77 1563.14,1353.88 1565.1,1353.99 1567.05,1354.11 1569.01,1354.22 1570.96,1354.33 
  1572.92,1354.44 1574.87,1354.55 1576.82,1354.66 1578.78,1354.78 1580.73,1354.89 1582.69,1355 1584.64,1355.12 1586.6,1355.23 1588.55,1355.35 1590.51,1355.46 
  1592.46,1355.58 1594.42,1355.69 1596.37,1355.81 1598.33,1355.92 1600.28,1356.04 1602.23,1356.15 1604.19,1356.27 1606.14,1356.39 1608.1,1356.51 1610.05,1356.62 
  1612.01,1356.74 1613.96,1356.86 1615.92,1356.98 1617.87,1357.1 1619.83,1357.22 1621.78,1357.34 1623.74,1357.46 1625.69,1357.58 1627.64,1357.7 1629.6,1357.82 
  1631.55,1357.94 1633.51,1358.06 1635.46,1358.18 1637.42,1358.3 1639.37,1358.43 1641.33,1358.55 1643.28,1358.67 1645.24,1358.8 1647.19,1358.92 1649.15,1359.04 
  1651.1,1359.17 1653.06,1359.29 1655.01,1359.42 1656.96,1359.54 1658.92,1359.67 1660.87,1359.8 1662.83,1359.92 1664.78,1360.05 1666.74,1360.18 1668.69,1360.3 
  1670.65,1360.43 1672.6,1360.56 1674.56,1360.69 1676.51,1360.82 1678.47,1360.94 1680.42,1361.07 1682.37,1361.2 1684.33,1361.33 1686.28,1361.46 1688.24,1361.59 
  1690.19,1361.72 1692.15,1361.86 1694.1,1361.99 1696.06,1362.12 1698.01,1362.25 1699.97,1362.38 1701.92,1362.52 1703.88,1362.65 1705.83,1362.78 1707.78,1362.92 
  1709.74,1363.05 1711.69,1363.19 1713.65,1363.32 1715.6,1363.46 1717.56,1363.59 1719.51,1363.73 1721.47,1363.86 1723.42,1364 1725.38,1364.14 1727.33,1364.28 
  1729.29,1364.41 1731.24,1364.55 1733.2,1364.69 1735.15,1364.83 1737.1,1364.97 1739.06,1365.11 1741.01,1365.25 1742.97,1365.39 1744.92,1365.53 1746.88,1365.67 
  1748.83,1365.81 1750.79,1365.95 1752.74,1366.09 1754.7,1366.23 1756.65,1366.37 1758.61,1366.52 1760.56,1366.66 1762.51,1366.8 1764.47,1366.95 1766.42,1367.09 
  1768.38,1367.24 1770.33,1367.38 1772.29,1367.53 1774.24,1367.67 1776.2,1367.82 1778.15,1367.96 1780.11,1368.11 1782.06,1368.26 1784.02,1368.4 1785.97,1368.55 
  1787.92,1368.7 1789.88,1368.85 1791.83,1369 1793.79,1369.14 1795.74,1369.29 1797.7,1369.44 1799.65,1369.59 1801.61,1369.74 1803.56,1369.89 1805.52,1370.04 
  1807.47,1370.2 1809.43,1370.35 1811.38,1370.5 1813.34,1370.65 1815.29,1370.8 1817.24,1370.96 1819.2,1371.11 1821.15,1371.27 1823.11,1371.42 1825.06,1371.57 
  1827.02,1371.73 1828.97,1371.88 1830.93,1372.04 1832.88,1372.2 1834.84,1372.35 1836.79,1372.51 1838.75,1372.67 1840.7,1372.82 1842.65,1372.98 1844.61,1373.14 
  1846.56,1373.3 1848.52,1373.46 1850.47,1373.61 1852.43,1373.77 1854.38,1373.93 1856.34,1374.09 1858.29,1374.25 1860.25,1374.42 1862.2,1374.58 1864.16,1374.74 
  1866.11,1374.9 1868.07,1375.06 1870.02,1375.23 1871.97,1375.39 1873.93,1375.55 1875.88,1375.72 1877.84,1375.88 1879.79,1376.04 1881.75,1376.21 1883.7,1376.37 
  1885.66,1376.54 1887.61,1376.71 1889.57,1376.87 1891.52,1377.04 1893.48,1377.21 1895.43,1377.37 1897.38,1377.54 1899.34,1377.71 1901.29,1377.88 1903.25,1378.05 
  1905.2,1378.22 1907.16,1378.39 1909.11,1378.56 1911.07,1378.73 1913.02,1378.9 1914.98,1379.07 1916.93,1379.24 1918.89,1379.41 1920.84,1379.58 1922.79,1379.76 
  1924.75,1379.93 1926.7,1380.1 1928.66,1380.27 1930.61,1380.45 1932.57,1380.62 1934.52,1380.8 1936.48,1380.97 1938.43,1381.15 1940.39,1381.32 1942.34,1381.5 
  1944.3,1381.68 1946.25,1381.85 1948.21,1382.03 1950.16,1382.21 1952.11,1382.39 1954.07,1382.57 1956.02,1382.74 1957.98,1382.92 1959.93,1383.1 1961.89,1383.28 
  1963.84,1383.46 1965.8,1383.64 1967.75,1383.83 1969.71,1384.01 1971.66,1384.19 1973.62,1384.37 1975.57,1384.55 1977.52,1384.74 1979.48,1384.92 1981.43,1385.1 
  1983.39,1385.29 1985.34,1385.47 1987.3,1385.66 1989.25,1385.84 1991.21,1386.03 1993.16,1386.21 1995.12,1386.4 1997.07,1386.59 1999.03,1386.77 2000.98,1386.96 
  2002.93,1387.15 2004.89,1387.34 2006.84,1387.53 2008.8,1387.71 2010.75,1387.9 2012.71,1388.09 2014.66,1388.28 2016.62,1388.47 2018.57,1388.67 2020.53,1388.86 
  2022.48,1389.05 2024.44,1389.24 2026.39,1389.43 2028.35,1389.63 2030.3,1389.82 2032.25,1390.01 2034.21,1390.21 2036.16,1390.4 2038.12,1390.6 2040.07,1390.79 
  2042.03,1390.99 2043.98,1391.18 2045.94,1391.38 2047.89,1391.57 2049.85,1391.77 2051.8,1391.97 2053.76,1392.17 2055.71,1392.37 2057.66,1392.56 2059.62,1392.76 
  2061.57,1392.96 2063.53,1393.16 2065.48,1393.36 2067.44,1393.56 2069.39,1393.76 2071.35,1393.97 2073.3,1394.17 2075.26,1394.37 2077.21,1394.57 2079.17,1394.77 
  2081.12,1394.98 2083.07,1395.18 2085.03,1395.39 2086.98,1395.59 2088.94,1395.79 2090.89,1396 2092.85,1396.21 2094.8,1396.41 2096.76,1396.62 2098.71,1396.82 
  2100.67,1397.03 2102.62,1397.24 2104.58,1397.45 2106.53,1397.66 2108.49,1397.86 2110.44,1398.07 2112.39,1398.28 2114.35,1398.49 2116.3,1398.7 2118.26,1398.91 
  2120.21,1399.13 2122.17,1399.34 2124.12,1399.55 2126.08,1399.76 2128.03,1399.97 2129.99,1400.19 2131.94,1400.4 2133.9,1400.61 2135.85,1400.83 2137.8,1401.04 
  2139.76,1401.26 2141.71,1401.47 2143.67,1401.69 2145.62,1401.91 2147.58,1402.12 2149.53,1402.34 2151.49,1402.56 2153.44,1402.78 2155.4,1402.99 2157.35,1403.21 
  2159.31,1403.43 2161.26,1403.65 2163.21,1403.87 2165.17,1404.09 2167.12,1404.31 2169.08,1404.53 2171.03,1404.76 2172.99,1404.98 2174.94,1405.2 2176.9,1405.42 
  2178.85,1405.65 2180.81,1405.87 2182.76,1406.09 2184.72,1406.32 2186.67,1406.54 2188.63,1406.77 2190.58,1406.99 2192.53,1407.22 2194.49,1407.45 2196.44,1407.67 
  2198.4,1407.9 2200.35,1408.13 2202.31,1408.36 2204.26,1408.58 2206.22,1408.81 2208.17,1409.04 2210.13,1409.27 2212.08,1409.5 2214.04,1409.73 2215.99,1409.96 
  2217.94,1410.19 2219.9,1410.43 2221.85,1410.66 2223.81,1410.89 2225.76,1411.12 2227.72,1411.36 2229.67,1411.59 2231.63,1411.83 2233.58,1412.06 2235.54,1412.3 
  2237.49,1412.53 2239.45,1412.77 2241.4,1413 2243.35,1413.24 2245.31,1413.48 2247.26,1413.71 2249.22,1413.95 2251.17,1414.19 2253.13,1414.43 2255.08,1414.67 
  2257.04,1414.91 2258.99,1415.15 2260.95,1415.39 2262.9,1415.63 2264.86,1415.87 2266.81,1416.11 2268.77,1416.35 2270.72,1416.6 2272.67,1416.84 2274.63,1417.08 
  2276.58,1417.33 2278.54,1417.57 2280.49,1417.81 2282.45,1418.06 2284.4,1418.31 2286.36,1418.55 2288.31,1418.8 2290.27,1419.04 2292.22,1419.29 2294.18,1419.54 
  
  "/>
<path clip-path="url(#clip2100)" d="
M1886.92 493.644 L2280.76 493.644 L2280.76 130.764 L1886.92 130.764  Z
  " fill="#ffffff" fill-rule="evenodd" fill-opacity="1"/>
<polyline clip-path="url(#clip2100)" style="stroke:#000000; stroke-width:4; stroke-opacity:1; fill:none" points="
  1886.92,493.644 2280.76,493.644 2280.76,130.764 1886.92,130.764 1886.92,493.644 
  "/>
<polyline clip-path="url(#clip2100)" style="stroke:#009af9; stroke-width:4; stroke-opacity:1; fill:none" points="
  1910.92,191.244 2054.92,191.244 
  "/>
<g clip-path="url(#clip2100)">
<text style="fill:#000000; fill-opacity:1; font-family:Arial,Helvetica Neue,Helvetica,sans-serif; font-size:48px; text-anchor:start;" transform="rotate(0, 2078.92, 208.744)" x="2078.92" y="208.744">Rv=2.0</text>
</g>
<polyline clip-path="url(#clip2100)" style="stroke:#e26f46; stroke-width:4; stroke-opacity:1; fill:none" points="
  1910.92,251.724 2054.92,251.724 
  "/>
<g clip-path="url(#clip2100)">
<text style="fill:#000000; fill-opacity:1; font-family:Arial,Helvetica Neue,Helvetica,sans-serif; font-size:48px; text-anchor:start;" transform="rotate(0, 2078.92, 269.224)" x="2078.92" y="269.224">Rv=3.1</text>
</g>
<polyline clip-path="url(#clip2100)" style="stroke:#3da44d; stroke-width:4; stroke-opacity:1; fill:none" points="
  1910.92,312.204 2054.92,312.204 
  "/>
<g clip-path="url(#clip2100)">
<text style="fill:#000000; fill-opacity:1; font-family:Arial,Helvetica Neue,Helvetica,sans-serif; font-size:48px; text-anchor:start;" transform="rotate(0, 2078.92, 329.704)" x="2078.92" y="329.704">Rv=4.0</text>
</g>
<polyline clip-path="url(#clip2100)" style="stroke:#c271d2; stroke-width:4; stroke-opacity:1; fill:none" points="
  1910.92,372.684 2054.92,372.684 
  "/>
<g clip-path="url(#clip2100)">
<text style="fill:#000000; fill-opacity:1; font-family:Arial,Helvetica Neue,Helvetica,sans-serif; font-size:48px; text-anchor:start;" transform="rotate(0, 2078.92, 390.184)" x="2078.92" y="390.184">Rv=5.0</text>
</g>
<polyline clip-path="url(#clip2100)" style="stroke:#ac8d18; stroke-width:4; stroke-opacity:1; fill:none" points="
  1910.92,433.164 2054.92,433.164 
  "/>
<g clip-path="url(#clip2100)">
<text style="fill:#000000; fill-opacity:1; font-family:Arial,Helvetica Neue,Helvetica,sans-serif; font-size:48px; text-anchor:start;" transform="rotate(0, 2078.92, 450.664)" x="2078.92" y="450.664">Rv=6.0</text>
</g>
</svg>
