<?xml version="1.0" encoding="utf-8"?>
<svg xmlns="http://www.w3.org/2000/svg" xmlns:xlink="http://www.w3.org/1999/xlink" width="600" height="400" viewBox="0 0 2400 1600">
<defs>
  <clipPath id="clip2800">
    <rect x="0" y="0" width="2400" height="1600"/>
  </clipPath>
</defs>
<path clip-path="url(#clip2800)" d="
M0 1600 L2400 1600 L2400 0 L0 0  Z
  " fill="#ffffff" fill-rule="evenodd" fill-opacity="1"/>
<defs>
  <clipPath id="clip2801">
    <rect x="480" y="0" width="1681" height="1600"/>
  </clipPath>
</defs>
<path clip-path="url(#clip2800)" d="
M199.505 1459.51 L2352.76 1459.51 L2352.76 47.2441 L199.505 47.2441  Z
  " fill="#ffffff" fill-rule="evenodd" fill-opacity="1"/>
<defs>
  <clipPath id="clip2802">
    <rect x="199" y="47" width="2154" height="1413"/>
  </clipPath>
</defs>
<polyline clip-path="url(#clip2802)" style="stroke:#000000; stroke-width:2; stroke-opacity:0.1; fill:none" points="
  562.991,1459.51 562.991,47.2441 
  "/>
<polyline clip-path="url(#clip2802)" style="stroke:#000000; stroke-width:2; stroke-opacity:0.1; fill:none" points="
  995.197,1459.51 995.197,47.2441 
  "/>
<polyline clip-path="url(#clip2802)" style="stroke:#000000; stroke-width:2; stroke-opacity:0.1; fill:none" points="
  1427.4,1459.51 1427.4,47.2441 
  "/>
<polyline clip-path="url(#clip2802)" style="stroke:#000000; stroke-width:2; stroke-opacity:0.1; fill:none" points="
  1859.61,1459.51 1859.61,47.2441 
  "/>
<polyline clip-path="url(#clip2802)" style="stroke:#000000; stroke-width:2; stroke-opacity:0.1; fill:none" points="
  2291.81,1459.51 2291.81,47.2441 
  "/>
<polyline clip-path="url(#clip2802)" style="stroke:#000000; stroke-width:2; stroke-opacity:0.1; fill:none" points="
  199.505,1243.58 2352.76,1243.58 
  "/>
<polyline clip-path="url(#clip2802)" style="stroke:#000000; stroke-width:2; stroke-opacity:0.1; fill:none" points="
  199.505,883.078 2352.76,883.078 
  "/>
<polyline clip-path="url(#clip2802)" style="stroke:#000000; stroke-width:2; stroke-opacity:0.1; fill:none" points="
  199.505,522.579 2352.76,522.579 
  "/>
<polyline clip-path="url(#clip2802)" style="stroke:#000000; stroke-width:2; stroke-opacity:0.1; fill:none" points="
  199.505,162.08 2352.76,162.08 
  "/>
<polyline clip-path="url(#clip2800)" style="stroke:#000000; stroke-width:4; stroke-opacity:1; fill:none" points="
  199.505,1459.51 2352.76,1459.51 
  "/>
<polyline clip-path="url(#clip2800)" style="stroke:#000000; stroke-width:4; stroke-opacity:1; fill:none" points="
  199.505,1459.51 199.505,47.2441 
  "/>
<polyline clip-path="url(#clip2800)" style="stroke:#000000; stroke-width:4; stroke-opacity:1; fill:none" points="
  562.991,1459.51 562.991,1442.56 
  "/>
<polyline clip-path="url(#clip2800)" style="stroke:#000000; stroke-width:4; stroke-opacity:1; fill:none" points="
  995.197,1459.51 995.197,1442.56 
  "/>
<polyline clip-path="url(#clip2800)" style="stroke:#000000; stroke-width:4; stroke-opacity:1; fill:none" points="
  1427.4,1459.51 1427.4,1442.56 
  "/>
<polyline clip-path="url(#clip2800)" style="stroke:#000000; stroke-width:4; stroke-opacity:1; fill:none" points="
  1859.61,1459.51 1859.61,1442.56 
  "/>
<polyline clip-path="url(#clip2800)" style="stroke:#000000; stroke-width:4; stroke-opacity:1; fill:none" points="
  2291.81,1459.51 2291.81,1442.56 
  "/>
<polyline clip-path="url(#clip2800)" style="stroke:#000000; stroke-width:4; stroke-opacity:1; fill:none" points="
  199.505,1243.58 225.344,1243.58 
  "/>
<polyline clip-path="url(#clip2800)" style="stroke:#000000; stroke-width:4; stroke-opacity:1; fill:none" points="
  199.505,883.078 225.344,883.078 
  "/>
<polyline clip-path="url(#clip2800)" style="stroke:#000000; stroke-width:4; stroke-opacity:1; fill:none" points="
  199.505,522.579 225.344,522.579 
  "/>
<polyline clip-path="url(#clip2800)" style="stroke:#000000; stroke-width:4; stroke-opacity:1; fill:none" points="
  199.505,162.08 225.344,162.08 
  "/>
<g clip-path="url(#clip2800)">
<text style="fill:#000000; fill-opacity:1; font-family:Arial,Helvetica Neue,Helvetica,sans-serif; font-size:48px; text-anchor:middle;" transform="rotate(0, 562.991, 1513.51)" x="562.991" y="1513.51">4</text>
</g>
<g clip-path="url(#clip2800)">
<text style="fill:#000000; fill-opacity:1; font-family:Arial,Helvetica Neue,Helvetica,sans-serif; font-size:48px; text-anchor:middle;" transform="rotate(0, 995.197, 1513.51)" x="995.197" y="1513.51">5</text>
</g>
<g clip-path="url(#clip2800)">
<text style="fill:#000000; fill-opacity:1; font-family:Arial,Helvetica Neue,Helvetica,sans-serif; font-size:48px; text-anchor:middle;" transform="rotate(0, 1427.4, 1513.51)" x="1427.4" y="1513.51">6</text>
</g>
<g clip-path="url(#clip2800)">
<text style="fill:#000000; fill-opacity:1; font-family:Arial,Helvetica Neue,Helvetica,sans-serif; font-size:48px; text-anchor:middle;" transform="rotate(0, 1859.61, 1513.51)" x="1859.61" y="1513.51">7</text>
</g>
<g clip-path="url(#clip2800)">
<text style="fill:#000000; fill-opacity:1; font-family:Arial,Helvetica Neue,Helvetica,sans-serif; font-size:48px; text-anchor:middle;" transform="rotate(0, 2291.81, 1513.51)" x="2291.81" y="1513.51">8</text>
</g>
<g clip-path="url(#clip2800)">
<text style="fill:#000000; fill-opacity:1; font-family:Arial,Helvetica Neue,Helvetica,sans-serif; font-size:48px; text-anchor:end;" transform="rotate(0, 175.505, 1261.08)" x="175.505" y="1261.08">2</text>
</g>
<g clip-path="url(#clip2800)">
<text style="fill:#000000; fill-opacity:1; font-family:Arial,Helvetica Neue,Helvetica,sans-serif; font-size:48px; text-anchor:end;" transform="rotate(0, 175.505, 900.578)" x="175.505" y="900.578">3</text>
</g>
<g clip-path="url(#clip2800)">
<text style="fill:#000000; fill-opacity:1; font-family:Arial,Helvetica Neue,Helvetica,sans-serif; font-size:48px; text-anchor:end;" transform="rotate(0, 175.505, 540.079)" x="175.505" y="540.079">4</text>
</g>
<g clip-path="url(#clip2800)">
<text style="fill:#000000; fill-opacity:1; font-family:Arial,Helvetica Neue,Helvetica,sans-serif; font-size:48px; text-anchor:end;" transform="rotate(0, 175.505, 179.58)" x="175.505" y="179.58">5</text>
</g>
<g clip-path="url(#clip2800)">
<text style="fill:#000000; fill-opacity:1; font-family:Arial,Helvetica Neue,Helvetica,sans-serif; font-size:66px; text-anchor:middle;" transform="rotate(-90, 113.181, 753.376)" x="113.181" y="753.376">E(B-V)</text>
</g>
<polyline clip-path="url(#clip2802)" style="stroke:#009af9; stroke-width:4; stroke-opacity:1; fill:none" points="
  260.446,1076.52 262.48,1075.16 264.513,1073.8 266.547,1072.43 268.58,1071.06 270.613,1069.68 272.647,1068.3 274.68,1066.91 276.714,1065.51 278.747,1064.11 
  280.78,1062.71 282.814,1061.3 284.847,1059.88 286.881,1058.46 288.914,1057.03 290.947,1055.6 292.981,1054.16 295.014,1052.72 297.048,1051.27 299.081,1049.81 
  301.114,1048.34 303.148,1046.87 305.181,1045.4 307.215,1043.92 309.248,1042.43 311.281,1040.93 313.315,1039.43 315.348,1037.92 317.382,1036.4 319.415,1034.88 
  321.448,1033.35 323.482,1031.81 325.515,1030.27 327.549,1028.72 329.582,1027.16 331.615,1025.59 333.649,1024.01 335.682,1022.43 337.716,1020.84 339.749,1019.25 
  341.782,1017.64 343.816,1016.03 345.849,1014.4 347.883,1012.77 349.916,1011.14 351.949,1009.49 353.983,1007.83 356.016,1006.17 358.05,1004.49 360.083,1002.81 
  362.116,1001.12 364.15,999.421 366.183,997.711 368.217,995.992 370.25,994.264 372.283,992.526 374.317,990.778 376.35,989.02 378.384,987.252 380.417,985.474 
  382.45,983.686 384.484,981.887 386.517,980.078 388.551,978.258 390.584,976.427 392.617,974.585 394.651,972.732 396.684,970.868 398.718,968.993 400.751,967.106 
  402.784,965.207 404.818,963.296 406.851,961.374 408.885,959.439 410.918,957.492 412.951,955.533 414.985,953.56 417.018,951.576 419.052,949.578 421.085,947.567 
  423.118,945.542 425.152,943.505 427.185,941.453 429.219,939.388 431.252,937.309 433.285,935.215 435.319,933.108 437.352,930.985 439.386,928.848 441.419,926.696 
  443.453,924.529 445.486,922.347 447.519,920.149 449.553,917.935 451.586,915.706 453.62,913.46 455.653,911.198 457.686,908.92 459.72,906.625 461.753,904.313 
  463.787,901.983 465.82,899.637 467.853,897.273 469.887,894.891 471.92,892.49 473.954,890.072 475.987,887.635 478.02,885.18 480.054,882.706 482.087,880.212 
  484.121,877.699 486.154,875.166 488.187,872.614 490.221,870.041 492.254,867.449 494.288,864.835 496.321,862.201 498.354,859.545 500.388,856.868 502.421,854.17 
  504.455,851.45 506.488,848.708 508.521,845.943 510.555,843.156 512.588,840.346 514.622,837.513 516.655,834.656 518.688,831.776 520.722,828.873 522.755,825.945 
  524.789,822.992 526.822,820.015 528.855,817.014 530.889,813.987 532.922,810.934 534.956,807.856 536.989,804.753 539.022,801.623 541.056,798.466 543.089,795.283 
  545.123,792.073 547.156,788.837 549.189,785.572 551.223,782.28 553.256,778.961 555.29,775.613 557.323,772.237 559.356,768.833 561.39,765.399 563.423,761.937 
  565.457,758.446 567.49,754.925 569.523,751.375 571.557,747.796 573.59,744.186 575.624,740.546 577.657,736.876 579.69,733.176 581.724,729.445 583.757,725.684 
  585.791,721.892 587.824,718.069 589.857,714.215 591.891,710.329 593.924,706.413 595.958,702.466 597.991,698.487 600.024,694.477 602.058,690.436 604.091,686.363 
  606.125,682.259 608.158,678.124 610.191,673.957 612.225,669.76 614.258,665.531 616.292,661.272 618.325,656.981 620.358,652.66 622.392,648.309 624.425,643.928 
  626.459,639.516 628.492,635.075 630.525,630.604 632.559,626.104 634.592,621.576 636.626,617.019 638.659,612.434 640.692,607.822 642.726,603.183 644.759,598.517 
  646.793,593.826 648.826,589.109 650.86,584.367 652.893,579.602 654.926,574.813 656.96,570.002 658.993,565.169 661.027,560.315 663.06,555.441 665.093,550.548 
  667.127,545.637 669.16,540.709 671.194,535.765 673.227,530.806 675.26,525.834 677.294,520.849 679.327,515.853 681.361,510.848 683.394,505.834 685.427,500.813 
  687.461,495.787 689.494,490.756 691.528,485.724 693.561,480.691 695.594,475.658 697.628,470.629 699.661,465.605 701.695,460.587 703.728,455.577 705.761,450.578 
  707.795,445.591 709.828,440.619 711.862,435.663 713.895,430.726 715.928,425.811 717.962,420.918 719.995,416.052 722.029,411.213 724.062,406.405 726.095,401.629 
  728.129,396.889 730.162,392.186 732.196,387.524 734.229,382.904 736.262,378.33 738.296,373.804 740.329,369.329 742.363,364.907 744.396,360.54 746.429,356.233 
  748.463,351.986 750.496,347.803 752.53,343.687 754.563,339.64 756.596,335.664 758.63,331.763 760.663,327.939 762.697,324.194 764.73,320.531 766.763,316.952 
  768.797,313.461 770.83,310.058 772.864,306.747 774.897,303.53 776.93,300.408 778.964,297.385 780.997,294.462 783.031,291.642 785.064,288.925 787.097,286.314 
  789.131,283.811 791.164,281.417 793.198,279.134 795.231,276.963 797.264,274.906 799.298,272.964 801.331,271.138 803.365,269.428 805.398,267.836 807.431,266.363 
  809.465,265.009 811.498,263.775 813.532,262.661 815.565,261.668 817.598,260.795 819.632,260.043 821.665,259.411 823.699,258.9 825.732,258.508 827.765,258.236 
  829.799,258.083 831.832,258.048 833.866,258.13 835.899,258.329 837.932,258.643 839.966,259.071 841.999,259.612 844.033,260.264 846.066,261.026 848.099,261.897 
  850.133,262.874 852.166,263.957 854.2,265.142 856.233,266.428 858.266,267.814 860.3,269.296 862.333,270.873 864.367,272.543 866.4,274.303 868.434,276.151 
  870.467,278.084 872.5,280.101 874.534,282.198 876.567,284.373 878.601,286.624 880.634,288.948 882.667,291.342 884.701,293.804 886.734,296.331 888.768,298.921 
  890.801,301.57 892.834,304.277 894.868,307.038 896.901,309.852 898.935,312.715 900.968,315.624 903.001,318.578 905.035,321.574 907.068,324.609 909.102,327.68 
  911.135,330.786 913.168,333.924 915.202,337.091 917.235,340.285 919.269,343.504 921.302,346.745 923.335,350.007 925.369,353.287 927.402,356.582 929.436,359.892 
  931.469,363.213 933.502,366.545 935.536,369.884 937.569,373.229 939.603,376.579 941.636,379.931 943.669,383.283 945.703,386.635 947.736,389.984 949.77,393.329 
  951.803,396.669 953.836,400.001 955.87,403.325 957.903,406.638 959.937,409.941 961.97,413.232 964.003,416.508 966.037,419.77 968.07,423.016 970.104,426.245 
  972.137,429.457 974.17,432.649 976.204,435.822 978.237,438.974 980.271,442.104 982.304,445.212 984.337,448.298 986.371,451.359 988.404,454.396 990.438,457.409 
  992.471,460.395 994.504,463.356 996.538,466.29 998.571,469.197 1000.6,472.076 1002.64,474.928 1004.67,477.751 1006.7,480.546 1008.74,483.312 1010.77,486.048 
  1012.81,488.755 1014.84,491.432 1016.87,494.08 1018.91,496.697 1020.94,499.284 1022.97,501.84 1025.01,504.366 1027.04,506.862 1029.07,509.327 1031.11,511.761 
  1033.14,514.164 1035.17,516.536 1037.21,518.878 1039.24,521.189 1041.27,523.469 1043.31,525.719 1045.34,527.938 1047.37,530.126 1049.41,532.284 1051.44,534.411 
  1053.47,536.509 1055.51,538.576 1057.54,540.613 1059.57,542.62 1061.61,544.598 1063.64,546.546 1065.67,548.464 1067.71,550.353 1069.74,552.214 1071.77,554.045 
  1073.81,555.848 1075.84,557.622 1077.87,559.368 1079.91,561.086 1081.94,562.776 1083.97,564.439 1086.01,566.074 1088.04,567.682 1090.07,569.263 1092.11,570.817 
  1094.14,572.345 1096.17,573.846 1098.21,575.322 1100.24,576.772 1102.27,578.196 1104.31,579.595 1106.34,580.969 1108.37,582.318 1110.41,583.643 1112.44,584.943 
  1114.48,586.219 1116.51,587.472 1118.54,588.701 1120.58,589.906 1122.61,591.089 1124.64,592.249 1126.68,593.386 1128.71,594.501 1130.74,595.594 1132.78,596.665 
  1134.81,597.714 1136.84,598.742 1138.88,599.749 1140.91,600.735 1142.94,601.701 1144.98,602.646 1147.01,603.571 1149.04,604.476 1151.08,605.361 1153.11,606.227 
  1155.14,607.074 1157.18,607.902 1159.21,608.711 1161.24,609.501 1163.28,610.273 1165.31,611.027 1167.34,611.764 1169.38,612.482 1171.41,613.183 1173.44,613.867 
  1175.48,614.534 1177.51,615.184 1179.54,615.817 1181.58,616.434 1183.61,617.035 1185.64,617.62 1187.68,618.189 1189.71,618.742 1191.74,619.28 1193.78,619.803 
  1195.81,620.311 1197.84,620.804 1199.88,621.282 1201.91,621.746 1203.94,622.196 1205.98,622.631 1208.01,623.052 1210.05,623.46 1212.08,623.854 1214.11,624.235 
  1216.15,624.603 1218.18,624.957 1220.21,625.299 1222.25,625.627 1224.28,625.944 1226.31,626.247 1228.35,626.539 1230.38,626.818 1232.41,627.086 1234.45,627.341 
  1236.48,627.585 1238.51,627.817 1240.55,628.039 1242.58,628.248 1244.61,628.447 1246.65,628.635 1248.68,628.812 1250.71,628.978 1252.75,629.134 1254.78,629.279 
  1256.81,629.414 1258.85,629.539 1260.88,629.654 1262.91,629.759 1264.95,629.855 1266.98,629.94 1269.01,630.016 1271.05,630.083 1273.08,630.141 1275.11,630.189 
  1277.15,630.228 1279.18,630.258 1281.21,630.28 1283.25,630.293 1285.28,630.297 1287.31,630.292 1289.35,630.279 1291.38,630.258 1293.41,630.229 1295.45,630.192 
  1297.48,630.146 1299.51,630.093 1301.55,630.032 1303.58,629.963 1305.61,629.887 1307.65,629.803 1309.68,629.712 1311.72,629.613 1313.75,629.507 1315.78,629.394 
  1317.82,629.274 1319.85,629.147 1321.88,629.013 1323.92,628.873 1325.95,628.725 1327.98,628.571 1330.02,628.41 1332.05,628.243 1334.08,628.07 1336.12,627.89 
  1338.15,627.704 1340.18,627.511 1342.22,627.313 1344.25,627.108 1346.28,626.898 1348.32,626.682 1350.35,626.46 1352.38,626.232 1354.42,625.998 1356.45,625.759 
  1358.48,625.514 1360.52,625.264 1362.55,625.008 1364.58,624.747 1366.62,624.481 1368.65,624.21 1370.68,623.933 1372.72,623.651 1374.75,623.364 1376.78,623.073 
  1378.82,622.776 1380.85,622.474 1382.88,622.168 1384.92,621.857 1386.95,621.539 1388.98,621.216 1391.02,620.886 1393.05,620.551 1395.08,620.209 1397.12,619.861 
  1399.15,619.508 1401.18,619.148 1403.22,618.783 1405.25,618.412 1407.29,618.035 1409.32,617.652 1411.35,617.264 1413.39,616.87 1415.42,616.47 1417.45,616.065 
  1419.49,615.654 1421.52,615.238 1423.55,614.816 1425.59,614.389 1427.62,613.956 1429.65,613.519 1431.69,613.075 1433.72,612.627 1435.75,612.173 1437.79,611.714 
  1439.82,611.25 1441.85,610.781 1443.89,610.307 1445.92,609.827 1447.95,609.343 1449.99,608.853 1452.02,608.359 1454.05,607.859 1456.09,607.355 1458.12,606.846 
  1460.15,606.332 1462.19,605.813 1464.22,605.289 1466.25,604.76 1468.29,604.227 1470.32,603.689 1472.35,603.146 1474.39,602.599 1476.42,602.047 1478.45,601.49 
  1480.49,600.929 1482.52,600.363 1484.55,599.792 1486.59,599.217 1488.62,598.638 1490.65,598.054 1492.69,597.465 1494.72,596.873 1496.75,596.275 1498.79,595.674 
  1500.82,595.067 1502.85,594.457 1504.89,593.842 1506.92,593.223 1508.96,592.6 1510.99,591.972 1513.02,591.34 1515.06,590.704 1517.09,590.063 1519.12,589.419 
  1521.16,588.77 1523.19,588.117 1525.22,587.46 1527.26,586.799 1529.29,586.133 1531.32,585.464 1533.36,584.79 1535.39,584.113 1537.42,583.431 1539.46,582.745 
  1541.49,582.056 1543.52,581.362 1545.56,580.664 1547.59,579.962 1549.62,579.257 1551.66,578.547 1553.69,577.834 1555.72,577.116 1557.76,576.395 1559.79,575.67 
  1561.82,574.94 1563.86,574.207 1565.89,573.471 1567.92,572.73 1569.96,571.985 1571.99,571.237 1574.02,570.485 1576.06,569.729 1578.09,568.969 1580.12,568.206 
  1582.16,567.438 1584.19,566.667 1586.22,565.892 1588.26,565.114 1590.29,564.332 1592.32,563.546 1594.36,562.756 1596.39,561.963 1598.42,561.166 1600.46,560.365 
  1602.49,559.561 1604.53,558.753 1606.56,557.941 1608.59,557.126 1610.63,556.307 1612.66,555.484 1614.69,554.658 1616.73,553.828 1618.76,552.995 1620.79,552.158 
  1622.83,551.318 1624.86,550.473 1626.89,549.626 1628.93,548.775 1630.96,547.92 1632.99,547.061 1635.03,546.2 1637.06,545.334 1639.09,544.465 1641.13,543.593 
  1643.16,542.717 1645.19,541.838 1647.23,540.955 1649.26,540.068 1651.29,539.178 1653.33,538.285 1655.36,537.388 1657.39,536.487 1659.43,535.584 1661.46,534.676 
  1663.49,533.766 1665.53,532.851 1667.56,531.934 1669.59,531.013 1671.63,530.088 1673.66,529.16 1675.69,528.229 1677.73,527.294 1679.76,526.356 1681.79,525.414 
  1683.83,524.469 1685.86,523.52 1687.89,522.569 1689.93,521.613 1691.96,520.655 1693.99,519.692 1696.03,518.727 1698.06,517.758 1700.09,516.786 1702.13,515.81 
  1704.16,514.831 1706.2,513.849 1708.23,512.863 1710.26,511.874 1712.3,510.881 1714.33,509.885 1716.36,508.886 1718.4,507.884 1720.43,506.878 1722.46,505.868 
  1724.5,504.856 1726.53,503.84 1728.56,502.82 1730.6,501.798 1732.63,500.772 1734.66,499.742 1736.7,498.709 1738.73,497.673 1740.76,496.634 1742.8,495.591 
  1744.83,494.545 1746.86,493.496 1748.9,492.443 1750.93,491.387 1752.96,490.327 1755,489.264 1757.03,488.198 1759.06,487.129 1761.1,486.056 1763.13,484.98 
  1765.16,483.901 1767.2,482.818 1769.23,481.732 1771.26,480.643 1773.3,479.55 1775.33,478.454 1777.36,477.354 1779.4,476.252 1781.43,475.146 1783.46,474.036 
  1785.5,472.924 1787.53,471.808 1789.56,470.689 1791.6,469.566 1793.63,468.44 1795.66,467.311 1797.7,466.178 1799.73,465.042 1801.76,463.903 1803.8,462.761 
  1805.83,461.615 1807.87,460.466 1809.9,459.313 1811.93,458.157 1813.97,456.998 1816,455.836 1818.03,454.67 1820.07,453.501 1822.1,452.328 1824.13,451.152 
  1826.17,449.973 1828.2,448.791 1830.23,447.605 1832.27,446.416 1834.3,445.223 1836.33,444.028 1838.37,442.829 1840.4,441.626 1842.43,440.42 1844.47,439.211 
  1846.5,437.999 1848.53,436.783 1850.57,435.564 1852.6,434.341 1854.63,433.115 1856.67,431.886 1858.7,430.654 1860.73,429.418 1862.77,428.179 1864.8,426.936 
  1866.83,425.69 1868.87,424.441 1870.9,423.188 1872.93,421.932 1874.97,420.673 1877,419.41 1879.03,418.144 1881.07,416.875 1883.1,415.602 1885.13,414.325 
  1887.17,413.046 1889.2,411.763 1891.23,410.477 1893.27,409.187 1895.3,407.894 1897.33,406.597 1899.37,405.298 1901.4,403.994 1903.44,402.688 1905.47,401.378 
  1907.5,400.064 1909.54,398.747 1911.57,397.427 1913.6,396.104 1915.64,394.777 1917.67,393.446 1919.7,392.112 1921.74,390.775 1923.77,389.435 1925.8,388.091 
  1927.84,386.743 1929.87,385.392 1931.9,384.038 1933.94,382.68 1935.97,381.319 1938,379.954 1940.04,378.586 1942.07,377.215 1944.1,375.84 1946.14,374.462 
  1948.17,373.08 1950.2,371.695 1952.24,370.306 1954.27,368.914 1956.3,367.518 1958.34,366.119 1960.37,364.717 1962.4,363.311 1964.44,361.901 1966.47,360.489 
  1968.5,359.072 1970.54,357.652 1972.57,356.229 1974.6,354.802 1976.64,353.372 1978.67,351.938 1980.7,350.501 1982.74,349.06 1984.77,347.616 1986.8,346.168 
  1988.84,344.717 1990.87,343.262 1992.9,341.804 1994.94,340.342 1996.97,338.877 1999,337.408 2001.04,335.935 2003.07,334.46 2005.11,332.98 2007.14,331.497 
  2009.17,330.011 2011.21,328.521 2013.24,327.027 2015.27,325.53 2017.31,324.029 2019.34,322.525 2021.37,321.017 2023.41,319.506 2025.44,317.991 2027.47,316.473 
  2029.51,314.951 2031.54,313.425 2033.57,311.896 2035.61,310.363 2037.64,308.827 2039.67,307.287 2041.71,305.743 2043.74,304.196 2045.77,302.645 2047.81,301.091 
  2049.84,299.533 2051.87,297.971 2053.91,296.406 2055.94,294.837 2057.97,293.265 2060.01,291.689 2062.04,290.109 2064.07,288.526 2066.11,286.939 2068.14,285.349 
  2070.17,283.754 2072.21,282.156 2074.24,280.555 2076.27,278.95 2078.31,277.341 2080.34,275.728 2082.37,274.112 2084.41,272.492 2086.44,270.869 2088.47,269.242 
  2090.51,267.611 2092.54,265.976 2094.57,264.338 2096.61,262.696 2098.64,261.05 2100.68,259.401 2102.71,257.748 2104.74,256.091 2106.78,254.43 2108.81,252.766 
  2110.84,251.098 2112.88,249.427 2114.91,247.751 2116.94,246.072 2118.98,244.389 2121.01,242.703 2123.04,241.012 2125.08,239.318 2127.11,237.62 2129.14,235.918 
  2131.18,234.213 2133.21,232.504 2135.24,230.791 2137.28,229.074 2139.31,227.354 2141.34,225.629 2143.38,223.901 2145.41,222.169 2147.44,220.434 2149.48,218.694 
  2151.51,216.951 2153.54,215.204 2155.58,213.453 2157.61,211.698 2159.64,209.939 2161.68,208.177 2163.71,206.411 2165.74,204.641 2167.78,202.867 2169.81,201.089 
  2171.84,199.307 2173.88,197.522 2175.91,195.732 2177.94,193.939 2179.98,192.142 2182.01,190.341 2184.04,188.536 2186.08,186.728 2188.11,184.915 2190.14,183.099 
  2192.18,181.278 2194.21,179.454 2196.24,177.626 2198.28,175.794 2200.31,173.958 2202.35,172.118 2204.38,170.274 2206.41,168.426 2208.45,166.574 2210.48,164.719 
  2212.51,162.859 2214.55,160.996 2216.58,159.128 2218.61,157.257 2220.65,155.381 2222.68,153.502 2224.71,151.619 2226.75,149.732 2228.78,147.84 2230.81,145.945 
  2232.85,144.046 2234.88,142.143 2236.91,140.235 2238.95,138.324 2240.98,136.409 2243.01,134.49 2245.05,132.566 2247.08,130.639 2249.11,128.708 2251.15,126.773 
  2253.18,124.833 2255.21,122.89 2257.25,120.943 2259.28,118.991 2261.31,117.036 2263.35,115.076 2265.38,113.112 2267.41,111.145 2269.45,109.173 2271.48,107.197 
  2273.51,105.217 2275.55,103.233 2277.58,101.245 2279.61,99.253 2281.65,97.2568 2283.68,95.2564 2285.71,93.2519 2287.75,91.2434 2289.78,89.2307 2291.81,87.2138 
  
  "/>
<polyline clip-path="url(#clip2802)" style="stroke:#e26f46; stroke-width:4; stroke-opacity:1; fill:none" points="
  260.446,1259.09 262.48,1258.39 264.513,1257.69 266.547,1256.98 268.58,1256.27 270.613,1255.55 272.647,1254.84 274.68,1254.11 276.714,1253.39 278.747,1252.67 
  280.78,1251.94 282.814,1251.2 284.847,1250.47 286.881,1249.73 288.914,1248.98 290.947,1248.24 292.981,1247.49 295.014,1246.73 297.048,1245.98 299.081,1245.22 
  301.114,1244.45 303.148,1243.68 305.181,1242.91 307.215,1242.14 309.248,1241.36 311.281,1240.58 313.315,1239.79 315.348,1239 317.382,1238.2 319.415,1237.4 
  321.448,1236.6 323.482,1235.79 325.515,1234.98 327.549,1234.16 329.582,1233.34 331.615,1232.52 333.649,1231.69 335.682,1230.86 337.716,1230.02 339.749,1229.17 
  341.782,1228.33 343.816,1227.47 345.849,1226.62 347.883,1225.75 349.916,1224.89 351.949,1224.02 353.983,1223.14 356.016,1222.26 358.05,1221.37 360.083,1220.47 
  362.116,1219.58 364.15,1218.67 366.183,1217.76 368.217,1216.85 370.25,1215.93 372.283,1215 374.317,1214.07 376.35,1213.13 378.384,1212.19 380.417,1211.24 
  382.45,1210.28 384.484,1209.32 386.517,1208.35 388.551,1207.37 390.584,1206.39 392.617,1205.4 394.651,1204.41 396.684,1203.41 398.718,1202.4 400.751,1201.38 
  402.784,1200.36 404.818,1199.33 406.851,1198.29 408.885,1197.25 410.918,1196.2 412.951,1195.14 414.985,1194.07 417.018,1193 419.052,1191.92 421.085,1190.83 
  423.118,1189.73 425.152,1188.62 427.185,1187.51 429.219,1186.38 431.252,1185.25 433.285,1184.11 435.319,1182.96 437.352,1181.81 439.386,1180.64 441.419,1179.47 
  443.453,1178.28 445.486,1177.09 447.519,1175.88 449.553,1174.67 451.586,1173.45 453.62,1172.22 455.653,1170.97 457.686,1169.72 459.72,1168.46 461.753,1167.19 
  463.787,1165.9 465.82,1164.61 467.853,1163.3 469.887,1161.99 471.92,1160.66 473.954,1159.32 475.987,1157.97 478.02,1156.61 480.054,1155.24 482.087,1153.86 
  484.121,1152.46 486.154,1151.05 488.187,1149.63 490.221,1148.2 492.254,1146.76 494.288,1145.3 496.321,1143.83 498.354,1142.34 500.388,1140.85 502.421,1139.34 
  504.455,1137.81 506.488,1136.27 508.521,1134.72 510.555,1133.16 512.588,1131.58 514.622,1129.98 516.655,1128.38 518.688,1126.75 520.722,1125.12 522.755,1123.46 
  524.789,1121.8 526.822,1120.11 528.855,1118.41 530.889,1116.7 532.922,1114.97 534.956,1113.22 536.989,1111.46 539.022,1109.68 541.056,1107.89 543.089,1106.07 
  545.123,1104.25 547.156,1102.4 549.189,1100.54 551.223,1098.66 553.256,1096.76 555.29,1094.84 557.323,1092.91 559.356,1090.96 561.39,1088.99 563.423,1087 
  565.457,1085 567.49,1082.97 569.523,1080.93 571.557,1078.87 573.59,1076.79 575.624,1074.69 577.657,1072.57 579.69,1070.43 581.724,1068.27 583.757,1066.1 
  585.791,1063.9 587.824,1061.68 589.857,1059.45 591.891,1057.19 593.924,1054.92 595.958,1052.62 597.991,1050.3 600.024,1047.97 602.058,1045.61 604.091,1043.24 
  606.125,1040.84 608.158,1038.43 610.191,1035.99 612.225,1033.54 614.258,1031.06 616.292,1028.56 618.325,1026.05 620.358,1023.51 622.392,1020.96 624.425,1018.38 
  626.459,1015.79 628.492,1013.18 630.525,1010.54 632.559,1007.89 634.592,1005.22 636.626,1002.53 638.659,999.827 640.692,997.103 642.726,994.36 644.759,991.6 
  646.793,988.823 648.826,986.03 650.86,983.22 652.893,980.394 654.926,977.553 656.96,974.696 658.993,971.826 661.027,968.941 663.06,966.042 665.093,963.131 
  667.127,960.208 669.16,957.272 671.194,954.326 673.227,951.37 675.26,948.404 677.294,945.429 679.327,942.446 681.361,939.456 683.394,936.46 685.427,933.458 
  687.461,930.452 689.494,927.442 691.528,924.43 693.561,921.416 695.594,918.402 697.628,915.388 699.661,912.377 701.695,909.368 703.728,906.363 705.761,903.364 
  707.795,900.372 709.828,897.388 711.862,894.413 713.895,891.449 715.928,888.496 717.962,885.558 719.995,882.634 722.029,879.727 724.062,876.838 726.095,873.969 
  728.129,871.12 730.162,868.295 732.196,865.493 734.229,862.717 736.262,859.969 738.296,857.25 740.329,854.562 742.363,851.907 744.396,849.285 746.429,846.7 
  748.463,844.151 750.496,841.643 752.53,839.175 754.563,836.749 756.596,834.368 758.63,832.032 760.663,829.744 762.697,827.506 764.73,825.317 766.763,823.182 
  768.797,821.1 770.83,819.073 772.864,817.103 774.897,815.191 776.93,813.339 778.964,811.549 780.997,809.82 783.031,808.155 785.064,806.555 787.097,805.021 
  789.131,803.554 791.164,802.155 793.198,800.826 795.231,799.566 797.264,798.378 799.298,797.261 801.331,796.216 803.365,795.245 805.398,794.347 807.431,793.524 
  809.465,792.775 811.498,792.1 813.532,791.501 815.565,790.978 817.598,790.53 819.632,790.157 821.665,789.86 823.699,789.638 825.732,789.491 827.765,789.418 
  829.799,789.421 831.832,789.497 833.866,789.646 835.899,789.869 837.932,790.163 839.966,790.529 841.999,790.966 844.033,791.472 846.066,792.047 848.099,792.69 
  850.133,793.399 852.166,794.175 854.2,795.014 856.233,795.917 858.266,796.881 860.3,797.906 862.333,798.991 864.367,800.133 866.4,801.331 868.434,802.584 
  870.467,803.891 872.5,805.249 874.534,806.658 876.567,808.115 878.601,809.619 880.634,811.168 882.667,812.761 884.701,814.397 886.734,816.072 888.768,817.787 
  890.801,819.538 892.834,821.325 894.868,823.146 896.901,824.999 898.935,826.882 900.968,828.794 903.001,830.733 905.035,832.698 907.068,834.687 909.102,836.699 
  911.135,838.731 913.168,840.783 915.202,842.852 917.235,844.938 919.269,847.039 921.302,849.153 923.335,851.279 925.369,853.416 927.402,855.563 929.436,857.717 
  931.469,859.878 933.502,862.045 935.536,864.216 937.569,866.39 939.603,868.566 941.636,870.743 943.669,872.92 945.703,875.096 947.736,877.269 949.77,879.439 
  951.803,881.605 953.836,883.766 955.87,885.92 957.903,888.068 959.937,890.209 961.97,892.341 964.003,894.464 966.037,896.576 968.07,898.679 970.104,900.77 
  972.137,902.849 974.17,904.916 976.204,906.97 978.237,909.011 980.271,911.037 982.304,913.049 984.337,915.046 986.371,917.028 988.404,918.994 990.438,920.944 
  992.471,922.877 994.504,924.794 996.538,926.693 998.571,928.575 1000.6,930.439 1002.64,932.285 1004.67,934.114 1006.7,935.924 1008.74,937.715 1010.77,939.487 
  1012.81,941.241 1014.84,942.976 1016.87,944.692 1018.91,946.388 1020.94,948.066 1022.97,949.723 1025.01,951.362 1027.04,952.981 1029.07,954.581 1031.11,956.161 
  1033.14,957.721 1035.17,959.262 1037.21,960.784 1039.24,962.286 1041.27,963.768 1043.31,965.231 1045.34,966.675 1047.37,968.1 1049.41,969.505 1051.44,970.891 
  1053.47,972.258 1055.51,973.606 1057.54,974.935 1059.57,976.246 1061.61,977.537 1063.64,978.81 1065.67,980.065 1067.71,981.301 1069.74,982.519 1071.77,983.719 
  1073.81,984.901 1075.84,986.065 1077.87,987.211 1079.91,988.34 1081.94,989.452 1083.97,990.546 1086.01,991.623 1088.04,992.683 1090.07,993.726 1092.11,994.752 
  1094.14,995.762 1096.17,996.756 1098.21,997.733 1100.24,998.695 1102.27,999.64 1104.31,1000.57 1106.34,1001.48 1108.37,1002.38 1110.41,1003.27 1112.44,1004.13 
  1114.48,1004.99 1116.51,1005.83 1118.54,1006.65 1120.58,1007.46 1122.61,1008.26 1124.64,1009.04 1126.68,1009.8 1128.71,1010.56 1130.74,1011.3 1132.78,1012.02 
  1134.81,1012.74 1136.84,1013.44 1138.88,1014.12 1140.91,1014.8 1142.94,1015.46 1144.98,1016.11 1147.01,1016.74 1149.04,1017.37 1151.08,1017.98 1153.11,1018.58 
  1155.14,1019.17 1157.18,1019.75 1159.21,1020.31 1161.24,1020.86 1163.28,1021.41 1165.31,1021.94 1167.34,1022.46 1169.38,1022.97 1171.41,1023.47 1173.44,1023.95 
  1175.48,1024.43 1177.51,1024.9 1179.54,1025.36 1181.58,1025.8 1183.61,1026.24 1185.64,1026.67 1187.68,1027.09 1189.71,1027.5 1191.74,1027.9 1193.78,1028.29 
  1195.81,1028.67 1197.84,1029.04 1199.88,1029.4 1201.91,1029.75 1203.94,1030.1 1205.98,1030.44 1208.01,1030.77 1210.05,1031.09 1212.08,1031.4 1214.11,1031.7 
  1216.15,1032 1218.18,1032.28 1220.21,1032.56 1222.25,1032.84 1224.28,1033.1 1226.31,1033.36 1228.35,1033.61 1230.38,1033.85 1232.41,1034.08 1234.45,1034.31 
  1236.48,1034.53 1238.51,1034.75 1240.55,1034.95 1242.58,1035.15 1244.61,1035.35 1246.65,1035.53 1248.68,1035.71 1250.71,1035.89 1252.75,1036.06 1254.78,1036.22 
  1256.81,1036.37 1258.85,1036.52 1260.88,1036.66 1262.91,1036.8 1264.95,1036.93 1266.98,1037.06 1269.01,1037.18 1271.05,1037.29 1273.08,1037.4 1275.11,1037.5 
  1277.15,1037.6 1279.18,1037.69 1281.21,1037.78 1283.25,1037.86 1285.28,1037.94 1287.31,1038.01 1289.35,1038.08 1291.38,1038.14 1293.41,1038.2 1295.45,1038.25 
  1297.48,1038.3 1299.51,1038.34 1301.55,1038.38 1303.58,1038.41 1305.61,1038.44 1307.65,1038.46 1309.68,1038.48 1311.72,1038.5 1313.75,1038.51 1315.78,1038.52 
  1317.82,1038.52 1319.85,1038.52 1321.88,1038.51 1323.92,1038.5 1325.95,1038.49 1327.98,1038.47 1330.02,1038.45 1332.05,1038.43 1334.08,1038.4 1336.12,1038.36 
  1338.15,1038.33 1340.18,1038.29 1342.22,1038.24 1344.25,1038.2 1346.28,1038.15 1348.32,1038.09 1350.35,1038.03 1352.38,1037.97 1354.42,1037.91 1356.45,1037.84 
  1358.48,1037.77 1360.52,1037.7 1362.55,1037.62 1364.58,1037.54 1366.62,1037.45 1368.65,1037.37 1370.68,1037.28 1372.72,1037.19 1374.75,1037.09 1376.78,1036.99 
  1378.82,1036.89 1380.85,1036.78 1382.88,1036.68 1384.92,1036.57 1386.95,1036.45 1388.98,1036.34 1391.02,1036.22 1393.05,1036.09 1395.08,1035.96 1397.12,1035.83 
  1399.15,1035.7 1401.18,1035.56 1403.22,1035.42 1405.25,1035.27 1407.29,1035.12 1409.32,1034.97 1411.35,1034.81 1413.39,1034.65 1415.42,1034.49 1417.45,1034.32 
  1419.49,1034.16 1421.52,1033.98 1423.55,1033.81 1425.59,1033.63 1427.62,1033.45 1429.65,1033.26 1431.69,1033.07 1433.72,1032.88 1435.75,1032.69 1437.79,1032.49 
  1439.82,1032.29 1441.85,1032.08 1443.89,1031.88 1445.92,1031.67 1447.95,1031.46 1449.99,1031.24 1452.02,1031.02 1454.05,1030.8 1456.09,1030.57 1458.12,1030.35 
  1460.15,1030.12 1462.19,1029.88 1464.22,1029.65 1466.25,1029.41 1468.29,1029.17 1470.32,1028.92 1472.35,1028.68 1474.39,1028.43 1476.42,1028.17 1478.45,1027.92 
  1480.49,1027.66 1482.52,1027.4 1484.55,1027.13 1486.59,1026.87 1488.62,1026.6 1490.65,1026.33 1492.69,1026.05 1494.72,1025.77 1496.75,1025.5 1498.79,1025.21 
  1500.82,1024.93 1502.85,1024.64 1504.89,1024.35 1506.92,1024.06 1508.96,1023.76 1510.99,1023.47 1513.02,1023.17 1515.06,1022.86 1517.09,1022.56 1519.12,1022.25 
  1521.16,1021.94 1523.19,1021.63 1525.22,1021.31 1527.26,1020.99 1529.29,1020.67 1531.32,1020.35 1533.36,1020.03 1535.39,1019.7 1537.42,1019.37 1539.46,1019.04 
  1541.49,1018.7 1543.52,1018.37 1545.56,1018.03 1547.59,1017.69 1549.62,1017.34 1551.66,1017 1553.69,1016.65 1555.72,1016.3 1557.76,1015.94 1559.79,1015.59 
  1561.82,1015.23 1563.86,1014.87 1565.89,1014.51 1567.92,1014.14 1569.96,1013.78 1571.99,1013.41 1574.02,1013.04 1576.06,1012.66 1578.09,1012.29 1580.12,1011.91 
  1582.16,1011.53 1584.19,1011.15 1586.22,1010.76 1588.26,1010.37 1590.29,1009.99 1592.32,1009.59 1594.36,1009.2 1596.39,1008.8 1598.42,1008.41 1600.46,1008.01 
  1602.49,1007.6 1604.53,1007.2 1606.56,1006.79 1608.59,1006.38 1610.63,1005.97 1612.66,1005.56 1614.69,1005.14 1616.73,1004.73 1618.76,1004.31 1620.79,1003.88 
  1622.83,1003.46 1624.86,1003.03 1626.89,1002.61 1628.93,1002.18 1630.96,1001.74 1632.99,1001.31 1635.03,1000.87 1637.06,1000.43 1639.09,999.993 1641.13,999.551 
  1643.16,999.106 1645.19,998.658 1647.23,998.209 1649.26,997.758 1651.29,997.305 1653.33,996.849 1655.36,996.392 1657.39,995.932 1659.43,995.471 1661.46,995.007 
  1663.49,994.541 1665.53,994.074 1667.56,993.604 1669.59,993.132 1671.63,992.658 1673.66,992.182 1675.69,991.704 1677.73,991.224 1679.76,990.742 1681.79,990.257 
  1683.83,989.771 1685.86,989.283 1687.89,988.793 1689.93,988.3 1691.96,987.806 1693.99,987.31 1696.03,986.811 1698.06,986.311 1700.09,985.809 1702.13,985.304 
  1704.16,984.798 1706.2,984.289 1708.23,983.779 1710.26,983.266 1712.3,982.752 1714.33,982.235 1716.36,981.717 1718.4,981.196 1720.43,980.674 1722.46,980.149 
  1724.5,979.622 1726.53,979.094 1728.56,978.563 1730.6,978.031 1732.63,977.496 1734.66,976.96 1736.7,976.421 1738.73,975.88 1740.76,975.338 1742.8,974.793 
  1744.83,974.247 1746.86,973.698 1748.9,973.148 1750.93,972.595 1752.96,972.04 1755,971.484 1757.03,970.925 1759.06,970.365 1761.1,969.802 1763.13,969.238 
  1765.16,968.671 1767.2,968.103 1769.23,967.532 1771.26,966.96 1773.3,966.385 1775.33,965.809 1777.36,965.23 1779.4,964.65 1781.43,964.067 1783.46,963.483 
  1785.5,962.897 1787.53,962.308 1789.56,961.718 1791.6,961.125 1793.63,960.531 1795.66,959.935 1797.7,959.336 1799.73,958.736 1801.76,958.133 1803.8,957.529 
  1805.83,956.923 1807.87,956.314 1809.9,955.704 1811.93,955.092 1813.97,954.477 1816,953.861 1818.03,953.243 1820.07,952.622 1822.1,952 1824.13,951.376 
  1826.17,950.749 1828.2,950.121 1830.23,949.491 1832.27,948.858 1834.3,948.224 1836.33,947.588 1838.37,946.949 1840.4,946.309 1842.43,945.667 1844.47,945.022 
  1846.5,944.376 1848.53,943.728 1850.57,943.077 1852.6,942.425 1854.63,941.771 1856.67,941.114 1858.7,940.456 1860.73,939.795 1862.77,939.133 1864.8,938.468 
  1866.83,937.802 1868.87,937.133 1870.9,936.463 1872.93,935.79 1874.97,935.116 1877,934.439 1879.03,933.761 1881.07,933.08 1883.1,932.397 1885.13,931.713 
  1887.17,931.026 1889.2,930.337 1891.23,929.646 1893.27,928.954 1895.3,928.259 1897.33,927.562 1899.37,926.863 1901.4,926.162 1903.44,925.459 1905.47,924.754 
  1907.5,924.047 1909.54,923.338 1911.57,922.627 1913.6,921.913 1915.64,921.198 1917.67,920.481 1919.7,919.761 1921.74,919.04 1923.77,918.316 1925.8,917.591 
  1927.84,916.863 1929.87,916.134 1931.9,915.402 1933.94,914.668 1935.97,913.932 1938,913.194 1940.04,912.454 1942.07,911.712 1944.1,910.968 1946.14,910.222 
  1948.17,909.474 1950.2,908.723 1952.24,907.971 1954.27,907.216 1956.3,906.46 1958.34,905.701 1960.37,904.94 1962.4,904.177 1964.44,903.412 1966.47,902.645 
  1968.5,901.876 1970.54,901.105 1972.57,900.332 1974.6,899.556 1976.64,898.779 1978.67,897.999 1980.7,897.217 1982.74,896.434 1984.77,895.648 1986.8,894.859 
  1988.84,894.069 1990.87,893.277 1992.9,892.483 1994.94,891.686 1996.97,890.887 1999,890.087 2001.04,889.284 2003.07,888.479 2005.11,887.671 2007.14,886.862 
  2009.17,886.051 2011.21,885.237 2013.24,884.421 2015.27,883.604 2017.31,882.784 2019.34,881.961 2021.37,881.137 2023.41,880.311 2025.44,879.482 2027.47,878.651 
  2029.51,877.818 2031.54,876.983 2033.57,876.146 2035.61,875.307 2037.64,874.465 2039.67,873.621 2041.71,872.776 2043.74,871.927 2045.77,871.077 2047.81,870.225 
  2049.84,869.37 2051.87,868.513 2053.91,867.655 2055.94,866.793 2057.97,865.93 2060.01,865.065 2062.04,864.197 2064.07,863.327 2066.11,862.455 2068.14,861.58 
  2070.17,860.704 2072.21,859.825 2074.24,858.944 2076.27,858.061 2078.31,857.176 2080.34,856.288 2082.37,855.399 2084.41,854.507 2086.44,853.612 2088.47,852.716 
  2090.51,851.817 2092.54,850.916 2094.57,850.013 2096.61,849.108 2098.64,848.2 2100.68,847.29 2102.71,846.378 2104.74,845.464 2106.78,844.547 2108.81,843.629 
  2110.84,842.708 2112.88,841.784 2114.91,840.859 2116.94,839.931 2118.98,839.001 2121.01,838.068 2123.04,837.134 2125.08,836.197 2127.11,835.258 2129.14,834.316 
  2131.18,833.373 2133.21,832.427 2135.24,831.478 2137.28,830.528 2139.31,829.575 2141.34,828.62 2143.38,827.662 2145.41,826.703 2147.44,825.741 2149.48,824.776 
  2151.51,823.81 2153.54,822.841 2155.58,821.869 2157.61,820.896 2159.64,819.92 2161.68,818.942 2163.71,817.961 2165.74,816.978 2167.78,815.993 2169.81,815.006 
  2171.84,814.016 2173.88,813.024 2175.91,812.029 2177.94,811.033 2179.98,810.033 2182.01,809.032 2184.04,808.028 2186.08,807.022 2188.11,806.013 2190.14,805.003 
  2192.18,803.989 2194.21,802.974 2196.24,801.956 2198.28,800.935 2200.31,799.913 2202.35,798.888 2204.38,797.86 2206.41,796.83 2208.45,795.798 2210.48,794.764 
  2212.51,793.727 2214.55,792.687 2216.58,791.646 2218.61,790.601 2220.65,789.555 2222.68,788.506 2224.71,787.455 2226.75,786.401 2228.78,785.345 2230.81,784.286 
  2232.85,783.225 2234.88,782.162 2236.91,781.096 2238.95,780.028 2240.98,778.957 2243.01,777.884 2245.05,776.809 2247.08,775.731 2249.11,774.651 2251.15,773.568 
  2253.18,772.483 2255.21,771.395 2257.25,770.305 2259.28,769.212 2261.31,768.117 2263.35,767.02 2265.38,765.92 2267.41,764.818 2269.45,763.713 2271.48,762.605 
  2273.51,761.496 2275.55,760.383 2277.58,759.269 2279.61,758.151 2281.65,757.032 2283.68,755.91 2285.71,754.785 2287.75,753.658 2289.78,752.528 2291.81,751.396 
  
  "/>
<polyline clip-path="url(#clip2802)" style="stroke:#3da44d; stroke-width:4; stroke-opacity:1; fill:none" points="
  260.446,1333.78 262.48,1333.35 264.513,1332.91 266.547,1332.47 268.58,1332.03 270.613,1331.59 272.647,1331.15 274.68,1330.7 276.714,1330.25 278.747,1329.8 
  280.78,1329.35 282.814,1328.89 284.847,1328.43 286.881,1327.97 288.914,1327.51 290.947,1327.04 292.981,1326.57 295.014,1326.1 297.048,1325.63 299.081,1325.16 
  301.114,1324.68 303.148,1324.2 305.181,1323.71 307.215,1323.23 309.248,1322.74 311.281,1322.25 313.315,1321.75 315.348,1321.26 317.382,1320.76 319.415,1320.25 
  321.448,1319.75 323.482,1319.24 325.515,1318.73 327.549,1318.21 329.582,1317.69 331.615,1317.17 333.649,1316.65 335.682,1316.12 337.716,1315.59 339.749,1315.05 
  341.782,1314.52 343.816,1313.98 345.849,1313.43 347.883,1312.88 349.916,1312.33 351.949,1311.78 353.983,1311.22 356.016,1310.65 358.05,1310.09 360.083,1309.52 
  362.116,1308.94 364.15,1308.37 366.183,1307.78 368.217,1307.2 370.25,1306.61 372.283,1306.01 374.317,1305.41 376.35,1304.81 378.384,1304.2 380.417,1303.59 
  382.45,1302.98 384.484,1302.36 386.517,1301.73 388.551,1301.1 390.584,1300.47 392.617,1299.83 394.651,1299.18 396.684,1298.54 398.718,1297.88 400.751,1297.22 
  402.784,1296.56 404.818,1295.89 406.851,1295.22 408.885,1294.54 410.918,1293.85 412.951,1293.16 414.985,1292.46 417.018,1291.76 419.052,1291.05 421.085,1290.34 
  423.118,1289.62 425.152,1288.9 427.185,1288.17 429.219,1287.43 431.252,1286.68 433.285,1285.94 435.319,1285.18 437.352,1284.42 439.386,1283.65 441.419,1282.87 
  443.453,1282.09 445.486,1281.3 447.519,1280.5 449.553,1279.7 451.586,1278.89 453.62,1278.07 455.653,1277.25 457.686,1276.41 459.72,1275.57 461.753,1274.73 
  463.787,1273.87 465.82,1273.01 467.853,1272.13 469.887,1271.26 471.92,1270.37 473.954,1269.47 475.987,1268.57 478.02,1267.65 480.054,1266.73 482.087,1265.8 
  484.121,1264.86 486.154,1263.92 488.187,1262.96 490.221,1261.99 492.254,1261.02 494.288,1260.03 496.321,1259.04 498.354,1258.03 500.388,1257.02 502.421,1255.99 
  504.455,1254.96 506.488,1253.92 508.521,1252.86 510.555,1251.79 512.588,1250.72 514.622,1249.63 516.655,1248.53 518.688,1247.43 520.722,1246.31 522.755,1245.18 
  524.789,1244.03 526.822,1242.88 528.855,1241.71 530.889,1240.54 532.922,1239.35 534.956,1238.14 536.989,1236.93 539.022,1235.7 541.056,1234.47 543.089,1233.22 
  545.123,1231.95 547.156,1230.67 549.189,1229.39 551.223,1228.08 553.256,1226.77 555.29,1225.44 557.323,1224.09 559.356,1222.74 561.39,1221.37 563.423,1219.98 
  565.457,1218.58 567.49,1217.17 569.523,1215.75 571.557,1214.31 573.59,1212.85 575.624,1211.38 577.657,1209.9 579.69,1208.4 581.724,1206.88 583.757,1205.35 
  585.791,1203.81 587.824,1202.25 589.857,1200.68 591.891,1199.09 593.924,1197.48 595.958,1195.87 597.991,1194.23 600.024,1192.58 602.058,1190.91 604.091,1189.23 
  606.125,1187.54 608.158,1185.82 610.191,1184.1 612.225,1182.35 614.258,1180.59 616.292,1178.82 618.325,1177.03 620.358,1175.23 622.392,1173.41 624.425,1171.57 
  626.459,1169.72 628.492,1167.85 630.525,1165.97 632.559,1164.08 634.592,1162.17 636.626,1160.24 638.659,1158.31 640.692,1156.35 642.726,1154.39 644.759,1152.41 
  646.793,1150.41 648.826,1148.41 650.86,1146.39 652.893,1144.35 654.926,1142.31 656.96,1140.25 658.993,1138.19 661.027,1136.11 663.06,1134.02 665.093,1131.92 
  667.127,1129.8 669.16,1127.68 671.194,1125.56 673.227,1123.42 675.26,1121.27 677.294,1119.12 679.327,1116.96 681.361,1114.8 683.394,1112.62 685.427,1110.45 
  687.461,1108.27 689.494,1106.09 691.528,1103.9 693.561,1101.71 695.594,1099.52 697.628,1097.34 699.661,1095.15 701.695,1092.96 703.728,1090.78 705.761,1088.6 
  707.795,1086.42 709.828,1084.25 711.862,1082.08 713.895,1079.93 715.928,1077.78 717.962,1075.64 719.995,1073.51 722.029,1071.39 724.062,1069.29 726.095,1067.2 
  728.129,1065.12 730.162,1063.07 732.196,1061.03 734.229,1059 736.262,1057 738.296,1055.02 740.329,1053.07 742.363,1051.13 744.396,1049.23 746.429,1047.35 
  748.463,1045.49 750.496,1043.67 752.53,1041.87 754.563,1040.11 756.596,1038.38 758.63,1036.69 760.663,1035.03 762.697,1033.41 764.73,1031.82 766.763,1030.28 
  768.797,1028.77 770.83,1027.31 772.864,1025.88 774.897,1024.51 776.93,1023.17 778.964,1021.89 780.997,1020.65 783.031,1019.46 785.064,1018.31 787.097,1017.22 
  789.131,1016.18 791.164,1015.18 793.198,1014.25 795.231,1013.36 797.264,1012.53 799.298,1011.75 801.331,1011.02 803.365,1010.35 805.398,1009.74 807.431,1009.18 
  809.465,1008.68 811.498,1008.23 813.532,1007.85 815.565,1007.51 817.598,1007.24 819.632,1007.02 821.665,1006.86 823.699,1006.76 825.732,1006.71 827.765,1006.72 
  829.799,1006.79 831.832,1006.91 833.866,1007.08 835.899,1007.32 837.932,1007.6 839.966,1007.94 841.999,1008.34 844.033,1008.78 846.066,1009.28 848.099,1009.83 
  850.133,1010.43 852.166,1011.08 854.2,1011.78 856.233,1012.53 858.266,1013.32 860.3,1014.16 862.333,1015.04 864.367,1015.96 866.4,1016.93 868.434,1017.94 
  870.467,1018.99 872.5,1020.08 874.534,1021.21 876.567,1022.37 878.601,1023.57 880.634,1024.8 882.667,1026.07 884.701,1027.37 886.734,1028.69 888.768,1030.05 
  890.801,1031.43 892.834,1032.84 894.868,1034.28 896.901,1035.74 898.935,1037.22 900.968,1038.73 903.001,1040.25 905.035,1041.79 907.068,1043.36 909.102,1044.93 
  911.135,1046.53 913.168,1048.13 915.202,1049.75 917.235,1051.39 919.269,1053.03 921.302,1054.68 923.335,1056.35 925.369,1058.01 927.402,1059.69 929.436,1061.37 
  931.469,1063.06 933.502,1064.75 935.536,1066.44 937.569,1068.14 939.603,1069.83 941.636,1071.53 943.669,1073.23 945.703,1074.92 947.736,1076.61 949.77,1078.3 
  951.803,1079.99 953.836,1081.67 955.87,1083.35 957.903,1085.02 959.937,1086.68 961.97,1088.34 964.003,1089.99 966.037,1091.63 968.07,1093.27 970.104,1094.89 
  972.137,1096.51 974.17,1098.12 976.204,1099.71 978.237,1101.3 980.271,1102.87 982.304,1104.44 984.337,1105.99 986.371,1107.53 988.404,1109.06 990.438,1110.57 
  992.471,1112.07 994.504,1113.56 996.538,1115.04 998.571,1116.5 1000.6,1117.95 1002.64,1119.39 1004.67,1120.81 1006.7,1122.21 1008.74,1123.61 1010.77,1124.99 
  1012.81,1126.35 1014.84,1127.7 1016.87,1129.03 1018.91,1130.35 1020.94,1131.66 1022.97,1132.95 1025.01,1134.22 1027.04,1135.48 1029.07,1136.73 1031.11,1137.96 
  1033.14,1139.18 1035.17,1140.38 1037.21,1141.56 1039.24,1142.73 1041.27,1143.89 1043.31,1145.03 1045.34,1146.16 1047.37,1147.27 1049.41,1148.37 1051.44,1149.45 
  1053.47,1150.52 1055.51,1151.57 1057.54,1152.61 1059.57,1153.64 1061.61,1154.65 1063.64,1155.65 1065.67,1156.63 1067.71,1157.6 1069.74,1158.55 1071.77,1159.49 
  1073.81,1160.42 1075.84,1161.34 1077.87,1162.24 1079.91,1163.13 1081.94,1164 1083.97,1164.86 1086.01,1165.71 1088.04,1166.55 1090.07,1167.37 1092.11,1168.18 
  1094.14,1168.98 1096.17,1169.76 1098.21,1170.54 1100.24,1171.3 1102.27,1172.05 1104.31,1172.79 1106.34,1173.51 1108.37,1174.23 1110.41,1174.93 1112.44,1175.62 
  1114.48,1176.3 1116.51,1176.97 1118.54,1177.63 1120.58,1178.28 1122.61,1178.92 1124.64,1179.54 1126.68,1180.16 1128.71,1180.76 1130.74,1181.36 1132.78,1181.94 
  1134.81,1182.52 1136.84,1183.09 1138.88,1183.64 1140.91,1184.19 1142.94,1184.72 1144.98,1185.25 1147.01,1185.77 1149.04,1186.28 1151.08,1186.78 1153.11,1187.27 
  1155.14,1187.75 1157.18,1188.23 1159.21,1188.69 1161.24,1189.15 1163.28,1189.6 1165.31,1190.04 1167.34,1190.47 1169.38,1190.89 1171.41,1191.31 1173.44,1191.72 
  1175.48,1192.12 1177.51,1192.51 1179.54,1192.9 1181.58,1193.27 1183.61,1193.64 1185.64,1194.01 1187.68,1194.36 1189.71,1194.71 1191.74,1195.06 1193.78,1195.39 
  1195.81,1195.72 1197.84,1196.04 1199.88,1196.36 1201.91,1196.67 1203.94,1196.97 1205.98,1197.27 1208.01,1197.56 1210.05,1197.84 1212.08,1198.12 1214.11,1198.39 
  1216.15,1198.66 1218.18,1198.92 1220.21,1199.17 1222.25,1199.42 1224.28,1199.66 1226.31,1199.9 1228.35,1200.13 1230.38,1200.36 1232.41,1200.58 1234.45,1200.8 
  1236.48,1201.01 1238.51,1201.22 1240.55,1201.42 1242.58,1201.61 1244.61,1201.81 1246.65,1201.99 1248.68,1202.17 1250.71,1202.35 1252.75,1202.52 1254.78,1202.69 
  1256.81,1202.86 1258.85,1203.01 1260.88,1203.17 1262.91,1203.32 1264.95,1203.47 1266.98,1203.61 1269.01,1203.74 1271.05,1203.88 1273.08,1204.01 1275.11,1204.13 
  1277.15,1204.26 1279.18,1204.37 1281.21,1204.49 1283.25,1204.6 1285.28,1204.7 1287.31,1204.81 1289.35,1204.91 1291.38,1205 1293.41,1205.09 1295.45,1205.18 
  1297.48,1205.27 1299.51,1205.35 1301.55,1205.43 1303.58,1205.5 1305.61,1205.57 1307.65,1205.64 1309.68,1205.71 1311.72,1205.77 1313.75,1205.83 1315.78,1205.88 
  1317.82,1205.94 1319.85,1205.99 1321.88,1206.04 1323.92,1206.08 1325.95,1206.12 1327.98,1206.16 1330.02,1206.19 1332.05,1206.23 1334.08,1206.26 1336.12,1206.29 
  1338.15,1206.31 1340.18,1206.33 1342.22,1206.35 1344.25,1206.37 1346.28,1206.38 1348.32,1206.4 1350.35,1206.41 1352.38,1206.41 1354.42,1206.42 1356.45,1206.42 
  1358.48,1206.42 1360.52,1206.42 1362.55,1206.41 1364.58,1206.41 1366.62,1206.4 1368.65,1206.39 1370.68,1206.37 1372.72,1206.36 1374.75,1206.34 1376.78,1206.32 
  1378.82,1206.3 1380.85,1206.28 1382.88,1206.25 1384.92,1206.22 1386.95,1206.19 1388.98,1206.16 1391.02,1206.12 1393.05,1206.08 1395.08,1206.04 1397.12,1206 
  1399.15,1205.95 1401.18,1205.91 1403.22,1205.86 1405.25,1205.8 1407.29,1205.75 1409.32,1205.69 1411.35,1205.63 1413.39,1205.56 1415.42,1205.5 1417.45,1205.43 
  1419.49,1205.36 1421.52,1205.29 1423.55,1205.21 1425.59,1205.14 1427.62,1205.06 1429.65,1204.97 1431.69,1204.89 1433.72,1204.8 1435.75,1204.72 1437.79,1204.62 
  1439.82,1204.53 1441.85,1204.44 1443.89,1204.34 1445.92,1204.24 1447.95,1204.14 1449.99,1204.03 1452.02,1203.93 1454.05,1203.82 1456.09,1203.71 1458.12,1203.6 
  1460.15,1203.48 1462.19,1203.37 1464.22,1203.25 1466.25,1203.13 1468.29,1203.01 1470.32,1202.88 1472.35,1202.76 1474.39,1202.63 1476.42,1202.5 1478.45,1202.36 
  1480.49,1202.23 1482.52,1202.09 1484.55,1201.95 1486.59,1201.81 1488.62,1201.67 1490.65,1201.53 1492.69,1201.38 1494.72,1201.24 1496.75,1201.09 1498.79,1200.93 
  1500.82,1200.78 1502.85,1200.63 1504.89,1200.47 1506.92,1200.31 1508.96,1200.15 1510.99,1199.99 1513.02,1199.82 1515.06,1199.66 1517.09,1199.49 1519.12,1199.32 
  1521.16,1199.15 1523.19,1198.97 1525.22,1198.8 1527.26,1198.62 1529.29,1198.44 1531.32,1198.26 1533.36,1198.08 1535.39,1197.9 1537.42,1197.71 1539.46,1197.52 
  1541.49,1197.33 1543.52,1197.14 1545.56,1196.95 1547.59,1196.76 1549.62,1196.56 1551.66,1196.36 1553.69,1196.16 1555.72,1195.96 1557.76,1195.76 1559.79,1195.56 
  1561.82,1195.35 1563.86,1195.14 1565.89,1194.93 1567.92,1194.72 1569.96,1194.51 1571.99,1194.3 1574.02,1194.08 1576.06,1193.86 1578.09,1193.65 1580.12,1193.42 
  1582.16,1193.2 1584.19,1192.98 1586.22,1192.75 1588.26,1192.53 1590.29,1192.3 1592.32,1192.07 1594.36,1191.84 1596.39,1191.6 1598.42,1191.37 1600.46,1191.13 
  1602.49,1190.89 1604.53,1190.65 1606.56,1190.41 1608.59,1190.17 1610.63,1189.93 1612.66,1189.68 1614.69,1189.43 1616.73,1189.18 1618.76,1188.93 1620.79,1188.68 
  1622.83,1188.43 1624.86,1188.17 1626.89,1187.92 1628.93,1187.66 1630.96,1187.4 1632.99,1187.14 1635.03,1186.88 1637.06,1186.61 1639.09,1186.35 1641.13,1186.08 
  1643.16,1185.81 1645.19,1185.54 1647.23,1185.27 1649.26,1184.99 1651.29,1184.72 1653.33,1184.44 1655.36,1184.17 1657.39,1183.89 1659.43,1183.61 1661.46,1183.32 
  1663.49,1183.04 1665.53,1182.76 1667.56,1182.47 1669.59,1182.18 1671.63,1181.89 1673.66,1181.6 1675.69,1181.31 1677.73,1181.01 1679.76,1180.72 1681.79,1180.42 
  1683.83,1180.12 1685.86,1179.82 1687.89,1179.52 1689.93,1179.22 1691.96,1178.91 1693.99,1178.61 1696.03,1178.3 1698.06,1177.99 1700.09,1177.68 1702.13,1177.37 
  1704.16,1177.06 1706.2,1176.74 1708.23,1176.43 1710.26,1176.11 1712.3,1175.79 1714.33,1175.47 1716.36,1175.15 1718.4,1174.82 1720.43,1174.5 1722.46,1174.17 
  1724.5,1173.85 1726.53,1173.52 1728.56,1173.19 1730.6,1172.85 1732.63,1172.52 1734.66,1172.18 1736.7,1171.85 1738.73,1171.51 1740.76,1171.17 1742.8,1170.83 
  1744.83,1170.49 1746.86,1170.14 1748.9,1169.8 1750.93,1169.45 1752.96,1169.1 1755,1168.76 1757.03,1168.4 1759.06,1168.05 1761.1,1167.7 1763.13,1167.34 
  1765.16,1166.99 1767.2,1166.63 1769.23,1166.27 1771.26,1165.91 1773.3,1165.55 1775.33,1165.18 1777.36,1164.82 1779.4,1164.45 1781.43,1164.08 1783.46,1163.71 
  1785.5,1163.34 1787.53,1162.97 1789.56,1162.59 1791.6,1162.22 1793.63,1161.84 1795.66,1161.46 1797.7,1161.08 1799.73,1160.7 1801.76,1160.32 1803.8,1159.93 
  1805.83,1159.55 1807.87,1159.16 1809.9,1158.77 1811.93,1158.38 1813.97,1157.99 1816,1157.6 1818.03,1157.2 1820.07,1156.81 1822.1,1156.41 1824.13,1156.01 
  1826.17,1155.61 1828.2,1155.21 1830.23,1154.81 1832.27,1154.4 1834.3,1154 1836.33,1153.59 1838.37,1153.18 1840.4,1152.77 1842.43,1152.36 1844.47,1151.95 
  1846.5,1151.53 1848.53,1151.11 1850.57,1150.7 1852.6,1150.28 1854.63,1149.86 1856.67,1149.43 1858.7,1149.01 1860.73,1148.59 1862.77,1148.16 1864.8,1147.73 
  1866.83,1147.3 1868.87,1146.87 1870.9,1146.44 1872.93,1146.01 1874.97,1145.57 1877,1145.13 1879.03,1144.69 1881.07,1144.25 1883.1,1143.81 1885.13,1143.37 
  1887.17,1142.93 1889.2,1142.48 1891.23,1142.03 1893.27,1141.59 1895.3,1141.14 1897.33,1140.68 1899.37,1140.23 1901.4,1139.78 1903.44,1139.32 1905.47,1138.86 
  1907.5,1138.4 1909.54,1137.94 1911.57,1137.48 1913.6,1137.02 1915.64,1136.55 1917.67,1136.09 1919.7,1135.62 1921.74,1135.15 1923.77,1134.68 1925.8,1134.2 
  1927.84,1133.73 1929.87,1133.26 1931.9,1132.78 1933.94,1132.3 1935.97,1131.82 1938,1131.34 1940.04,1130.85 1942.07,1130.37 1944.1,1129.88 1946.14,1129.4 
  1948.17,1128.91 1950.2,1128.42 1952.24,1127.92 1954.27,1127.43 1956.3,1126.94 1958.34,1126.44 1960.37,1125.94 1962.4,1125.44 1964.44,1124.94 1966.47,1124.44 
  1968.5,1123.93 1970.54,1123.43 1972.57,1122.92 1974.6,1122.41 1976.64,1121.9 1978.67,1121.39 1980.7,1120.87 1982.74,1120.36 1984.77,1119.84 1986.8,1119.32 
  1988.84,1118.8 1990.87,1118.28 1992.9,1117.76 1994.94,1117.24 1996.97,1116.71 1999,1116.18 2001.04,1115.65 2003.07,1115.12 2005.11,1114.59 2007.14,1114.06 
  2009.17,1113.52 2011.21,1112.98 2013.24,1112.45 2015.27,1111.91 2017.31,1111.36 2019.34,1110.82 2021.37,1110.28 2023.41,1109.73 2025.44,1109.18 2027.47,1108.63 
  2029.51,1108.08 2031.54,1107.53 2033.57,1106.98 2035.61,1106.42 2037.64,1105.86 2039.67,1105.3 2041.71,1104.74 2043.74,1104.18 2045.77,1103.62 2047.81,1103.05 
  2049.84,1102.49 2051.87,1101.92 2053.91,1101.35 2055.94,1100.78 2057.97,1100.2 2060.01,1099.63 2062.04,1099.05 2064.07,1098.47 2066.11,1097.89 2068.14,1097.31 
  2070.17,1096.73 2072.21,1096.14 2074.24,1095.56 2076.27,1094.97 2078.31,1094.38 2080.34,1093.79 2082.37,1093.2 2084.41,1092.6 2086.44,1092.01 2088.47,1091.41 
  2090.51,1090.81 2092.54,1090.21 2094.57,1089.61 2096.61,1089 2098.64,1088.4 2100.68,1087.79 2102.71,1087.18 2104.74,1086.57 2106.78,1085.96 2108.81,1085.35 
  2110.84,1084.73 2112.88,1084.11 2114.91,1083.49 2116.94,1082.87 2118.98,1082.25 2121.01,1081.63 2123.04,1081 2125.08,1080.37 2127.11,1079.75 2129.14,1079.12 
  2131.18,1078.48 2133.21,1077.85 2135.24,1077.21 2137.28,1076.58 2139.31,1075.94 2141.34,1075.3 2143.38,1074.66 2145.41,1074.01 2147.44,1073.37 2149.48,1072.72 
  2151.51,1072.07 2153.54,1071.42 2155.58,1070.77 2157.61,1070.11 2159.64,1069.46 2161.68,1068.8 2163.71,1068.14 2165.74,1067.48 2167.78,1066.82 2169.81,1066.15 
  2171.84,1065.49 2173.88,1064.82 2175.91,1064.15 2177.94,1063.48 2179.98,1062.81 2182.01,1062.13 2184.04,1061.46 2186.08,1060.78 2188.11,1060.1 2190.14,1059.42 
  2192.18,1058.73 2194.21,1058.05 2196.24,1057.36 2198.28,1056.68 2200.31,1055.99 2202.35,1055.29 2204.38,1054.6 2206.41,1053.9 2208.45,1053.21 2210.48,1052.51 
  2212.51,1051.81 2214.55,1051.11 2216.58,1050.4 2218.61,1049.7 2220.65,1048.99 2222.68,1048.28 2224.71,1047.57 2226.75,1046.86 2228.78,1046.14 2230.81,1045.43 
  2232.85,1044.71 2234.88,1043.99 2236.91,1043.27 2238.95,1042.54 2240.98,1041.82 2243.01,1041.09 2245.05,1040.36 2247.08,1039.63 2249.11,1038.9 2251.15,1038.17 
  2253.18,1037.43 2255.21,1036.69 2257.25,1035.95 2259.28,1035.21 2261.31,1034.47 2263.35,1033.72 2265.38,1032.98 2267.41,1032.23 2269.45,1031.48 2271.48,1030.73 
  2273.51,1029.97 2275.55,1029.22 2277.58,1028.46 2279.61,1027.7 2281.65,1026.94 2283.68,1026.18 2285.71,1025.41 2287.75,1024.65 2289.78,1023.88 2291.81,1023.11 
  
  "/>
<polyline clip-path="url(#clip2802)" style="stroke:#c271d2; stroke-width:4; stroke-opacity:1; fill:none" points="
  260.446,1385.24 262.48,1384.99 264.513,1384.74 266.547,1384.48 268.58,1384.23 270.613,1383.97 272.647,1383.72 274.68,1383.46 276.714,1383.2 278.747,1382.94 
  280.78,1382.67 282.814,1382.41 284.847,1382.14 286.881,1381.87 288.914,1381.6 290.947,1381.33 292.981,1381.06 295.014,1380.78 297.048,1380.5 299.081,1380.23 
  301.114,1379.94 303.148,1379.66 305.181,1379.38 307.215,1379.09 309.248,1378.8 311.281,1378.51 313.315,1378.22 315.348,1377.92 317.382,1377.63 319.415,1377.33 
  321.448,1377.03 323.482,1376.72 325.515,1376.42 327.549,1376.11 329.582,1375.8 331.615,1375.49 333.649,1375.17 335.682,1374.86 337.716,1374.54 339.749,1374.22 
  341.782,1373.89 343.816,1373.57 345.849,1373.24 347.883,1372.9 349.916,1372.57 351.949,1372.23 353.983,1371.89 356.016,1371.55 358.05,1371.21 360.083,1370.86 
  362.116,1370.51 364.15,1370.15 366.183,1369.8 368.217,1369.44 370.25,1369.08 372.283,1368.71 374.317,1368.34 376.35,1367.97 378.384,1367.59 380.417,1367.22 
  382.45,1366.84 384.484,1366.45 386.517,1366.06 388.551,1365.67 390.584,1365.28 392.617,1364.88 394.651,1364.47 396.684,1364.07 398.718,1363.66 400.751,1363.25 
  402.784,1362.83 404.818,1362.41 406.851,1361.98 408.885,1361.55 410.918,1361.12 412.951,1360.69 414.985,1360.24 417.018,1359.8 419.052,1359.35 421.085,1358.9 
  423.118,1358.44 425.152,1357.98 427.185,1357.51 429.219,1357.04 431.252,1356.56 433.285,1356.08 435.319,1355.59 437.352,1355.1 439.386,1354.61 441.419,1354.11 
  443.453,1353.6 445.486,1353.09 447.519,1352.57 449.553,1352.05 451.586,1351.53 453.62,1350.99 455.653,1350.46 457.686,1349.91 459.72,1349.36 461.753,1348.81 
  463.787,1348.25 465.82,1347.68 467.853,1347.11 469.887,1346.53 471.92,1345.94 473.954,1345.35 475.987,1344.75 478.02,1344.15 480.054,1343.54 482.087,1342.92 
  484.121,1342.3 486.154,1341.67 488.187,1341.03 490.221,1340.38 492.254,1339.73 494.288,1339.07 496.321,1338.4 498.354,1337.73 500.388,1337.05 502.421,1336.36 
  504.455,1335.66 506.488,1334.96 508.521,1334.24 510.555,1333.52 512.588,1332.79 514.622,1332.06 516.655,1331.31 518.688,1330.56 520.722,1329.79 522.755,1329.02 
  524.789,1328.24 526.822,1327.45 528.855,1326.65 530.889,1325.85 532.922,1325.03 534.956,1324.2 536.989,1323.37 539.022,1322.52 541.056,1321.67 543.089,1320.8 
  545.123,1319.93 547.156,1319.04 549.189,1318.15 551.223,1317.24 553.256,1316.33 555.29,1315.4 557.323,1314.47 559.356,1313.52 561.39,1312.56 563.423,1311.59 
  565.457,1310.61 567.49,1309.62 569.523,1308.62 571.557,1307.61 573.59,1306.58 575.624,1305.55 577.657,1304.5 579.69,1303.44 581.724,1302.37 583.757,1301.29 
  585.791,1300.19 587.824,1299.09 589.857,1297.97 591.891,1296.84 593.924,1295.7 595.958,1294.55 597.991,1293.38 600.024,1292.2 602.058,1291.01 604.091,1289.81 
  606.125,1288.59 608.158,1287.36 610.191,1286.12 612.225,1284.87 614.258,1283.61 616.292,1282.33 618.325,1281.04 620.358,1279.74 622.392,1278.42 624.425,1277.1 
  626.459,1275.76 628.492,1274.41 630.525,1273.05 632.559,1271.67 634.592,1270.29 636.626,1268.89 638.659,1267.48 640.692,1266.06 642.726,1264.63 644.759,1263.19 
  646.793,1261.73 648.826,1260.27 650.86,1258.79 652.893,1257.31 654.926,1255.81 656.96,1254.3 658.993,1252.79 661.027,1251.26 663.06,1249.73 665.093,1248.19 
  667.127,1246.64 669.16,1245.08 671.194,1243.51 673.227,1241.94 675.26,1240.36 677.294,1238.77 679.327,1237.18 681.361,1235.59 683.394,1233.98 685.427,1232.38 
  687.461,1230.77 689.494,1229.15 691.528,1227.54 693.561,1225.92 695.594,1224.3 697.628,1222.68 699.661,1221.06 701.695,1219.43 703.728,1217.82 705.761,1216.2 
  707.795,1214.58 709.828,1212.97 711.862,1211.37 713.895,1209.77 715.928,1208.17 717.962,1206.58 719.995,1205 722.029,1203.43 724.062,1201.87 726.095,1200.31 
  728.129,1198.77 730.162,1197.24 732.196,1195.73 734.229,1194.22 736.262,1192.74 738.296,1191.27 740.329,1189.81 742.363,1188.38 744.396,1186.96 746.429,1185.57 
  748.463,1184.19 750.496,1182.84 752.53,1181.51 754.563,1180.21 756.596,1178.93 758.63,1177.67 760.663,1176.45 762.697,1175.25 764.73,1174.08 766.763,1172.94 
  768.797,1171.83 770.83,1170.76 772.864,1169.71 774.897,1168.7 776.93,1167.73 778.964,1166.79 780.997,1165.89 783.031,1165.02 785.064,1164.19 787.097,1163.4 
  789.131,1162.65 791.164,1161.94 793.198,1161.27 795.231,1160.64 797.264,1160.05 799.298,1159.5 801.331,1159 803.365,1158.54 805.398,1158.12 807.431,1157.74 
  809.465,1157.41 811.498,1157.12 813.532,1156.88 815.565,1156.68 817.598,1156.53 819.632,1156.42 821.665,1156.35 823.699,1156.33 825.732,1156.35 827.765,1156.42 
  829.799,1156.53 831.832,1156.68 833.866,1156.88 835.899,1157.11 837.932,1157.4 839.966,1157.72 841.999,1158.08 844.033,1158.49 846.066,1158.93 848.099,1159.42 
  850.133,1159.94 852.166,1160.51 854.2,1161.11 856.233,1161.75 858.266,1162.42 860.3,1163.13 862.333,1163.87 864.367,1164.65 866.4,1165.46 868.434,1166.3 
  870.467,1167.18 872.5,1168.08 874.534,1169.01 876.567,1169.97 878.601,1170.96 880.634,1171.97 882.667,1173.01 884.701,1174.08 886.734,1175.17 888.768,1176.28 
  890.801,1177.41 892.834,1178.56 894.868,1179.73 896.901,1180.92 898.935,1182.12 900.968,1183.35 903.001,1184.59 905.035,1185.84 907.068,1187.11 909.102,1188.38 
  911.135,1189.67 913.168,1190.98 915.202,1192.29 917.235,1193.61 919.269,1194.94 921.302,1196.27 923.335,1197.61 925.369,1198.96 927.402,1200.31 929.436,1201.67 
  931.469,1203.03 933.502,1204.39 935.536,1205.75 937.569,1207.12 939.603,1208.48 941.636,1209.85 943.669,1211.21 945.703,1212.58 947.736,1213.94 949.77,1215.3 
  951.803,1216.65 953.836,1218 955.87,1219.35 957.903,1220.69 959.937,1222.03 961.97,1223.36 964.003,1224.69 966.037,1226.01 968.07,1227.32 970.104,1228.62 
  972.137,1229.92 974.17,1231.21 976.204,1232.49 978.237,1233.76 980.271,1235.03 982.304,1236.28 984.337,1237.53 986.371,1238.76 988.404,1239.99 990.438,1241.2 
  992.471,1242.41 994.504,1243.61 996.538,1244.79 998.571,1245.96 1000.6,1247.13 1002.64,1248.28 1004.67,1249.42 1006.7,1250.55 1008.74,1251.67 1010.77,1252.77 
  1012.81,1253.87 1014.84,1254.95 1016.87,1256.02 1018.91,1257.08 1020.94,1258.13 1022.97,1259.17 1025.01,1260.2 1027.04,1261.21 1029.07,1262.21 1031.11,1263.2 
  1033.14,1264.18 1035.17,1265.15 1037.21,1266.1 1039.24,1267.04 1041.27,1267.97 1043.31,1268.89 1045.34,1269.8 1047.37,1270.7 1049.41,1271.58 1051.44,1272.46 
  1053.47,1273.32 1055.51,1274.17 1057.54,1275.01 1059.57,1275.84 1061.61,1276.66 1063.64,1277.47 1065.67,1278.26 1067.71,1279.05 1069.74,1279.82 1071.77,1280.58 
  1073.81,1281.34 1075.84,1282.08 1077.87,1282.81 1079.91,1283.53 1081.94,1284.25 1083.97,1284.95 1086.01,1285.64 1088.04,1286.32 1090.07,1286.99 1092.11,1287.65 
  1094.14,1288.31 1096.17,1288.95 1098.21,1289.58 1100.24,1290.21 1102.27,1290.82 1104.31,1291.43 1106.34,1292.02 1108.37,1292.61 1110.41,1293.19 1112.44,1293.76 
  1114.48,1294.32 1116.51,1294.87 1118.54,1295.42 1120.58,1295.95 1122.61,1296.48 1124.64,1297 1126.68,1297.51 1128.71,1298.02 1130.74,1298.51 1132.78,1299 
  1134.81,1299.48 1136.84,1299.95 1138.88,1300.42 1140.91,1300.88 1142.94,1301.33 1144.98,1301.77 1147.01,1302.21 1149.04,1302.64 1151.08,1303.06 1153.11,1303.48 
  1155.14,1303.89 1157.18,1304.29 1159.21,1304.69 1161.24,1305.08 1163.28,1305.46 1165.31,1305.84 1167.34,1306.21 1169.38,1306.58 1171.41,1306.93 1173.44,1307.29 
  1175.48,1307.63 1177.51,1307.98 1179.54,1308.31 1181.58,1308.64 1183.61,1308.97 1185.64,1309.29 1187.68,1309.6 1189.71,1309.91 1191.74,1310.21 1193.78,1310.51 
  1195.81,1310.8 1197.84,1311.09 1199.88,1311.37 1201.91,1311.65 1203.94,1311.93 1205.98,1312.19 1208.01,1312.46 1210.05,1312.72 1212.08,1312.97 1214.11,1313.22 
  1216.15,1313.47 1218.18,1313.71 1220.21,1313.95 1222.25,1314.18 1224.28,1314.41 1226.31,1314.63 1228.35,1314.85 1230.38,1315.07 1232.41,1315.28 1234.45,1315.49 
  1236.48,1315.7 1238.51,1315.9 1240.55,1316.09 1242.58,1316.29 1244.61,1316.48 1246.65,1316.66 1248.68,1316.85 1250.71,1317.03 1252.75,1317.2 1254.78,1317.37 
  1256.81,1317.54 1258.85,1317.71 1260.88,1317.87 1262.91,1318.03 1264.95,1318.19 1266.98,1318.34 1269.01,1318.49 1271.05,1318.64 1273.08,1318.78 1275.11,1318.92 
  1277.15,1319.06 1279.18,1319.2 1281.21,1319.33 1283.25,1319.46 1285.28,1319.59 1287.31,1319.71 1289.35,1319.83 1291.38,1319.95 1293.41,1320.07 1295.45,1320.18 
  1297.48,1320.29 1299.51,1320.4 1301.55,1320.51 1303.58,1320.61 1305.61,1320.71 1307.65,1320.81 1309.68,1320.91 1311.72,1321 1313.75,1321.09 1315.78,1321.18 
  1317.82,1321.27 1319.85,1321.36 1321.88,1321.44 1323.92,1321.52 1325.95,1321.6 1327.98,1321.68 1330.02,1321.75 1332.05,1321.82 1334.08,1321.9 1336.12,1321.96 
  1338.15,1322.03 1340.18,1322.1 1342.22,1322.16 1344.25,1322.22 1346.28,1322.28 1348.32,1322.34 1350.35,1322.4 1352.38,1322.45 1354.42,1322.5 1356.45,1322.55 
  1358.48,1322.6 1360.52,1322.65 1362.55,1322.69 1364.58,1322.74 1366.62,1322.78 1368.65,1322.82 1370.68,1322.86 1372.72,1322.9 1374.75,1322.94 1376.78,1322.97 
  1378.82,1323 1380.85,1323.04 1382.88,1323.07 1384.92,1323.1 1386.95,1323.12 1388.98,1323.15 1391.02,1323.17 1393.05,1323.19 1395.08,1323.21 1397.12,1323.23 
  1399.15,1323.24 1401.18,1323.26 1403.22,1323.27 1405.25,1323.28 1407.29,1323.29 1409.32,1323.3 1411.35,1323.3 1413.39,1323.3 1415.42,1323.3 1417.45,1323.3 
  1419.49,1323.3 1421.52,1323.3 1423.55,1323.29 1425.59,1323.28 1427.62,1323.28 1429.65,1323.27 1431.69,1323.25 1433.72,1323.24 1435.75,1323.22 1437.79,1323.21 
  1439.82,1323.19 1441.85,1323.17 1443.89,1323.15 1445.92,1323.12 1447.95,1323.1 1449.99,1323.07 1452.02,1323.04 1454.05,1323.01 1456.09,1322.98 1458.12,1322.95 
  1460.15,1322.91 1462.19,1322.88 1464.22,1322.84 1466.25,1322.8 1468.29,1322.76 1470.32,1322.72 1472.35,1322.68 1474.39,1322.63 1476.42,1322.59 1478.45,1322.54 
  1480.49,1322.49 1482.52,1322.44 1484.55,1322.39 1486.59,1322.33 1488.62,1322.28 1490.65,1322.22 1492.69,1322.17 1494.72,1322.11 1496.75,1322.05 1498.79,1321.99 
  1500.82,1321.92 1502.85,1321.86 1504.89,1321.79 1506.92,1321.73 1508.96,1321.66 1510.99,1321.59 1513.02,1321.52 1515.06,1321.45 1517.09,1321.37 1519.12,1321.3 
  1521.16,1321.22 1523.19,1321.14 1525.22,1321.06 1527.26,1320.98 1529.29,1320.9 1531.32,1320.82 1533.36,1320.74 1535.39,1320.65 1537.42,1320.57 1539.46,1320.48 
  1541.49,1320.39 1543.52,1320.3 1545.56,1320.21 1547.59,1320.12 1549.62,1320.02 1551.66,1319.93 1553.69,1319.83 1555.72,1319.73 1557.76,1319.63 1559.79,1319.53 
  1561.82,1319.43 1563.86,1319.33 1565.89,1319.23 1567.92,1319.12 1569.96,1319.02 1571.99,1318.91 1574.02,1318.8 1576.06,1318.69 1578.09,1318.58 1580.12,1318.47 
  1582.16,1318.36 1584.19,1318.24 1586.22,1318.13 1588.26,1318.01 1590.29,1317.89 1592.32,1317.77 1594.36,1317.65 1596.39,1317.53 1598.42,1317.41 1600.46,1317.29 
  1602.49,1317.16 1604.53,1317.03 1606.56,1316.91 1608.59,1316.78 1610.63,1316.65 1612.66,1316.52 1614.69,1316.39 1616.73,1316.26 1618.76,1316.12 1620.79,1315.99 
  1622.83,1315.85 1624.86,1315.71 1626.89,1315.58 1628.93,1315.44 1630.96,1315.3 1632.99,1315.15 1635.03,1315.01 1637.06,1314.87 1639.09,1314.72 1641.13,1314.58 
  1643.16,1314.43 1645.19,1314.28 1647.23,1314.13 1649.26,1313.98 1651.29,1313.83 1653.33,1313.68 1655.36,1313.52 1657.39,1313.37 1659.43,1313.21 1661.46,1313.05 
  1663.49,1312.9 1665.53,1312.74 1667.56,1312.58 1669.59,1312.41 1671.63,1312.25 1673.66,1312.09 1675.69,1311.92 1677.73,1311.76 1679.76,1311.59 1681.79,1311.42 
  1683.83,1311.25 1685.86,1311.08 1687.89,1310.91 1689.93,1310.74 1691.96,1310.57 1693.99,1310.39 1696.03,1310.22 1698.06,1310.04 1700.09,1309.86 1702.13,1309.68 
  1704.16,1309.5 1706.2,1309.32 1708.23,1309.14 1710.26,1308.96 1712.3,1308.77 1714.33,1308.59 1716.36,1308.4 1718.4,1308.21 1720.43,1308.02 1722.46,1307.83 
  1724.5,1307.64 1726.53,1307.45 1728.56,1307.26 1730.6,1307.06 1732.63,1306.87 1734.66,1306.67 1736.7,1306.48 1738.73,1306.28 1740.76,1306.08 1742.8,1305.88 
  1744.83,1305.68 1746.86,1305.47 1748.9,1305.27 1750.93,1305.07 1752.96,1304.86 1755,1304.65 1757.03,1304.45 1759.06,1304.24 1761.1,1304.03 1763.13,1303.82 
  1765.16,1303.6 1767.2,1303.39 1769.23,1303.18 1771.26,1302.96 1773.3,1302.74 1775.33,1302.53 1777.36,1302.31 1779.4,1302.09 1781.43,1301.87 1783.46,1301.65 
  1785.5,1301.42 1787.53,1301.2 1789.56,1300.97 1791.6,1300.75 1793.63,1300.52 1795.66,1300.29 1797.7,1300.06 1799.73,1299.83 1801.76,1299.6 1803.8,1299.37 
  1805.83,1299.14 1807.87,1298.9 1809.9,1298.67 1811.93,1298.43 1813.97,1298.19 1816,1297.95 1818.03,1297.71 1820.07,1297.47 1822.1,1297.23 1824.13,1296.98 
  1826.17,1296.74 1828.2,1296.49 1830.23,1296.25 1832.27,1296 1834.3,1295.75 1836.33,1295.5 1838.37,1295.25 1840.4,1295 1842.43,1294.75 1844.47,1294.49 
  1846.5,1294.24 1848.53,1293.98 1850.57,1293.72 1852.6,1293.46 1854.63,1293.2 1856.67,1292.94 1858.7,1292.68 1860.73,1292.42 1862.77,1292.16 1864.8,1291.89 
  1866.83,1291.62 1868.87,1291.36 1870.9,1291.09 1872.93,1290.82 1874.97,1290.55 1877,1290.28 1879.03,1290 1881.07,1289.73 1883.1,1289.46 1885.13,1289.18 
  1887.17,1288.9 1889.2,1288.62 1891.23,1288.35 1893.27,1288.07 1895.3,1287.78 1897.33,1287.5 1899.37,1287.22 1901.4,1286.93 1903.44,1286.65 1905.47,1286.36 
  1907.5,1286.07 1909.54,1285.78 1911.57,1285.49 1913.6,1285.2 1915.64,1284.91 1917.67,1284.61 1919.7,1284.32 1921.74,1284.02 1923.77,1283.73 1925.8,1283.43 
  1927.84,1283.13 1929.87,1282.83 1931.9,1282.53 1933.94,1282.22 1935.97,1281.92 1938,1281.61 1940.04,1281.31 1942.07,1281 1944.1,1280.69 1946.14,1280.38 
  1948.17,1280.07 1950.2,1279.76 1952.24,1279.45 1954.27,1279.13 1956.3,1278.82 1958.34,1278.5 1960.37,1278.19 1962.4,1277.87 1964.44,1277.55 1966.47,1277.23 
  1968.5,1276.9 1970.54,1276.58 1972.57,1276.26 1974.6,1275.93 1976.64,1275.61 1978.67,1275.28 1980.7,1274.95 1982.74,1274.62 1984.77,1274.29 1986.8,1273.96 
  1988.84,1273.62 1990.87,1273.29 1992.9,1272.95 1994.94,1272.61 1996.97,1272.28 1999,1271.94 2001.04,1271.6 2003.07,1271.26 2005.11,1270.91 2007.14,1270.57 
  2009.17,1270.22 2011.21,1269.88 2013.24,1269.53 2015.27,1269.18 2017.31,1268.83 2019.34,1268.48 2021.37,1268.13 2023.41,1267.78 2025.44,1267.42 2027.47,1267.07 
  2029.51,1266.71 2031.54,1266.35 2033.57,1265.99 2035.61,1265.63 2037.64,1265.27 2039.67,1264.91 2041.71,1264.54 2043.74,1264.18 2045.77,1263.81 2047.81,1263.44 
  2049.84,1263.08 2051.87,1262.71 2053.91,1262.34 2055.94,1261.96 2057.97,1261.59 2060.01,1261.21 2062.04,1260.84 2064.07,1260.46 2066.11,1260.08 2068.14,1259.7 
  2070.17,1259.32 2072.21,1258.94 2074.24,1258.56 2076.27,1258.17 2078.31,1257.79 2080.34,1257.4 2082.37,1257.01 2084.41,1256.63 2086.44,1256.24 2088.47,1255.84 
  2090.51,1255.45 2092.54,1255.06 2094.57,1254.66 2096.61,1254.27 2098.64,1253.87 2100.68,1253.47 2102.71,1253.07 2104.74,1252.67 2106.78,1252.26 2108.81,1251.86 
  2110.84,1251.46 2112.88,1251.05 2114.91,1250.64 2116.94,1250.23 2118.98,1249.82 2121.01,1249.41 2123.04,1249 2125.08,1248.59 2127.11,1248.17 2129.14,1247.75 
  2131.18,1247.34 2133.21,1246.92 2135.24,1246.5 2137.28,1246.08 2139.31,1245.65 2141.34,1245.23 2143.38,1244.81 2145.41,1244.38 2147.44,1243.95 2149.48,1243.52 
  2151.51,1243.09 2153.54,1242.66 2155.58,1242.23 2157.61,1241.8 2159.64,1241.36 2161.68,1240.92 2163.71,1240.49 2165.74,1240.05 2167.78,1239.61 2169.81,1239.17 
  2171.84,1238.72 2173.88,1238.28 2175.91,1237.83 2177.94,1237.39 2179.98,1236.94 2182.01,1236.49 2184.04,1236.04 2186.08,1235.59 2188.11,1235.14 2190.14,1234.68 
  2192.18,1234.23 2194.21,1233.77 2196.24,1233.31 2198.28,1232.85 2200.31,1232.39 2202.35,1231.93 2204.38,1231.47 2206.41,1231 2208.45,1230.53 2210.48,1230.07 
  2212.51,1229.6 2214.55,1229.13 2216.58,1228.66 2218.61,1228.18 2220.65,1227.71 2222.68,1227.24 2224.71,1226.76 2226.75,1226.28 2228.78,1225.8 2230.81,1225.32 
  2232.85,1224.84 2234.88,1224.36 2236.91,1223.87 2238.95,1223.39 2240.98,1222.9 2243.01,1222.41 2245.05,1221.92 2247.08,1221.43 2249.11,1220.94 2251.15,1220.44 
  2253.18,1219.95 2255.21,1219.45 2257.25,1218.96 2259.28,1218.46 2261.31,1217.96 2263.35,1217.45 2265.38,1216.95 2267.41,1216.45 2269.45,1215.94 2271.48,1215.43 
  2273.51,1214.92 2275.55,1214.41 2277.58,1213.9 2279.61,1213.39 2281.65,1212.88 2283.68,1212.36 2285.71,1211.84 2287.75,1211.33 2289.78,1210.81 2291.81,1210.29 
  
  "/>
<polyline clip-path="url(#clip2802)" style="stroke:#ac8d18; stroke-width:4; stroke-opacity:1; fill:none" points="
  260.446,1419.54 262.48,1419.41 264.513,1419.28 266.547,1419.16 268.58,1419.03 270.613,1418.9 272.647,1418.76 274.68,1418.63 276.714,1418.5 278.747,1418.36 
  280.78,1418.22 282.814,1418.09 284.847,1417.95 286.881,1417.81 288.914,1417.67 290.947,1417.52 292.981,1417.38 295.014,1417.23 297.048,1417.09 299.081,1416.94 
  301.114,1416.79 303.148,1416.64 305.181,1416.49 307.215,1416.33 309.248,1416.18 311.281,1416.02 313.315,1415.86 315.348,1415.7 317.382,1415.54 319.415,1415.38 
  321.448,1415.21 323.482,1415.05 325.515,1414.88 327.549,1414.71 329.582,1414.54 331.615,1414.37 333.649,1414.19 335.682,1414.02 337.716,1413.84 339.749,1413.66 
  341.782,1413.48 343.816,1413.29 345.849,1413.11 347.883,1412.92 349.916,1412.73 351.949,1412.54 353.983,1412.35 356.016,1412.15 358.05,1411.95 360.083,1411.75 
  362.116,1411.55 364.15,1411.35 366.183,1411.14 368.217,1410.93 370.25,1410.72 372.283,1410.51 374.317,1410.29 376.35,1410.08 378.384,1409.86 380.417,1409.63 
  382.45,1409.41 384.484,1409.18 386.517,1408.95 388.551,1408.72 390.584,1408.48 392.617,1408.24 394.651,1408 396.684,1407.76 398.718,1407.51 400.751,1407.26 
  402.784,1407.01 404.818,1406.75 406.851,1406.5 408.885,1406.23 410.918,1405.97 412.951,1405.7 414.985,1405.43 417.018,1405.16 419.052,1404.88 421.085,1404.6 
  423.118,1404.32 425.152,1404.03 427.185,1403.74 429.219,1403.44 431.252,1403.14 433.285,1402.84 435.319,1402.54 437.352,1402.23 439.386,1401.91 441.419,1401.6 
  443.453,1401.27 445.486,1400.95 447.519,1400.62 449.553,1400.29 451.586,1399.95 453.62,1399.61 455.653,1399.26 457.686,1398.91 459.72,1398.56 461.753,1398.2 
  463.787,1397.83 465.82,1397.46 467.853,1397.09 469.887,1396.71 471.92,1396.33 473.954,1395.94 475.987,1395.55 478.02,1395.15 480.054,1394.74 482.087,1394.33 
  484.121,1393.92 486.154,1393.5 488.187,1393.07 490.221,1392.64 492.254,1392.21 494.288,1391.76 496.321,1391.32 498.354,1390.86 500.388,1390.4 502.421,1389.94 
  504.455,1389.46 506.488,1388.98 508.521,1388.5 510.555,1388.01 512.588,1387.51 514.622,1387.01 516.655,1386.49 518.688,1385.98 520.722,1385.45 522.755,1384.92 
  524.789,1384.38 526.822,1383.83 528.855,1383.28 530.889,1382.72 532.922,1382.15 534.956,1381.57 536.989,1380.99 539.022,1380.4 541.056,1379.8 543.089,1379.19 
  545.123,1378.58 547.156,1377.95 549.189,1377.32 551.223,1376.68 553.256,1376.03 555.29,1375.38 557.323,1374.71 559.356,1374.04 561.39,1373.36 563.423,1372.67 
  565.457,1371.96 567.49,1371.26 569.523,1370.54 571.557,1369.81 573.59,1369.07 575.624,1368.33 577.657,1367.57 579.69,1366.8 581.724,1366.03 583.757,1365.24 
  585.791,1364.45 587.824,1363.65 589.857,1362.83 591.891,1362.01 593.924,1361.18 595.958,1360.33 597.991,1359.48 600.024,1358.61 602.058,1357.74 604.091,1356.86 
  606.125,1355.96 608.158,1355.06 610.191,1354.14 612.225,1353.22 614.258,1352.28 616.292,1351.34 618.325,1350.38 620.358,1349.41 622.392,1348.44 624.425,1347.45 
  626.459,1346.45 628.492,1345.45 630.525,1344.43 632.559,1343.4 634.592,1342.37 636.626,1341.32 638.659,1340.26 640.692,1339.2 642.726,1338.12 644.759,1337.04 
  646.793,1335.94 648.826,1334.84 650.86,1333.73 652.893,1332.61 654.926,1331.48 656.96,1330.34 658.993,1329.19 661.027,1328.04 663.06,1326.87 665.093,1325.7 
  667.127,1324.53 669.16,1323.34 671.194,1322.15 673.227,1320.96 675.26,1319.75 677.294,1318.54 679.327,1317.33 681.361,1316.11 683.394,1314.89 685.427,1313.66 
  687.461,1312.43 689.494,1311.2 691.528,1309.96 693.561,1308.72 695.594,1307.48 697.628,1306.24 699.661,1304.99 701.695,1303.75 703.728,1302.51 705.761,1301.27 
  707.795,1300.03 709.828,1298.79 711.862,1297.56 713.895,1296.33 715.928,1295.1 717.962,1293.88 719.995,1292.66 722.029,1291.45 724.062,1290.25 726.095,1289.06 
  728.129,1287.87 730.162,1286.69 732.196,1285.53 734.229,1284.37 736.262,1283.23 738.296,1282.1 740.329,1280.98 742.363,1279.88 744.396,1278.79 746.429,1277.72 
  748.463,1276.66 750.496,1275.62 752.53,1274.6 754.563,1273.6 756.596,1272.62 758.63,1271.66 760.663,1270.72 762.697,1269.81 764.73,1268.92 766.763,1268.05 
  768.797,1267.21 770.83,1266.39 772.864,1265.6 774.897,1264.83 776.93,1264.1 778.964,1263.39 780.997,1262.71 783.031,1262.06 785.064,1261.44 787.097,1260.85 
  789.131,1260.3 791.164,1259.77 793.198,1259.28 795.231,1258.82 797.264,1258.4 799.298,1258.01 801.331,1257.65 803.365,1257.33 805.398,1257.04 807.431,1256.79 
  809.465,1256.57 811.498,1256.39 813.532,1256.24 815.565,1256.13 817.598,1256.05 819.632,1256.01 821.665,1256.01 823.699,1256.04 825.732,1256.11 827.765,1256.22 
  829.799,1256.35 831.832,1256.53 833.866,1256.74 835.899,1256.98 837.932,1257.26 839.966,1257.57 841.999,1257.91 844.033,1258.29 846.066,1258.7 848.099,1259.14 
  850.133,1259.62 852.166,1260.12 854.2,1260.66 856.233,1261.22 858.266,1261.82 860.3,1262.44 862.333,1263.09 864.367,1263.77 866.4,1264.48 868.434,1265.21 
  870.467,1265.96 872.5,1266.74 874.534,1267.55 876.567,1268.37 878.601,1269.22 880.634,1270.09 882.667,1270.98 884.701,1271.89 886.734,1272.81 888.768,1273.76 
  890.801,1274.72 892.834,1275.7 894.868,1276.69 896.901,1277.7 898.935,1278.73 900.968,1279.76 903.001,1280.81 905.035,1281.87 907.068,1282.94 909.102,1284.02 
  911.135,1285.11 913.168,1286.2 915.202,1287.31 917.235,1288.42 919.269,1289.54 921.302,1290.66 923.335,1291.79 925.369,1292.92 927.402,1294.06 929.436,1295.2 
  931.469,1296.34 933.502,1297.48 935.536,1298.63 937.569,1299.77 939.603,1300.92 941.636,1302.06 943.669,1303.21 945.703,1304.35 947.736,1305.49 949.77,1306.63 
  951.803,1307.76 953.836,1308.89 955.87,1310.02 957.903,1311.14 959.937,1312.26 961.97,1313.38 964.003,1314.48 966.037,1315.59 968.07,1316.69 970.104,1317.78 
  972.137,1318.86 974.17,1319.94 976.204,1321.01 978.237,1322.07 980.271,1323.13 982.304,1324.18 984.337,1325.22 986.371,1326.25 988.404,1327.28 990.438,1328.29 
  992.471,1329.3 994.504,1330.3 996.538,1331.29 998.571,1332.27 1000.6,1333.24 1002.64,1334.21 1004.67,1335.16 1006.7,1336.1 1008.74,1337.04 1010.77,1337.96 
  1012.81,1338.88 1014.84,1339.79 1016.87,1340.68 1018.91,1341.57 1020.94,1342.45 1022.97,1343.32 1025.01,1344.18 1027.04,1345.02 1029.07,1345.86 1031.11,1346.69 
  1033.14,1347.51 1035.17,1348.32 1037.21,1349.12 1039.24,1349.92 1041.27,1350.7 1043.31,1351.47 1045.34,1352.23 1047.37,1352.99 1049.41,1353.73 1051.44,1354.46 
  1053.47,1355.19 1055.51,1355.91 1057.54,1356.61 1059.57,1357.31 1061.61,1358 1063.64,1358.68 1065.67,1359.35 1067.71,1360.01 1069.74,1360.67 1071.77,1361.31 
  1073.81,1361.95 1075.84,1362.58 1077.87,1363.19 1079.91,1363.81 1081.94,1364.41 1083.97,1365 1086.01,1365.59 1088.04,1366.17 1090.07,1366.74 1092.11,1367.3 
  1094.14,1367.86 1096.17,1368.4 1098.21,1368.94 1100.24,1369.48 1102.27,1370 1104.31,1370.52 1106.34,1371.03 1108.37,1371.53 1110.41,1372.03 1112.44,1372.52 
  1114.48,1373 1116.51,1373.47 1118.54,1373.94 1120.58,1374.4 1122.61,1374.86 1124.64,1375.31 1126.68,1375.75 1128.71,1376.18 1130.74,1376.61 1132.78,1377.04 
  1134.81,1377.46 1136.84,1377.87 1138.88,1378.27 1140.91,1378.67 1142.94,1379.07 1144.98,1379.45 1147.01,1379.84 1149.04,1380.21 1151.08,1380.59 1153.11,1380.95 
  1155.14,1381.31 1157.18,1381.67 1159.21,1382.02 1161.24,1382.36 1163.28,1382.7 1165.31,1383.04 1167.34,1383.37 1169.38,1383.7 1171.41,1384.02 1173.44,1384.33 
  1175.48,1384.65 1177.51,1384.95 1179.54,1385.26 1181.58,1385.55 1183.61,1385.85 1185.64,1386.14 1187.68,1386.42 1189.71,1386.7 1191.74,1386.98 1193.78,1387.25 
  1195.81,1387.52 1197.84,1387.79 1199.88,1388.05 1201.91,1388.31 1203.94,1388.56 1205.98,1388.81 1208.01,1389.06 1210.05,1389.3 1212.08,1389.54 1214.11,1389.78 
  1216.15,1390.01 1218.18,1390.24 1220.21,1390.46 1222.25,1390.68 1224.28,1390.9 1226.31,1391.12 1228.35,1391.33 1230.38,1391.54 1232.41,1391.75 1234.45,1391.95 
  1236.48,1392.15 1238.51,1392.35 1240.55,1392.54 1242.58,1392.74 1244.61,1392.92 1246.65,1393.11 1248.68,1393.29 1250.71,1393.48 1252.75,1393.65 1254.78,1393.83 
  1256.81,1394 1258.85,1394.17 1260.88,1394.34 1262.91,1394.51 1264.95,1394.67 1266.98,1394.83 1269.01,1394.99 1271.05,1395.14 1273.08,1395.3 1275.11,1395.45 
  1277.15,1395.6 1279.18,1395.74 1281.21,1395.89 1283.25,1396.03 1285.28,1396.17 1287.31,1396.31 1289.35,1396.45 1291.38,1396.58 1293.41,1396.71 1295.45,1396.85 
  1297.48,1396.97 1299.51,1397.1 1301.55,1397.23 1303.58,1397.35 1305.61,1397.47 1307.65,1397.59 1309.68,1397.71 1311.72,1397.82 1313.75,1397.94 1315.78,1398.05 
  1317.82,1398.16 1319.85,1398.27 1321.88,1398.38 1323.92,1398.48 1325.95,1398.59 1327.98,1398.69 1330.02,1398.79 1332.05,1398.89 1334.08,1398.99 1336.12,1399.08 
  1338.15,1399.18 1340.18,1399.27 1342.22,1399.37 1344.25,1399.46 1346.28,1399.55 1348.32,1399.63 1350.35,1399.72 1352.38,1399.81 1354.42,1399.89 1356.45,1399.97 
  1358.48,1400.06 1360.52,1400.14 1362.55,1400.22 1364.58,1400.29 1366.62,1400.37 1368.65,1400.45 1370.68,1400.52 1372.72,1400.59 1374.75,1400.67 1376.78,1400.74 
  1378.82,1400.81 1380.85,1400.88 1382.88,1400.94 1384.92,1401.01 1386.95,1401.08 1388.98,1401.14 1391.02,1401.2 1393.05,1401.26 1395.08,1401.32 1397.12,1401.38 
  1399.15,1401.44 1401.18,1401.49 1403.22,1401.55 1405.25,1401.6 1407.29,1401.65 1409.32,1401.7 1411.35,1401.75 1413.39,1401.8 1415.42,1401.84 1417.45,1401.89 
  1419.49,1401.93 1421.52,1401.97 1423.55,1402.01 1425.59,1402.05 1427.62,1402.09 1429.65,1402.13 1431.69,1402.16 1433.72,1402.2 1435.75,1402.23 1437.79,1402.26 
  1439.82,1402.29 1441.85,1402.32 1443.89,1402.35 1445.92,1402.38 1447.95,1402.4 1449.99,1402.43 1452.02,1402.45 1454.05,1402.47 1456.09,1402.49 1458.12,1402.52 
  1460.15,1402.53 1462.19,1402.55 1464.22,1402.57 1466.25,1402.58 1468.29,1402.6 1470.32,1402.61 1472.35,1402.62 1474.39,1402.64 1476.42,1402.65 1478.45,1402.66 
  1480.49,1402.66 1482.52,1402.67 1484.55,1402.68 1486.59,1402.68 1488.62,1402.68 1490.65,1402.69 1492.69,1402.69 1494.72,1402.69 1496.75,1402.69 1498.79,1402.69 
  1500.82,1402.68 1502.85,1402.68 1504.89,1402.68 1506.92,1402.67 1508.96,1402.66 1510.99,1402.66 1513.02,1402.65 1515.06,1402.64 1517.09,1402.63 1519.12,1402.62 
  1521.16,1402.6 1523.19,1402.59 1525.22,1402.58 1527.26,1402.56 1529.29,1402.54 1531.32,1402.53 1533.36,1402.51 1535.39,1402.49 1537.42,1402.47 1539.46,1402.45 
  1541.49,1402.43 1543.52,1402.4 1545.56,1402.38 1547.59,1402.35 1549.62,1402.33 1551.66,1402.3 1553.69,1402.27 1555.72,1402.25 1557.76,1402.22 1559.79,1402.19 
  1561.82,1402.15 1563.86,1402.12 1565.89,1402.09 1567.92,1402.05 1569.96,1402.02 1571.99,1401.98 1574.02,1401.95 1576.06,1401.91 1578.09,1401.87 1580.12,1401.83 
  1582.16,1401.79 1584.19,1401.75 1586.22,1401.71 1588.26,1401.66 1590.29,1401.62 1592.32,1401.58 1594.36,1401.53 1596.39,1401.48 1598.42,1401.44 1600.46,1401.39 
  1602.49,1401.34 1604.53,1401.29 1606.56,1401.24 1608.59,1401.19 1610.63,1401.13 1612.66,1401.08 1614.69,1401.03 1616.73,1400.97 1618.76,1400.91 1620.79,1400.86 
  1622.83,1400.8 1624.86,1400.74 1626.89,1400.68 1628.93,1400.62 1630.96,1400.56 1632.99,1400.5 1635.03,1400.43 1637.06,1400.37 1639.09,1400.31 1641.13,1400.24 
  1643.16,1400.17 1645.19,1400.11 1647.23,1400.04 1649.26,1399.97 1651.29,1399.9 1653.33,1399.83 1655.36,1399.76 1657.39,1399.69 1659.43,1399.61 1661.46,1399.54 
  1663.49,1399.47 1665.53,1399.39 1667.56,1399.31 1669.59,1399.24 1671.63,1399.16 1673.66,1399.08 1675.69,1399 1677.73,1398.92 1679.76,1398.84 1681.79,1398.76 
  1683.83,1398.67 1685.86,1398.59 1687.89,1398.51 1689.93,1398.42 1691.96,1398.33 1693.99,1398.25 1696.03,1398.16 1698.06,1398.07 1700.09,1397.98 1702.13,1397.89 
  1704.16,1397.8 1706.2,1397.71 1708.23,1397.61 1710.26,1397.52 1712.3,1397.43 1714.33,1397.33 1716.36,1397.23 1718.4,1397.14 1720.43,1397.04 1722.46,1396.94 
  1724.5,1396.84 1726.53,1396.74 1728.56,1396.64 1730.6,1396.54 1732.63,1396.44 1734.66,1396.33 1736.7,1396.23 1738.73,1396.12 1740.76,1396.02 1742.8,1395.91 
  1744.83,1395.8 1746.86,1395.69 1748.9,1395.59 1750.93,1395.47 1752.96,1395.36 1755,1395.25 1757.03,1395.14 1759.06,1395.03 1761.1,1394.91 1763.13,1394.8 
  1765.16,1394.68 1767.2,1394.57 1769.23,1394.45 1771.26,1394.33 1773.3,1394.21 1775.33,1394.09 1777.36,1393.97 1779.4,1393.85 1781.43,1393.73 1783.46,1393.6 
  1785.5,1393.48 1787.53,1393.35 1789.56,1393.23 1791.6,1393.1 1793.63,1392.97 1795.66,1392.85 1797.7,1392.72 1799.73,1392.59 1801.76,1392.46 1803.8,1392.33 
  1805.83,1392.19 1807.87,1392.06 1809.9,1391.93 1811.93,1391.79 1813.97,1391.66 1816,1391.52 1818.03,1391.38 1820.07,1391.24 1822.1,1391.11 1824.13,1390.97 
  1826.17,1390.83 1828.2,1390.68 1830.23,1390.54 1832.27,1390.4 1834.3,1390.25 1836.33,1390.11 1838.37,1389.96 1840.4,1389.82 1842.43,1389.67 1844.47,1389.52 
  1846.5,1389.37 1848.53,1389.22 1850.57,1389.07 1852.6,1388.92 1854.63,1388.77 1856.67,1388.62 1858.7,1388.46 1860.73,1388.31 1862.77,1388.15 1864.8,1388 
  1866.83,1387.84 1868.87,1387.68 1870.9,1387.52 1872.93,1387.36 1874.97,1387.2 1877,1387.04 1879.03,1386.88 1881.07,1386.72 1883.1,1386.55 1885.13,1386.39 
  1887.17,1386.22 1889.2,1386.05 1891.23,1385.89 1893.27,1385.72 1895.3,1385.55 1897.33,1385.38 1899.37,1385.21 1901.4,1385.04 1903.44,1384.86 1905.47,1384.69 
  1907.5,1384.52 1909.54,1384.34 1911.57,1384.17 1913.6,1383.99 1915.64,1383.81 1917.67,1383.63 1919.7,1383.45 1921.74,1383.27 1923.77,1383.09 1925.8,1382.91 
  1927.84,1382.73 1929.87,1382.54 1931.9,1382.36 1933.94,1382.17 1935.97,1381.99 1938,1381.8 1940.04,1381.61 1942.07,1381.42 1944.1,1381.23 1946.14,1381.04 
  1948.17,1380.85 1950.2,1380.66 1952.24,1380.46 1954.27,1380.27 1956.3,1380.07 1958.34,1379.88 1960.37,1379.68 1962.4,1379.48 1964.44,1379.29 1966.47,1379.09 
  1968.5,1378.89 1970.54,1378.68 1972.57,1378.48 1974.6,1378.28 1976.64,1378.08 1978.67,1377.87 1980.7,1377.67 1982.74,1377.46 1984.77,1377.25 1986.8,1377.04 
  1988.84,1376.83 1990.87,1376.62 1992.9,1376.41 1994.94,1376.2 1996.97,1375.99 1999,1375.77 2001.04,1375.56 2003.07,1375.34 2005.11,1375.13 2007.14,1374.91 
  2009.17,1374.69 2011.21,1374.47 2013.24,1374.25 2015.27,1374.03 2017.31,1373.81 2019.34,1373.59 2021.37,1373.36 2023.41,1373.14 2025.44,1372.91 2027.47,1372.69 
  2029.51,1372.46 2031.54,1372.23 2033.57,1372 2035.61,1371.77 2037.64,1371.54 2039.67,1371.31 2041.71,1371.08 2043.74,1370.84 2045.77,1370.61 2047.81,1370.37 
  2049.84,1370.14 2051.87,1369.9 2053.91,1369.66 2055.94,1369.42 2057.97,1369.18 2060.01,1368.94 2062.04,1368.7 2064.07,1368.45 2066.11,1368.21 2068.14,1367.97 
  2070.17,1367.72 2072.21,1367.47 2074.24,1367.23 2076.27,1366.98 2078.31,1366.73 2080.34,1366.48 2082.37,1366.23 2084.41,1365.97 2086.44,1365.72 2088.47,1365.47 
  2090.51,1365.21 2092.54,1364.95 2094.57,1364.7 2096.61,1364.44 2098.64,1364.18 2100.68,1363.92 2102.71,1363.66 2104.74,1363.4 2106.78,1363.14 2108.81,1362.87 
  2110.84,1362.61 2112.88,1362.34 2114.91,1362.07 2116.94,1361.81 2118.98,1361.54 2121.01,1361.27 2123.04,1361 2125.08,1360.73 2127.11,1360.45 2129.14,1360.18 
  2131.18,1359.91 2133.21,1359.63 2135.24,1359.36 2137.28,1359.08 2139.31,1358.8 2141.34,1358.52 2143.38,1358.24 2145.41,1357.96 2147.44,1357.68 2149.48,1357.39 
  2151.51,1357.11 2153.54,1356.82 2155.58,1356.54 2157.61,1356.25 2159.64,1355.96 2161.68,1355.67 2163.71,1355.38 2165.74,1355.09 2167.78,1354.8 2169.81,1354.51 
  2171.84,1354.21 2173.88,1353.92 2175.91,1353.62 2177.94,1353.33 2179.98,1353.03 2182.01,1352.73 2184.04,1352.43 2186.08,1352.13 2188.11,1351.83 2190.14,1351.52 
  2192.18,1351.22 2194.21,1350.92 2196.24,1350.61 2198.28,1350.3 2200.31,1349.99 2202.35,1349.69 2204.38,1349.38 2206.41,1349.06 2208.45,1348.75 2210.48,1348.44 
  2212.51,1348.13 2214.55,1347.81 2216.58,1347.49 2218.61,1347.18 2220.65,1346.86 2222.68,1346.54 2224.71,1346.22 2226.75,1345.9 2228.78,1345.58 2230.81,1345.25 
  2232.85,1344.93 2234.88,1344.6 2236.91,1344.28 2238.95,1343.95 2240.98,1343.62 2243.01,1343.29 2245.05,1342.96 2247.08,1342.63 2249.11,1342.3 2251.15,1341.96 
  2253.18,1341.63 2255.21,1341.29 2257.25,1340.96 2259.28,1340.62 2261.31,1340.28 2263.35,1339.94 2265.38,1339.6 2267.41,1339.26 2269.45,1338.91 2271.48,1338.57 
  2273.51,1338.23 2275.55,1337.88 2277.58,1337.53 2279.61,1337.18 2281.65,1336.83 2283.68,1336.48 2285.71,1336.13 2287.75,1335.78 2289.78,1335.43 2291.81,1335.07 
  
  "/>
<path clip-path="url(#clip2800)" d="
M1886.92 493.644 L2280.76 493.644 L2280.76 130.764 L1886.92 130.764  Z
  " fill="#ffffff" fill-rule="evenodd" fill-opacity="1"/>
<polyline clip-path="url(#clip2800)" style="stroke:#000000; stroke-width:4; stroke-opacity:1; fill:none" points="
  1886.92,493.644 2280.76,493.644 2280.76,130.764 1886.92,130.764 1886.92,493.644 
  "/>
<polyline clip-path="url(#clip2800)" style="stroke:#009af9; stroke-width:4; stroke-opacity:1; fill:none" points="
  1910.92,191.244 2054.92,191.244 
  "/>
<g clip-path="url(#clip2800)">
<text style="fill:#000000; fill-opacity:1; font-family:Arial,Helvetica Neue,Helvetica,sans-serif; font-size:48px; text-anchor:start;" transform="rotate(0, 2078.92, 208.744)" x="2078.92" y="208.744">Rv=2.0</text>
</g>
<polyline clip-path="url(#clip2800)" style="stroke:#e26f46; stroke-width:4; stroke-opacity:1; fill:none" points="
  1910.92,251.724 2054.92,251.724 
  "/>
<g clip-path="url(#clip2800)">
<text style="fill:#000000; fill-opacity:1; font-family:Arial,Helvetica Neue,Helvetica,sans-serif; font-size:48px; text-anchor:start;" transform="rotate(0, 2078.92, 269.224)" x="2078.92" y="269.224">Rv=3.1</text>
</g>
<polyline clip-path="url(#clip2800)" style="stroke:#3da44d; stroke-width:4; stroke-opacity:1; fill:none" points="
  1910.92,312.204 2054.92,312.204 
  "/>
<g clip-path="url(#clip2800)">
<text style="fill:#000000; fill-opacity:1; font-family:Arial,Helvetica Neue,Helvetica,sans-serif; font-size:48px; text-anchor:start;" transform="rotate(0, 2078.92, 329.704)" x="2078.92" y="329.704">Rv=4.0</text>
</g>
<polyline clip-path="url(#clip2800)" style="stroke:#c271d2; stroke-width:4; stroke-opacity:1; fill:none" points="
  1910.92,372.684 2054.92,372.684 
  "/>
<g clip-path="url(#clip2800)">
<text style="fill:#000000; fill-opacity:1; font-family:Arial,Helvetica Neue,Helvetica,sans-serif; font-size:48px; text-anchor:start;" transform="rotate(0, 2078.92, 390.184)" x="2078.92" y="390.184">Rv=5.0</text>
</g>
<polyline clip-path="url(#clip2800)" style="stroke:#ac8d18; stroke-width:4; stroke-opacity:1; fill:none" points="
  1910.92,433.164 2054.92,433.164 
  "/>
<g clip-path="url(#clip2800)">
<text style="fill:#000000; fill-opacity:1; font-family:Arial,Helvetica Neue,Helvetica,sans-serif; font-size:48px; text-anchor:start;" transform="rotate(0, 2078.92, 450.664)" x="2078.92" y="450.664">Rv=6.0</text>
</g>
</svg>
